<svg version="1.1" xmlns="http://www.w3.org/2000/svg" xmlns:xlink="http://www.w3.org/1999/xlink" stroke-linecap="round" stroke-linejoin="round" stroke-width="0" fill-rule="evenodd" clip-rule="evenodd" id="krjalWc2usT_-w8ofuO1_bottom" viewBox="22 625.24 2100 2450" width="2.1in" height="2.45in" class="w-100 h-100"><defs><style>.krjalWc2usT_-w8ofuO1_fr4 {color: #666666;}
.krjalWc2usT_-w8ofuO1_cu {color: #cccccc;}
.krjalWc2usT_-w8ofuO1_cf {color: #cc9933;}
.krjalWc2usT_-w8ofuO1_sm {color: #004200; opacity: 0.75;}
.krjalWc2usT_-w8ofuO1_ss {color: #ffffff;}
.krjalWc2usT_-w8ofuO1_sp {color: #999999;}
.krjalWc2usT_-w8ofuO1_out {color: #000000;}</style><circle cx="0" cy="0" r="41" id="MEDrlzcg1alYb7ZZJ9wG_pad-10"/><rect x="-86.675" y="-86.675" width="173.35" height="173.35" id="MEDrlzcg1alYb7ZZJ9wG_pad-11"/><circle cx="0" cy="0" r="30" id="MEDrlzcg1alYb7ZZJ9wG_pad-12"/><polygon points="29.99994,12.42638 12.42638,29.99994 -12.42638,29.99994 -29.99994,12.42638 -29.99994,-12.42638 -12.42638,-29.99994 12.42638,-29.99994 29.99994,-12.42638" id="MEDrlzcg1alYb7ZZJ9wG_pad-13"/><rect x="-33.53" y="-43.37" width="67.06" height="86.74" id="MEDrlzcg1alYb7ZZJ9wG_pad-14"/><polygon points="35.49993,14.70455 14.70455,35.49993 -14.70455,35.49993 -35.49993,14.70455 -35.49993,-14.70455 -14.70455,-35.49993 14.70455,-35.49993 35.49993,-14.70455" id="MEDrlzcg1alYb7ZZJ9wG_pad-17"/><circle cx="0" cy="0" r="35.5" id="MEDrlzcg1alYb7ZZJ9wG_pad-18"/><circle cx="0" cy="0" r="37" id="MEDrlzcg1alYb7ZZJ9wG_pad-19"/><rect x="-43.37" y="-33.53" width="86.74" height="67.06" id="MEDrlzcg1alYb7ZZJ9wG_pad-20"/><circle cx="0" cy="0" r="24" id="MEDrlzcg1alYb7ZZJ9wG_pad-21"/><circle cx="0" cy="0" r="37" id="QWVN2PhaP7Rf_Ei1NJf7_pad-10"/><rect x="-82.675" y="-82.675" width="165.35" height="165.35" id="QWVN2PhaP7Rf_Ei1NJf7_pad-11"/><circle cx="0" cy="0" r="26" id="QWVN2PhaP7Rf_Ei1NJf7_pad-12"/><polygon points="25.99995,10.76953 10.76953,25.99995 -10.76953,25.99995 -25.99995,10.76953 -25.99995,-10.76953 -10.76953,-25.99995 10.76953,-25.99995 25.99995,-10.76953" id="QWVN2PhaP7Rf_Ei1NJf7_pad-13"/><rect x="-29.53" y="-39.37" width="59.06" height="78.74" id="QWVN2PhaP7Rf_Ei1NJf7_pad-14"/><polygon points="31.49994,13.0477 13.0477,31.49994 -13.0477,31.49994 -31.49994,13.0477 -31.49994,-13.0477 -13.0477,-31.49994 13.0477,-31.49994 31.49994,-13.0477" id="QWVN2PhaP7Rf_Ei1NJf7_pad-17"/><circle cx="0" cy="0" r="31.5" id="QWVN2PhaP7Rf_Ei1NJf7_pad-18"/><circle cx="0" cy="0" r="33" id="QWVN2PhaP7Rf_Ei1NJf7_pad-19"/><rect x="-39.37" y="-29.53" width="78.74" height="59.06" id="QWVN2PhaP7Rf_Ei1NJf7_pad-20"/><circle cx="0" cy="0" r="20" id="QWVN2PhaP7Rf_Ei1NJf7_pad-22"/><rect x="-9.845" y="-31.495" width="19.69" height="62.99" id="h8izyUBXA6Fm9s-Debdn_pad-13"/><rect x="-31.495" y="-9.845" width="62.99" height="19.69" id="h8izyUBXA6Fm9s-Debdn_pad-14"/><circle cx="0" cy="0" r="12" id="F0BG0djjbfyblxdr-xI2_pad-1"/><circle cx="0" cy="0" r="16" id="F0BG0djjbfyblxdr-xI2_pad-2"/><circle cx="0" cy="0" r="20" id="F0BG0djjbfyblxdr-xI2_pad-3"/><circle cx="0" cy="0" r="22" id="F0BG0djjbfyblxdr-xI2_pad-4"/><circle cx="0" cy="0" r="59.05" id="F0BG0djjbfyblxdr-xI2_pad-5"/><g id="krjalWc2usT_-w8ofuO1_bottom_soldermask"><use xlink:href="#MEDrlzcg1alYb7ZZJ9wG_pad-10" x="122" y="1015.24"/><use xlink:href="#MEDrlzcg1alYb7ZZJ9wG_pad-10" x="122" y="1115.24"/><use xlink:href="#MEDrlzcg1alYb7ZZJ9wG_pad-10" x="122" y="1215.24"/><use xlink:href="#MEDrlzcg1alYb7ZZJ9wG_pad-10" x="122" y="1315.24"/><use xlink:href="#MEDrlzcg1alYb7ZZJ9wG_pad-10" x="122" y="1415.24"/><use xlink:href="#MEDrlzcg1alYb7ZZJ9wG_pad-10" x="122" y="1515.24"/><use xlink:href="#MEDrlzcg1alYb7ZZJ9wG_pad-10" x="122" y="1615.24"/><use xlink:href="#MEDrlzcg1alYb7ZZJ9wG_pad-10" x="122" y="1715.24"/><use xlink:href="#MEDrlzcg1alYb7ZZJ9wG_pad-10" x="122" y="1815.24"/><use xlink:href="#MEDrlzcg1alYb7ZZJ9wG_pad-10" x="122" y="1915.24"/><use xlink:href="#MEDrlzcg1alYb7ZZJ9wG_pad-10" x="122" y="2075.24"/><use xlink:href="#MEDrlzcg1alYb7ZZJ9wG_pad-10" x="122" y="2175.24"/><use xlink:href="#MEDrlzcg1alYb7ZZJ9wG_pad-10" x="122" y="2275.24"/><use xlink:href="#MEDrlzcg1alYb7ZZJ9wG_pad-10" x="122" y="2375.24"/><use xlink:href="#MEDrlzcg1alYb7ZZJ9wG_pad-10" x="122" y="2475.24"/><use xlink:href="#MEDrlzcg1alYb7ZZJ9wG_pad-10" x="122" y="2575.24"/><use xlink:href="#MEDrlzcg1alYb7ZZJ9wG_pad-10" x="122" y="2675.24"/><use xlink:href="#MEDrlzcg1alYb7ZZJ9wG_pad-10" x="122" y="2775.24"/><use xlink:href="#MEDrlzcg1alYb7ZZJ9wG_pad-10" x="923.97" y="2780.75"/><use xlink:href="#MEDrlzcg1alYb7ZZJ9wG_pad-10" x="923.97" y="2880.75"/><use xlink:href="#MEDrlzcg1alYb7ZZJ9wG_pad-10" x="1023.97" y="2880.75"/><use xlink:href="#MEDrlzcg1alYb7ZZJ9wG_pad-10" x="1023.97" y="2780.75"/><use xlink:href="#MEDrlzcg1alYb7ZZJ9wG_pad-10" x="1123.97" y="2780.75"/><use xlink:href="#MEDrlzcg1alYb7ZZJ9wG_pad-10" x="1123.97" y="2880.75"/><use xlink:href="#MEDrlzcg1alYb7ZZJ9wG_pad-10" x="1572" y="2825.24"/><use xlink:href="#MEDrlzcg1alYb7ZZJ9wG_pad-10" x="1672" y="2825.24"/><use xlink:href="#MEDrlzcg1alYb7ZZJ9wG_pad-10" x="1772" y="2825.24"/><use xlink:href="#MEDrlzcg1alYb7ZZJ9wG_pad-10" x="1872" y="2825.24"/><use xlink:href="#MEDrlzcg1alYb7ZZJ9wG_pad-10" x="2022" y="2775.24"/><use xlink:href="#MEDrlzcg1alYb7ZZJ9wG_pad-10" x="2022" y="2675.24"/><use xlink:href="#MEDrlzcg1alYb7ZZJ9wG_pad-10" x="2022" y="2575.24"/><use xlink:href="#MEDrlzcg1alYb7ZZJ9wG_pad-10" x="2022" y="2475.24"/><use xlink:href="#MEDrlzcg1alYb7ZZJ9wG_pad-10" x="2022" y="2375.24"/><use xlink:href="#MEDrlzcg1alYb7ZZJ9wG_pad-10" x="2022" y="2275.24"/><use xlink:href="#MEDrlzcg1alYb7ZZJ9wG_pad-10" x="2022" y="2075.24"/><use xlink:href="#MEDrlzcg1alYb7ZZJ9wG_pad-10" x="2022" y="1975.24"/><use xlink:href="#MEDrlzcg1alYb7ZZJ9wG_pad-10" x="2022" y="1875.24"/><use xlink:href="#MEDrlzcg1alYb7ZZJ9wG_pad-10" x="2022" y="1775.24"/><use xlink:href="#MEDrlzcg1alYb7ZZJ9wG_pad-10" x="2022" y="1675.24"/><use xlink:href="#MEDrlzcg1alYb7ZZJ9wG_pad-10" x="2022" y="1575.24"/><use xlink:href="#MEDrlzcg1alYb7ZZJ9wG_pad-10" x="2022" y="1475.24"/><use xlink:href="#MEDrlzcg1alYb7ZZJ9wG_pad-10" x="2022" y="1375.24"/><use xlink:href="#MEDrlzcg1alYb7ZZJ9wG_pad-10" x="1922" y="775.24"/><use xlink:href="#MEDrlzcg1alYb7ZZJ9wG_pad-10" x="1822" y="775.24"/><use xlink:href="#MEDrlzcg1alYb7ZZJ9wG_pad-10" x="1222" y="1225.24"/><use xlink:href="#MEDrlzcg1alYb7ZZJ9wG_pad-10" x="1222" y="1325.24"/><use xlink:href="#MEDrlzcg1alYb7ZZJ9wG_pad-10" x="1222" y="1425.24"/><use xlink:href="#MEDrlzcg1alYb7ZZJ9wG_pad-10" x="1222" y="1525.24"/><use xlink:href="#MEDrlzcg1alYb7ZZJ9wG_pad-10" x="1222" y="1625.24"/><use xlink:href="#MEDrlzcg1alYb7ZZJ9wG_pad-10" x="1122" y="1625.24"/><use xlink:href="#MEDrlzcg1alYb7ZZJ9wG_pad-10" x="1122" y="1525.24"/><use xlink:href="#MEDrlzcg1alYb7ZZJ9wG_pad-10" x="1122" y="1425.24"/><use xlink:href="#MEDrlzcg1alYb7ZZJ9wG_pad-10" x="1122" y="1325.24"/><use xlink:href="#MEDrlzcg1alYb7ZZJ9wG_pad-10" x="1122" y="1225.24"/><use xlink:href="#MEDrlzcg1alYb7ZZJ9wG_pad-10" x="872" y="1275.24"/><use xlink:href="#MEDrlzcg1alYb7ZZJ9wG_pad-10" x="872" y="1375.24"/><use xlink:href="#MEDrlzcg1alYb7ZZJ9wG_pad-10" x="872" y="1475.24"/><use xlink:href="#MEDrlzcg1alYb7ZZJ9wG_pad-10" x="872" y="1575.24"/><use xlink:href="#MEDrlzcg1alYb7ZZJ9wG_pad-10" x="772" y="1575.24"/><use xlink:href="#MEDrlzcg1alYb7ZZJ9wG_pad-10" x="772" y="1475.24"/><use xlink:href="#MEDrlzcg1alYb7ZZJ9wG_pad-10" x="772" y="1375.24"/><use xlink:href="#MEDrlzcg1alYb7ZZJ9wG_pad-10" x="772" y="1275.24"/><use xlink:href="#MEDrlzcg1alYb7ZZJ9wG_pad-11" x="1422" y="1014.61"/><use xlink:href="#MEDrlzcg1alYb7ZZJ9wG_pad-11" x="1422" y="778.39"/><use xlink:href="#MEDrlzcg1alYb7ZZJ9wG_pad-11" x="1614.91" y="898.46"/><use xlink:href="#MEDrlzcg1alYb7ZZJ9wG_pad-12" x="822" y="1775.24"/><use xlink:href="#MEDrlzcg1alYb7ZZJ9wG_pad-12" x="822" y="1875.24"/><use xlink:href="#MEDrlzcg1alYb7ZZJ9wG_pad-12" x="822" y="1975.24"/><use xlink:href="#MEDrlzcg1alYb7ZZJ9wG_pad-12" x="822" y="2075.24"/><use xlink:href="#MEDrlzcg1alYb7ZZJ9wG_pad-12" x="822" y="2325.24"/><use xlink:href="#MEDrlzcg1alYb7ZZJ9wG_pad-12" x="822" y="2425.24"/><use xlink:href="#MEDrlzcg1alYb7ZZJ9wG_pad-12" x="822" y="2525.24"/><use xlink:href="#MEDrlzcg1alYb7ZZJ9wG_pad-12" x="822" y="2625.24"/><use xlink:href="#MEDrlzcg1alYb7ZZJ9wG_pad-12" x="522" y="2625.24"/><use xlink:href="#MEDrlzcg1alYb7ZZJ9wG_pad-12" x="522" y="2525.24"/><use xlink:href="#MEDrlzcg1alYb7ZZJ9wG_pad-12" x="522" y="2425.24"/><use xlink:href="#MEDrlzcg1alYb7ZZJ9wG_pad-12" x="522" y="2325.24"/><use xlink:href="#MEDrlzcg1alYb7ZZJ9wG_pad-12" x="522" y="2075.24"/><use xlink:href="#MEDrlzcg1alYb7ZZJ9wG_pad-12" x="522" y="1975.24"/><use xlink:href="#MEDrlzcg1alYb7ZZJ9wG_pad-12" x="522" y="1875.24"/><use xlink:href="#MEDrlzcg1alYb7ZZJ9wG_pad-12" x="522" y="1775.24"/><use xlink:href="#MEDrlzcg1alYb7ZZJ9wG_pad-12" x="1472" y="2175.24"/><use xlink:href="#MEDrlzcg1alYb7ZZJ9wG_pad-12" x="1472" y="2275.24"/><use xlink:href="#MEDrlzcg1alYb7ZZJ9wG_pad-12" x="1472" y="2375.24"/><use xlink:href="#MEDrlzcg1alYb7ZZJ9wG_pad-12" x="1472" y="2475.24"/><use xlink:href="#MEDrlzcg1alYb7ZZJ9wG_pad-12" x="1772" y="2475.24"/><use xlink:href="#MEDrlzcg1alYb7ZZJ9wG_pad-12" x="1772" y="2375.24"/><use xlink:href="#MEDrlzcg1alYb7ZZJ9wG_pad-12" x="1772" y="2275.24"/><use xlink:href="#MEDrlzcg1alYb7ZZJ9wG_pad-12" x="1772" y="2175.24"/><use xlink:href="#MEDrlzcg1alYb7ZZJ9wG_pad-13" x="1172" y="2075.24"/><use xlink:href="#MEDrlzcg1alYb7ZZJ9wG_pad-13" x="1047" y="2125.24"/><use xlink:href="#MEDrlzcg1alYb7ZZJ9wG_pad-13" x="1172" y="2475.24"/><use xlink:href="#MEDrlzcg1alYb7ZZJ9wG_pad-13" x="1047" y="1725.24"/><use xlink:href="#MEDrlzcg1alYb7ZZJ9wG_pad-14" x="631.06" y="1675.24"/><use xlink:href="#MEDrlzcg1alYb7ZZJ9wG_pad-14" x="512.94" y="1675.24"/><use xlink:href="#MEDrlzcg1alYb7ZZJ9wG_pad-14" x="662.94" y="2725.24"/><use xlink:href="#MEDrlzcg1alYb7ZZJ9wG_pad-14" x="781.06" y="2725.24"/><use xlink:href="#MEDrlzcg1alYb7ZZJ9wG_pad-14" x="1512.94" y="2075.24"/><use xlink:href="#MEDrlzcg1alYb7ZZJ9wG_pad-14" x="1631.06" y="2075.24"/><path d="M 1162 2545.24 1162 2605.24 M 1072 2605.24 1072 2545.24 M 982 2545.24 982 2605.24 M 1792 1175.24 1852 1175.24 M 1852 1075.24 1792 1075.24 M 1792 975.24 1852 975.24" fill="none" stroke-width="68"/><path d="M 1572 1849.24 1572 1901.24 M 1472 1901.24 1472 1849.24 M 1372 1849.24 1372 1901.24" fill="none" stroke-width="60"/><use xlink:href="#MEDrlzcg1alYb7ZZJ9wG_pad-17" x="1622" y="1425.24"/><use xlink:href="#MEDrlzcg1alYb7ZZJ9wG_pad-17" x="1522" y="1175.24"/><use xlink:href="#MEDrlzcg1alYb7ZZJ9wG_pad-17" x="922" y="825.24"/><use xlink:href="#MEDrlzcg1alYb7ZZJ9wG_pad-17" x="322" y="975.24"/><use xlink:href="#MEDrlzcg1alYb7ZZJ9wG_pad-18" x="322" y="1075.24"/><use xlink:href="#MEDrlzcg1alYb7ZZJ9wG_pad-18" x="922" y="925.24"/><use xlink:href="#MEDrlzcg1alYb7ZZJ9wG_pad-18" x="1522" y="1275.24"/><use xlink:href="#MEDrlzcg1alYb7ZZJ9wG_pad-18" x="1722" y="1425.24"/><use xlink:href="#MEDrlzcg1alYb7ZZJ9wG_pad-19" x="372" y="875.24"/><use xlink:href="#MEDrlzcg1alYb7ZZJ9wG_pad-19" x="472" y="1025.24"/><use xlink:href="#MEDrlzcg1alYb7ZZJ9wG_pad-19" x="772" y="875.24"/><use xlink:href="#MEDrlzcg1alYb7ZZJ9wG_pad-19" x="872" y="1025.24"/><use xlink:href="#MEDrlzcg1alYb7ZZJ9wG_pad-20" x="1972" y="1084.29"/><use xlink:href="#MEDrlzcg1alYb7ZZJ9wG_pad-20" x="1972" y="966.18"/><use xlink:href="#MEDrlzcg1alYb7ZZJ9wG_pad-21" x="1797" y="1875.24"/><use xlink:href="#MEDrlzcg1alYb7ZZJ9wG_pad-21" x="1722" y="1975.24"/><use xlink:href="#MEDrlzcg1alYb7ZZJ9wG_pad-21" x="1641.19" y="1944.43"/><use xlink:href="#MEDrlzcg1alYb7ZZJ9wG_pad-21" x="1272" y="2025.24"/><use xlink:href="#MEDrlzcg1alYb7ZZJ9wG_pad-21" x="1172" y="1875.24"/><use xlink:href="#MEDrlzcg1alYb7ZZJ9wG_pad-21" x="1122" y="2275.24"/><use xlink:href="#MEDrlzcg1alYb7ZZJ9wG_pad-21" x="1622" y="2625.24"/><use xlink:href="#MEDrlzcg1alYb7ZZJ9wG_pad-21" x="1691.19" y="2650.24"/><use xlink:href="#MEDrlzcg1alYb7ZZJ9wG_pad-21" x="1697" y="2500.24"/><use xlink:href="#MEDrlzcg1alYb7ZZJ9wG_pad-21" x="722" y="1125.24"/><use xlink:href="#MEDrlzcg1alYb7ZZJ9wG_pad-21" x="572" y="1325.24"/><use xlink:href="#MEDrlzcg1alYb7ZZJ9wG_pad-21" x="687.06" y="1525.24"/><use xlink:href="#MEDrlzcg1alYb7ZZJ9wG_pad-21" x="397" y="1525.24"/><use xlink:href="#MEDrlzcg1alYb7ZZJ9wG_pad-21" x="297" y="1775.24"/><use xlink:href="#MEDrlzcg1alYb7ZZJ9wG_pad-21" x="272" y="2675.24"/><use xlink:href="#MEDrlzcg1alYb7ZZJ9wG_pad-21" x="572" y="2775.24"/></g><g id="krjalWc2usT_-w8ofuO1_bottom_copper"><use xlink:href="#QWVN2PhaP7Rf_Ei1NJf7_pad-10" x="122" y="1015.24"/><use xlink:href="#QWVN2PhaP7Rf_Ei1NJf7_pad-10" x="122" y="1115.24"/><use xlink:href="#QWVN2PhaP7Rf_Ei1NJf7_pad-10" x="122" y="1215.24"/><use xlink:href="#QWVN2PhaP7Rf_Ei1NJf7_pad-10" x="122" y="1315.24"/><use xlink:href="#QWVN2PhaP7Rf_Ei1NJf7_pad-10" x="122" y="1415.24"/><use xlink:href="#QWVN2PhaP7Rf_Ei1NJf7_pad-10" x="122" y="1515.24"/><use xlink:href="#QWVN2PhaP7Rf_Ei1NJf7_pad-10" x="122" y="1615.24"/><use xlink:href="#QWVN2PhaP7Rf_Ei1NJf7_pad-10" x="122" y="1715.24"/><use xlink:href="#QWVN2PhaP7Rf_Ei1NJf7_pad-10" x="122" y="1815.24"/><use xlink:href="#QWVN2PhaP7Rf_Ei1NJf7_pad-10" x="122" y="1915.24"/><use xlink:href="#QWVN2PhaP7Rf_Ei1NJf7_pad-10" x="122" y="2075.24"/><use xlink:href="#QWVN2PhaP7Rf_Ei1NJf7_pad-10" x="122" y="2175.24"/><use xlink:href="#QWVN2PhaP7Rf_Ei1NJf7_pad-10" x="122" y="2275.24"/><use xlink:href="#QWVN2PhaP7Rf_Ei1NJf7_pad-10" x="122" y="2375.24"/><use xlink:href="#QWVN2PhaP7Rf_Ei1NJf7_pad-10" x="122" y="2475.24"/><use xlink:href="#QWVN2PhaP7Rf_Ei1NJf7_pad-10" x="122" y="2575.24"/><use xlink:href="#QWVN2PhaP7Rf_Ei1NJf7_pad-10" x="122" y="2675.24"/><use xlink:href="#QWVN2PhaP7Rf_Ei1NJf7_pad-10" x="122" y="2775.24"/><use xlink:href="#QWVN2PhaP7Rf_Ei1NJf7_pad-10" x="923.97" y="2780.75"/><use xlink:href="#QWVN2PhaP7Rf_Ei1NJf7_pad-10" x="923.97" y="2880.75"/><use xlink:href="#QWVN2PhaP7Rf_Ei1NJf7_pad-10" x="1023.97" y="2880.75"/><use xlink:href="#QWVN2PhaP7Rf_Ei1NJf7_pad-10" x="1023.97" y="2780.75"/><use xlink:href="#QWVN2PhaP7Rf_Ei1NJf7_pad-10" x="1123.97" y="2780.75"/><use xlink:href="#QWVN2PhaP7Rf_Ei1NJf7_pad-10" x="1123.97" y="2880.75"/><use xlink:href="#QWVN2PhaP7Rf_Ei1NJf7_pad-10" x="1572" y="2825.24"/><use xlink:href="#QWVN2PhaP7Rf_Ei1NJf7_pad-10" x="1672" y="2825.24"/><use xlink:href="#QWVN2PhaP7Rf_Ei1NJf7_pad-10" x="1772" y="2825.24"/><use xlink:href="#QWVN2PhaP7Rf_Ei1NJf7_pad-10" x="1872" y="2825.24"/><use xlink:href="#QWVN2PhaP7Rf_Ei1NJf7_pad-10" x="2022" y="2775.24"/><use xlink:href="#QWVN2PhaP7Rf_Ei1NJf7_pad-10" x="2022" y="2675.24"/><use xlink:href="#QWVN2PhaP7Rf_Ei1NJf7_pad-10" x="2022" y="2575.24"/><use xlink:href="#QWVN2PhaP7Rf_Ei1NJf7_pad-10" x="2022" y="2475.24"/><use xlink:href="#QWVN2PhaP7Rf_Ei1NJf7_pad-10" x="2022" y="2375.24"/><use xlink:href="#QWVN2PhaP7Rf_Ei1NJf7_pad-10" x="2022" y="2275.24"/><use xlink:href="#QWVN2PhaP7Rf_Ei1NJf7_pad-10" x="2022" y="2075.24"/><use xlink:href="#QWVN2PhaP7Rf_Ei1NJf7_pad-10" x="2022" y="1975.24"/><use xlink:href="#QWVN2PhaP7Rf_Ei1NJf7_pad-10" x="2022" y="1875.24"/><use xlink:href="#QWVN2PhaP7Rf_Ei1NJf7_pad-10" x="2022" y="1775.24"/><use xlink:href="#QWVN2PhaP7Rf_Ei1NJf7_pad-10" x="2022" y="1675.24"/><use xlink:href="#QWVN2PhaP7Rf_Ei1NJf7_pad-10" x="2022" y="1575.24"/><use xlink:href="#QWVN2PhaP7Rf_Ei1NJf7_pad-10" x="2022" y="1475.24"/><use xlink:href="#QWVN2PhaP7Rf_Ei1NJf7_pad-10" x="2022" y="1375.24"/><use xlink:href="#QWVN2PhaP7Rf_Ei1NJf7_pad-10" x="1922" y="775.24"/><use xlink:href="#QWVN2PhaP7Rf_Ei1NJf7_pad-10" x="1822" y="775.24"/><use xlink:href="#QWVN2PhaP7Rf_Ei1NJf7_pad-10" x="1222" y="1225.24"/><use xlink:href="#QWVN2PhaP7Rf_Ei1NJf7_pad-10" x="1222" y="1325.24"/><use xlink:href="#QWVN2PhaP7Rf_Ei1NJf7_pad-10" x="1222" y="1425.24"/><use xlink:href="#QWVN2PhaP7Rf_Ei1NJf7_pad-10" x="1222" y="1525.24"/><use xlink:href="#QWVN2PhaP7Rf_Ei1NJf7_pad-10" x="1222" y="1625.24"/><use xlink:href="#QWVN2PhaP7Rf_Ei1NJf7_pad-10" x="1122" y="1625.24"/><use xlink:href="#QWVN2PhaP7Rf_Ei1NJf7_pad-10" x="1122" y="1525.24"/><use xlink:href="#QWVN2PhaP7Rf_Ei1NJf7_pad-10" x="1122" y="1425.24"/><use xlink:href="#QWVN2PhaP7Rf_Ei1NJf7_pad-10" x="1122" y="1325.24"/><use xlink:href="#QWVN2PhaP7Rf_Ei1NJf7_pad-10" x="1122" y="1225.24"/><use xlink:href="#QWVN2PhaP7Rf_Ei1NJf7_pad-10" x="872" y="1275.24"/><use xlink:href="#QWVN2PhaP7Rf_Ei1NJf7_pad-10" x="872" y="1375.24"/><use xlink:href="#QWVN2PhaP7Rf_Ei1NJf7_pad-10" x="872" y="1475.24"/><use xlink:href="#QWVN2PhaP7Rf_Ei1NJf7_pad-10" x="872" y="1575.24"/><use xlink:href="#QWVN2PhaP7Rf_Ei1NJf7_pad-10" x="772" y="1575.24"/><use xlink:href="#QWVN2PhaP7Rf_Ei1NJf7_pad-10" x="772" y="1475.24"/><use xlink:href="#QWVN2PhaP7Rf_Ei1NJf7_pad-10" x="772" y="1375.24"/><use xlink:href="#QWVN2PhaP7Rf_Ei1NJf7_pad-10" x="772" y="1275.24"/><use xlink:href="#QWVN2PhaP7Rf_Ei1NJf7_pad-11" x="1422" y="1014.61"/><use xlink:href="#QWVN2PhaP7Rf_Ei1NJf7_pad-11" x="1422" y="778.39"/><use xlink:href="#QWVN2PhaP7Rf_Ei1NJf7_pad-11" x="1614.91" y="898.46"/><use xlink:href="#QWVN2PhaP7Rf_Ei1NJf7_pad-12" x="822" y="1775.24"/><use xlink:href="#QWVN2PhaP7Rf_Ei1NJf7_pad-12" x="822" y="1875.24"/><use xlink:href="#QWVN2PhaP7Rf_Ei1NJf7_pad-12" x="822" y="1975.24"/><use xlink:href="#QWVN2PhaP7Rf_Ei1NJf7_pad-12" x="822" y="2075.24"/><use xlink:href="#QWVN2PhaP7Rf_Ei1NJf7_pad-12" x="822" y="2325.24"/><use xlink:href="#QWVN2PhaP7Rf_Ei1NJf7_pad-12" x="822" y="2425.24"/><use xlink:href="#QWVN2PhaP7Rf_Ei1NJf7_pad-12" x="822" y="2525.24"/><use xlink:href="#QWVN2PhaP7Rf_Ei1NJf7_pad-12" x="822" y="2625.24"/><use xlink:href="#QWVN2PhaP7Rf_Ei1NJf7_pad-12" x="522" y="2625.24"/><use xlink:href="#QWVN2PhaP7Rf_Ei1NJf7_pad-12" x="522" y="2525.24"/><use xlink:href="#QWVN2PhaP7Rf_Ei1NJf7_pad-12" x="522" y="2425.24"/><use xlink:href="#QWVN2PhaP7Rf_Ei1NJf7_pad-12" x="522" y="2325.24"/><use xlink:href="#QWVN2PhaP7Rf_Ei1NJf7_pad-12" x="522" y="2075.24"/><use xlink:href="#QWVN2PhaP7Rf_Ei1NJf7_pad-12" x="522" y="1975.24"/><use xlink:href="#QWVN2PhaP7Rf_Ei1NJf7_pad-12" x="522" y="1875.24"/><use xlink:href="#QWVN2PhaP7Rf_Ei1NJf7_pad-12" x="522" y="1775.24"/><use xlink:href="#QWVN2PhaP7Rf_Ei1NJf7_pad-12" x="1472" y="2175.24"/><use xlink:href="#QWVN2PhaP7Rf_Ei1NJf7_pad-12" x="1472" y="2275.24"/><use xlink:href="#QWVN2PhaP7Rf_Ei1NJf7_pad-12" x="1472" y="2375.24"/><use xlink:href="#QWVN2PhaP7Rf_Ei1NJf7_pad-12" x="1472" y="2475.24"/><use xlink:href="#QWVN2PhaP7Rf_Ei1NJf7_pad-12" x="1772" y="2475.24"/><use xlink:href="#QWVN2PhaP7Rf_Ei1NJf7_pad-12" x="1772" y="2375.24"/><use xlink:href="#QWVN2PhaP7Rf_Ei1NJf7_pad-12" x="1772" y="2275.24"/><use xlink:href="#QWVN2PhaP7Rf_Ei1NJf7_pad-12" x="1772" y="2175.24"/><use xlink:href="#QWVN2PhaP7Rf_Ei1NJf7_pad-13" x="1172" y="2075.24"/><use xlink:href="#QWVN2PhaP7Rf_Ei1NJf7_pad-13" x="1047" y="2125.24"/><use xlink:href="#QWVN2PhaP7Rf_Ei1NJf7_pad-13" x="1172" y="2475.24"/><use xlink:href="#QWVN2PhaP7Rf_Ei1NJf7_pad-13" x="1047" y="1725.24"/><use xlink:href="#QWVN2PhaP7Rf_Ei1NJf7_pad-14" x="631.06" y="1675.24"/><use xlink:href="#QWVN2PhaP7Rf_Ei1NJf7_pad-14" x="512.94" y="1675.24"/><use xlink:href="#QWVN2PhaP7Rf_Ei1NJf7_pad-14" x="662.94" y="2725.24"/><use xlink:href="#QWVN2PhaP7Rf_Ei1NJf7_pad-14" x="781.06" y="2725.24"/><use xlink:href="#QWVN2PhaP7Rf_Ei1NJf7_pad-14" x="1512.94" y="2075.24"/><use xlink:href="#QWVN2PhaP7Rf_Ei1NJf7_pad-14" x="1631.06" y="2075.24"/><path d="M 1162 2545.24 1162 2605.24 M 1072 2605.24 1072 2545.24 M 982 2545.24 982 2605.24 M 1792 1175.24 1852 1175.24 M 1852 1075.24 1792 1075.24 M 1792 975.24 1852 975.24" fill="none" stroke-width="60"/><path d="M 1572 1849.24 1572 1901.24 M 1472 1901.24 1472 1849.24 M 1372 1849.24 1372 1901.24" fill="none" stroke-width="52"/><use xlink:href="#QWVN2PhaP7Rf_Ei1NJf7_pad-17" x="1622" y="1425.24"/><use xlink:href="#QWVN2PhaP7Rf_Ei1NJf7_pad-17" x="1522" y="1175.24"/><use xlink:href="#QWVN2PhaP7Rf_Ei1NJf7_pad-17" x="922" y="825.24"/><use xlink:href="#QWVN2PhaP7Rf_Ei1NJf7_pad-17" x="322" y="975.24"/><use xlink:href="#QWVN2PhaP7Rf_Ei1NJf7_pad-18" x="322" y="1075.24"/><use xlink:href="#QWVN2PhaP7Rf_Ei1NJf7_pad-18" x="922" y="925.24"/><use xlink:href="#QWVN2PhaP7Rf_Ei1NJf7_pad-18" x="1522" y="1275.24"/><use xlink:href="#QWVN2PhaP7Rf_Ei1NJf7_pad-18" x="1722" y="1425.24"/><use xlink:href="#QWVN2PhaP7Rf_Ei1NJf7_pad-19" x="872" y="1025.24"/><use xlink:href="#QWVN2PhaP7Rf_Ei1NJf7_pad-19" x="772" y="875.24"/><use xlink:href="#QWVN2PhaP7Rf_Ei1NJf7_pad-19" x="472" y="1025.24"/><use xlink:href="#QWVN2PhaP7Rf_Ei1NJf7_pad-19" x="372" y="875.24"/><use xlink:href="#QWVN2PhaP7Rf_Ei1NJf7_pad-20" x="1972" y="966.18"/><use xlink:href="#QWVN2PhaP7Rf_Ei1NJf7_pad-20" x="1972" y="1084.29"/><path d="M 143.54 677.24 74 746.78 74 960 80.65 953.35 107.48 942.24 136.52 942.24 163.35 953.35 183.89 973.88 195 1000.72 195 1029.76 183.89 1056.59 175.24 1065.24 183.89 1073.88 195 1100.72 195 1129.76 191.75 1137.61 254.5 1074.85 254.5 1061.81 264.78 1037 276.54 1025.24 254.5 1003.2 254.5 947.28 274 927.78 274 915.69 281.31 898.05 294.81 884.54 303 876.35 303 861.51 313.5 836.15 332.91 816.74 358.27 806.24 385.72 806.24 411.09 816.74 430.5 836.15 441 861.51 441 888.96 430.5 914.32 417.58 927.24 431.55 927.24 449.19 934.54 470.88 956.24 485.72 956.24 511.09 966.74 524 979.66 524 915.69 531.31 898.05 544.81 884.54 594.81 834.54 612.45 827.24 722.42 827.24 732.91 816.74 758.27 806.24 773.12 806.24 794.81 784.54 812.45 777.24 874.54 777.24 894.04 757.74 949.96 757.74 989.5 797.28 989.5 853.2 957.56 885.14 962.81 890.38 967.76 897.2 971.58 904.7 974.18 912.71 975.5 921.03 975.5 925.24 975.5 929.45 974.18 937.76 971.58 945.77 967.76 953.28 962.81 960.09 956.85 966.04 950.04 970.99 942.54 974.82 934.53 977.42 926.21 978.74 922 978.74 917.79 978.74 909.47 977.42 901.46 974.82 893.96 970.99 887.15 966.04 881.19 960.09 876.24 953.28 872.42 945.77 869.82 937.76 868.5 929.45 868.5 925.24 922 925.24 922 978.74 922 925.24 922 925.24 975.5 925.24 922 925.24 922 925.24 922 925.24 1122 925.24 1272 775.24 1418.85 775.24 1422 778.39 1575.15 778.39 1622 825.24 1622 891.38 1622 1425.24 1622 1478.74 1644.16 1478.74 1663.21 1459.69 1664.78 1463.47 1683.76 1482.46 1708.57 1492.74 1735.43 1492.74 1760.24 1482.46 1769.46 1473.24 1852.12 1473.24 1874 1495.12 1874 1759.35 1812.69 1698.05 1799.19 1684.54 1781.55 1677.24 1249.9 1677.24 1252.92 1675.7 1260.44 1670.24 1267 1663.67 1272.46 1656.16 1276.68 1647.88 1279.55 1639.05 1281 1629.88 1281 1625.24 1222 1625.24 1222 1625.24 1222 1625.24 1122 1625.24 1122 1625.24 1122 1625.24 1063 1625.24 1063 1629.88 1064.45 1639.05 1067.32 1647.88 1071.54 1656.16 1077 1663.67 1083.56 1670.24 1091.08 1675.7 1094.1 1677.24 1086.68 1677.24 1072.68 1663.24 1027.88 1663.24 1020 1655.35 1020 1615.69 1012.69 1598.05 999.19 1584.54 949.19 1534.54 931.55 1527.24 927.24 1527.24 925.24 1525.24 933.89 1516.59 945 1489.76 945 1460.72 933.89 1433.88 915.34 1415.34 917 1413.67 922.46 1406.16 926.68 1397.88 929.55 1389.05 931 1379.88 931 1375.24 872 1375.24 872 1375.24 872 1375.24 772 1375.24 772 1375.24 772 1375.24 713 1375.24 713 1379.88 714.45 1389.05 717.32 1397.88 721.54 1406.16 727 1413.67 728.66 1415.34 710.11 1433.88 699 1460.72 699 1469.57 698.19 1469.24 675.92 1469.24 655.33 1477.76 639.58 1493.51 631.06 1514.1 631.06 1536.38 639.58 1556.96 649 1566.38 649 1613.87 633.82 1613.87 633.82 1672.47 628.29 1672.47 628.29 1613.87 598.63 1613.87 593.04 1615.37 588.02 1618.26 583.92 1622.36 581.03 1627.37 579.53 1632.97 579.53 1672.47 628.29 1672.47 628.29 1678 579.53 1678 579.53 1717.5 581.03 1723.1 583.42 1727.24 576.21 1727.24 578.47 1721.77 578.47 1628.71 572.99 1615.47 562.86 1605.35 549.63 1599.87 476.26 1599.87 463.02 1605.35 452.9 1615.47 447.42 1628.71 447.42 1721.77 452.9 1735 463.02 1745.13 466.73 1746.66 460 1762.9 460 1787.57 469.44 1810.36 484.32 1825.24 482.32 1827.24 416.88 1827.24 352.47 1762.83 344.47 1743.51 328.72 1727.76 308.14 1719.24 285.86 1719.24 270 1725.81 270 1195.12 322.38 1142.74 335.43 1142.74 360.24 1132.46 379.22 1113.47 389.5 1088.66 389.5 1061.81 379.22 1037 367.46 1025.24 369.46 1023.24 402.12 1023.24 403 1024.12 403 1038.96 413.5 1064.32 432.91 1083.73 458.27 1094.24 485.72 1094.24 511.09 1083.73 524 1070.82 524 1294.78 516 1314.1 516 1336.38 524.53 1356.96 540.28 1372.71 560.86 1381.24 583.14 1381.24 603.72 1372.71 619.47 1356.96 628 1336.38 628 1314.1 620 1294.78 620 945.12 641.88 923.24 722.42 923.24 732.91 933.73 758.27 944.24 785.72 944.24 811.09 933.73 830.5 914.32 841 888.96 841 874.12 841.88 873.24 874.54 873.24 886.44 885.14 881.19 890.38 876.24 897.2 872.42 904.7 869.82 912.71 868.5 921.03 868.5 925.24 922 925.24 922 975.24 872 1025.24 927 1025.24 927 1029.56 925.65 1038.12 922.97 1046.35 919.04 1054.06 913.95 1061.07 907.83 1067.19 900.83 1072.28 893.11 1076.21 889.94 1077.24 1303.32 1077.24 1303.32 924.77 1308.8 911.54 1318.93 901.41 1332.16 895.93 1511.84 895.93 1525.07 901.41 1534.12 910.46 1602.91 910.46 1602.91 886.46 1626.91 886.46 1626.91 793.79 1700.49 793.79 1706.08 795.29 1711.1 798.18 1715.19 802.28 1718.09 807.3 1719.59 812.89 1719.59 886.46 1626.91 886.46 1626.91 910.46 1719.59 910.46 1719.59 984.04 1718.09 989.63 1715.19 994.65 1711.1 998.75 1706.08 1001.64 1700.49 1003.14 1626.91 1003.14 1626.91 910.47 1602.91 910.47 1602.91 1003.14 1540.68 1003.14 1540.68 1104.44 1535.2 1117.68 1531.14 1121.74 1544.16 1121.74 1575.5 1153.08 1575.5 1175.24 1575.5 1197.4 1556.45 1216.45 1560.24 1218.01 1579.22 1237 1589.5 1261.81 1589.5 1288.66 1579.22 1313.47 1560.24 1332.46 1535.43 1342.74 1508.57 1342.74 1483.76 1332.46 1474.54 1323.24 1462.45 1323.24 1444.81 1315.93 1431.31 1302.43 1381.31 1252.43 1374 1234.78 1374 1173.24 1273.24 1173.24 1277.24 1177.24 1281.55 1177.24 1299.19 1184.54 1312.69 1198.05 1349.19 1234.54 1362.69 1248.05 1370 1265.69 1370 1484.78 1362.69 1502.43 1312.69 1552.43 1299.19 1565.93 1281.55 1573.24 1277.24 1573.24 1265.34 1585.14 1267 1586.8 1272.46 1594.31 1276.68 1602.59 1279.55 1611.42 1281 1620.59 1281 1625.24 1222 1625.24 1572 1625.24 1622 1575.24 1622 1425.24 1622 1425.24 1622 1478.74 1599.84 1478.74 1568.5 1447.4 1568.5 1425.24 1622 1425.24 1622 1425.24 1568.5 1425.24 1568.5 1403.08 1599.84 1371.74 1622 1371.74 1644.16 1371.74 1663.21 1390.78 1664.78 1387 1683.76 1368.01 1708.57 1357.74 1735.43 1357.74 1760.24 1368.01 1769.46 1377.24 1881.55 1377.24 1899.19 1384.54 1912.69 1398.05 1949.19 1434.54 1956.72 1442.08 1960.11 1433.88 1968.76 1425.24 1960.11 1416.59 1949 1389.76 1949 1360.72 1960.11 1333.88 1980.65 1313.35 2007.48 1302.24 2036.52 1302.24 2063.35 1313.35 2070 1320 2070 746.78 2000.46 677.24 1516.68 677.24 1518.19 678.1 1522.28 682.2 1525.18 687.22 1526.68 692.81 1526.68 766.39 1434 766.39 1434 790.39 1410 790.39 1410 883.06 1336.43 883.06 1330.83 881.56 1325.81 878.67 1321.72 874.57 1318.82 869.55 1317.32 863.96 1317.32 790.39 1410 790.39 1410 766.39 1317.32 766.39 1317.32 692.81 1318.82 687.22 1321.72 682.2 1325.81 678.1 1327.32 677.24 143.54 677.24 M 123.58 697.19 1317.32 697.19 M 1317.32 721.18 99.6 721.18 M 75.61 745.16 1317.32 745.16 M 1317.32 793.13 985.36 793.13 M 989.5 817.12 1317.32 817.12 M 1317.32 841.1 989.5 841.1 M 977.61 865.09 1317.63 865.09 M 1308.17 913.06 974.24 913.06 M 974.3 937.04 1303.32 937.04 M 1303.32 961.03 961.87 961.03 M 922 961.03 922 961.03 M 922 937.04 922 937.04 M 900.83 978.2 907.83 983.28 913.95 989.41 919.04 996.41 922.97 1004.12 925.65 1012.36 927 1020.91 927 1025.24 872 1025.24 872 1025.24 872 1025.24 817 1025.24 817 1029.56 818.35 1038.12 821.03 1046.35 824.96 1054.06 830.05 1061.07 836.17 1067.19 843.17 1072.28 850.89 1076.21 854.06 1077.24 752.45 1077.24 733.14 1069.24 710.86 1069.24 690.28 1077.76 674.53 1093.51 666 1114.1 666 1136.38 674.53 1156.96 690.28 1172.71 710.86 1181.24 733.14 1181.24 752.45 1173.24 1070.76 1173.24 1060.11 1183.88 1049 1210.72 1049 1239.76 1060.11 1266.59 1078.66 1285.14 1077 1286.8 1071.54 1294.31 1067.32 1302.59 1064.45 1311.42 1063 1320.59 1063 1325.24 1122 1325.24 1222 1325.24 1222 1325.24 1163 1325.24 1122 1325.24 1122 1325.24 1122 1325.24 922 1325.24 872 1375.24 813 1375.24 772 1375.24 713 1375.24 713 1370.59 714.45 1361.42 717.32 1352.59 721.54 1344.31 727 1336.8 733.56 1330.23 740.44 1325.24 733.56 1320.24 727 1313.67 721.54 1306.16 717.32 1297.88 714.45 1289.05 713 1279.88 713 1275.24 772 1275.24 772 1334.24 772 1375.23 772 1275.24 772 1275.24 872 1275.24 872 1334.24 872 1375.23 872 1275.24 872 1275.24 931 1275.24 931 1279.88 929.55 1289.05 926.68 1297.88 922.46 1306.16 917 1313.67 910.44 1320.24 903.56 1325.24 910.44 1330.23 917 1336.8 922.46 1344.31 926.68 1352.59 929.55 1361.42 931 1370.59 931 1375.24 872 1375.24 M 872 1375.23 872 1375.23 M 872 1368.77 872 1368.77 M 872 1344.79 872 1344.79 M 872 1320.8 872 1320.8 M 872 1296.82 872 1296.82 M 872 1275.24 872 1275.24 872 1275.24 931 1275.24 931 1270.59 929.55 1261.42 926.68 1252.59 922.46 1244.31 917 1236.8 910.44 1230.23 902.92 1224.77 894.65 1220.56 885.82 1217.69 876.64 1216.24 872 1216.24 872 1275.23 872 1275.23 872 1216.24 867.36 1216.24 858.18 1217.69 849.35 1220.56 841.08 1224.77 833.56 1230.23 827 1236.8 822 1243.68 817 1236.8 810.44 1230.23 802.92 1224.77 794.65 1220.56 785.82 1217.69 776.64 1216.24 772 1216.24 772 1275.23 772 1275.23 772 1216.24 767.36 1216.24 758.18 1217.69 749.35 1220.56 741.08 1224.77 733.56 1230.23 727 1236.8 721.54 1244.31 717.32 1252.59 714.45 1261.42 713 1270.59 713 1275.24 772 1275.24 772 1275.24 772 1275.24 831 1275.24 872 1275.24 M 872 1272.83 872 1272.83 M 872 1248.85 872 1248.85 M 872 1224.86 872 1224.86 M 840.95 1224.86 803.05 1224.86 M 772 1224.86 772 1224.86 M 772 1248.85 772 1248.85 M 772 1272.83 772 1272.83 M 772 1296.82 772 1296.82 M 772 1320.8 772 1320.8 M 772 1344.79 772 1344.79 M 772 1368.77 772 1368.77 M 772 1375.23 772 1375.23 M 734.34 1320.8 628 1320.8 M 624.51 1344.79 721.3 1344.79 M 713.29 1368.77 607.66 1368.77 M 572 1325.24 572 925.24 622 875.24 772 875.24 822 825.24 922 825.24 M 882.63 769.15 74 769.15 M 74 793.13 786.22 793.13 M 732.54 817.12 411.46 817.12 M 432.55 841.1 588.25 841.1 M 564.27 865.09 441 865.09 M 440.95 889.07 540.28 889.07 M 525.09 913.06 431.02 913.06 M 451.69 937.04 524 937.04 M 524 961.03 497.29 961.03 M 472 1025.24 422 975.24 322 975.24 322 925.24 372 875.24 M 332.54 817.12 74 817.12 M 74 841.1 311.45 841.1 M 303 865.09 74 865.09 M 74 889.07 290.28 889.07 M 275.09 913.06 74 913.06 M 74 937.04 264.73 937.04 M 254.5 961.03 171.03 961.03 M 188.5 985.01 254.5 985.01 M 260.3 1009 195 1009 M 193.66 1032.98 268.79 1032.98 M 256.51 1056.97 183.51 1056.97 M 186.81 1080.95 248.4 1080.95 M 224.42 1104.94 195 1104.94 M 195 1128.92 200.43 1128.92 M 222 1175.24 322 1075.24 M 382.76 1104.94 524 1104.94 M 524 1128.92 363.77 1128.92 M 389.5 1080.95 430.14 1080.95 M 410.46 1056.97 387.49 1056.97 M 375.21 1032.98 403 1032.98 M 312.21 1152.91 524 1152.91 M 524 1176.89 288.22 1176.89 M 270 1200.88 524 1200.88 M 524 1224.86 270 1224.86 M 270 1248.85 524 1248.85 M 524 1272.83 270 1272.83 M 270 1296.82 523.16 1296.82 M 516 1320.8 270 1320.8 M 270 1344.79 519.49 1344.79 M 536.34 1368.77 270 1368.77 M 270 1392.76 715.66 1392.76 M 727.25 1416.74 270 1416.74 M 270 1440.73 707.28 1440.73 M 699 1464.72 270 1464.72 M 270 1488.7 644.4 1488.7 M 631.64 1512.69 270 1512.69 M 270 1536.67 631.18 1536.67 M 643.28 1560.66 270 1560.66 M 270 1584.64 649 1584.64 M 631.06 1584.29 631.06 1066.18 672 1025.24 872 1025.24 817 1025.24 817 1020.91 818.35 1012.36 821.03 1004.12 824.96 996.41 830.05 989.41 836.17 983.28 843.17 978.2 850.89 974.27 859.12 971.59 867.67 970.24 872 970.24 876.33 970.24 884.88 971.59 893.11 974.27 900.83 978.2 M 909.56 985.01 1303.32 985.01 M 1303.32 1009 924.55 1009 M 926.46 1032.98 1303.32 1032.98 M 1303.32 1056.97 916.93 1056.97 M 872 1025.23 872 970.24 872 1025.23 872 1025.23 M 872 1009 872 1009 M 872 985.01 872 985.01 M 882.13 961.03 620 961.03 M 620 985.01 834.44 985.01 M 819.45 1009 620 1009 M 620 1032.98 817.54 1032.98 M 827.07 1056.97 620 1056.97 M 620 1080.95 687.09 1080.95 M 669.79 1104.94 620 1104.94 M 620 1128.92 666 1128.92 M 672.85 1152.91 620 1152.91 M 620 1176.89 700.38 1176.89 M 722 1125.24 1372 1125.24 1422 1075.24 1422 1225.24 1472 1275.24 1522 1275.24 M 1584.13 1248.85 2070 1248.85 M 2070 1272.83 1589.5 1272.83 M 1586.12 1296.82 2070 1296.82 M 2070 1224.86 1895.71 1224.86 M 1889.39 1231.19 1865.13 1241.24 1778.87 1241.24 1754.61 1231.19 1736.05 1212.62 1726 1188.36 1726 1162.11 1736.05 1137.85 1754.61 1119.28 1760.69 1116.77 1758.12 1114.9 1752.34 1109.11 1747.53 1102.49 1743.81 1095.2 1741.28 1087.41 1740 1079.33 1740 1075.24 1822 1075.24 1904 1075.24 1904 1079.33 1902.72 1087.41 1900.19 1095.2 1896.47 1102.49 1891.66 1109.11 1885.88 1114.9 1883.31 1116.77 1889.39 1119.28 1907.95 1137.85 1918 1162.11 1918 1188.36 1907.95 1212.62 1889.39 1231.19 M 1912.82 1200.88 2070 1200.88 M 2070 1176.89 1918 1176.89 M 1914.19 1152.91 2070 1152.91 M 2070 1128.92 2027.38 1128.92 M 2028.97 1127.33 2024.88 1131.42 2019.86 1134.32 2014.27 1135.82 1974.76 1135.82 1974.76 1087.06 1969.24 1087.06 1969.24 1135.82 1929.73 1135.82 1924.14 1134.32 1919.12 1131.42 1915.03 1127.33 1912.13 1122.31 1910.63 1116.72 1910.63 1087.06 1969.24 1087.06 1969.24 1081.53 1974.76 1081.53 1974.76 1032.76 2014.27 1032.76 2019.86 1034.26 2024.88 1037.16 2028.97 1041.26 2031.87 1046.27 2033.37 1051.87 2033.37 1081.53 1974.76 1081.53 1974.76 1087.06 2033.37 1087.06 2033.37 1116.72 2031.87 1122.31 2028.97 1127.33 M 2033.37 1104.94 2070 1104.94 M 2070 1080.95 2033.37 1080.95 M 2033.37 1056.97 2070 1056.97 M 2070 1032.98 2015.09 1032.98 M 2018.53 1031.71 1925.47 1031.71 1912.24 1026.23 1903.29 1017.28 1889.39 1031.19 1883.31 1033.71 1885.88 1035.57 1891.66 1041.36 1896.47 1047.98 1900.19 1055.28 1902.72 1063.06 1904 1071.14 1904 1075.24 1822 1075.24 1822 1075.24 1822 1075.24 1962.94 1075.24 1972 1084.29 M 1969.24 1081.53 1969.24 1032.76 1929.73 1032.76 1924.14 1034.26 1919.12 1037.16 1915.03 1041.26 1912.13 1046.27 1910.63 1051.87 1910.63 1081.53 1969.24 1081.53 M 1969.24 1080.95 1974.76 1080.95 M 1974.76 1056.97 1969.24 1056.97 M 1969.24 1032.98 1974.76 1032.98 M 2018.53 1031.71 2031.76 1026.23 2041.89 1016.1 2047.37 1002.87 2047.37 929.49 2041.89 916.26 2031.76 906.13 2018.53 900.65 1974.35 900.65 1970 896.3 1970 830.47 1983.89 816.59 1995 789.76 1995 760.72 1983.89 733.88 1963.35 713.35 1936.52 702.24 1907.48 702.24 1880.65 713.35 1872 722 1863.35 713.35 1836.52 702.24 1807.48 702.24 1780.65 713.35 1760.11 733.88 1749 760.72 1749 789.76 1760.11 816.59 1774 830.47 1774 911.25 1754.61 919.28 1736.05 937.85 1726 962.11 1726 988.36 1736.05 1012.62 1754.61 1031.19 1760.69 1033.71 1758.12 1035.57 1752.34 1041.36 1747.53 1047.98 1743.81 1055.28 1741.28 1063.06 1740 1071.14 1740 1075.24 1822 1075.24 M 1758.95 1032.98 1540.68 1032.98 M 1540.68 1009 1734.55 1009 M 1726 985.01 1719.33 985.01 M 1719.59 961.03 1726.45 961.03 M 1719.59 937.04 1736.86 937.04 M 1719.59 913.06 1769.65 913.06 M 1774 889.07 1626.91 889.07 M 1622 891.38 1614.91 898.46 M 1602.91 889.07 961.5 889.07 M 882.5 889.07 840.95 889.07 M 831.02 913.06 869.76 913.06 M 869.7 937.04 803.09 937.04 M 740.91 937.04 628.08 937.04 M 524 1080.95 513.86 1080.95 M 620 1200.88 1053.07 1200.88 M 1049 1224.86 903.05 1224.86 M 924.77 1248.85 1052.77 1248.85 M 1066.36 1272.83 931 1272.83 M 927.02 1296.82 1070.26 1296.82 M 1063 1320.8 909.66 1320.8 M 922.7 1344.79 1066.32 1344.79 M 1067.32 1347.88 1064.45 1339.05 1063 1329.88 1063 1325.24 1122 1325.24 M 1078.66 1365.34 1077 1363.67 1071.54 1356.16 1067.32 1347.88 M 1078.66 1365.34 1060.11 1383.88 1049 1410.72 1049 1439.76 1060.11 1466.59 1068.76 1475.24 1060.11 1483.88 1049 1510.72 1049 1539.76 1060.11 1566.59 1078.66 1585.14 1077 1586.8 1071.54 1594.31 1067.32 1602.59 1064.45 1611.42 1063 1620.59 1063 1625.24 1122 1625.24 1163 1625.24 1222 1625.24 M 1278.64 1608.63 1874 1608.63 M 1874 1632.61 1280.57 1632.61 M 1272.14 1656.6 1874 1656.6 M 1874 1680.58 1789.62 1680.58 M 1819.21 1704.57 1874 1704.57 M 1874 1728.55 1843.2 1728.55 M 1867.18 1752.54 1874 1752.54 M 1872 1825.24 1772 1725.24 1047 1725.24 1022 1725.24 972 1675.24 972 1825.24 1022 1875.24 1172 1875.24 M 1195.83 1824.49 1315.14 1824.49 M 1319.44 1814.12 1336.88 1796.68 1359.67 1787.24 1384.33 1787.24 1407.12 1796.68 1422 1811.56 1436.88 1796.68 1459.67 1787.24 1484.33 1787.24 1507.12 1796.68 1522 1811.56 1536.88 1796.68 1559.67 1787.24 1584.33 1787.24 1607.12 1796.68 1624.56 1814.12 1634 1836.9 1634 1883.73 1683.19 1834.54 1700.83 1827.24 1766.55 1827.24 1785.86 1819.24 1798.12 1819.24 1752.12 1773.24 1086.68 1773.24 1072.68 1787.24 1021.32 1787.24 1020 1785.92 1020 1805.35 1041.88 1827.24 1141.55 1827.24 1160.86 1819.24 1183.14 1819.24 1203.72 1827.76 1219.47 1843.51 1228 1864.1 1228 1886.38 1219.47 1906.96 1203.72 1922.71 1183.14 1931.24 1160.86 1931.24 1141.55 1923.24 1012.45 1923.24 994.81 1915.93 981.31 1902.43 944.81 1865.93 931.31 1852.43 924 1834.78 924 1645.12 914.68 1635.8 913.35 1637.12 886.52 1648.24 857.48 1648.24 830.65 1637.12 822 1628.47 813.35 1637.12 786.52 1648.24 757.48 1648.24 745 1643.07 745 1705.35 774.19 1734.54 774.6 1734.95 786.88 1722.68 809.67 1713.24 834.33 1713.24 857.12 1722.68 874.56 1740.12 884 1762.9 884 1787.57 874.56 1810.36 859.68 1825.24 874.56 1840.12 884 1862.9 884 1887.57 874.56 1910.36 859.68 1925.24 874.56 1940.12 884 1962.9 884 1987.57 874.56 2010.36 859.68 2025.24 874.56 2040.12 884 2062.9 884 2087.57 874.56 2110.36 870 2114.92 870 2152.24 986.32 2152.24 985 2150.92 985 2099.55 1021.32 2063.24 1041.12 2063.24 1056.31 2048.05 1069.81 2034.54 1087.45 2027.24 1132.32 2027.24 1146.32 2013.24 1197.68 2013.24 1216 2031.56 1216 2014.1 1224.53 1993.51 1240.28 1977.76 1260.86 1969.24 1283.14 1969.24 1303.72 1977.76 1319.47 1993.51 1327.47 2012.83 1341.88 2027.24 1448.03 2027.24 1452.9 2015.47 1463.02 2005.35 1476.26 1999.87 1549.63 1999.87 1562.86 2005.35 1572.99 2015.47 1578.47 2028.71 1578.47 2121.77 1572.99 2135 1562.86 2145.13 1549.63 2150.61 1528.91 2150.61 1534 2162.9 1534 2187.57 1524.56 2210.36 1509.68 2225.24 1524.56 2240.12 1534 2262.9 1534 2287.57 1524.56 2310.36 1509.68 2325.24 1524.56 2340.12 1534 2362.9 1534 2387.57 1524.56 2410.36 1509.68 2425.24 1524.56 2440.12 1534 2462.9 1534 2487.57 1524.56 2510.36 1507.12 2527.8 1484.33 2537.24 1459.67 2537.24 1436.88 2527.8 1419.44 2510.36 1410 2487.57 1410 2462.9 1419.44 2440.12 1434.32 2425.24 1419.44 2410.36 1410 2387.57 1410 2362.9 1419.44 2340.12 1434.32 2325.24 1419.44 2310.36 1410 2287.57 1410 2262.9 1419.44 2240.12 1434.32 2225.24 1419.44 2210.36 1410 2187.57 1410 2162.9 1419.44 2140.12 1424 2135.55 1424 2123.24 1312.45 2123.24 1294.81 2115.93 1259.59 2080.71 1240.28 2072.71 1234 2066.43 1234 2100.92 1207.68 2127.24 1281.55 2127.24 1299.19 2134.54 1312.69 2148.05 1362.69 2198.05 1370 2215.69 1370 2655.35 1391.88 2677.24 1641.76 2677.24 1635.19 2661.38 1635.19 2639.1 1643.71 2618.51 1649 2613.23 1649 2530.69 1641 2511.38 1641 2489.1 1649.53 2468.51 1665.28 2452.76 1685.86 2444.24 1708.14 2444.24 1716.33 2447.63 1719.44 2440.12 1734.32 2425.24 1719.44 2410.36 1710 2387.57 1710 2362.9 1719.44 2340.12 1734.32 2325.24 1719.44 2310.36 1710 2287.57 1710 2262.9 1719.44 2240.12 1734.32 2225.24 1719.44 2210.36 1710 2187.57 1710 2162.9 1719.44 2140.12 1736.88 2122.68 1759.67 2113.24 1784.33 2113.24 1807.12 2122.68 1824 2139.56 1824 1924.67 1808.14 1931.24 1785.86 1931.24 1766.55 1923.24 1730.26 1923.24 1696.66 1956.83 1688.66 1976.15 1672.91 1991.9 1652.33 2000.43 1630.05 2000.43 1609.47 1991.9 1593.71 1976.15 1587.78 1961.81 1584.33 1963.24 1559.67 1963.24 1536.88 1953.8 1522 1938.92 1507.12 1953.8 1484.33 1963.24 1459.67 1963.24 1436.88 1953.8 1422 1938.92 1407.12 1953.8 1384.33 1963.24 1359.67 1963.24 1336.88 1953.8 1319.44 1936.36 1310 1913.57 1310 1836.9 1319.44 1814.12 M 1333.05 1800.51 1020 1800.51 M 1039.14 1824.49 1148.17 1824.49 M 1221.53 1848.48 1310 1848.48 M 1310 1872.46 1228 1872.46 M 1223.83 1896.45 1310 1896.45 M 1312.84 1920.43 1206 1920.43 M 1225.65 1992.39 882 1992.39 M 884 1968.4 1590.51 1968.4 M 1610.65 1992.39 1318.35 1992.39 M 1331.02 2016.37 1452.53 2016.37 M 1427.5 1944.42 1416.5 1944.42 M 1516.5 1944.42 1527.5 1944.42 M 1573.36 2016.37 1591.29 2016.37 M 1593.04 2015.37 1598.63 2013.87 1628.29 2013.87 1628.29 2072.47 1633.82 2072.47 1633.82 2013.87 1663.48 2013.87 1669.07 2015.37 1674.09 2018.26 1678.19 2022.36 1681.08 2027.37 1682.58 2032.97 1682.58 2072.47 1633.82 2072.47 1633.82 2078 1682.58 2078 1682.58 2117.5 1681.08 2123.1 1678.19 2128.11 1674.09 2132.21 1669.07 2135.11 1663.48 2136.61 1633.82 2136.61 1633.82 2078 1628.29 2078 1628.29 2072.47 1579.53 2072.47 1579.53 2032.97 1581.03 2027.37 1583.92 2022.36 1588.02 2018.26 1593.04 2015.37 M 1579.53 2040.36 1578.47 2040.36 M 1578.47 2064.34 1579.53 2064.34 M 1579.53 2078 1628.29 2078 1628.29 2136.61 1598.63 2136.61 1593.04 2135.11 1588.02 2132.21 1583.92 2128.11 1581.03 2123.1 1579.53 2117.5 1579.53 2078 M 1579.53 2088.33 1578.47 2088.33 M 1578.47 2112.31 1579.53 2112.31 M 1571.69 2136.3 1597.48 2136.3 M 1628.29 2136.3 1633.82 2136.3 M 1633.82 2112.31 1628.29 2112.31 M 1628.29 2088.33 1633.82 2088.33 M 1631.06 2075.24 1631.06 2616.18 1622 2625.24 M 1635.19 2639.99 1370 2639.99 M 1370 2616 1646.23 2616 M 1649 2592.02 1370 2592.02 M 1370 2568.03 1649 2568.03 M 1649 2544.05 1370 2544.05 M 1370 2520.06 1429.14 2520.06 M 1413.52 2496.08 1370 2496.08 M 1370 2472.09 1410 2472.09 M 1416.13 2448.1 1370 2448.1 M 1370 2424.12 1433.2 2424.12 M 1415.21 2400.13 1370 2400.13 M 1370 2376.15 1410 2376.15 M 1414.45 2352.16 1370 2352.16 M 1370 2328.18 1431.38 2328.18 M 1416.89 2304.19 1370 2304.19 M 1370 2280.21 1410 2280.21 M 1412.77 2256.22 1370 2256.22 M 1370 2232.24 1427.32 2232.24 M 1418.57 2208.25 1366.92 2208.25 M 1348.91 2184.27 1410 2184.27 M 1411.09 2160.28 1324.93 2160.28 M 1300.94 2136.3 1423.26 2136.3 M 1472 2116.18 1472 2175.24 M 1472 2116.18 1512.94 2075.24 1322 2075.24 1272 2025.24 M 1267.21 2088.33 1234 2088.33 M 1222.6 2112.31 1291.2 2112.31 M 1272 2175.24 1147 2175.24 1122 2200.24 847 2200.24 822 2175.24 822 2075.24 772 2075.24 747 2050.24 747 1775.24 697 1725.24 697 1535.18 687.06 1525.24 M 649 1608.63 566.14 1608.63 M 578.47 1632.61 579.62 1632.61 M 579.53 1656.6 578.47 1656.6 M 578.47 1680.58 579.53 1680.58 M 579.53 1704.57 578.47 1704.57 M 522 1684.29 522 1775.24 622 1775.24 672 1825.24 672 2575.24 722 2625.24 822 2625.24 872 2675.24 1022 2675.24 1072 2625.24 1072 2575.24 M 1117 2653.57 1109.39 2661.19 1100.07 2665.05 1062.69 2702.43 1051.84 2713.28 1065.32 2718.86 1073.97 2727.51 1082.62 2718.86 1109.45 2707.75 1138.49 2707.75 1165.32 2718.86 1185.86 2739.4 1196.97 2766.23 1196.97 2795.27 1185.86 2822.1 1167.31 2840.65 1168.97 2842.31 1174.43 2849.83 1178.65 2858.1 1181.52 2866.93 1182.97 2876.1 1182.97 2880.75 1182.97 2885.39 1181.52 2894.56 1178.65 2903.4 1174.43 2911.67 1168.97 2919.18 1162.4 2925.75 1160.36 2927.24 1477.12 2927.24 1523.94 2880.41 1510.11 2866.59 1499 2839.76 1499 2810.72 1510.11 2783.88 1520.76 2773.24 1362.45 2773.24 1344.81 2765.93 1281.31 2702.43 1274 2684.78 1274 2245.12 1252.12 2223.24 1166.88 2223.24 1162.69 2227.43 1149.19 2240.93 1131.55 2248.24 837.45 2248.24 819.81 2240.93 794.81 2215.93 781.31 2202.43 774 2184.78 774 2123.24 762.45 2123.24 744.81 2115.93 731.31 2102.43 720 2091.12 720 2555.35 741.88 2577.24 782.32 2577.24 784.32 2575.24 769.44 2560.36 760 2537.57 760 2512.9 769.44 2490.12 784.32 2475.24 769.44 2460.36 760 2437.57 760 2412.9 769.44 2390.12 784.32 2375.24 769.44 2360.36 760 2337.57 760 2312.9 769.44 2290.12 786.88 2272.68 809.67 2263.24 834.33 2263.24 857.12 2272.68 874.56 2290.12 884 2312.9 884 2337.57 874.56 2360.36 859.68 2375.24 874.56 2390.12 884 2412.9 884 2437.57 874.56 2460.36 859.68 2475.24 874.56 2490.12 884 2512.9 884 2537.57 874.56 2560.36 859.68 2575.24 874.56 2590.12 884 2612.9 884 2619.35 891.88 2627.24 919.67 2627.24 916 2618.36 916 2532.11 926.05 2507.85 944.61 2489.28 968.87 2479.24 995.13 2479.24 1019.39 2489.28 1027 2496.9 1034.61 2489.28 1058.87 2479.24 1085.13 2479.24 1109.39 2489.28 1110 2489.9 1110 2449.55 1146.32 2413.24 1197.68 2413.24 1234 2449.55 1234 2500.92 1220.62 2514.3 1228 2532.11 1228 2618.36 1217.95 2642.62 1199.39 2661.19 1175.13 2671.24 1148.87 2671.24 1124.61 2661.19 1117 2653.57 M 1102.67 2663.97 1131.33 2663.97 M 1148.61 2711.94 1290.82 2711.94 M 1275.31 2687.96 1077.16 2687.96 M 1099.33 2711.94 1053.18 2711.94 M 1176.09 2831.87 1499 2831.87 M 1500.17 2807.88 1191.74 2807.88 M 1196.97 2783.9 1510.11 2783.9 M 1505.67 2855.85 1177.5 2855.85 M 1182.97 2879.84 1523.36 2879.84 M 1500.53 2903.82 1178.43 2903.82 M 1182.97 2880.75 1123.97 2880.75 1123.97 2880.75 1216.49 2880.75 1272 2825.24 1272 2275.24 M 1274 2280.21 864.65 2280.21 M 880.39 2304.19 1274 2304.19 M 1274 2328.18 884 2328.18 M 877.95 2352.16 1274 2352.16 M 1274 2376.15 860.59 2376.15 M 878.71 2400.13 1274 2400.13 M 1274 2424.12 1208.56 2424.12 M 1232.55 2448.1 1274 2448.1 M 1274 2472.09 1234 2472.09 M 1234 2496.08 1274 2496.08 M 1274 2520.06 1223.01 2520.06 M 1228 2544.05 1274 2544.05 M 1274 2568.03 1228 2568.03 M 1228 2592.02 1274 2592.02 M 1274 2616 1228 2616 M 1219.04 2639.99 1274 2639.99 M 1274 2663.97 1192.67 2663.97 M 1182.38 2735.93 1314.81 2735.93 M 1338.79 2759.91 1194.35 2759.91 M 1182.97 2880.75 1123.97 2880.75 M 1322 2675.24 1322 2225.24 1272 2175.24 M 1261.12 2232.24 1157.88 2232.24 M 1274 2256.22 720 2256.22 M 720 2232.24 811.12 2232.24 M 787.14 2208.25 720 2208.25 M 720 2184.27 774 2184.27 M 774 2160.28 720 2160.28 M 720 2136.3 774 2136.3 M 741.19 2112.31 720 2112.31 M 624 2112.31 572.6 2112.31 M 574.56 2110.36 557.12 2127.8 534.33 2137.24 509.67 2137.24 486.88 2127.8 469.44 2110.36 460 2087.57 460 2062.9 469.44 2040.12 484.32 2025.24 469.44 2010.36 460 1987.57 460 1962.9 469.44 1940.12 484.32 1925.24 482.32 1923.24 387.45 1923.24 369.81 1915.93 356.31 1902.43 284.59 1830.71 270 1824.67 270 2434.78 262.69 2452.43 249.19 2465.93 199.19 2515.93 181.55 2523.24 177.24 2523.24 175.24 2525.24 183.89 2533.88 195 2560.72 195 2589.76 183.89 2616.59 175.24 2625.24 177.24 2627.24 181.55 2627.24 199.19 2634.54 219.73 2655.09 224 2644.78 224 2565.69 231.31 2548.05 244.81 2534.54 294.81 2484.54 312.45 2477.24 482.32 2477.24 484.32 2475.24 469.44 2460.36 460 2437.57 460 2412.9 469.44 2390.12 484.32 2375.24 469.44 2360.36 460 2337.57 460 2312.9 469.44 2290.12 486.88 2272.68 509.67 2263.24 534.33 2263.24 557.12 2272.68 574.56 2290.12 584 2312.9 584 2337.57 574.56 2360.36 559.68 2375.24 574.56 2390.12 584 2412.9 584 2437.57 574.56 2460.36 559.68 2475.24 574.56 2490.12 584 2512.9 584 2537.57 574.56 2560.36 559.68 2575.24 574.56 2590.12 584 2612.9 584 2637.57 574.56 2660.36 557.12 2677.8 534.33 2687.24 509.67 2687.24 486.88 2677.8 469.44 2660.36 460 2637.57 460 2612.9 469.44 2590.12 484.32 2575.24 482.32 2573.24 341.88 2573.24 320 2595.12 320 2644.78 328 2664.1 328 2686.38 319.47 2706.96 303.72 2722.71 283.14 2731.24 270 2731.24 270 2780.35 291.88 2802.24 606.55 2802.24 624.19 2809.54 637.69 2823.05 741.88 2927.24 867.22 2927.24 862.08 2922.1 850.97 2895.27 850.97 2866.23 862.08 2839.4 870.73 2830.75 862.08 2822.1 850.97 2795.27 850.97 2766.23 862.08 2739.4 878.24 2723.24 862.45 2723.24 846.58 2716.66 846.58 2771.77 841.1 2785 830.98 2795.13 817.74 2800.61 744.37 2800.61 731.14 2795.13 721.01 2785 715.53 2771.77 715.53 2678.71 717.79 2673.24 712.45 2673.24 709.9 2672.18 710.08 2672.36 712.97 2677.37 714.47 2682.97 714.47 2722.47 665.71 2722.47 665.71 2663.87 692.75 2663.87 644.81 2615.93 631.31 2602.43 624 2584.78 624 1845.12 602.12 1823.24 561.68 1823.24 559.68 1825.24 574.56 1840.12 584 1862.9 584 1887.57 574.56 1910.36 559.68 1925.24 574.56 1940.12 584 1962.9 584 1987.57 574.56 2010.36 559.68 2025.24 574.56 2040.12 584 2062.9 584 2087.57 574.56 2110.36 M 583.69 2088.33 624 2088.33 M 624 2064.34 584 2064.34 M 574.66 2040.36 624 2040.36 M 624 2016.37 568.54 2016.37 M 582 1992.39 624 1992.39 M 624 1968.4 584 1968.4 M 576.34 1944.42 624 1944.42 M 624 1920.43 564.48 1920.43 M 580.32 1896.45 624 1896.45 M 624 1872.46 584 1872.46 M 578.02 1848.48 624 1848.48 M 603.37 1824.49 560.43 1824.49 M 522 1875.24 397 1875.24 297 1775.24 M 329.51 1728.55 450.23 1728.55 M 447.42 1704.57 270 1704.57 M 270 1680.58 447.42 1680.58 M 447.42 1656.6 270 1656.6 M 270 1632.61 447.42 1632.61 M 459.75 1608.63 270 1608.63 M 348.21 1752.54 464.29 1752.54 M 460 1776.52 366.17 1776.52 M 390.15 1800.51 465.36 1800.51 M 483.57 1824.49 414.14 1824.49 M 350.33 1896.45 270 1896.45 M 270 1920.43 380.68 1920.43 M 326.34 1872.46 270 1872.46 M 270 1848.48 302.36 1848.48 M 270 1944.42 467.66 1944.42 M 460 1968.4 270 1968.4 M 270 1992.39 462 1992.39 M 475.46 2016.37 270 2016.37 M 270 2040.36 469.34 2040.36 M 460 2064.34 270 2064.34 M 270 2088.33 460.31 2088.33 M 471.4 2112.31 270 2112.31 M 270 2136.3 507.4 2136.3 M 536.6 2136.3 624 2136.3 M 624 2160.28 270 2160.28 M 270 2184.27 624 2184.27 M 624 2208.25 270 2208.25 M 270 2232.24 624 2232.24 M 624 2256.22 270 2256.22 M 270 2280.21 479.35 2280.21 M 463.61 2304.19 270 2304.19 M 270 2328.18 460 2328.18 M 466.05 2352.16 270 2352.16 M 270 2376.15 483.41 2376.15 M 465.29 2400.13 270 2400.13 M 270 2424.12 460 2424.12 M 464.36 2448.1 264.48 2448.1 M 243.03 2472.09 481.17 2472.09 M 522 2525.24 322 2525.24 272 2575.24 272 2675.24 M 314.49 2711.94 611.42 2711.94 M 611.42 2722.47 611.42 2682.97 612.92 2677.37 615.81 2672.36 619.91 2668.26 624.93 2665.37 630.52 2663.87 660.18 2663.87 660.18 2722.47 665.71 2722.47 665.71 2728 714.47 2728 714.47 2767.5 712.97 2773.1 710.08 2778.11 705.98 2782.21 700.96 2785.11 695.37 2786.61 665.71 2786.61 665.71 2728 660.18 2728 660.18 2722.47 611.42 2722.47 M 611.42 2728 660.18 2728 660.18 2786.61 630.52 2786.61 624.93 2785.11 619.91 2782.21 615.81 2778.11 612.92 2773.1 611.42 2767.5 611.42 2728 M 611.42 2735.93 270 2735.93 M 270 2759.91 611.42 2759.91 M 612.94 2775.24 662.94 2725.24 M 660.18 2735.93 665.71 2735.93 M 665.71 2759.91 660.18 2759.91 M 660.18 2783.9 665.71 2783.9 M 703.06 2783.9 720.55 2783.9 M 715.53 2759.91 714.47 2759.91 M 714.47 2735.93 715.53 2735.93 M 715.53 2711.94 714.47 2711.94 M 714.47 2687.96 715.53 2687.96 M 665.71 2687.96 660.18 2687.96 M 660.18 2711.94 665.71 2711.94 M 665.71 2663.97 660.18 2663.97 M 668.87 2639.99 583 2639.99 M 584 2616 644.88 2616 M 627 2592.02 575.35 2592.02 M 566.89 2568.03 624 2568.03 M 624 2544.05 581.32 2544.05 M 584 2520.06 624 2520.06 M 624 2496.08 577.03 2496.08 M 562.83 2472.09 624 2472.09 M 624 2448.1 579.64 2448.1 M 584 2424.12 624 2424.12 M 624 2400.13 578.71 2400.13 M 560.59 2376.15 624 2376.15 M 624 2352.16 577.95 2352.16 M 584 2328.18 624 2328.18 M 624 2304.19 580.39 2304.19 M 564.65 2280.21 624 2280.21 M 720 2280.21 779.35 2280.21 M 763.61 2304.19 720 2304.19 M 720 2328.18 760 2328.18 M 766.05 2352.16 720 2352.16 M 720 2376.15 783.41 2376.15 M 765.29 2400.13 720 2400.13 M 720 2424.12 760 2424.12 M 764.36 2448.1 720 2448.1 M 720 2472.09 781.17 2472.09 M 766.97 2496.08 720 2496.08 M 720 2520.06 760 2520.06 M 762.68 2544.05 720 2544.05 M 732.68 2568.03 777.11 2568.03 M 822 2625.24 781.06 2666.18 781.06 2725.24 M 846.58 2735.93 865.55 2735.93 M 853.59 2759.91 846.58 2759.91 M 850.97 2783.9 841.56 2783.9 M 856.19 2807.88 620.18 2807.88 M 637.69 2823.05 637.69 2823.05 M 646.51 2831.87 869.61 2831.87 M 855.27 2855.85 670.5 2855.85 M 694.48 2879.84 850.97 2879.84 M 854.51 2903.82 718.47 2903.82 M 722 2975.24 1497 2975.24 1572 2900.24 1572 2825.24 M 1622 2878.47 1620 2880.47 1620 2909.78 1612.69 2927.43 1599.19 2940.93 1524.19 3015.93 1506.55 3023.24 712.45 3023.24 694.81 3015.93 681.31 3002.43 681.31 3002.43 577.12 2898.24 262.45 2898.24 244.81 2890.93 231.31 2877.43 231.31 2877.43 181.31 2827.43 178.89 2821.59 163.35 2837.12 136.52 2848.24 107.48 2848.24 80.65 2837.12 74 2830.47 74 2903.7 93.54 2923.24 532.34 2923.24 551.46 2931.15 643.54 3023.24 1900.46 3023.24 1977.92 2945.78 1992.54 2931.15 2011.66 2923.24 2070 2923.24 2070 2830.47 2063.35 2837.12 2036.52 2848.24 2007.48 2848.24 1980.65 2837.12 1960.11 2816.59 1949 2789.76 1949 2760.72 1960.11 2733.88 1968.76 2725.24 1960.11 2716.59 1949 2689.76 1949 2660.72 1960.11 2633.88 1968.76 2625.24 1960.11 2616.59 1949 2589.76 1949 2560.72 1960.11 2533.88 1968.76 2525.24 1960.11 2516.59 1949 2489.76 1949 2460.72 1960.11 2433.88 1968.76 2425.24 1960.11 2416.59 1949 2389.76 1949 2360.72 1960.11 2333.88 1968.76 2325.24 1960.11 2316.59 1949 2289.76 1949 2260.72 1960.11 2233.88 1980.65 2213.35 2007.48 2202.24 2036.52 2202.24 2063.35 2213.35 2070 2220 2070 2130.47 2063.35 2137.12 2036.52 2148.24 2007.48 2148.24 1980.65 2137.12 1966.76 2123.24 1962.45 2123.24 1944.81 2115.93 1920 2091.12 1920 2334.78 1912.69 2352.43 1899.19 2365.93 1849.19 2415.93 1831.55 2423.24 1811.68 2423.24 1809.68 2425.24 1824.56 2440.12 1834 2462.9 1834 2487.57 1824.56 2510.36 1820 2514.92 1820 2684.78 1812.69 2702.43 1762.69 2752.43 1749.19 2765.93 1731.55 2773.24 1723.24 2773.24 1731.9 2781.9 1733.56 2780.23 1741.08 2774.77 1749.35 2770.56 1758.18 2767.69 1767.36 2766.24 1772 2766.24 1776.64 2766.24 1785.82 2767.69 1794.65 2770.56 1802.92 2774.77 1810.44 2780.23 1812.1 2781.9 1830.65 2763.35 1857.48 2752.24 1886.52 2752.24 1913.35 2763.35 1933.89 2783.88 1945 2810.72 1945 2839.76 1933.89 2866.59 1913.35 2887.12 1886.52 2898.24 1857.48 2898.24 1830.65 2887.12 1812.1 2868.57 1810.44 2870.24 1802.92 2875.7 1794.65 2879.91 1785.82 2882.78 1776.64 2884.24 1772 2884.24 1767.36 2884.24 1758.18 2882.78 1749.35 2879.91 1741.08 2875.7 1733.56 2870.24 1731.9 2868.57 1713.35 2887.12 1686.52 2898.24 1657.48 2898.24 1630.65 2887.12 1622 2878.47 M 1620.64 2879.84 1623.36 2879.84 M 1620 2903.82 2070 2903.82 M 2070 2879.84 1920.64 2879.84 M 1938.33 2855.85 2070 2855.85 M 2070 2831.87 2068.61 2831.87 M 2000.62 2927.81 1612.31 2927.81 M 1588.33 2951.79 1971.9 2951.79 M 1947.92 2975.78 1564.34 2975.78 M 1540.36 2999.76 1923.93 2999.76 M 1823.36 2879.84 1794.8 2879.84 M 1772 2879.84 1772 2879.84 M 1772 2884.24 1772 2825.24 1772 2825.24 1772 2884.24 M 1749.2 2879.84 1720.64 2879.84 M 1772 2855.85 1772 2855.85 M 1772 2831.87 1772 2831.87 M 1772 2825.23 1772 2766.24 1772 2825.23 1772 2825.23 M 1772 2807.88 1772 2807.88 M 1772 2783.9 1772 2783.9 M 1755.21 2759.91 1838.95 2759.91 M 1803.18 2711.94 1958.19 2711.94 M 1959.27 2735.93 1779.19 2735.93 M 1722 2725.24 1772 2675.24 1772 2475.24 M 1733.2 2424.12 1510.8 2424.12 M 1527.87 2448.1 1676.52 2448.1 M 1697 2500.24 1697 2631.05 1691.19 2650.24 M 1636.26 2663.97 1378.62 2663.97 M 1322 2675.24 1372 2725.24 1722 2725.24 M 1818.69 2687.96 1949 2687.96 M 1949 2663.97 1820 2663.97 M 1820 2639.99 1957.59 2639.99 M 1959.87 2616 1820 2616 M 1820 2592.02 1949.94 2592.02 M 1949 2568.03 1820 2568.03 M 1820 2544.05 1955.91 2544.05 M 1963.59 2520.06 1820 2520.06 M 1830.48 2496.08 1951.62 2496.08 M 1949 2472.09 1834 2472.09 M 1827.87 2448.1 1954.22 2448.1 M 1967.65 2424.12 1810.8 2424.12 M 1822 2375.24 1772 2375.24 M 1822 2375.24 1872 2325.24 1872 1825.24 M 1797 1875.24 1710.38 1875.24 1641.19 1944.43 M 1691.87 1968.4 1824 1968.4 M 1824 1944.42 1709.08 1944.42 M 1671.73 1992.39 1824 1992.39 M 1824 2016.37 1670.82 2016.37 M 1682.58 2040.36 1824 2040.36 M 1824 2064.34 1682.58 2064.34 M 1682.58 2088.33 1824 2088.33 M 1824 2112.31 1682.58 2112.31 M 1664.63 2136.3 1723.26 2136.3 M 1711.09 2160.28 1532.91 2160.28 M 1534 2184.27 1710 2184.27 M 1718.57 2208.25 1525.43 2208.25 M 1516.68 2232.24 1727.32 2232.24 M 1712.77 2256.22 1531.23 2256.22 M 1534 2280.21 1710 2280.21 M 1716.89 2304.19 1527.11 2304.19 M 1512.62 2328.18 1731.38 2328.18 M 1714.45 2352.16 1529.55 2352.16 M 1534 2376.15 1710 2376.15 M 1715.21 2400.13 1528.79 2400.13 M 1534 2472.09 1648.04 2472.09 M 1641 2496.08 1530.48 2496.08 M 1514.86 2520.06 1644.6 2520.06 M 1864.98 2400.13 1953.3 2400.13 M 1949 2376.15 1888.97 2376.15 M 1912.8 2352.16 1952.54 2352.16 M 1965.82 2328.18 1920 2328.18 M 1920 2304.19 1954.98 2304.19 M 1949 2280.21 1920 2280.21 M 1920 2256.22 1950.86 2256.22 M 1961.76 2232.24 1920 2232.24 M 1920 2208.25 1992.95 2208.25 M 2051.05 2208.25 2070 2208.25 M 2070 2184.27 1920 2184.27 M 1920 2160.28 2070 2160.28 M 2070 2136.3 2064.18 2136.3 M 2022 2075.24 1972 2075.24 1922 2025.24 1922 1475.24 1872 1425.24 1722 1425.24 M 1698.83 1488.7 1368.38 1488.7 M 1370 1464.72 1585.82 1464.72 M 1568.5 1440.73 1370 1440.73 M 1370 1416.74 1568.5 1416.74 M 1578.82 1392.76 1370 1392.76 M 1370 1368.77 1683 1368.77 M 1622 1371.74 1622 1425.23 1622 1425.23 1622 1371.74 M 1622 1392.76 1622 1392.76 M 1622 1416.74 1622 1416.74 M 1622 1440.73 1622 1440.73 M 1622 1464.72 1622 1464.72 M 1658.18 1464.72 1666.02 1464.72 M 1745.17 1488.7 1867.58 1488.7 M 1874 1512.69 1352.43 1512.69 M 1328.45 1536.67 1874 1536.67 M 1874 1560.66 1304.46 1560.66 M 1265.83 1584.64 1874 1584.64 M 1955.38 1440.73 1957.28 1440.73 M 1960.27 1416.74 1931.39 1416.74 M 1950.24 1392.76 1907.41 1392.76 M 1949 1368.77 1761 1368.77 M 1748.29 1224.86 1567.09 1224.86 M 1572.02 1200.88 1731.18 1200.88 M 1726 1176.89 1575.5 1176.89 M 1575.5 1175.24 1522 1175.24 1522 1175.24 1575.5 1175.24 M 1575.33 1152.91 1729.81 1152.91 M 1744.97 1128.92 1551.35 1128.92 M 1540.47 1104.94 1749.3 1104.94 M 1740.26 1080.95 1540.68 1080.95 M 1540.68 1056.97 1743.26 1056.97 M 1822 975.24 1822 775.24 M 1772.82 721.18 1526.68 721.18 M 1526.68 745.16 1755.44 745.16 M 1749 769.15 1434 769.15 M 1434 790.39 1526.68 790.39 1526.68 794.5 1529.34 793.79 1602.91 793.79 1602.91 886.46 1510.24 886.46 1510.24 882.35 1507.57 883.06 1434 883.06 1434 790.39 M 1434 793.13 1410 793.13 M 1410 769.15 961.37 769.15 M 1067.1 1176.89 743.62 1176.89 M 740.95 1224.86 620 1224.86 M 620 1248.85 719.23 1248.85 M 713 1272.83 620 1272.83 M 620.84 1296.82 716.98 1296.82 M 572 1525.24 397 1525.24 M 512.94 1675.24 522 1684.29 M 631.06 1675.24 631.06 1584.29 572 1525.24 M 628.29 1632.61 633.82 1632.61 M 633.82 1656.6 628.29 1656.6 M 745 1656.6 924 1656.6 M 924 1680.58 745 1680.58 M 745 1704.57 924 1704.57 M 924 1728.55 863 1728.55 M 879.71 1752.54 924 1752.54 M 924 1776.52 884 1776.52 M 878.64 1800.51 924 1800.51 M 924 1824.49 860.43 1824.49 M 878.02 1848.48 929.67 1848.48 M 951.34 1872.46 884 1872.46 M 880.32 1896.45 975.33 1896.45 M 1005.68 1920.43 864.48 1920.43 M 876.34 1944.42 1327.5 1944.42 M 1410.95 1800.51 1433.05 1800.51 M 1510.95 1800.51 1533.05 1800.51 M 1610.95 1800.51 1779.39 1800.51 M 1773.17 1824.49 1628.86 1824.49 M 1634 1848.48 1669.25 1848.48 M 1645.27 1872.46 1634 1872.46 M 1631.06 2016.18 1631.06 2075.24 M 1628.29 2064.34 1633.82 2064.34 M 1633.82 2040.36 1628.29 2040.36 M 1628.29 2016.37 1633.82 2016.37 M 1820.74 2136.3 1824 2136.3 M 1920 2136.3 1979.82 2136.3 M 1941.2 2112.31 1920 2112.31 M 2022 1975.23 2022 1975.23 2022 1916.24 2022 1875.24 2022 1975.23 M 2022 1968.4 2022 1968.4 M 2022 1944.42 2022 1944.42 M 2022 1920.43 2022 1920.43 M 2022 1896.45 2022 1896.45 M 2022 1875.24 2022 1875.24 M 1755.4 1776.52 1083.4 1776.52 M 1071.86 1656.6 1021.24 1656.6 M 1020 1632.61 1063.43 1632.61 M 1065.36 1608.63 1017.07 1608.63 M 999.29 1584.64 1078.17 1584.64 M 1057.66 1560.66 975.3 1560.66 M 951.32 1536.67 1049 1536.67 M 1049 1512.69 935.5 1512.69 M 945 1488.7 1058.12 1488.7 M 1059.34 1464.72 945 1464.72 M 936.72 1440.73 1049.4 1440.73 M 1049 1416.74 916.75 1416.74 M 928.34 1392.76 1056.44 1392.76 M 1075.22 1368.77 930.71 1368.77 M 922 1575.24 872 1575.24 M 826.14 1632.61 817.86 1632.61 M 781 1728.55 768.2 1728.55 M 922 1575.24 972 1625.24 972 1675.24 M 1222 1525.24 1272 1525.24 1322 1475.24 1322 1275.24 1272 1225.24 1222 1225.24 M 1276.9 1176.89 1374 1176.89 M 1374 1200.88 1315.52 1200.88 M 1339.51 1224.86 1374 1224.86 M 1379.83 1248.85 1363.02 1248.85 M 1370 1272.83 1401.72 1272.83 M 1425.7 1296.82 1370 1296.82 M 1370 1320.8 1456.58 1320.8 M 1370 1344.79 1955.6 1344.79 M 1973.19 1320.8 1571.89 1320.8 M 1422 1075.24 1422 1014.61 M 1410 865.09 1434 865.09 M 1434 841.1 1410 841.1 M 1410 817.12 1434 817.12 M 1526.68 793.13 1750.4 793.13 M 1760.64 817.12 1719.59 817.12 M 1719.59 841.1 1774 841.1 M 1774 865.09 1719.59 865.09 M 1626.91 865.09 1602.91 865.09 M 1602.91 841.1 1626.91 841.1 M 1626.91 817.12 1602.91 817.12 M 1602.91 913.06 1626.91 913.06 M 1626.91 937.04 1602.91 937.04 M 1602.91 961.03 1626.91 961.03 M 1626.91 985.01 1602.91 985.01 M 1526.68 697.19 2020.42 697.19 M 2044.4 721.18 1971.18 721.18 M 1988.56 745.16 2068.39 745.16 M 2070 769.15 1995 769.15 M 1993.6 793.13 2070 793.13 M 2070 817.12 1983.36 817.12 M 1970 841.1 2070 841.1 M 2070 865.09 1970 865.09 M 1970 889.07 2070 889.07 M 2070 913.06 2038.69 913.06 M 2047.37 937.04 2070 937.04 M 2070 961.03 2047.37 961.03 M 2047.37 985.01 2070 985.01 M 2070 1009 2044.83 1009 M 1974.76 1104.94 1969.24 1104.94 M 1969.24 1128.92 1974.76 1128.92 M 1916.62 1128.92 1899.03 1128.92 M 1894.7 1104.94 1910.63 1104.94 M 1910.63 1080.95 1903.74 1080.95 M 1900.74 1056.97 1910.63 1056.97 M 1928.91 1032.98 1885.05 1032.98 M 1972 966.18 1922 916.18 1922 775.24 M 1872.82 721.18 1871.18 721.18 M 1216 2016.37 1200.82 2016.37 M 1172 2075.24 1097 2075.24 1047 2125.24 M 996.23 2088.33 883.69 2088.33 M 884 2064.34 1020.21 2064.34 M 1064 2040.36 874.66 2040.36 M 868.54 2016.37 1143.18 2016.37 M 985 2112.31 872.6 2112.31 M 870 2136.3 985 2136.3 M 884 2424.12 1135.44 2424.12 M 1111.45 2448.1 879.64 2448.1 M 862.83 2472.09 1110 2472.09 M 1162 2485.24 1172 2475.24 M 1162 2485.24 1162 2575.24 M 1027.82 2496.08 1026.18 2496.08 M 937.82 2496.08 877.03 2496.08 M 884 2520.06 920.99 2520.06 M 916 2544.05 881.32 2544.05 M 866.89 2568.03 916 2568.03 M 916 2592.02 875.35 2592.02 M 884 2616 916 2616 M 597 2850.24 722 2975.24 M 678.64 2999.76 620.07 2999.76 M 596.08 2975.78 654.66 2975.78 M 630.67 2951.79 572.1 2951.79 M 543.38 2927.81 606.69 2927.81 M 582.7 2903.82 74.12 2903.82 M 74 2879.84 233.72 2879.84 M 209.73 2855.85 74 2855.85 M 74 2831.87 75.39 2831.87 M 168.61 2831.87 185.75 2831.87 M 222 2800.24 272 2850.24 597 2850.24 M 622.83 2783.9 273.54 2783.9 M 222 2800.24 222 2725.24 172 2675.24 122 2675.24 M 184.13 2616 224 2616 M 224 2592.02 194.06 2592.02 M 195 2568.03 224 2568.03 M 235.31 2544.05 188.09 2544.05 M 189.22 2520.06 259.29 2520.06 M 244.81 2534.54 244.81 2534.54 M 219.04 2496.08 283.28 2496.08 M 222 2425.24 222 1175.24 M 222 2425.24 172 2475.24 122 2475.24 M 204.63 2639.99 224 2639.99 M 320 2639.99 461 2639.99 M 460 2616 320 2616 M 323.1 2592.02 468.65 2592.02 M 473.05 2663.97 327.95 2663.97 M 327.35 2687.96 611.42 2687.96 M 630.13 2663.97 570.95 2663.97 M 572 2775.24 612.94 2775.24 M 1905.05 2759.91 1949.33 2759.91 M 1949 2783.9 1933.89 2783.9 M 1943.83 2807.88 1956.51 2807.88 M 1945 2831.87 1975.39 2831.87" fill="none" stroke-width="24"/><use xlink:href="#QWVN2PhaP7Rf_Ei1NJf7_pad-22" x="1697" y="2500.24"/><use xlink:href="#QWVN2PhaP7Rf_Ei1NJf7_pad-22" x="1622" y="2625.24"/><use xlink:href="#QWVN2PhaP7Rf_Ei1NJf7_pad-22" x="1691.19" y="2650.24"/><use xlink:href="#QWVN2PhaP7Rf_Ei1NJf7_pad-22" x="1272" y="2025.24"/><use xlink:href="#QWVN2PhaP7Rf_Ei1NJf7_pad-22" x="1172" y="1875.24"/><use xlink:href="#QWVN2PhaP7Rf_Ei1NJf7_pad-22" x="1122" y="2275.24"/><use xlink:href="#QWVN2PhaP7Rf_Ei1NJf7_pad-22" x="1641.19" y="1944.43"/><use xlink:href="#QWVN2PhaP7Rf_Ei1NJf7_pad-22" x="1722" y="1975.24"/><use xlink:href="#QWVN2PhaP7Rf_Ei1NJf7_pad-22" x="1797" y="1875.24"/><use xlink:href="#QWVN2PhaP7Rf_Ei1NJf7_pad-22" x="722" y="1125.24"/><use xlink:href="#QWVN2PhaP7Rf_Ei1NJf7_pad-22" x="572" y="1325.24"/><use xlink:href="#QWVN2PhaP7Rf_Ei1NJf7_pad-22" x="687.06" y="1525.24"/><use xlink:href="#QWVN2PhaP7Rf_Ei1NJf7_pad-22" x="397" y="1525.24"/><use xlink:href="#QWVN2PhaP7Rf_Ei1NJf7_pad-22" x="297" y="1775.24"/><use xlink:href="#QWVN2PhaP7Rf_Ei1NJf7_pad-22" x="272" y="2675.24"/><use xlink:href="#QWVN2PhaP7Rf_Ei1NJf7_pad-22" x="572" y="2775.24"/></g><g id="krjalWc2usT_-w8ofuO1_bottom_silkscreen"><path d="M 122 625.24 2022 625.24 2122 725.24 2122 2975.24 2022 2975.24 1922 3075.24 622 3075.24 522 2975.24 72 2975.24 22 2925.24 22 725.24 122 625.24" fill="none" stroke-width="0"/><path d="M 492.04 1614.93 503.38 1614.93 M 492.04 1614.92 491.5 1614.94 490.96 1615 490.43 1615.09 489.91 1615.23 489.4 1615.4 488.9 1615.6 488.42 1615.84 487.95 1616.12 487.51 1616.43 487.09 1616.77 486.69 1617.13 486.33 1617.53 485.99 1617.95 485.68 1618.39 485.4 1618.86 485.16 1619.34 484.96 1619.84 484.79 1620.35 484.65 1620.87 484.56 1621.4 484.5 1621.94 484.48 1622.48 M 484.49 1622.48 484.49 1626.26 M 484.48 1626.26 484.5 1626.8 484.56 1627.34 484.65 1627.87 484.79 1628.39 484.96 1628.9 485.16 1629.4 485.4 1629.88 485.68 1630.35 485.99 1630.79 486.33 1631.21 486.69 1631.61 487.09 1631.97 487.51 1632.31 487.95 1632.62 488.42 1632.9 488.9 1633.14 489.4 1633.34 489.91 1633.51 490.43 1633.65 490.96 1633.74 491.5 1633.8 492.04 1633.82 503.38 1633.82 503.38 1648.93 484.49 1648.93 M 518.42 1648.93 525.97 1648.93 526.51 1648.91 527.05 1648.85 527.58 1648.76 528.1 1648.62 528.61 1648.45 529.11 1648.25 529.59 1648.01 530.06 1647.73 530.5 1647.42 530.92 1647.08 531.32 1646.72 531.68 1646.32 532.02 1645.9 532.33 1645.46 532.61 1644.99 532.85 1644.51 533.05 1644.01 533.22 1643.5 533.36 1642.98 533.45 1642.45 533.51 1641.91 533.53 1641.37 533.53 1622.48 533.51 1621.94 533.45 1621.4 533.36 1620.87 533.22 1620.35 533.05 1619.84 532.85 1619.34 532.61 1618.86 532.33 1618.39 532.02 1617.95 531.68 1617.53 531.32 1617.13 530.92 1616.77 530.5 1616.43 530.06 1616.12 529.59 1615.84 529.11 1615.6 528.61 1615.4 528.1 1615.23 527.58 1615.09 527.05 1615 526.51 1614.94 525.97 1614.92 M 525.97 1614.93 518.42 1614.93 M 794.4 2776.54 801.96 2776.54 802.5 2776.56 803.04 2776.62 803.57 2776.71 804.09 2776.85 804.6 2777.02 805.1 2777.22 805.58 2777.46 806.05 2777.74 806.49 2778.05 806.91 2778.39 807.31 2778.75 807.67 2779.15 808.01 2779.57 808.32 2780.01 808.6 2780.48 808.84 2780.96 809.04 2781.46 809.21 2781.97 809.35 2782.49 809.44 2783.02 809.5 2783.56 809.52 2784.1 M 809.51 2784.1 809.51 2802.99 M 809.52 2802.99 809.5 2803.53 809.44 2804.07 809.35 2804.6 809.21 2805.12 809.04 2805.63 808.84 2806.13 808.6 2806.61 808.32 2807.08 808.01 2807.52 807.67 2807.94 807.31 2808.34 806.91 2808.7 806.49 2809.04 806.05 2809.35 805.58 2809.63 805.1 2809.87 804.6 2810.07 804.09 2810.24 803.57 2810.38 803.04 2810.47 802.5 2810.53 801.96 2810.55 M 801.96 2810.54 794.4 2810.54 M 779.36 2795.43 779.36 2785.99 M 779.36 2795.43 768.03 2795.43 M 779.36 2795.43 779.34 2796.2 779.28 2796.96 779.19 2797.72 779.05 2798.47 778.88 2799.22 778.67 2799.95 778.42 2800.68 778.14 2801.39 777.82 2802.08 777.46 2802.76 777.07 2803.42 776.65 2804.06 776.2 2804.68 775.71 2805.27 775.2 2805.84 774.66 2806.38 774.09 2806.89 773.5 2807.38 772.88 2807.83 772.24 2808.25 771.58 2808.64 770.9 2809 770.21 2809.32 769.5 2809.6 768.77 2809.85 768.04 2810.06 767.29 2810.23 766.54 2810.37 765.78 2810.46 765.02 2810.52 764.25 2810.54 M 760.47 2787.88 760.47 2785.99 M 760.47 2787.88 760.49 2788.42 760.55 2788.96 760.64 2789.49 760.78 2790.01 760.95 2790.52 761.15 2791.02 761.39 2791.5 761.67 2791.97 761.98 2792.41 762.32 2792.83 762.68 2793.23 763.08 2793.59 763.5 2793.93 763.94 2794.24 764.41 2794.52 764.89 2794.76 765.39 2794.96 765.9 2795.13 766.42 2795.27 766.95 2795.36 767.49 2795.42 768.03 2795.44 M 760.48 2785.99 760.5 2785.39 760.56 2784.78 760.65 2784.19 760.79 2783.6 760.96 2783.02 761.17 2782.45 761.41 2781.89 761.69 2781.36 762.01 2780.84 762.35 2780.34 762.73 2779.87 763.14 2779.42 763.57 2779 764.03 2778.61 764.52 2778.25 765.03 2777.92 765.55 2777.62 766.1 2777.36 766.66 2777.13 767.23 2776.94 767.82 2776.79 768.41 2776.67 769.01 2776.59 769.62 2776.55 770.22 2776.55 770.83 2776.59 771.43 2776.67 772.02 2776.79 772.61 2776.94 773.18 2777.13 773.74 2777.36 774.29 2777.62 774.81 2777.92 775.32 2778.25 775.81 2778.61 776.27 2779 776.7 2779.42 777.11 2779.87 777.49 2780.34 777.83 2780.84 778.15 2781.36 778.43 2781.89 778.67 2782.45 778.88 2783.02 779.05 2783.6 779.19 2784.19 779.28 2784.78 779.34 2785.39 779.36 2785.99 M 1609.49 2023.93 1618.93 1989.93 M 1643.42 1989.93 1650.97 1989.93 M 1650.97 1989.92 1651.51 1989.94 1652.05 1990 1652.58 1990.09 1653.1 1990.23 1653.61 1990.4 1654.11 1990.6 1654.59 1990.84 1655.06 1991.12 1655.5 1991.43 1655.92 1991.77 1656.32 1992.13 1656.68 1992.53 1657.02 1992.95 1657.33 1993.39 1657.61 1993.86 1657.85 1994.34 1658.05 1994.84 1658.22 1995.35 1658.36 1995.87 1658.45 1996.4 1658.51 1996.94 1658.53 1997.48 1658.53 2016.37 1658.51 2016.91 1658.45 2017.45 1658.36 2017.98 1658.22 2018.5 1658.05 2019.01 1657.85 2019.51 1657.61 2019.99 1657.33 2020.46 1657.02 2020.9 1656.68 2021.32 1656.32 2021.72 1655.92 2022.08 1655.5 2022.42 1655.06 2022.73 1654.59 2023.01 1654.11 2023.25 1653.61 2023.45 1653.1 2023.62 1652.58 2023.76 1652.05 2023.85 1651.51 2023.91 1650.97 2023.93 1643.42 2023.93 M 1628.38 2023.93 1609.49 2023.93 M 1628.38 2023.93 1628.38 2020.15 M 2023.31 1029.76 2023.31 1010.87 M 2023.31 1020.32 2057.31 1020.32 2049.75 1010.87 M 2057.31 984.32 2023.31 984.32 M 2023.31 993.76 2023.31 974.87 M 2023.31 959.84 2023.31 952.28 M 2023.3 952.28 2023.32 951.74 2023.38 951.2 2023.47 950.67 2023.61 950.15 2023.78 949.64 2023.98 949.14 2024.22 948.66 2024.5 948.19 2024.81 947.75 2025.15 947.33 2025.51 946.93 2025.91 946.57 2026.33 946.23 2026.77 945.92 2027.24 945.64 2027.72 945.4 2028.22 945.2 2028.73 945.03 2029.25 944.89 2029.78 944.8 2030.32 944.74 2030.86 944.72 2049.75 944.72 2050.29 944.74 2050.83 944.8 2051.36 944.89 2051.88 945.03 2052.39 945.2 2052.89 945.4 2053.37 945.64 2053.84 945.92 2054.28 946.23 2054.7 946.57 2055.1 946.93 2055.46 947.33 2055.8 947.75 2056.11 948.19 2056.39 948.66 2056.63 949.14 2056.83 949.64 2057 950.15 2057.14 950.67 2057.23 951.2 2057.29 951.74 2057.31 952.28 2057.31 959.84 M 2049.75 974.87 2057.31 984.32" fill="none" stroke-width="6"/><path d="M 2001.53 965.2 2001.53 1085.28 M 1942.47 1085.28 1942.47 965.2 M 1632.04 2045.71 1511.96 2045.71 M 1511.96 2104.76 1632.04 2104.76 M 782.04 2695.71 661.96 2695.71 M 661.96 2754.76 782.04 2754.76 M 632.04 1704.76 511.96 1704.76 M 511.96 1645.71 632.04 1645.71" fill="none" stroke-width="4"/><use xlink:href="#h8izyUBXA6Fm9s-Debdn_pad-13" x="625.15" y="1675.24"/><use xlink:href="#h8izyUBXA6Fm9s-Debdn_pad-13" x="518.85" y="1675.24"/><use xlink:href="#h8izyUBXA6Fm9s-Debdn_pad-13" x="668.85" y="2725.24"/><use xlink:href="#h8izyUBXA6Fm9s-Debdn_pad-13" x="775.15" y="2725.24"/><use xlink:href="#h8izyUBXA6Fm9s-Debdn_pad-13" x="1518.85" y="2075.24"/><use xlink:href="#h8izyUBXA6Fm9s-Debdn_pad-13" x="1625.15" y="2075.24"/><use xlink:href="#h8izyUBXA6Fm9s-Debdn_pad-14" x="1972" y="1078.39"/><use xlink:href="#h8izyUBXA6Fm9s-Debdn_pad-14" x="1972" y="972.09"/><path d="M 1057 1600.24 1057 1650.24 M 712 1600.24 712 1550.24" fill="none" stroke-width="8"/></g><g id="krjalWc2usT_-w8ofuO1_bottom_drill1"><use xlink:href="#F0BG0djjbfyblxdr-xI2_pad-1" x="722" y="1125.2"/><use xlink:href="#F0BG0djjbfyblxdr-xI2_pad-1" x="572" y="1325.2"/><use xlink:href="#F0BG0djjbfyblxdr-xI2_pad-1" x="687.1" y="1525.2"/><use xlink:href="#F0BG0djjbfyblxdr-xI2_pad-1" x="397" y="1525.2"/><use xlink:href="#F0BG0djjbfyblxdr-xI2_pad-1" x="297" y="1775.2"/><use xlink:href="#F0BG0djjbfyblxdr-xI2_pad-1" x="272" y="2675.2"/><use xlink:href="#F0BG0djjbfyblxdr-xI2_pad-1" x="572" y="2775.2"/><use xlink:href="#F0BG0djjbfyblxdr-xI2_pad-1" x="1122" y="2275.2"/><use xlink:href="#F0BG0djjbfyblxdr-xI2_pad-1" x="1272" y="2025.2"/><use xlink:href="#F0BG0djjbfyblxdr-xI2_pad-1" x="1172" y="1875.2"/><use xlink:href="#F0BG0djjbfyblxdr-xI2_pad-1" x="1641.2" y="1944.4"/><use xlink:href="#F0BG0djjbfyblxdr-xI2_pad-1" x="1722" y="1975.2"/><use xlink:href="#F0BG0djjbfyblxdr-xI2_pad-1" x="1797" y="1875.2"/><use xlink:href="#F0BG0djjbfyblxdr-xI2_pad-1" x="1697" y="2500.2"/><use xlink:href="#F0BG0djjbfyblxdr-xI2_pad-1" x="1622" y="2625.2"/><use xlink:href="#F0BG0djjbfyblxdr-xI2_pad-1" x="1691.2" y="2650.2"/><use xlink:href="#F0BG0djjbfyblxdr-xI2_pad-2" x="1772" y="2475.2"/><use xlink:href="#F0BG0djjbfyblxdr-xI2_pad-2" x="1772" y="2375.2"/><use xlink:href="#F0BG0djjbfyblxdr-xI2_pad-2" x="1772" y="2275.2"/><use xlink:href="#F0BG0djjbfyblxdr-xI2_pad-2" x="1772" y="2175.2"/><use xlink:href="#F0BG0djjbfyblxdr-xI2_pad-2" x="1572" y="1875.2"/><use xlink:href="#F0BG0djjbfyblxdr-xI2_pad-2" x="1472" y="1875.2"/><use xlink:href="#F0BG0djjbfyblxdr-xI2_pad-2" x="1372" y="1875.2"/><use xlink:href="#F0BG0djjbfyblxdr-xI2_pad-2" x="1172" y="2075.2"/><use xlink:href="#F0BG0djjbfyblxdr-xI2_pad-2" x="1047" y="2125.2"/><use xlink:href="#F0BG0djjbfyblxdr-xI2_pad-2" x="822" y="2075.2"/><use xlink:href="#F0BG0djjbfyblxdr-xI2_pad-2" x="822" y="1975.2"/><use xlink:href="#F0BG0djjbfyblxdr-xI2_pad-2" x="822" y="1875.2"/><use xlink:href="#F0BG0djjbfyblxdr-xI2_pad-2" x="822" y="1775.2"/><use xlink:href="#F0BG0djjbfyblxdr-xI2_pad-2" x="1047" y="1725.2"/><use xlink:href="#F0BG0djjbfyblxdr-xI2_pad-2" x="1472" y="2175.2"/><use xlink:href="#F0BG0djjbfyblxdr-xI2_pad-2" x="1472" y="2275.2"/><use xlink:href="#F0BG0djjbfyblxdr-xI2_pad-2" x="1472" y="2375.2"/><use xlink:href="#F0BG0djjbfyblxdr-xI2_pad-2" x="1472" y="2475.2"/><use xlink:href="#F0BG0djjbfyblxdr-xI2_pad-2" x="1172" y="2475.2"/><use xlink:href="#F0BG0djjbfyblxdr-xI2_pad-2" x="822" y="2425.2"/><use xlink:href="#F0BG0djjbfyblxdr-xI2_pad-2" x="822" y="2325.2"/><use xlink:href="#F0BG0djjbfyblxdr-xI2_pad-2" x="822" y="2525.2"/><use xlink:href="#F0BG0djjbfyblxdr-xI2_pad-2" x="822" y="2625.2"/><use xlink:href="#F0BG0djjbfyblxdr-xI2_pad-2" x="522" y="2625.2"/><use xlink:href="#F0BG0djjbfyblxdr-xI2_pad-2" x="522" y="2525.2"/><use xlink:href="#F0BG0djjbfyblxdr-xI2_pad-2" x="522" y="2425.2"/><use xlink:href="#F0BG0djjbfyblxdr-xI2_pad-2" x="522" y="2325.2"/><use xlink:href="#F0BG0djjbfyblxdr-xI2_pad-2" x="522" y="2075.2"/><use xlink:href="#F0BG0djjbfyblxdr-xI2_pad-2" x="522" y="1975.2"/><use xlink:href="#F0BG0djjbfyblxdr-xI2_pad-2" x="522" y="1875.2"/><use xlink:href="#F0BG0djjbfyblxdr-xI2_pad-2" x="522" y="1775.2"/><use xlink:href="#F0BG0djjbfyblxdr-xI2_pad-2" x="322" y="1075.2"/><use xlink:href="#F0BG0djjbfyblxdr-xI2_pad-2" x="322" y="975.2"/><use xlink:href="#F0BG0djjbfyblxdr-xI2_pad-2" x="922" y="925.2"/><use xlink:href="#F0BG0djjbfyblxdr-xI2_pad-2" x="922" y="825.2"/><use xlink:href="#F0BG0djjbfyblxdr-xI2_pad-2" x="1522" y="1175.2"/><use xlink:href="#F0BG0djjbfyblxdr-xI2_pad-2" x="1522" y="1275.2"/><use xlink:href="#F0BG0djjbfyblxdr-xI2_pad-2" x="1622" y="1425.2"/><use xlink:href="#F0BG0djjbfyblxdr-xI2_pad-2" x="1722" y="1425.2"/><use xlink:href="#F0BG0djjbfyblxdr-xI2_pad-3" x="1822" y="1175.2"/><use xlink:href="#F0BG0djjbfyblxdr-xI2_pad-3" x="1822" y="1075.2"/><use xlink:href="#F0BG0djjbfyblxdr-xI2_pad-3" x="1822" y="975.2"/><use xlink:href="#F0BG0djjbfyblxdr-xI2_pad-3" x="1822" y="775.2"/><use xlink:href="#F0BG0djjbfyblxdr-xI2_pad-3" x="1922" y="775.2"/><use xlink:href="#F0BG0djjbfyblxdr-xI2_pad-3" x="2022" y="1375.2"/><use xlink:href="#F0BG0djjbfyblxdr-xI2_pad-3" x="2022" y="1475.2"/><use xlink:href="#F0BG0djjbfyblxdr-xI2_pad-3" x="2022" y="1575.2"/><use xlink:href="#F0BG0djjbfyblxdr-xI2_pad-3" x="2022" y="1675.2"/><use xlink:href="#F0BG0djjbfyblxdr-xI2_pad-3" x="2022" y="1775.2"/><use xlink:href="#F0BG0djjbfyblxdr-xI2_pad-3" x="2022" y="1875.2"/><use xlink:href="#F0BG0djjbfyblxdr-xI2_pad-3" x="2022" y="1975.2"/><use xlink:href="#F0BG0djjbfyblxdr-xI2_pad-3" x="2022" y="2075.2"/><use xlink:href="#F0BG0djjbfyblxdr-xI2_pad-3" x="2022" y="2275.2"/><use xlink:href="#F0BG0djjbfyblxdr-xI2_pad-3" x="2022" y="2375.2"/><use xlink:href="#F0BG0djjbfyblxdr-xI2_pad-3" x="2022" y="2475.2"/><use xlink:href="#F0BG0djjbfyblxdr-xI2_pad-3" x="2022" y="2575.2"/><use xlink:href="#F0BG0djjbfyblxdr-xI2_pad-3" x="2022" y="2675.2"/><use xlink:href="#F0BG0djjbfyblxdr-xI2_pad-3" x="2022" y="2775.2"/><use xlink:href="#F0BG0djjbfyblxdr-xI2_pad-3" x="1872" y="2825.2"/><use xlink:href="#F0BG0djjbfyblxdr-xI2_pad-3" x="1772" y="2825.2"/><use xlink:href="#F0BG0djjbfyblxdr-xI2_pad-3" x="1672" y="2825.2"/><use xlink:href="#F0BG0djjbfyblxdr-xI2_pad-3" x="1572" y="2825.2"/><use xlink:href="#F0BG0djjbfyblxdr-xI2_pad-3" x="1162" y="2575.2"/><use xlink:href="#F0BG0djjbfyblxdr-xI2_pad-3" x="1072" y="2575.2"/><use xlink:href="#F0BG0djjbfyblxdr-xI2_pad-3" x="982" y="2575.2"/><use xlink:href="#F0BG0djjbfyblxdr-xI2_pad-3" x="1024" y="2780.7"/><use xlink:href="#F0BG0djjbfyblxdr-xI2_pad-3" x="924" y="2780.7"/><use xlink:href="#F0BG0djjbfyblxdr-xI2_pad-3" x="924" y="2880.7"/><use xlink:href="#F0BG0djjbfyblxdr-xI2_pad-3" x="1024" y="2880.7"/><use xlink:href="#F0BG0djjbfyblxdr-xI2_pad-3" x="1124" y="2880.7"/><use xlink:href="#F0BG0djjbfyblxdr-xI2_pad-3" x="1124" y="2780.7"/><use xlink:href="#F0BG0djjbfyblxdr-xI2_pad-3" x="1122" y="1625.2"/><use xlink:href="#F0BG0djjbfyblxdr-xI2_pad-3" x="1122" y="1525.2"/><use xlink:href="#F0BG0djjbfyblxdr-xI2_pad-3" x="1122" y="1425.2"/><use xlink:href="#F0BG0djjbfyblxdr-xI2_pad-3" x="1122" y="1325.2"/><use xlink:href="#F0BG0djjbfyblxdr-xI2_pad-3" x="1122" y="1225.2"/><use xlink:href="#F0BG0djjbfyblxdr-xI2_pad-3" x="1222" y="1225.2"/><use xlink:href="#F0BG0djjbfyblxdr-xI2_pad-3" x="1222" y="1325.2"/><use xlink:href="#F0BG0djjbfyblxdr-xI2_pad-3" x="1222" y="1425.2"/><use xlink:href="#F0BG0djjbfyblxdr-xI2_pad-3" x="1222" y="1525.2"/><use xlink:href="#F0BG0djjbfyblxdr-xI2_pad-3" x="1222" y="1625.2"/><use xlink:href="#F0BG0djjbfyblxdr-xI2_pad-3" x="872" y="1575.2"/><use xlink:href="#F0BG0djjbfyblxdr-xI2_pad-3" x="872" y="1475.2"/><use xlink:href="#F0BG0djjbfyblxdr-xI2_pad-3" x="872" y="1375.2"/><use xlink:href="#F0BG0djjbfyblxdr-xI2_pad-3" x="872" y="1275.2"/><use xlink:href="#F0BG0djjbfyblxdr-xI2_pad-3" x="772" y="1275.2"/><use xlink:href="#F0BG0djjbfyblxdr-xI2_pad-3" x="772" y="1375.2"/><use xlink:href="#F0BG0djjbfyblxdr-xI2_pad-3" x="772" y="1475.2"/><use xlink:href="#F0BG0djjbfyblxdr-xI2_pad-3" x="772" y="1575.2"/><use xlink:href="#F0BG0djjbfyblxdr-xI2_pad-3" x="122" y="1615.2"/><use xlink:href="#F0BG0djjbfyblxdr-xI2_pad-3" x="122" y="1715.2"/><use xlink:href="#F0BG0djjbfyblxdr-xI2_pad-3" x="122" y="1815.2"/><use xlink:href="#F0BG0djjbfyblxdr-xI2_pad-3" x="122" y="1915.2"/><use xlink:href="#F0BG0djjbfyblxdr-xI2_pad-3" x="122" y="2075.2"/><use xlink:href="#F0BG0djjbfyblxdr-xI2_pad-3" x="122" y="2175.2"/><use xlink:href="#F0BG0djjbfyblxdr-xI2_pad-3" x="122" y="2275.2"/><use xlink:href="#F0BG0djjbfyblxdr-xI2_pad-3" x="122" y="2375.2"/><use xlink:href="#F0BG0djjbfyblxdr-xI2_pad-3" x="122" y="2475.2"/><use xlink:href="#F0BG0djjbfyblxdr-xI2_pad-3" x="122" y="2575.2"/><use xlink:href="#F0BG0djjbfyblxdr-xI2_pad-3" x="122" y="2675.2"/><use xlink:href="#F0BG0djjbfyblxdr-xI2_pad-3" x="122" y="2775.2"/><use xlink:href="#F0BG0djjbfyblxdr-xI2_pad-3" x="122" y="1515.2"/><use xlink:href="#F0BG0djjbfyblxdr-xI2_pad-3" x="122" y="1415.2"/><use xlink:href="#F0BG0djjbfyblxdr-xI2_pad-3" x="122" y="1315.2"/><use xlink:href="#F0BG0djjbfyblxdr-xI2_pad-3" x="122" y="1215.2"/><use xlink:href="#F0BG0djjbfyblxdr-xI2_pad-3" x="122" y="1115.2"/><use xlink:href="#F0BG0djjbfyblxdr-xI2_pad-3" x="122" y="1015.2"/><use xlink:href="#F0BG0djjbfyblxdr-xI2_pad-4" x="372" y="875.2"/><use xlink:href="#F0BG0djjbfyblxdr-xI2_pad-4" x="472" y="1025.2"/><use xlink:href="#F0BG0djjbfyblxdr-xI2_pad-4" x="772" y="875.2"/><use xlink:href="#F0BG0djjbfyblxdr-xI2_pad-4" x="872" y="1025.2"/><use xlink:href="#F0BG0djjbfyblxdr-xI2_pad-5" x="1422" y="1014.6"/><use xlink:href="#F0BG0djjbfyblxdr-xI2_pad-5" x="1422" y="778.4"/><use xlink:href="#F0BG0djjbfyblxdr-xI2_pad-5" x="1614.9" y="898.5"/></g><clipPath id="krjalWc2usT_-w8ofuO1_bottom_outline"><path d="M 122 625.24 2022 625.24 2122 725.24 2122 2975.24 2022 2975.24 1922 3075.24 622 3075.24 522 2975.24 72 2975.24 22 2925.24 22 725.24 122 625.24" fill="none" stroke-width="0"/></clipPath><mask id="krjalWc2usT_-w8ofuO1_bottom_mech-mask"><g fill="#000" stroke="#000"><rect x="22" y="625.24" width="2100" height="2450" fill="#fff"/><use xlink:href="#krjalWc2usT_-w8ofuO1_bottom_drill1"/></g></mask><mask id="krjalWc2usT_-w8ofuO1_bottom_cf-mask"><g fill="#fff" stroke="#fff"><use xlink:href="#krjalWc2usT_-w8ofuO1_bottom_soldermask"/></g></mask><mask id="krjalWc2usT_-w8ofuO1_bottom_sm-mask"><g fill="#000" stroke="#000"><rect x="22" y="625.24" width="2100" height="2450" fill="#fff"/><use xlink:href="#krjalWc2usT_-w8ofuO1_bottom_soldermask"/></g></mask></defs><g transform="translate(0,3700.48) scale(1,-1)"><g mask="url(#krjalWc2usT_-w8ofuO1_bottom_mech-mask)" clip-path="url(#krjalWc2usT_-w8ofuO1_bottom_outline)" transform="translate(2144,0) scale(-1,1)"><rect x="22" y="625.24" width="2100" height="2450" fill="currentColor" class="krjalWc2usT_-w8ofuO1_fr4"/><use xlink:href="#krjalWc2usT_-w8ofuO1_bottom_copper" fill="currentColor" stroke="currentColor" class="krjalWc2usT_-w8ofuO1_cu"/><use xlink:href="#krjalWc2usT_-w8ofuO1_bottom_copper" fill="currentColor" stroke="currentColor" class="krjalWc2usT_-w8ofuO1_cf" mask="url(#krjalWc2usT_-w8ofuO1_bottom_cf-mask)"/><g mask="url(#krjalWc2usT_-w8ofuO1_bottom_sm-mask)"><rect x="22" y="625.24" width="2100" height="2450" fill="currentColor" class="krjalWc2usT_-w8ofuO1_sm"/><use xlink:href="#krjalWc2usT_-w8ofuO1_bottom_silkscreen" fill="currentColor" stroke="currentColor" class="krjalWc2usT_-w8ofuO1_ss"/></g></g></g></svg>