<svg version="1.1" xmlns="http://www.w3.org/2000/svg" xmlns:xlink="http://www.w3.org/1999/xlink" stroke-linecap="round" stroke-linejoin="round" stroke-width="0" fill-rule="evenodd" clip-rule="evenodd" id="pQjlimL3iC4Cp5nBUkAV_bottom" viewBox="13 13 1000 1700" width="1in" height="1.7in" class="w-100 h-100"><defs><style>.pQjlimL3iC4Cp5nBUkAV_fr4 {color: #666666;}
.pQjlimL3iC4Cp5nBUkAV_cu {color: #cccccc;}
.pQjlimL3iC4Cp5nBUkAV_cf {color: #cc9933;}
.pQjlimL3iC4Cp5nBUkAV_sm {color: #004200; opacity: 0.75;}
.pQjlimL3iC4Cp5nBUkAV_ss {color: #ffffff;}
.pQjlimL3iC4Cp5nBUkAV_sp {color: #999999;}
.pQjlimL3iC4Cp5nBUkAV_out {color: #000000;}</style><circle cx="0" cy="0" r="37" id="g2HNJV25uBFRSuG6MD9W_pad-10"/><circle cx="0" cy="0" r="14.89" id="g2HNJV25uBFRSuG6MD9W_pad-12"/><circle cx="0" cy="0" r="69.215" id="g2HNJV25uBFRSuG6MD9W_pad-14"/><circle cx="0" cy="0" r="41" id="pRcxcKAOC8dpxpDpKl48_pad-10"/><circle cx="0" cy="0" r="18.89" id="pRcxcKAOC8dpxpDpKl48_pad-11"/><circle cx="0" cy="0" r="73.215" id="pRcxcKAOC8dpxpDpKl48_pad-12"/><circle cx="0" cy="0" r="6.9" id="pa9M3kAE18lfBO60C56z_pad-1"/><circle cx="0" cy="0" r="20" id="pa9M3kAE18lfBO60C56z_pad-2"/><circle cx="0" cy="0" r="49.2" id="pa9M3kAE18lfBO60C56z_pad-3"/><g id="pQjlimL3iC4Cp5nBUkAV_bottom_silkscreen"><path d="M 13 13 13 1713 1013 1713 1013 13 13 13" fill="none" stroke-width="0"/><path d="M 380.5 318 423.83 332.44 380.5 346.89 445.5 361.33 M 445.5 387.09 380.5 401.53 423.83 415.98 380.5 430.42 445.5 444.86 M 445.5 470.62 380.5 485.06 423.83 499.51 380.5 513.95 445.5 528.4 M 445.5 584.77 380.5 584.77 M 380.5 556.27 380.5 552.66 384.11 552.66 384.11 556.27 380.5 556.27 M 416.61 584.77 416.61 620.88 M 396.75 654.72 396.75 687.22 M 380.5 692.64 445.5 670.97 380.5 649.3 M 380.5 620.88 445.5 620.88 M 445.5 714.46 445.5 750.58 M 431.06 775.8 394.94 775.8 394.18 775.82 393.43 775.88 392.68 775.98 391.94 776.12 391.2 776.29 390.48 776.51 389.77 776.76 389.07 777.05 388.38 777.37 387.72 777.73 387.08 778.13 386.45 778.56 385.85 779.02 385.28 779.51 384.73 780.03 384.21 780.58 383.72 781.15 383.26 781.75 382.83 782.38 382.43 783.02 382.07 783.68 381.75 784.37 381.46 785.07 381.21 785.78 380.99 786.5 380.82 787.24 380.68 787.98 380.58 788.73 380.52 789.48 380.5 790.24 380.5 804.68 M 380.5 833.17 445.5 833.17 M 445.5 804.68 445.5 790.24 445.48 789.48 445.42 788.73 445.32 787.98 445.18 787.24 445.01 786.5 444.79 785.78 444.54 785.07 444.25 784.37 443.93 783.68 443.57 783.02 443.17 782.38 442.74 781.75 442.28 781.15 441.79 780.58 441.27 780.03 440.72 779.51 440.15 779.02 439.55 778.56 438.92 778.13 438.28 777.73 437.62 777.37 436.93 777.05 436.23 776.76 435.52 776.51 434.8 776.29 434.06 776.12 433.32 775.98 432.57 775.88 431.82 775.82 431.06 775.8 M 445.5 732.52 380.5 732.52 M 416.61 833.17 416.61 869.28 M 445.5 869.28 380.5 869.28 M 380.5 903.51 445.5 903.51 380.5 939.62 445.5 939.62 M 445.5 973.85 380.5 973.85 M 380.5 1009.97 445.5 1009.97 M 416.61 1009.97 416.61 973.85 M 396.75 1043.8 396.75 1076.3 M 380.5 1081.72 445.5 1060.05 380.5 1038.39 M 394.94 1107.73 431.06 1107.73 431.82 1107.75 432.57 1107.81 433.32 1107.91 434.06 1108.05 434.8 1108.22 435.52 1108.44 436.23 1108.69 436.93 1108.98 437.62 1109.3 438.28 1109.66 438.92 1110.06 439.55 1110.49 440.15 1110.95 440.72 1111.44 441.27 1111.96 441.79 1112.51 442.28 1113.08 442.74 1113.68 443.17 1114.31 443.57 1114.95 443.93 1115.61 444.25 1116.3 444.54 1117 444.79 1117.71 445.01 1118.43 445.18 1119.17 445.32 1119.91 445.42 1120.66 445.48 1121.41 445.5 1122.17 445.5 1136.62 M 445.5 1166.3 380.5 1166.3 M 380.5 1136.62 380.5 1122.17 380.52 1121.41 380.58 1120.66 380.68 1119.91 380.82 1119.17 380.99 1118.43 381.21 1117.71 381.46 1117 381.75 1116.3 382.07 1115.61 382.43 1114.95 382.83 1114.31 383.26 1113.68 383.72 1113.08 384.21 1112.51 384.73 1111.96 385.28 1111.44 385.85 1110.95 386.45 1110.49 387.08 1110.06 387.72 1109.66 388.38 1109.3 389.07 1108.98 389.77 1108.69 390.48 1108.44 391.2 1108.22 391.94 1108.05 392.68 1107.91 393.43 1107.81 394.18 1107.75 394.94 1107.73 M 405.78 1166.3 445.5 1202.41 M 420.22 1180.74 380.5 1202.41 M 380.5 1225.31 380.5 1228.93 384.11 1228.93 384.11 1225.31 380.5 1225.31 M 394.94 1255.01 431.06 1255.01 431.82 1255.03 432.57 1255.09 433.32 1255.19 434.06 1255.33 434.8 1255.5 435.52 1255.72 436.23 1255.97 436.93 1256.26 437.62 1256.58 438.28 1256.94 438.92 1257.34 439.55 1257.77 440.15 1258.23 440.72 1258.72 441.27 1259.24 441.79 1259.79 442.28 1260.36 442.74 1260.96 443.17 1261.59 443.57 1262.23 443.93 1262.89 444.25 1263.58 444.54 1264.28 444.79 1264.99 445.01 1265.71 445.18 1266.45 445.32 1267.19 445.42 1267.94 445.48 1268.69 445.5 1269.45 445.5 1283.9 M 427.44 1310.18 398.56 1310.18 397.73 1310.2 396.89 1310.26 396.06 1310.35 395.24 1310.49 394.43 1310.66 393.62 1310.87 392.82 1311.12 392.04 1311.4 391.27 1311.72 390.51 1312.07 389.77 1312.46 389.05 1312.89 388.35 1313.34 387.68 1313.83 387.02 1314.35 386.39 1314.89 385.79 1315.47 385.21 1316.07 384.67 1316.7 384.15 1317.36 383.66 1318.03 383.21 1318.73 382.78 1319.45 382.39 1320.19 382.04 1320.95 381.72 1321.72 381.44 1322.5 381.19 1323.3 380.98 1324.11 380.81 1324.92 380.67 1325.74 380.58 1326.57 380.52 1327.41 380.5 1328.24 380.52 1329.07 380.58 1329.91 380.67 1330.74 380.81 1331.56 380.98 1332.37 381.19 1333.18 381.44 1333.98 381.72 1334.76 382.04 1335.53 382.39 1336.29 382.78 1337.03 383.21 1337.75 383.66 1338.45 384.15 1339.12 384.67 1339.78 385.21 1340.41 385.79 1341.01 386.39 1341.59 387.02 1342.13 387.68 1342.65 388.35 1343.14 389.05 1343.59 389.77 1344.02 390.51 1344.41 391.27 1344.76 392.04 1345.08 392.82 1345.36 393.62 1345.61 394.43 1345.82 395.24 1345.99 396.06 1346.13 396.89 1346.22 397.73 1346.28 398.56 1346.3 M 398.56 1346.29 427.44 1346.29 M 427.44 1346.3 428.27 1346.28 429.11 1346.22 429.94 1346.13 430.76 1345.99 431.57 1345.82 432.38 1345.61 433.18 1345.36 433.96 1345.08 434.73 1344.76 435.49 1344.41 436.23 1344.02 436.95 1343.59 437.65 1343.14 438.32 1342.65 438.98 1342.13 439.61 1341.59 440.21 1341.01 440.79 1340.41 441.33 1339.78 441.85 1339.12 442.34 1338.45 442.79 1337.75 443.22 1337.03 443.61 1336.29 443.96 1335.53 444.28 1334.76 444.56 1333.98 444.81 1333.18 445.02 1332.37 445.19 1331.56 445.33 1330.74 445.42 1329.91 445.48 1329.07 445.5 1328.24 445.48 1327.41 445.42 1326.57 445.33 1325.74 445.19 1324.92 445.02 1324.11 444.81 1323.3 444.56 1322.5 444.28 1321.72 443.96 1320.95 443.61 1320.19 443.22 1319.45 442.79 1318.73 442.34 1318.03 441.85 1317.36 441.33 1316.7 440.79 1316.07 440.21 1315.47 439.61 1314.89 438.98 1314.35 438.32 1313.83 437.65 1313.34 436.95 1312.89 436.23 1312.46 435.49 1312.07 434.73 1311.72 433.96 1311.4 433.18 1311.12 432.38 1310.87 431.57 1310.66 430.76 1310.49 429.94 1310.35 429.11 1310.26 428.27 1310.2 427.44 1310.18 M 380.5 1269.45 380.52 1268.69 380.58 1267.94 380.68 1267.19 380.82 1266.45 380.99 1265.71 381.21 1264.99 381.46 1264.28 381.75 1263.58 382.07 1262.89 382.43 1262.23 382.83 1261.59 383.26 1260.96 383.72 1260.36 384.21 1259.79 384.73 1259.24 385.28 1258.72 385.85 1258.23 386.45 1257.77 387.08 1257.34 387.72 1256.94 388.38 1256.58 389.07 1256.26 389.77 1255.97 390.48 1255.72 391.2 1255.5 391.94 1255.33 392.68 1255.19 393.43 1255.09 394.18 1255.03 394.94 1255.01 M 380.5 1269.45 380.5 1283.9 M 380.5 1379.11 445.5 1379.11 409.39 1400.78 445.5 1422.45 380.5 1422.45 M 580.5 1327.92 645.5 1327.92 609.39 1306.26 645.5 1284.59 580.5 1284.59 M 598.56 1251.77 627.44 1251.77 628.27 1251.75 629.11 1251.69 629.94 1251.6 630.76 1251.46 631.57 1251.29 632.38 1251.08 633.18 1250.83 633.96 1250.55 634.73 1250.23 635.49 1249.88 636.23 1249.49 636.95 1249.06 637.65 1248.61 638.32 1248.12 638.98 1247.6 639.61 1247.06 640.21 1246.48 640.79 1245.88 641.33 1245.25 641.85 1244.59 642.34 1243.92 642.79 1243.22 643.22 1242.5 643.61 1241.76 643.96 1241 644.28 1240.23 644.56 1239.45 644.81 1238.65 645.02 1237.84 645.19 1237.03 645.33 1236.21 645.42 1235.38 645.48 1234.54 645.5 1233.71 645.48 1232.88 645.42 1232.04 645.33 1231.21 645.19 1230.39 645.02 1229.58 644.81 1228.77 644.56 1227.97 644.28 1227.19 643.96 1226.42 643.61 1225.66 643.22 1224.92 642.79 1224.2 642.34 1223.5 641.85 1222.83 641.33 1222.17 640.79 1221.54 640.21 1220.94 639.61 1220.36 638.98 1219.82 638.32 1219.3 637.65 1218.81 636.95 1218.36 636.23 1217.93 635.49 1217.54 634.73 1217.19 633.96 1216.87 633.18 1216.59 632.38 1216.34 631.57 1216.13 630.76 1215.96 629.94 1215.82 629.11 1215.73 628.27 1215.67 627.44 1215.65 M 627.44 1215.66 598.56 1215.66 M 598.56 1215.65 597.73 1215.67 596.89 1215.73 596.06 1215.82 595.24 1215.96 594.43 1216.13 593.62 1216.34 592.82 1216.59 592.04 1216.87 591.27 1217.19 590.51 1217.54 589.77 1217.93 589.05 1218.36 588.35 1218.81 587.68 1219.3 587.02 1219.82 586.39 1220.36 585.79 1220.94 585.21 1221.54 584.67 1222.17 584.15 1222.83 583.66 1223.5 583.21 1224.2 582.78 1224.92 582.39 1225.66 582.04 1226.42 581.72 1227.19 581.44 1227.97 581.19 1228.77 580.98 1229.58 580.81 1230.39 580.67 1231.21 580.58 1232.04 580.52 1232.88 580.5 1233.71 580.52 1234.54 580.58 1235.38 580.67 1236.21 580.81 1237.03 580.98 1237.84 581.19 1238.65 581.44 1239.45 581.72 1240.23 582.04 1241 582.39 1241.76 582.78 1242.5 583.21 1243.22 583.66 1243.92 584.15 1244.59 584.67 1245.25 585.21 1245.88 585.79 1246.48 586.39 1247.06 587.02 1247.6 587.68 1248.12 588.35 1248.61 589.05 1249.06 589.77 1249.49 590.51 1249.88 591.27 1250.23 592.04 1250.55 592.82 1250.83 593.62 1251.08 594.43 1251.29 595.24 1251.46 596.06 1251.6 596.89 1251.69 597.73 1251.75 598.56 1251.77 M 580.5 1189.37 580.5 1174.93 580.52 1174.17 580.58 1173.42 580.68 1172.67 580.82 1171.93 580.99 1171.19 581.21 1170.47 581.46 1169.76 581.75 1169.06 582.07 1168.37 582.43 1167.71 582.83 1167.07 583.26 1166.44 583.72 1165.84 584.21 1165.27 584.73 1164.72 585.28 1164.2 585.85 1163.71 586.45 1163.25 587.08 1162.82 587.72 1162.42 588.38 1162.06 589.07 1161.74 589.77 1161.45 590.48 1161.2 591.2 1160.98 591.94 1160.81 592.68 1160.67 593.43 1160.57 594.18 1160.51 594.94 1160.49 M 594.94 1160.48 631.06 1160.48 M 631.06 1160.49 631.82 1160.51 632.57 1160.57 633.32 1160.67 634.06 1160.81 634.8 1160.98 635.52 1161.2 636.23 1161.45 636.93 1161.74 637.62 1162.06 638.28 1162.42 638.92 1162.82 639.55 1163.25 640.15 1163.71 640.72 1164.2 641.27 1164.72 641.79 1165.27 642.28 1165.84 642.74 1166.44 643.17 1167.07 643.57 1167.71 643.93 1168.37 644.25 1169.06 644.54 1169.76 644.79 1170.47 645.01 1171.19 645.18 1171.93 645.32 1172.67 645.42 1173.42 645.48 1174.17 645.5 1174.93 645.5 1189.37 M 645.5 1108.89 645.5 1072.77 M 645.5 1090.83 580.5 1090.83 M 580.5 1130.79 580.5 1134.4 584.11 1134.4 584.11 1130.79 580.5 1130.79 M 580.5 1047.86 609.39 1033.41 M 609.39 1029.8 609.39 1011.74 M 596.75 977.38 596.75 944.88 M 580.5 939.47 645.5 961.13 580.5 982.8 M 580.5 1011.74 645.5 1011.74 645.5 1029.8 645.48 1030.63 645.42 1031.47 645.33 1032.3 645.19 1033.12 645.02 1033.93 644.81 1034.74 644.56 1035.54 644.28 1036.32 643.96 1037.09 643.61 1037.85 643.22 1038.59 642.79 1039.31 642.34 1040.01 641.85 1040.68 641.33 1041.34 640.79 1041.97 640.21 1042.57 639.61 1043.15 638.98 1043.69 638.32 1044.21 637.65 1044.7 636.95 1045.15 636.23 1045.58 635.49 1045.97 634.73 1046.32 633.96 1046.64 633.18 1046.92 632.38 1047.17 631.57 1047.38 630.76 1047.55 629.94 1047.69 629.11 1047.78 628.27 1047.84 627.44 1047.86 626.61 1047.84 625.77 1047.78 624.94 1047.69 624.12 1047.55 623.31 1047.38 622.5 1047.17 621.7 1046.92 620.92 1046.64 620.15 1046.32 619.39 1045.97 618.65 1045.58 617.93 1045.15 617.23 1044.7 616.56 1044.21 615.9 1043.69 615.27 1043.15 614.67 1042.57 614.09 1041.97 613.55 1041.34 613.03 1040.68 612.54 1040.01 612.09 1039.31 611.66 1038.59 611.27 1037.85 610.92 1037.09 610.6 1036.32 610.32 1035.54 610.07 1034.74 609.86 1033.93 609.69 1033.12 609.55 1032.3 609.46 1031.47 609.4 1030.63 609.38 1029.8 M 580.5 916.79 580.5 902.35 580.52 901.59 580.58 900.84 580.68 900.09 580.82 899.35 580.99 898.61 581.21 897.89 581.46 897.18 581.75 896.48 582.07 895.79 582.43 895.13 582.83 894.49 583.26 893.86 583.72 893.26 584.21 892.69 584.73 892.14 585.28 891.62 585.85 891.13 586.45 890.67 587.08 890.24 587.72 889.84 588.38 889.48 589.07 889.16 589.77 888.87 590.48 888.62 591.2 888.4 591.94 888.23 592.68 888.09 593.43 887.99 594.18 887.93 594.94 887.91 631.06 887.91 631.82 887.93 632.57 887.99 633.32 888.09 634.06 888.23 634.8 888.4 635.52 888.62 636.23 888.87 636.93 889.16 637.62 889.48 638.28 889.84 638.92 890.24 639.55 890.67 640.15 891.13 640.72 891.62 641.27 892.14 641.79 892.69 642.28 893.26 642.74 893.86 643.17 894.49 643.57 895.13 643.93 895.79 644.25 896.48 644.54 897.18 644.79 897.89 645.01 898.61 645.18 899.35 645.32 900.09 645.42 900.84 645.48 901.59 645.5 902.35 645.5 916.79 M 645.5 856.09 580.5 856.09 M 580.5 819.98 645.5 819.98 M 645.5 785.75 580.5 785.75 645.5 749.64 580.5 749.64 M 580.5 715.4 645.5 715.4 M 616.61 715.4 616.61 679.29 M 645.5 679.29 580.5 679.29 M 580.5 650.79 580.5 647.18 584.11 647.18 584.11 650.79 580.5 650.79 M 580.5 608.48 645.5 622.92 M 623.83 594.03 580.5 608.48 M 580.5 579.59 623.83 594.03 M 645.5 565.14 580.5 579.59 M 580.5 524.94 645.5 539.39 M 623.83 510.5 580.5 524.94 M 580.5 496.05 623.83 510.5 M 645.5 481.61 580.5 496.05 M 580.5 441.41 645.5 455.86 M 623.83 426.97 580.5 441.41 M 580.5 412.52 623.83 426.97 M 645.5 398.08 580.5 412.52 M 445.5 303.55 380.5 318 M 616.61 819.98 616.61 856.09" fill="none" stroke-width="11"/></g><g id="pQjlimL3iC4Cp5nBUkAV_bottom_copper"><use xlink:href="#g2HNJV25uBFRSuG6MD9W_pad-10" x="113" y="463"/><use xlink:href="#g2HNJV25uBFRSuG6MD9W_pad-10" x="113" y="563"/><use xlink:href="#g2HNJV25uBFRSuG6MD9W_pad-10" x="113" y="663"/><use xlink:href="#g2HNJV25uBFRSuG6MD9W_pad-10" x="113" y="763"/><use xlink:href="#g2HNJV25uBFRSuG6MD9W_pad-10" x="113" y="863"/><use xlink:href="#g2HNJV25uBFRSuG6MD9W_pad-10" x="113" y="963"/><use xlink:href="#g2HNJV25uBFRSuG6MD9W_pad-10" x="113" y="1063"/><use xlink:href="#g2HNJV25uBFRSuG6MD9W_pad-10" x="113" y="1163"/><use xlink:href="#g2HNJV25uBFRSuG6MD9W_pad-10" x="113" y="1263"/><use xlink:href="#g2HNJV25uBFRSuG6MD9W_pad-10" x="913" y="1263"/><use xlink:href="#g2HNJV25uBFRSuG6MD9W_pad-10" x="913" y="1163"/><use xlink:href="#g2HNJV25uBFRSuG6MD9W_pad-10" x="913" y="1063"/><use xlink:href="#g2HNJV25uBFRSuG6MD9W_pad-10" x="913" y="963"/><use xlink:href="#g2HNJV25uBFRSuG6MD9W_pad-10" x="913" y="863"/><use xlink:href="#g2HNJV25uBFRSuG6MD9W_pad-10" x="913" y="763"/><use xlink:href="#g2HNJV25uBFRSuG6MD9W_pad-10" x="913" y="663"/><use xlink:href="#g2HNJV25uBFRSuG6MD9W_pad-10" x="913" y="563"/><use xlink:href="#g2HNJV25uBFRSuG6MD9W_pad-10" x="913" y="463"/><path d="M 56 160.09 56 1565.91 66.61 1540.3 90.3 1516.61 121.25 1503.79 154.75 1503.79 185.7 1516.61 209.39 1540.3 222.21 1571.25 222.21 1604.75 209.39 1635.7 185.7 1659.39 160.09 1670 865.91 1670 840.3 1659.39 816.61 1635.7 803.79 1604.75 803.79 1571.25 816.61 1540.3 840.3 1516.61 871.25 1503.79 904.75 1503.79 935.7 1516.61 959.39 1540.3 970 1565.91 970 160.09 959.39 185.7 935.7 209.39 904.75 222.21 871.25 222.21 840.3 209.39 816.61 185.7 803.79 154.75 803.79 121.25 816.61 90.3 840.3 66.61 865.91 56 160.09 56 185.7 66.61 209.39 90.3 222.21 121.25 222.21 154.75 209.39 185.7 185.7 209.39 154.75 222.21 121.25 222.21 90.3 209.39 66.61 185.7 56 160.09 M 56 162.63 57.05 162.63 M 56 168.61 59.53 168.61 M 62.01 174.6 56 174.6 M 56 180.58 64.49 180.58 M 67.47 186.57 56 186.57 M 56 192.55 73.46 192.55 M 79.44 198.54 56 198.54 M 56 204.52 85.43 204.52 M 92.99 210.51 56 210.51 M 56 216.49 107.44 216.49 M 56 222.48 194.43 222.48 M 189.44 228.46 56 228.46 M 56 234.45 184.46 234.45 M 179.47 240.43 56 240.43 M 56 246.42 174.48 246.42 M 172.48 248.82 283.11 116.06 283.11 107.05 287.66 96.07 296.07 87.66 307.05 83.11 318.95 83.11 329.93 87.66 338.34 96.07 342.89 107.05 342.89 118.95 338.34 129.93 329.93 138.34 318.95 142.89 315.43 142.89 250.51 220.8 267 204.3 279.3 192 291.73 192 296.07 187.66 307.05 183.11 318.95 183.11 329.93 187.66 338.34 196.07 342.89 207.05 342.89 218.95 338.34 229.93 329.93 238.34 318.95 242.89 307.05 242.89 296.07 238.34 294.21 236.48 234 296.7 234 312.3 254.3 292 291.73 292 296.07 287.66 307.05 283.11 318.95 283.11 329.93 287.66 338.34 296.07 342.89 307.05 342.89 318.95 338.34 329.93 329.93 338.34 318.95 342.89 307.05 342.89 296.07 338.34 291.73 334 271.7 334 259 346.7 259 412.3 279.3 392 291.73 392 296.07 387.66 307.05 383.11 318.95 383.11 329.93 387.66 338.34 396.07 342.89 407.05 342.89 418.95 338.34 429.93 329.93 438.34 318.95 442.89 307.05 442.89 296.07 438.34 294.21 436.48 284 446.7 284 504.91 287.66 496.07 296.07 487.66 307.05 483.11 318.95 483.11 329.93 487.66 334.27 492 781.64 492 783.59 490.7 790.08 492 796.7 492 798.35 493.65 800.65 494.11 804.32 499.62 809 504.3 809 506.64 854.32 574.62 859 579.3 859 581.64 860.3 583.59 859 590.08 859 704.3 878.58 723.88 883.54 718.92 897.83 713 883.54 707.08 868.92 692.46 861 673.34 861 652.66 868.92 633.54 883.54 618.92 897.83 613 883.54 607.08 868.92 592.46 861 573.34 861 552.66 868.92 533.54 883.54 518.92 897.83 513 883.54 507.08 868.92 492.46 861 473.34 861 452.66 868.92 433.54 883.54 418.92 902.66 411 923.34 411 942.46 418.92 957.08 433.54 965 452.66 965 473.34 957.08 492.46 942.46 507.08 928.17 513 942.46 518.92 957.08 533.54 965 552.66 965 573.34 957.08 592.46 942.46 607.08 928.17 613 942.46 618.92 957.08 633.54 965 652.66 965 673.34 957.08 692.46 942.46 707.08 928.17 713 942.46 718.92 957.08 733.54 965 752.66 965 773.34 957.08 792.46 942.46 807.08 928.17 813 942.46 818.92 957.08 833.54 965 852.66 965 873.34 957.08 892.46 942.46 907.08 928.17 913 942.46 918.92 957.08 933.54 965 952.66 970 952.66 M 965 952.66 965 973.34 957.08 992.46 942.46 1007.08 928.17 1013 942.46 1018.92 957.08 1033.54 965 1052.66 965 1073.34 957.08 1092.46 942.46 1107.08 928.17 1113 942.46 1118.92 957.08 1133.54 965 1152.66 965 1173.34 957.08 1192.46 942.46 1207.08 924.98 1214.32 932.19 1216.66 939.21 1220.24 945.57 1224.86 951.14 1230.43 955.76 1236.79 959.34 1243.81 961.77 1251.29 963 1259.06 963 1260 916 1260 916 1266 910 1266 910 1313 909.06 1313 901.29 1311.77 893.81 1309.34 886.79 1305.76 880.43 1301.14 874.86 1295.57 870.24 1289.21 866.66 1282.19 864.23 1274.71 863 1266.94 863 1266 910 1266 910 1260 863 1260 863 1259.06 864.23 1251.29 866.66 1243.81 870.24 1236.79 874.86 1230.43 880.43 1224.86 886.79 1220.24 893.81 1216.66 901.02 1214.32 883.54 1207.08 868.92 1192.46 865.41 1184 454.3 1184 259 988.7 259 1229.3 312.81 1283.11 318.95 1283.11 329.93 1287.66 338.34 1296.07 342.89 1307.05 342.89 1318.95 338.34 1329.93 329.93 1338.34 318.95 1342.89 307.05 1342.89 296.07 1338.34 287.66 1329.93 283.11 1318.95 283.11 1312.81 234 1263.7 234 1304.3 312.81 1383.11 318.95 1383.11 329.93 1387.66 338.34 1396.07 342.89 1407.05 342.89 1418.95 338.34 1429.93 329.93 1438.34 318.95 1442.89 307.05 1442.89 296.07 1438.34 287.66 1429.93 283.11 1418.95 283.11 1412.81 209 1338.7 209 1479.3 221.7 1492 291.73 1492 296.07 1487.66 307.05 1483.11 318.95 1483.11 329.93 1487.66 338.34 1496.07 342.89 1507.05 342.89 1518.95 338.34 1529.93 329.93 1538.34 318.95 1542.89 307.05 1542.89 296.07 1538.34 291.73 1534 204.3 1534 179.3 1509 167 1496.7 167 1196.7 158.75 1188.44 157.08 1192.46 142.46 1207.08 128.17 1213 142.46 1218.92 157.08 1233.54 165 1252.66 165 1273.34 157.08 1292.46 142.46 1307.08 123.34 1315 102.66 1315 83.54 1307.08 68.92 1292.46 61 1273.34 61 1252.66 68.92 1233.54 83.54 1218.92 97.83 1213 83.54 1207.08 68.92 1192.46 61 1173.34 61 1152.66 68.92 1133.54 83.54 1118.92 97.83 1113 83.54 1107.08 68.92 1092.46 61 1073.34 61 1052.66 68.92 1033.54 83.54 1018.92 97.83 1013 83.54 1007.08 68.92 992.46 61 973.34 61 952.66 56 952.66 M 61 952.66 68.92 933.54 83.54 918.92 97.83 913 83.54 907.08 68.92 892.46 61 873.34 61 852.66 68.92 833.54 83.54 818.92 97.83 813 83.54 807.08 68.92 792.46 61 773.34 61 752.66 68.92 733.54 83.54 718.92 97.83 713 83.54 707.08 68.92 692.46 61 673.34 61 652.66 68.92 633.54 83.54 618.92 97.83 613 83.54 607.08 68.92 592.46 61 573.34 61 552.66 68.92 533.54 83.54 518.92 101.02 511.68 93.81 509.34 86.79 505.76 80.43 501.14 74.86 495.57 70.24 489.21 66.66 482.19 64.23 474.71 63 466.94 63 466 110 466 110 460 116 460 116 466 163 466 163 466.94 161.77 474.71 159.34 482.19 155.76 489.21 151.14 495.57 145.57 501.14 139.21 505.76 132.19 509.34 124.98 511.68 142.46 518.92 157.08 533.54 165 552.66 165 573.34 157.08 592.46 142.46 607.08 128.17 613 142.46 618.92 157.08 633.54 165 652.66 165 673.34 157.08 692.46 142.46 707.08 128.17 713 142.46 718.92 157.08 733.54 165 752.66 165 773.34 157.08 792.46 142.46 807.08 128.17 813 142.46 818.92 157.08 833.54 165 852.66 165 873.34 157.08 892.46 142.46 907.08 128.17 913 142.46 918.92 157.08 933.54 160.59 942 212.3 942 167 896.7 167 263.95 166.3 256.24 167 255.4 167 254.3 172.48 248.82 M 168.9 252.4 56 252.4 M 56 258.39 166.49 258.39 M 167 264.37 56 264.37 M 56 270.36 167 270.36 M 167 276.34 56 276.34 M 56 282.33 167 282.33 M 167 288.32 56 288.32 M 56 294.3 167 294.3 M 167 300.29 56 300.29 M 56 306.27 167 306.27 M 167 312.26 56 312.26 M 56 318.24 167 318.24 M 167 324.23 56 324.23 M 56 330.21 167 330.21 M 167 336.2 56 336.2 M 56 342.18 167 342.18 M 167 348.17 56 348.17 M 56 354.15 167 354.15 M 167 360.14 56 360.14 M 56 366.12 167 366.12 M 167 372.11 56 372.11 M 56 378.09 167 378.09 M 167 384.08 56 384.08 M 56 390.06 167 390.06 M 167 396.05 56 396.05 M 56 402.03 167 402.03 M 167 408.02 56 408.02 M 56 414 102.73 414 M 101.29 414.23 109.06 413 110 413 110 460 63 460 63 459.06 64.23 451.29 66.66 443.81 70.24 436.79 74.86 430.43 80.43 424.86 86.79 420.24 93.81 416.66 101.29 414.23 M 110 414 116 414 M 116 413 116.94 413 124.71 414.23 132.19 416.66 139.21 420.24 145.57 424.86 151.14 430.43 155.76 436.79 159.34 443.81 161.77 451.29 163 459.06 163 460 116 460 116 413 M 116 419.99 110 419.99 M 110 425.97 116 425.97 M 116 431.96 110 431.96 M 110 437.94 116 437.94 M 116 443.93 110 443.93 M 110 449.91 116 449.91 M 116 455.9 110 455.9 M 110 461.88 56 461.88 M 56 455.9 63.5 455.9 M 64.68 449.91 56 449.91 M 56 443.93 66.62 443.93 M 69.65 437.94 56 437.94 M 56 431.96 73.75 431.96 M 79.32 425.97 56 425.97 M 56 419.99 87.28 419.99 M 63.15 467.87 56 467.87 M 56 473.85 64.1 473.85 M 65.9 479.84 56 479.84 M 56 485.82 68.51 485.82 M 72.13 491.81 56 491.81 M 56 497.79 77.08 497.79 M 84.06 503.78 56 503.78 M 56 509.76 95.12 509.76 M 91.19 515.75 56 515.75 M 56 521.73 80.73 521.73 M 74.74 527.72 56 527.72 M 56 533.7 68.85 533.7 M 66.37 539.69 56 539.69 M 56 545.68 63.89 545.68 M 61.41 551.66 56 551.66 M 56 557.65 61 557.65 M 61 563.63 56 563.63 M 56 569.62 61 569.62 M 61.94 575.6 56 575.6 M 56 581.59 64.41 581.59 M 66.89 587.57 56 587.57 M 56 593.56 70.02 593.56 M 76 599.54 56 599.54 M 56 605.53 81.99 605.53 M 86.97 617.5 56 617.5 M 56 623.48 78.98 623.48 M 72.99 629.47 56 629.47 M 56 635.45 68.13 635.45 M 65.65 641.44 56 641.44 M 56 647.42 63.17 647.42 M 61 653.41 56 653.41 M 56 659.39 61 659.39 M 61 665.38 56 665.38 M 56 671.36 61 671.36 M 62.66 677.35 56 677.35 M 56 683.33 65.14 683.33 M 67.62 689.32 56 689.32 M 56 695.3 71.76 695.3 M 77.75 701.29 56 701.29 M 56 707.27 84 707.27 M 83.22 719.24 56 719.24 M 56 713.26 97.2 713.26 M 77.23 725.23 56 725.23 M 56 731.21 71.25 731.21 M 67.4 737.2 56 737.2 M 56 743.18 64.92 743.18 M 62.44 749.17 56 749.17 M 56 755.15 61 755.15 M 61 761.14 56 761.14 M 56 767.12 61 767.12 M 61 773.11 56 773.11 M 56 779.09 63.38 779.09 M 65.86 785.08 56 785.08 M 56 791.06 68.34 791.06 M 73.51 797.05 56 797.05 M 56 803.03 79.5 803.03 M 88.22 809.02 56 809.02 M 56 815.01 92.99 815.01 M 81.47 820.99 56 820.99 M 56 826.98 75.49 826.98 M 69.5 832.96 56 832.96 M 56 838.95 66.68 838.95 M 64.2 844.93 56 844.93 M 56 850.92 61.72 850.92 M 61 856.9 56 856.9 M 56 862.89 61 862.89 M 61 868.87 56 868.87 M 56 874.86 61.63 874.86 M 64.11 880.84 56 880.84 M 56 886.83 66.58 886.83 M 69.27 892.81 56 892.81 M 56 898.8 75.26 898.8 M 81.24 904.78 56 904.78 M 56 910.77 92.44 910.77 M 88.77 916.75 56 916.75 M 56 922.74 79.72 922.74 M 73.74 928.72 56 928.72 M 56 934.71 68.43 934.71 M 65.96 940.69 56 940.69 M 56 946.68 63.48 946.68 M 61 958.65 56 958.65 M 56 964.63 61 964.63 M 61 970.62 56 970.62 M 56 976.6 62.35 976.6 M 64.83 982.59 56 982.59 M 56 988.57 67.31 988.57 M 71.02 994.56 56 994.56 M 56 1000.54 77 1000.54 M 82.99 1006.53 56 1006.53 M 56 1012.51 96.65 1012.51 M 84.55 1018.5 56 1018.5 M 56 1024.48 77.98 1024.48 M 71.99 1030.47 56 1030.47 M 56 1036.45 67.71 1036.45 M 65.23 1042.44 56 1042.44 M 56 1048.42 62.75 1048.42 M 61 1054.41 56 1054.41 M 56 1060.39 61 1060.39 M 61 1066.38 56 1066.38 M 56 1072.37 61 1072.37 M 63.07 1078.35 56 1078.35 M 56 1084.34 65.55 1084.34 M 68.03 1090.32 56 1090.32 M 56 1096.31 72.77 1096.31 M 78.75 1102.29 56 1102.29 M 56 1108.28 86.42 1108.28 M 94.78 1114.26 56 1114.26 M 56 1120.25 82.21 1120.25 M 76.23 1126.23 56 1126.23 M 56 1132.22 70.24 1132.22 M 66.99 1138.2 56 1138.2 M 56 1144.19 64.51 1144.19 M 62.03 1150.17 56 1150.17 M 56 1156.16 61 1156.16 M 61 1162.14 56 1162.14 M 56 1168.13 61 1168.13 M 61.32 1174.11 56 1174.11 M 56 1180.1 63.8 1180.1 M 66.28 1186.08 56 1186.08 M 56 1192.07 68.76 1192.07 M 74.51 1198.05 56 1198.05 M 56 1204.04 80.5 1204.04 M 90.64 1210.02 56 1210.02 M 56 1216.01 90.57 1216.01 M 80.47 1221.99 56 1221.99 M 56 1227.98 74.48 1227.98 M 68.74 1233.96 56 1233.96 M 56 1239.95 66.26 1239.95 M 63.78 1245.93 56 1245.93 M 56 1251.92 61.31 1251.92 M 61 1257.9 56 1257.9 M 56 1263.89 61 1263.89 M 61 1269.87 56 1269.87 M 56 1275.86 62.04 1275.86 M 64.52 1281.84 56 1281.84 M 56 1287.83 67 1287.83 M 70.28 1293.81 56 1293.81 M 56 1299.8 76.26 1299.8 M 82.25 1305.78 56 1305.78 M 56 1311.77 94.86 1311.77 M 131.14 1311.77 167 1311.77 M 167 1317.75 56 1317.75 M 56 1323.74 167 1323.74 M 167 1329.72 56 1329.72 M 56 1335.71 167 1335.71 M 167 1341.7 56 1341.7 M 56 1347.68 167 1347.68 M 167 1353.67 56 1353.67 M 56 1359.65 167 1359.65 M 167 1365.64 56 1365.64 M 56 1371.62 167 1371.62 M 167 1377.61 56 1377.61 M 56 1383.59 167 1383.59 M 167 1389.58 56 1389.58 M 56 1395.56 167 1395.56 M 167 1401.55 56 1401.55 M 56 1407.53 167 1407.53 M 167 1413.52 56 1413.52 M 56 1419.5 167 1419.5 M 167 1425.49 56 1425.49 M 56 1431.47 167 1431.47 M 167 1437.46 56 1437.46 M 56 1443.44 167 1443.44 M 167 1449.43 56 1449.43 M 56 1455.41 167 1455.41 M 167 1461.4 56 1461.4 M 56 1467.38 167 1467.38 M 167 1473.37 56 1473.37 M 56 1479.35 167 1479.35 M 167 1485.34 56 1485.34 M 56 1491.32 167 1491.32 M 167.61 1497.31 56 1497.31 M 56 1503.29 173.59 1503.29 M 168.01 1509.28 179.58 1509.28 M 182.46 1515.26 185.56 1515.26 M 190.34 1521.25 191.55 1521.25 M 196.33 1527.23 197.54 1527.23 M 202.31 1533.22 203.52 1533.22 M 208.3 1539.2 298.16 1539.2 M 327.84 1539.2 817.7 1539.2 M 814.58 1545.19 211.42 1545.19 M 213.9 1551.17 812.1 1551.17 M 809.62 1557.16 216.38 1557.16 M 218.86 1563.14 807.14 1563.14 M 804.67 1569.13 221.33 1569.13 M 222.21 1575.11 803.79 1575.11 M 803.79 1581.1 222.21 1581.1 M 222.21 1587.08 803.79 1587.08 M 803.79 1593.07 222.21 1593.07 M 222.21 1599.05 803.79 1599.05 M 803.91 1605.04 222.09 1605.04 M 219.61 1611.03 806.39 1611.03 M 808.87 1617.01 217.13 1617.01 M 214.66 1623 811.34 1623 M 813.82 1628.98 212.18 1628.98 M 209.7 1634.97 816.3 1634.97 M 821.86 1640.95 204.14 1640.95 M 198.16 1646.94 827.84 1646.94 M 833.83 1652.92 192.17 1652.92 M 186.19 1658.91 839.81 1658.91 M 853.57 1664.89 172.43 1664.89 M 85.66 1521.25 56 1521.25 M 56 1527.23 79.67 1527.23 M 73.69 1533.22 56 1533.22 M 56 1539.2 67.7 1539.2 M 64.58 1545.19 56 1545.19 M 56 1551.17 62.1 1551.17 M 59.62 1557.16 56 1557.16 M 56 1563.14 57.14 1563.14 M 56 1515.26 93.54 1515.26 M 107.99 1509.28 56 1509.28 M 143.75 1305.78 167 1305.78 M 167 1299.8 149.74 1299.8 M 155.72 1293.81 167 1293.81 M 167 1287.83 159 1287.83 M 161.48 1281.84 167 1281.84 M 167 1275.86 163.96 1275.86 M 165 1269.87 167 1269.87 M 167 1263.89 165 1263.89 M 165 1257.9 167 1257.9 M 167 1251.92 164.69 1251.92 M 167 1245.93 162.22 1245.93 M 159.74 1239.95 167 1239.95 M 167 1233.96 157.26 1233.96 M 151.52 1227.98 167 1227.98 M 167 1221.99 145.53 1221.99 M 135.43 1216.01 167 1216.01 M 167 1210.02 135.36 1210.02 M 145.5 1204.04 167 1204.04 M 167 1198.05 151.49 1198.05 M 157.24 1192.07 162.37 1192.07 M 234 1263.89 234.19 1263.89 M 234 1269.87 240.18 1269.87 M 246.16 1275.86 234 1275.86 M 234 1281.84 252.15 1281.84 M 258.13 1287.83 234 1287.83 M 234 1293.81 264.12 1293.81 M 270.1 1299.8 234 1299.8 M 235.48 1305.78 276.09 1305.78 M 282.07 1311.77 241.47 1311.77 M 247.45 1317.75 283.11 1317.75 M 285.1 1323.74 253.44 1323.74 M 259.42 1329.72 287.58 1329.72 M 293.44 1335.71 265.41 1335.71 M 271.39 1341.7 304.17 1341.7 M 289.35 1359.65 970 1359.65 M 970 1353.67 283.36 1353.67 M 277.38 1347.68 970 1347.68 M 970 1341.7 321.83 1341.7 M 332.56 1335.71 970 1335.71 M 970 1329.72 338.42 1329.72 M 340.9 1323.74 970 1323.74 M 970 1317.75 342.89 1317.75 M 342.89 1311.77 901.3 1311.77 M 910 1311.77 916 1311.77 M 916 1313 916 1266 963 1266 963 1266.94 961.77 1274.71 959.34 1282.19 955.76 1289.21 951.14 1295.57 945.57 1301.14 939.21 1305.76 932.19 1309.34 924.71 1311.77 916.94 1313 916 1313 M 916 1305.78 910 1305.78 M 910 1299.8 916 1299.8 M 916 1293.81 910 1293.81 M 910 1287.83 916 1287.83 M 916 1281.84 910 1281.84 M 910 1275.86 916 1275.86 M 916 1269.87 910 1269.87 M 910 1263.89 293.59 1263.89 M 299.57 1269.87 863.47 1269.87 M 864.61 1275.86 305.56 1275.86 M 311.54 1281.84 866.55 1281.84 M 869.53 1287.83 330.1 1287.83 M 336.08 1293.81 873.58 1293.81 M 879.09 1299.8 339.88 1299.8 M 342.36 1305.78 886.83 1305.78 M 863.18 1257.9 287.6 1257.9 M 281.62 1251.92 864.13 1251.92 M 865.97 1245.93 275.63 1245.93 M 269.65 1239.95 868.63 1239.95 M 872.29 1233.96 263.66 1233.96 M 259 1227.98 877.31 1227.98 M 884.38 1221.99 259 1221.99 M 259 1216.01 895.82 1216.01 M 890.64 1210.02 259 1210.02 M 259 1204.04 880.5 1204.04 M 874.51 1198.05 259 1198.05 M 259 1192.07 868.76 1192.07 M 866.28 1186.08 259 1186.08 M 259 1180.1 450.4 1180.1 M 444.41 1174.11 259 1174.11 M 259 1168.13 438.43 1168.13 M 432.44 1162.14 259 1162.14 M 259 1156.16 426.46 1156.16 M 420.47 1150.17 259 1150.17 M 259 1144.19 414.49 1144.19 M 408.5 1138.2 259 1138.2 M 259 1132.22 402.52 1132.22 M 396.53 1126.23 259 1126.23 M 259 1120.25 390.55 1120.25 M 384.56 1114.26 259 1114.26 M 259 1108.28 378.58 1108.28 M 372.59 1102.29 259 1102.29 M 259 1096.31 366.61 1096.31 M 360.62 1090.32 259 1090.32 M 259 1084.34 354.64 1084.34 M 348.65 1078.35 259 1078.35 M 259 1072.37 342.67 1072.37 M 336.68 1066.38 259 1066.38 M 259 1060.39 330.7 1060.39 M 324.71 1054.41 259 1054.41 M 259 1048.42 318.73 1048.42 M 312.74 1042.44 259 1042.44 M 259 1036.45 306.76 1036.45 M 300.77 1030.47 259 1030.47 M 259 1024.48 294.79 1024.48 M 288.8 1018.5 259 1018.5 M 259 1012.51 282.82 1012.51 M 276.83 1006.53 259 1006.53 M 259 1000.54 270.85 1000.54 M 264.86 994.56 259 994.56 M 210.99 940.69 160.04 940.69 M 157.57 934.71 205.01 934.71 M 199.02 928.72 152.26 928.72 M 146.28 922.74 193.04 922.74 M 187.05 916.75 137.23 916.75 M 133.56 910.77 181.07 910.77 M 175.08 904.78 144.76 904.78 M 150.74 898.8 169.1 898.8 M 167 892.81 156.73 892.81 M 159.42 886.83 167 886.83 M 167 880.84 161.89 880.84 M 164.37 874.86 167 874.86 M 167 868.87 165 868.87 M 165 862.89 167 862.89 M 167 856.9 165 856.9 M 164.28 850.92 167 850.92 M 167 844.93 161.8 844.93 M 159.32 838.95 167 838.95 M 167 832.96 156.5 832.96 M 150.51 826.98 167 826.98 M 167 820.99 144.53 820.99 M 137.78 809.02 167 809.02 M 167 815.01 133.01 815.01 M 146.5 803.03 167 803.03 M 167 797.05 152.49 797.05 M 157.66 791.06 167 791.06 M 167 785.08 160.14 785.08 M 162.62 779.09 167 779.09 M 167 773.11 165 773.11 M 165 767.12 167 767.12 M 167 761.14 165 761.14 M 165 755.15 167 755.15 M 167 749.17 163.56 749.17 M 161.08 743.18 167 743.18 M 167 737.2 158.6 737.2 M 154.75 731.21 167 731.21 M 167 725.23 148.77 725.23 M 142.78 719.24 167 719.24 M 167 713.26 128.8 713.26 M 142 707.27 167 707.27 M 167 701.29 148.25 701.29 M 154.24 695.3 167 695.3 M 167 689.32 158.38 689.32 M 160.86 683.33 167 683.33 M 167 677.35 163.34 677.35 M 165 671.36 167 671.36 M 167 665.38 165 665.38 M 165 659.39 167 659.39 M 167 653.41 165 653.41 M 167 647.42 162.83 647.42 M 160.35 641.44 167 641.44 M 167 635.45 157.87 635.45 M 153.01 629.47 167 629.47 M 167 623.48 147.02 623.48 M 139.03 617.5 167 617.5 M 167 611.51 131.77 611.51 M 144.01 605.53 167 605.53 M 167 599.54 150 599.54 M 155.98 593.56 167 593.56 M 167 587.57 159.11 587.57 M 161.59 581.59 167 581.59 M 167 575.6 164.06 575.6 M 165 569.62 167 569.62 M 167 563.63 165 563.63 M 165 557.65 167 557.65 M 167 551.66 164.59 551.66 M 167 545.68 162.11 545.68 M 159.63 539.69 167 539.69 M 167 533.7 157.15 533.7 M 151.26 527.72 167 527.72 M 167 521.73 145.27 521.73 M 134.81 515.75 167 515.75 M 167 509.76 130.88 509.76 M 141.94 503.78 167 503.78 M 167 497.79 148.92 497.79 M 153.87 491.81 167 491.81 M 167 485.82 157.49 485.82 M 160.1 479.84 167 479.84 M 167 473.85 161.9 473.85 M 162.85 467.87 167 467.87 M 167 461.88 116 461.88 M 138.72 419.99 167 419.99 M 167 425.97 146.68 425.97 M 152.25 431.96 167 431.96 M 167 437.94 156.35 437.94 M 159.38 443.93 167 443.93 M 167 449.91 161.32 449.91 M 162.5 455.9 167 455.9 M 167 414 123.27 414 M 234 312.26 234.05 312.26 M 234 306.27 240.03 306.27 M 246.02 300.29 234 300.29 M 236.4 294.3 252 294.3 M 242.38 288.32 295.41 288.32 M 272.31 258.39 970 258.39 M 970 264.37 266.32 264.37 M 260.34 270.36 970 270.36 M 970 276.34 254.35 276.34 M 248.37 282.33 970 282.33 M 970 288.32 330.59 288.32 M 336.57 294.3 970 294.3 M 970 300.29 340.09 300.29 M 342.56 306.27 970 306.27 M 970 312.26 342.89 312.26 M 342.89 318.24 970 318.24 M 970 324.23 340.7 324.23 M 338.06 330.21 970 330.21 M 970 336.2 332.07 336.2 M 320.66 342.18 970 342.18 M 970 348.17 259 348.17 M 259 354.15 970 354.15 M 970 360.14 259 360.14 M 259 366.12 970 366.12 M 970 372.11 259 372.11 M 259 378.09 970 378.09 M 970 384.08 321.28 384.08 M 332.33 390.06 970 390.06 M 970 396.05 338.32 396.05 M 340.81 402.03 970 402.03 M 970 408.02 342.89 408.02 M 342.89 414 895.41 414 M 882.47 419.99 342.46 419.99 M 339.98 425.97 876.49 425.97 M 870.5 431.96 336.31 431.96 M 330.33 437.94 867.09 437.94 M 864.62 443.93 286.77 443.93 M 284 449.91 862.14 449.91 M 861 455.9 284 455.9 M 284 461.88 861 461.88 M 861 467.87 284 467.87 M 284 473.85 861.21 473.85 M 863.69 479.84 284 479.84 M 284 485.82 300.5 485.82 M 291.92 491.81 284 491.81 M 284 497.79 286.95 497.79 M 284.47 503.78 284 503.78 M 292.76 437.94 295.67 437.94 M 269.27 402.03 259 402.03 M 259 396.05 275.25 396.05 M 263.28 408.02 259 408.02 M 259 390.06 293.67 390.06 M 304.72 384.08 259 384.08 M 263.52 342.18 305.34 342.18 M 293.93 336.2 269.5 336.2 M 278.29 252.4 970 252.4 M 970 246.42 284.28 246.42 M 290.26 240.43 301.13 240.43 M 324.87 240.43 970 240.43 M 970 234.45 333.82 234.45 M 338.95 228.46 970 228.46 M 970 222.48 341.43 222.48 M 342.89 216.49 857.44 216.49 M 842.99 210.51 342.89 210.51 M 341.84 204.52 835.43 204.52 M 829.44 198.54 339.36 198.54 M 334.82 192.55 823.46 192.55 M 817.47 186.57 327.29 186.57 M 298.71 186.57 279.03 186.57 M 278.75 192.55 274.04 192.55 M 272.76 198.54 269.05 198.54 M 267 204.3 267 204.3 M 266.78 204.52 264.07 204.52 M 260.79 210.51 259.08 210.51 M 254.81 216.49 254.09 216.49 M 229.34 180.58 211.51 180.58 M 213.99 174.6 234.33 174.6 M 239.32 168.61 216.47 168.61 M 218.95 162.63 244.31 162.63 M 249.3 156.64 221.43 156.64 M 222.21 150.66 254.28 150.66 M 259.27 144.67 222.21 144.67 M 222.21 138.69 264.26 138.69 M 269.25 132.7 222.21 132.7 M 222.21 126.72 274.23 126.72 M 279.22 120.73 222 120.73 M 219.52 114.75 283.11 114.75 M 283.11 108.76 217.04 108.76 M 214.56 102.78 284.88 102.78 M 287.36 96.79 212.08 96.79 M 209.6 90.81 292.92 90.81 M 302.92 84.82 203.92 84.82 M 197.93 78.84 828.07 78.84 M 822.08 84.82 323.08 84.82 M 333.08 90.81 816.4 90.81 M 813.92 96.79 338.64 96.79 M 341.12 102.78 811.44 102.78 M 808.96 108.76 342.89 108.76 M 342.89 114.75 806.48 114.75 M 804 120.73 342.15 120.73 M 339.67 126.72 803.79 126.72 M 803.79 132.7 335.57 132.7 M 329.09 138.69 803.79 138.69 M 803.79 144.67 313.94 144.67 M 308.95 150.66 803.79 150.66 M 804.57 156.64 303.97 156.64 M 298.98 162.63 807.05 162.63 M 809.53 168.61 293.99 168.61 M 289 174.6 812.01 174.6 M 814.49 180.58 284.02 180.58 M 224.36 186.57 208.53 186.57 M 202.54 192.55 219.37 192.55 M 214.38 198.54 196.56 198.54 M 190.57 204.52 209.39 204.52 M 204.41 210.51 183.01 210.51 M 168.56 216.49 199.42 216.49 M 191.95 72.85 834.05 72.85 M 840.04 66.87 185.96 66.87 M 171.88 60.88 854.12 60.88 M 940.57 204.52 970 204.52 M 970 198.54 946.56 198.54 M 952.54 192.55 970 192.55 M 970 186.57 958.53 186.57 M 961.51 180.58 970 180.58 M 970 174.6 963.99 174.6 M 966.47 168.61 970 168.61 M 970 162.63 968.95 162.63 M 970 210.51 933.01 210.51 M 918.56 216.49 970 216.49 M 970 414 930.59 414 M 943.53 419.99 970 419.99 M 970 425.97 949.51 425.97 M 955.5 431.96 970 431.96 M 970 437.94 958.91 437.94 M 961.38 443.93 970 443.93 M 970 449.91 963.86 449.91 M 965 455.9 970 455.9 M 970 461.88 965 461.88 M 965 467.87 970 467.87 M 970 473.85 964.79 473.85 M 962.31 479.84 970 479.84 M 970 485.82 959.83 485.82 M 957.35 491.81 970 491.81 M 970 497.79 951.74 497.79 M 945.76 503.78 970 503.78 M 970 509.76 935.98 509.76 M 934.81 515.75 970 515.75 M 970 521.73 945.27 521.73 M 951.26 527.72 970 527.72 M 970 533.7 957.15 533.7 M 959.63 539.69 970 539.69 M 970 545.68 962.11 545.68 M 964.59 551.66 970 551.66 M 970 557.65 965 557.65 M 965 563.63 970 563.63 M 970 569.62 965 569.62 M 964.06 575.6 970 575.6 M 970 581.59 961.59 581.59 M 959.11 587.57 970 587.57 M 970 593.56 955.98 593.56 M 950 599.54 970 599.54 M 970 605.53 944.01 605.53 M 939.03 617.5 970 617.5 M 970 623.48 947.02 623.48 M 953.01 629.47 970 629.47 M 970 635.45 957.87 635.45 M 960.35 641.44 970 641.44 M 970 647.42 962.83 647.42 M 965 653.41 970 653.41 M 970 659.39 965 659.39 M 965 665.38 970 665.38 M 970 671.36 965 671.36 M 963.34 677.35 970 677.35 M 970 683.33 960.86 683.33 M 958.38 689.32 970 689.32 M 970 695.3 954.24 695.3 M 948.25 701.29 970 701.29 M 970 707.27 942 707.27 M 942.78 719.24 970 719.24 M 970 713.26 928.8 713.26 M 948.77 725.23 970 725.23 M 970 731.21 954.75 731.21 M 958.6 737.2 970 737.2 M 970 743.18 961.08 743.18 M 963.56 749.17 970 749.17 M 970 755.15 965 755.15 M 965 761.14 970 761.14 M 970 767.12 965 767.12 M 965 773.11 970 773.11 M 970 779.09 962.62 779.09 M 960.14 785.08 970 785.08 M 970 791.06 957.66 791.06 M 952.49 797.05 970 797.05 M 970 803.03 946.5 803.03 M 937.78 809.02 970 809.02 M 970 815.01 933.01 815.01 M 944.53 820.99 970 820.99 M 970 826.98 950.51 826.98 M 956.5 832.96 970 832.96 M 970 838.95 959.32 838.95 M 961.8 844.93 970 844.93 M 970 850.92 964.28 850.92 M 965 856.9 970 856.9 M 970 862.89 965 862.89 M 965 868.87 970 868.87 M 970 874.86 964.37 874.86 M 961.89 880.84 970 880.84 M 970 886.83 959.42 886.83 M 956.73 892.81 970 892.81 M 970 898.8 950.74 898.8 M 944.76 904.78 970 904.78 M 970 910.77 933.56 910.77 M 937.23 916.75 970 916.75 M 970 922.74 946.28 922.74 M 952.26 928.72 970 928.72 M 970 934.71 957.57 934.71 M 960.04 940.69 970 940.69 M 970 946.68 962.52 946.68 M 965 958.65 970 958.65 M 970 964.63 965 964.63 M 965 970.62 970 970.62 M 970 976.6 963.65 976.6 M 961.17 982.59 970 982.59 M 970 988.57 958.69 988.57 M 954.98 994.56 970 994.56 M 970 1000.54 949 1000.54 M 943.01 1006.53 970 1006.53 M 970 1012.51 929.34 1012.51 M 941.45 1018.5 970 1018.5 M 970 1024.48 948.02 1024.48 M 954.01 1030.47 970 1030.47 M 970 1036.45 958.29 1036.45 M 960.77 1042.44 970 1042.44 M 970 1048.42 963.25 1048.42 M 965 1054.41 970 1054.41 M 970 1060.39 965 1060.39 M 965 1066.38 970 1066.38 M 970 1072.37 965 1072.37 M 962.93 1078.35 970 1078.35 M 970 1084.34 960.45 1084.34 M 957.97 1090.32 970 1090.32 M 970 1096.31 953.23 1096.31 M 947.25 1102.29 970 1102.29 M 970 1108.28 939.58 1108.28 M 931.22 1114.26 970 1114.26 M 970 1120.25 943.79 1120.25 M 949.77 1126.23 970 1126.23 M 970 1132.22 955.76 1132.22 M 959.01 1138.2 970 1138.2 M 970 1144.19 961.49 1144.19 M 963.97 1150.17 970 1150.17 M 970 1156.16 965 1156.16 M 965 1162.14 970 1162.14 M 970 1168.13 965 1168.13 M 964.68 1174.11 970 1174.11 M 970 1180.1 962.2 1180.1 M 959.72 1186.08 970 1186.08 M 970 1192.07 957.24 1192.07 M 951.49 1198.05 970 1198.05 M 970 1204.04 945.5 1204.04 M 935.36 1210.02 970 1210.02 M 970 1216.01 930.18 1216.01 M 941.62 1221.99 970 1221.99 M 970 1227.98 948.69 1227.98 M 953.71 1233.96 970 1233.96 M 970 1239.95 957.37 1239.95 M 960.03 1245.93 970 1245.93 M 970 1251.92 961.87 1251.92 M 962.82 1257.9 970 1257.9 M 970 1263.89 916 1263.89 M 939.17 1305.78 970 1305.78 M 970 1299.8 946.91 1299.8 M 952.42 1293.81 970 1293.81 M 970 1287.83 956.47 1287.83 M 959.45 1281.84 970 1281.84 M 970 1275.86 961.39 1275.86 M 962.53 1269.87 970 1269.87 M 970 1311.77 924.7 1311.77 M 970 1365.64 295.33 1365.64 M 301.32 1371.62 970 1371.62 M 970 1377.61 307.3 1377.61 M 320.11 1383.59 970 1383.59 M 970 1389.58 331.85 1389.58 M 337.83 1395.56 970 1395.56 M 970 1401.55 340.61 1401.55 M 342.89 1407.53 970 1407.53 M 970 1413.52 342.89 1413.52 M 342.66 1419.5 970 1419.5 M 970 1425.49 340.18 1425.49 M 336.8 1431.47 970 1431.47 M 970 1437.46 330.81 1437.46 M 324.32 1485.34 970 1485.34 M 970 1491.32 333.59 1491.32 M 338.85 1497.31 970 1497.31 M 970 1503.29 341.33 1503.29 M 342.89 1509.28 857.99 1509.28 M 843.54 1515.26 342.89 1515.26 M 341.94 1521.25 835.66 1521.25 M 829.67 1527.23 339.46 1527.23 M 335.05 1533.22 823.69 1533.22 M 918.01 1509.28 970 1509.28 M 970 1515.26 932.46 1515.26 M 940.34 1521.25 970 1521.25 M 970 1527.23 946.33 1527.23 M 952.31 1533.22 970 1533.22 M 970 1539.2 958.3 1539.2 M 961.42 1545.19 970 1545.19 M 970 1551.17 963.9 1551.17 M 966.38 1557.16 970 1557.16 M 970 1563.14 968.86 1563.14 M 970 1479.35 209.05 1479.35 M 209 1473.37 970 1473.37 M 970 1467.38 209 1467.38 M 209 1461.4 970 1461.4 M 970 1455.41 209 1455.41 M 209 1449.43 970 1449.43 M 970 1443.44 209 1443.44 M 209 1437.46 295.19 1437.46 M 289.2 1431.47 209 1431.47 M 209 1425.49 285.82 1425.49 M 283.34 1419.5 209 1419.5 M 209 1413.52 283.11 1413.52 M 277.83 1407.53 209 1407.53 M 209 1401.55 271.85 1401.55 M 265.86 1395.56 209 1395.56 M 209 1389.58 259.88 1389.58 M 253.89 1383.59 209 1383.59 M 209 1377.61 247.91 1377.61 M 241.92 1371.62 209 1371.62 M 209 1365.64 235.94 1365.64 M 229.95 1359.65 209 1359.65 M 209 1353.67 223.97 1353.67 M 217.98 1347.68 209 1347.68 M 209 1341.7 212 1341.7 M 215.04 1485.34 301.68 1485.34 M 292.41 1491.32 221.02 1491.32 M 94.23 611.51 56 611.51 M 325.5 485.82 866.17 485.82 M 868.65 491.81 789.12 491.81 M 781.93 491.81 334.08 491.81 M 803.1 497.79 874.26 497.79 M 880.24 503.78 808.48 503.78 M 811.08 509.76 890.02 509.76 M 891.19 515.75 815.07 515.75 M 819.06 521.73 880.73 521.73 M 874.74 527.72 823.05 527.72 M 827.04 533.7 868.85 533.7 M 866.37 539.69 831.03 539.69 M 835.02 545.68 863.89 545.68 M 861.41 551.66 839.01 551.66 M 843 557.65 861 557.65 M 861 563.63 846.99 563.63 M 850.98 569.62 861 569.62 M 861.94 575.6 855.3 575.6 M 859 581.59 864.41 581.59 M 866.89 587.57 859.5 587.57 M 859 593.56 870.02 593.56 M 876 599.54 859 599.54 M 859 605.53 881.99 605.53 M 886.97 617.5 859 617.5 M 859 623.48 878.98 623.48 M 872.99 629.47 859 629.47 M 859 635.45 868.13 635.45 M 865.65 641.44 859 641.44 M 859 647.42 863.17 647.42 M 861 653.41 859 653.41 M 859 659.39 861 659.39 M 861 665.38 859 665.38 M 859 671.36 861 671.36 M 862.66 677.35 859 677.35 M 859 683.33 865.14 683.33 M 867.62 689.32 859 689.32 M 859 695.3 871.76 695.3 M 877.75 701.29 859 701.29 M 861.97 707.27 884 707.27 M 883.22 719.24 873.94 719.24 M 867.96 713.26 897.2 713.26 M 894.23 611.51 859 611.51 M 931.77 611.51 970 611.51" fill="none" stroke-width="6"/><use xlink:href="#g2HNJV25uBFRSuG6MD9W_pad-12" x="803" y="663"/><use xlink:href="#g2HNJV25uBFRSuG6MD9W_pad-12" x="788" y="713"/><use xlink:href="#g2HNJV25uBFRSuG6MD9W_pad-12" x="738" y="813"/><use xlink:href="#g2HNJV25uBFRSuG6MD9W_pad-12" x="313" y="813"/><use xlink:href="#g2HNJV25uBFRSuG6MD9W_pad-12" x="313" y="713"/><use xlink:href="#g2HNJV25uBFRSuG6MD9W_pad-12" x="313" y="613"/><use xlink:href="#g2HNJV25uBFRSuG6MD9W_pad-12" x="313" y="513"/><use xlink:href="#g2HNJV25uBFRSuG6MD9W_pad-12" x="313" y="413"/><use xlink:href="#g2HNJV25uBFRSuG6MD9W_pad-12" x="313" y="313"/><use xlink:href="#g2HNJV25uBFRSuG6MD9W_pad-12" x="313" y="213"/><use xlink:href="#g2HNJV25uBFRSuG6MD9W_pad-12" x="313" y="113"/><use xlink:href="#g2HNJV25uBFRSuG6MD9W_pad-12" x="313" y="1313"/><use xlink:href="#g2HNJV25uBFRSuG6MD9W_pad-12" x="313" y="1413"/><use xlink:href="#g2HNJV25uBFRSuG6MD9W_pad-12" x="313" y="1513"/><path d="M 313 1513 213 1513 188 1488 188 1188 163 1163 113 1163 M 113 1063 163 1063 213 1113 213 1313 313 1413 M 313 1313 238 1238 238 988 213 963 113 963 M 188 888 463 1163 913 1163 M 913 1063 413 1063 213 863 213 288 288 213 313 213 M 313 313 263 313 238 338 238 838 363 963 913 963 M 913 863 313 863 263 813 263 438 288 413 313 413 M 313 513 788 513 838 588 838 713 888 763 913 763 M 803 663 363 663 313 613 M 313 713 788 713 M 738 813 313 813 M 188 888 188 263 313 113" fill="none" stroke-width="12"/><use xlink:href="#g2HNJV25uBFRSuG6MD9W_pad-14" x="138" y="138"/><use xlink:href="#g2HNJV25uBFRSuG6MD9W_pad-14" x="888" y="138"/><use xlink:href="#g2HNJV25uBFRSuG6MD9W_pad-14" x="888" y="1588"/><use xlink:href="#g2HNJV25uBFRSuG6MD9W_pad-14" x="138" y="1588"/></g><g id="pQjlimL3iC4Cp5nBUkAV_bottom_soldermask"><use xlink:href="#pRcxcKAOC8dpxpDpKl48_pad-10" x="113" y="463"/><use xlink:href="#pRcxcKAOC8dpxpDpKl48_pad-10" x="113" y="563"/><use xlink:href="#pRcxcKAOC8dpxpDpKl48_pad-10" x="113" y="663"/><use xlink:href="#pRcxcKAOC8dpxpDpKl48_pad-10" x="113" y="763"/><use xlink:href="#pRcxcKAOC8dpxpDpKl48_pad-10" x="113" y="863"/><use xlink:href="#pRcxcKAOC8dpxpDpKl48_pad-10" x="113" y="963"/><use xlink:href="#pRcxcKAOC8dpxpDpKl48_pad-10" x="113" y="1063"/><use xlink:href="#pRcxcKAOC8dpxpDpKl48_pad-10" x="113" y="1163"/><use xlink:href="#pRcxcKAOC8dpxpDpKl48_pad-10" x="113" y="1263"/><use xlink:href="#pRcxcKAOC8dpxpDpKl48_pad-10" x="913" y="1263"/><use xlink:href="#pRcxcKAOC8dpxpDpKl48_pad-10" x="913" y="1163"/><use xlink:href="#pRcxcKAOC8dpxpDpKl48_pad-10" x="913" y="1063"/><use xlink:href="#pRcxcKAOC8dpxpDpKl48_pad-10" x="913" y="963"/><use xlink:href="#pRcxcKAOC8dpxpDpKl48_pad-10" x="913" y="863"/><use xlink:href="#pRcxcKAOC8dpxpDpKl48_pad-10" x="913" y="763"/><use xlink:href="#pRcxcKAOC8dpxpDpKl48_pad-10" x="913" y="663"/><use xlink:href="#pRcxcKAOC8dpxpDpKl48_pad-10" x="913" y="563"/><use xlink:href="#pRcxcKAOC8dpxpDpKl48_pad-10" x="913" y="463"/><use xlink:href="#pRcxcKAOC8dpxpDpKl48_pad-11" x="803" y="663"/><use xlink:href="#pRcxcKAOC8dpxpDpKl48_pad-11" x="788" y="713"/><use xlink:href="#pRcxcKAOC8dpxpDpKl48_pad-11" x="738" y="813"/><use xlink:href="#pRcxcKAOC8dpxpDpKl48_pad-11" x="313" y="813"/><use xlink:href="#pRcxcKAOC8dpxpDpKl48_pad-11" x="313" y="713"/><use xlink:href="#pRcxcKAOC8dpxpDpKl48_pad-11" x="313" y="613"/><use xlink:href="#pRcxcKAOC8dpxpDpKl48_pad-11" x="313" y="513"/><use xlink:href="#pRcxcKAOC8dpxpDpKl48_pad-11" x="313" y="413"/><use xlink:href="#pRcxcKAOC8dpxpDpKl48_pad-11" x="313" y="313"/><use xlink:href="#pRcxcKAOC8dpxpDpKl48_pad-11" x="313" y="213"/><use xlink:href="#pRcxcKAOC8dpxpDpKl48_pad-11" x="313" y="113"/><use xlink:href="#pRcxcKAOC8dpxpDpKl48_pad-11" x="313" y="1313"/><use xlink:href="#pRcxcKAOC8dpxpDpKl48_pad-11" x="313" y="1413"/><use xlink:href="#pRcxcKAOC8dpxpDpKl48_pad-11" x="313" y="1513"/><use xlink:href="#pRcxcKAOC8dpxpDpKl48_pad-12" x="138" y="138"/><use xlink:href="#pRcxcKAOC8dpxpDpKl48_pad-12" x="888" y="138"/><use xlink:href="#pRcxcKAOC8dpxpDpKl48_pad-12" x="888" y="1588"/><use xlink:href="#pRcxcKAOC8dpxpDpKl48_pad-12" x="138" y="1588"/></g><g id="pQjlimL3iC4Cp5nBUkAV_bottom_drill1"><use xlink:href="#pa9M3kAE18lfBO60C56z_pad-1" x="313" y="113"/><use xlink:href="#pa9M3kAE18lfBO60C56z_pad-1" x="313" y="213"/><use xlink:href="#pa9M3kAE18lfBO60C56z_pad-1" x="313" y="313"/><use xlink:href="#pa9M3kAE18lfBO60C56z_pad-1" x="313" y="413"/><use xlink:href="#pa9M3kAE18lfBO60C56z_pad-1" x="313" y="513"/><use xlink:href="#pa9M3kAE18lfBO60C56z_pad-1" x="313" y="613"/><use xlink:href="#pa9M3kAE18lfBO60C56z_pad-1" x="313" y="713"/><use xlink:href="#pa9M3kAE18lfBO60C56z_pad-1" x="313" y="813"/><use xlink:href="#pa9M3kAE18lfBO60C56z_pad-1" x="313" y="1313"/><use xlink:href="#pa9M3kAE18lfBO60C56z_pad-1" x="313" y="1413"/><use xlink:href="#pa9M3kAE18lfBO60C56z_pad-1" x="313" y="1513"/><use xlink:href="#pa9M3kAE18lfBO60C56z_pad-1" x="738" y="813"/><use xlink:href="#pa9M3kAE18lfBO60C56z_pad-1" x="788" y="713"/><use xlink:href="#pa9M3kAE18lfBO60C56z_pad-1" x="803" y="663"/><use xlink:href="#pa9M3kAE18lfBO60C56z_pad-2" x="913" y="663"/><use xlink:href="#pa9M3kAE18lfBO60C56z_pad-2" x="913" y="563"/><use xlink:href="#pa9M3kAE18lfBO60C56z_pad-2" x="913" y="463"/><use xlink:href="#pa9M3kAE18lfBO60C56z_pad-2" x="913" y="763"/><use xlink:href="#pa9M3kAE18lfBO60C56z_pad-2" x="913" y="863"/><use xlink:href="#pa9M3kAE18lfBO60C56z_pad-2" x="913" y="963"/><use xlink:href="#pa9M3kAE18lfBO60C56z_pad-2" x="913" y="1063"/><use xlink:href="#pa9M3kAE18lfBO60C56z_pad-2" x="913" y="1163"/><use xlink:href="#pa9M3kAE18lfBO60C56z_pad-2" x="913" y="1263"/><use xlink:href="#pa9M3kAE18lfBO60C56z_pad-2" x="113" y="1263"/><use xlink:href="#pa9M3kAE18lfBO60C56z_pad-2" x="113" y="1163"/><use xlink:href="#pa9M3kAE18lfBO60C56z_pad-2" x="113" y="1063"/><use xlink:href="#pa9M3kAE18lfBO60C56z_pad-2" x="113" y="963"/><use xlink:href="#pa9M3kAE18lfBO60C56z_pad-2" x="113" y="863"/><use xlink:href="#pa9M3kAE18lfBO60C56z_pad-2" x="113" y="763"/><use xlink:href="#pa9M3kAE18lfBO60C56z_pad-2" x="113" y="663"/><use xlink:href="#pa9M3kAE18lfBO60C56z_pad-2" x="113" y="563"/><use xlink:href="#pa9M3kAE18lfBO60C56z_pad-2" x="113" y="463"/><use xlink:href="#pa9M3kAE18lfBO60C56z_pad-3" x="138" y="138"/><use xlink:href="#pa9M3kAE18lfBO60C56z_pad-3" x="888" y="138"/><use xlink:href="#pa9M3kAE18lfBO60C56z_pad-3" x="888" y="1588"/><use xlink:href="#pa9M3kAE18lfBO60C56z_pad-3" x="138" y="1588"/></g><clipPath id="pQjlimL3iC4Cp5nBUkAV_bottom_outline"><path d="M 13 13 13 1713 1013 1713 1013 13 13 13" fill="none" stroke-width="0"/></clipPath><mask id="pQjlimL3iC4Cp5nBUkAV_bottom_mech-mask"><g fill="#000" stroke="#000"><rect x="13" y="13" width="1000" height="1700" fill="#fff"/><use xlink:href="#pQjlimL3iC4Cp5nBUkAV_bottom_drill1"/></g></mask><mask id="pQjlimL3iC4Cp5nBUkAV_bottom_cf-mask"><g fill="#fff" stroke="#fff"><use xlink:href="#pQjlimL3iC4Cp5nBUkAV_bottom_soldermask"/></g></mask><mask id="pQjlimL3iC4Cp5nBUkAV_bottom_sm-mask"><g fill="#000" stroke="#000"><rect x="13" y="13" width="1000" height="1700" fill="#fff"/><use xlink:href="#pQjlimL3iC4Cp5nBUkAV_bottom_soldermask"/></g></mask></defs><g transform="translate(0,1726) scale(1,-1)"><g mask="url(#pQjlimL3iC4Cp5nBUkAV_bottom_mech-mask)" clip-path="url(#pQjlimL3iC4Cp5nBUkAV_bottom_outline)" transform="translate(1026,0) scale(-1,1)"><rect x="13" y="13" width="1000" height="1700" fill="currentColor" class="pQjlimL3iC4Cp5nBUkAV_fr4"/><use xlink:href="#pQjlimL3iC4Cp5nBUkAV_bottom_copper" fill="currentColor" stroke="currentColor" class="pQjlimL3iC4Cp5nBUkAV_cu"/><use xlink:href="#pQjlimL3iC4Cp5nBUkAV_bottom_copper" fill="currentColor" stroke="currentColor" class="pQjlimL3iC4Cp5nBUkAV_cf" mask="url(#pQjlimL3iC4Cp5nBUkAV_bottom_cf-mask)"/><g mask="url(#pQjlimL3iC4Cp5nBUkAV_bottom_sm-mask)"><rect x="13" y="13" width="1000" height="1700" fill="currentColor" class="pQjlimL3iC4Cp5nBUkAV_sm"/><use xlink:href="#pQjlimL3iC4Cp5nBUkAV_bottom_silkscreen" fill="currentColor" stroke="currentColor" class="pQjlimL3iC4Cp5nBUkAV_ss"/></g></g></g></svg>