<svg version="1.1" xmlns="http://www.w3.org/2000/svg" xmlns:xlink="http://www.w3.org/1999/xlink" stroke-linecap="round" stroke-linejoin="round" stroke-width="0" fill-rule="evenodd" clip-rule="evenodd" id="YFYzNEpkvXfSAMVl-ixy_bottom" viewBox="26 26 800 800" width="0.8in" height="0.8in" class="w-100 h-100"><defs><style>.YFYzNEpkvXfSAMVl-ixy_fr4 {color: #666666;}
.YFYzNEpkvXfSAMVl-ixy_cu {color: #cccccc;}
.YFYzNEpkvXfSAMVl-ixy_cf {color: #cc9933;}
.YFYzNEpkvXfSAMVl-ixy_sm {color: #004200; opacity: 0.75;}
.YFYzNEpkvXfSAMVl-ixy_ss {color: #ffffff;}
.YFYzNEpkvXfSAMVl-ixy_sp {color: #999999;}
.YFYzNEpkvXfSAMVl-ixy_out {color: #000000;}</style><circle cx="0" cy="0" r="41" id="J8Arczi6l_WJUpiig1kS_pad-10"/><circle cx="0" cy="0" r="23.81" id="J8Arczi6l_WJUpiig1kS_pad-12"/><circle cx="0" cy="0" r="73.215" id="J8Arczi6l_WJUpiig1kS_pad-13"/><circle cx="0" cy="0" r="37" id="cAOsjlLNdlVmThfaWEpz_pad-10"/><circle cx="0" cy="0" r="19.81" id="cAOsjlLNdlVmThfaWEpz_pad-13"/><circle cx="0" cy="0" r="69.215" id="cAOsjlLNdlVmThfaWEpz_pad-15"/><circle cx="0" cy="0" r="11.8" id="lSZ7BAf88iiuzL-jodPc_pad-1"/><circle cx="0" cy="0" r="20" id="lSZ7BAf88iiuzL-jodPc_pad-2"/><circle cx="0" cy="0" r="22" id="lSZ7BAf88iiuzL-jodPc_pad-3"/><circle cx="0" cy="0" r="49.2" id="lSZ7BAf88iiuzL-jodPc_pad-4"/><g id="YFYzNEpkvXfSAMVl-ixy_bottom_soldermask"><use xlink:href="#J8Arczi6l_WJUpiig1kS_pad-10" x="276" y="126"/><use xlink:href="#J8Arczi6l_WJUpiig1kS_pad-10" x="376" y="126"/><use xlink:href="#J8Arczi6l_WJUpiig1kS_pad-10" x="476" y="126"/><use xlink:href="#J8Arczi6l_WJUpiig1kS_pad-10" x="576" y="126"/><use xlink:href="#J8Arczi6l_WJUpiig1kS_pad-10" x="576" y="376"/><use xlink:href="#J8Arczi6l_WJUpiig1kS_pad-10" x="476" y="376"/><use xlink:href="#J8Arczi6l_WJUpiig1kS_pad-10" x="376" y="376"/><use xlink:href="#J8Arczi6l_WJUpiig1kS_pad-10" x="276" y="376"/><use xlink:href="#J8Arczi6l_WJUpiig1kS_pad-10" x="276" y="501"/><use xlink:href="#J8Arczi6l_WJUpiig1kS_pad-10" x="376" y="501"/><use xlink:href="#J8Arczi6l_WJUpiig1kS_pad-10" x="476" y="501"/><use xlink:href="#J8Arczi6l_WJUpiig1kS_pad-10" x="576" y="501"/><path d="M 576 664 576 738 M 476 738 476 664 M 376 664 376 738 M 276 738 276 664" fill="none" stroke-width="82"/><use xlink:href="#J8Arczi6l_WJUpiig1kS_pad-12" x="201" y="351"/><use xlink:href="#J8Arczi6l_WJUpiig1kS_pad-12" x="651" y="351"/><use xlink:href="#J8Arczi6l_WJUpiig1kS_pad-12" x="701" y="226"/><use xlink:href="#J8Arczi6l_WJUpiig1kS_pad-13" x="126" y="126"/><use xlink:href="#J8Arczi6l_WJUpiig1kS_pad-13" x="126" y="726"/><use xlink:href="#J8Arczi6l_WJUpiig1kS_pad-13" x="726" y="726"/><use xlink:href="#J8Arczi6l_WJUpiig1kS_pad-13" x="726" y="126"/></g><g id="YFYzNEpkvXfSAMVl-ixy_bottom_copper"><use xlink:href="#cAOsjlLNdlVmThfaWEpz_pad-10" x="276" y="126"/><use xlink:href="#cAOsjlLNdlVmThfaWEpz_pad-10" x="376" y="126"/><use xlink:href="#cAOsjlLNdlVmThfaWEpz_pad-10" x="476" y="126"/><use xlink:href="#cAOsjlLNdlVmThfaWEpz_pad-10" x="576" y="126"/><use xlink:href="#cAOsjlLNdlVmThfaWEpz_pad-10" x="576" y="376"/><use xlink:href="#cAOsjlLNdlVmThfaWEpz_pad-10" x="476" y="376"/><use xlink:href="#cAOsjlLNdlVmThfaWEpz_pad-10" x="376" y="376"/><use xlink:href="#cAOsjlLNdlVmThfaWEpz_pad-10" x="276" y="376"/><use xlink:href="#cAOsjlLNdlVmThfaWEpz_pad-10" x="276" y="501"/><use xlink:href="#cAOsjlLNdlVmThfaWEpz_pad-10" x="376" y="501"/><use xlink:href="#cAOsjlLNdlVmThfaWEpz_pad-10" x="476" y="501"/><use xlink:href="#cAOsjlLNdlVmThfaWEpz_pad-10" x="576" y="501"/><path d="M 576 664 576 738 M 476 738 476 664 M 376 664 376 738 M 276 738 276 664" fill="none" stroke-width="74"/><path d="M 241.95 624.51 69 624.51 M 69 618.53 249.9 618.53 M 246.54 619.92 265.66 612 286.34 612 305.46 619.92 320.08 634.54 327.32 652.02 329.66 644.81 333.24 637.79 337.86 631.43 343.43 625.86 349.79 621.24 356.81 617.66 364.29 615.23 372.06 614 373 614 373 698 379 698 379 614 379.94 614 387.71 615.23 395.19 617.66 402.21 621.24 408.57 625.86 414.14 631.43 418.76 637.79 422.34 644.81 424.68 652.02 431.92 634.54 446.54 619.92 465.66 612 486.34 612 505.46 619.92 520.08 634.54 526 648.83 531.92 634.54 546.54 619.92 565.66 612 586.34 612 605.46 619.92 620.08 634.54 628 653.66 628 748.34 620.08 767.46 605.46 782.08 603.24 783 663.91 783 654.61 773.7 641.79 742.75 641.79 709.25 654.61 678.3 678.3 654.61 709.25 641.79 742.75 641.79 773.7 654.61 783 663.91 783 188.09 773.7 197.39 742.75 210.21 709.25 210.21 678.3 197.39 654.61 173.7 641.79 142.75 641.79 109.25 654.61 78.3 663.91 69 188.09 69 197.39 78.3 210.21 109.25 210.21 142.75 197.39 173.7 173.7 197.39 142.75 210.21 109.25 210.21 78.3 197.39 69 188.09 69 663.91 78.3 654.61 109.25 641.79 142.75 641.79 173.7 654.61 197.39 678.3 210.21 709.25 210.21 742.75 197.39 773.7 188.09 783 248.76 783 246.54 782.08 231.92 767.46 224 748.34 224 653.66 231.92 634.54 246.54 619.92 M 235.96 630.5 69 630.5 M 69 636.48 231.11 636.48 M 228.63 642.47 144.39 642.47 M 158.84 648.45 226.16 648.45 M 224 654.44 173.29 654.44 M 179.52 660.42 224 660.42 M 224 666.41 185.5 666.41 M 191.49 672.39 224 672.39 M 224 678.38 197.42 678.38 M 199.9 684.36 224 684.36 M 224 690.35 202.38 690.35 M 204.86 696.33 224 696.33 M 224 702.32 207.34 702.32 M 209.82 708.3 224 708.3 M 224 714.29 210.21 714.29 M 210.21 720.27 224 720.27 M 224 726.26 210.21 726.26 M 210.21 732.24 224 732.24 M 224 738.23 210.21 738.23 M 209.61 744.21 224 744.21 M 224.77 750.2 207.13 750.2 M 204.65 756.18 227.25 756.18 M 229.73 762.17 202.17 762.17 M 199.69 768.15 232.61 768.15 M 238.6 774.14 196.96 774.14 M 190.97 780.12 244.59 780.12 M 373 696.33 379 696.33 M 379 690.35 373 690.35 M 373 684.36 379 684.36 M 379 678.38 373 678.38 M 373 672.39 379 672.39 M 379 666.41 373 666.41 M 373 660.42 379 660.42 M 379 654.44 373 654.44 M 373 648.45 379 648.45 M 379 642.47 373 642.47 M 373 636.48 379 636.48 M 379 630.5 373 630.5 M 373 624.51 379 624.51 M 379 618.53 373 618.53 M 355.11 618.53 302.1 618.53 M 310.05 624.51 345.29 624.51 M 338.79 630.5 316.04 630.5 M 320.89 636.48 334.19 636.48 M 330.86 642.47 323.36 642.47 M 325.84 648.45 328.48 648.45 M 287.65 612.54 464.35 612.54 M 449.9 618.53 396.89 618.53 M 406.71 624.51 441.95 624.51 M 435.96 630.5 413.21 630.5 M 417.81 636.48 431.11 636.48 M 428.63 642.47 421.14 642.47 M 423.52 648.45 426.16 648.45 M 487.65 612.54 564.35 612.54 M 549.9 618.53 502.1 618.53 M 510.05 624.51 541.95 624.51 M 535.96 630.5 516.04 630.5 M 520.89 636.48 531.11 636.48 M 528.63 642.47 523.36 642.47 M 525.84 648.45 526.16 648.45 M 587.65 612.54 783 612.54 M 783 606.56 69 606.56 M 69 612.54 264.35 612.54 M 265.66 553 246.54 545.08 231.92 530.46 224 511.34 224 490.66 231.92 471.54 246.54 456.92 265.66 449 286.34 449 305.46 456.92 320.08 471.54 326 485.83 331.92 471.54 346.54 456.92 365.66 449 386.34 449 405.46 456.92 420.08 471.54 427.32 489.02 429.66 481.81 433.24 474.79 437.86 468.43 443.43 462.86 449.79 458.24 456.81 454.66 464.29 452.23 472.06 451 473 451 473 498 479 498 479 451 479.94 451 487.71 452.23 495.19 454.66 502.21 458.24 508.57 462.86 514.14 468.43 518.76 474.79 522.34 481.81 524.68 489.02 531.92 471.54 546.54 456.92 565.66 449 586.34 449 605.46 456.92 620.08 471.54 628 490.66 628 511.34 620.08 530.46 605.46 545.08 586.34 553 565.66 553 546.54 545.08 531.92 530.46 524.68 512.98 522.34 520.19 518.76 527.21 514.14 533.57 508.57 539.14 502.21 543.76 495.19 547.34 487.71 549.77 479.94 551 479 551 479 504 473 504 473 551 472.06 551 464.29 549.77 456.81 547.34 449.79 543.76 443.43 539.14 437.86 533.57 433.24 527.21 429.66 520.19 427.32 512.98 420.08 530.46 405.46 545.08 386.34 553 365.66 553 346.54 545.08 331.92 530.46 326 516.17 320.08 530.46 305.46 545.08 286.34 553 265.66 553 M 264.91 552.69 69 552.69 M 69 546.7 250.46 546.7 M 242.18 540.72 69 540.72 M 69 534.73 236.2 534.73 M 231.21 528.75 69 528.75 M 69 522.76 228.73 522.76 M 226.25 516.78 69 516.78 M 69 510.79 224 510.79 M 224 504.81 69 504.81 M 69 498.82 224 498.82 M 224 492.84 69 492.84 M 69 486.85 225.58 486.85 M 228.05 480.87 69 480.87 M 69 474.88 230.53 474.88 M 234.56 468.9 69 468.9 M 69 462.91 240.55 462.91 M 246.53 456.93 69 456.93 M 69 450.94 260.97 450.94 M 264.29 424.77 272.06 426 273 426 273 379 279 379 279 426 279.94 426 287.71 424.77 295.19 422.34 302.21 418.76 308.57 414.14 314.14 408.57 318.76 402.21 322.34 395.19 324.68 387.98 331.92 405.46 346.54 420.08 365.66 428 386.34 428 405.46 420.08 420.08 405.46 426 391.17 431.92 405.46 446.54 420.08 465.66 428 486.34 428 505.46 420.08 520.08 405.46 526 391.17 531.92 405.46 546.54 420.08 565.66 428 586.34 428 605.46 420.08 620.08 405.46 628 386.34 628 377.23 631.28 380.51 644.08 385.81 657.92 385.81 670.72 380.51 680.51 370.72 685.81 357.92 685.81 344.08 680.51 331.28 670.72 321.49 657.92 316.19 648.72 316.19 610.53 278 541.47 278 528 291.47 492.8 326.67 486.34 324 465.66 324 446.54 331.92 431.92 346.54 426 360.83 420.08 346.54 405.46 331.92 386.34 324 365.66 324 359.2 326.67 310.53 278 291.47 278 260.53 278 241.47 278 203.28 316.19 194.08 316.19 181.28 321.49 171.49 331.28 166.19 344.08 166.19 357.92 171.49 370.72 181.28 380.51 194.08 385.81 207.92 385.81 220.72 380.51 228.23 373 273 373 273 379 226 379 226 379.94 227.23 387.71 229.66 395.19 233.24 402.21 237.86 408.57 243.43 414.14 249.79 418.76 256.81 422.34 264.29 424.77 M 273 421.02 279 421.02 M 279 415.03 273 415.03 M 273 409.05 279 409.05 M 279 403.06 273 403.06 M 273 397.08 279 397.08 M 279 391.09 273 391.09 M 273 385.11 279 385.11 M 279 379.12 273 379.12 M 273 373.14 228.09 373.14 M 226 379.12 222.11 379.12 M 226.82 385.11 209.62 385.11 M 192.38 385.11 69 385.11 M 69 391.09 228.33 391.09 M 230.62 397.08 69 397.08 M 69 403.06 233.86 403.06 M 238.34 409.05 69 409.05 M 69 415.03 244.66 415.03 M 254.22 421.02 69 421.02 M 69 427 363.25 427 M 348.8 421.02 297.78 421.02 M 307.34 415.03 341.49 415.03 M 335.51 409.05 313.66 409.05 M 318.14 403.06 330.93 403.06 M 328.45 397.08 321.38 397.08 M 323.67 391.09 325.97 391.09 M 279 373 279 326 279.94 326 287.71 327.23 295.19 329.66 299.16 331.68 291.47 324 260.53 324 252.84 331.68 256.81 329.66 264.29 327.23 272.06 326 273 326 273 373 279 373 M 279 367.15 273 367.15 M 273 361.17 279 361.17 M 279 355.18 273 355.18 M 273 349.2 279 349.2 M 279 343.21 273 343.21 M 273 337.23 279 337.23 M 279 331.24 273 331.24 M 259.27 325.26 292.73 325.26 M 298.29 331.24 298.71 331.24 M 333.84 301.32 518.16 301.32 M 512.17 307.3 339.83 307.3 M 345.81 313.29 506.19 313.29 M 500.2 319.27 351.8 319.27 M 357.78 325.26 362.63 325.26 M 389.37 325.26 462.62 325.26 M 448.18 331.24 403.82 331.24 M 410.77 337.23 441.23 337.23 M 435.25 343.21 416.75 343.21 M 421.18 349.2 430.82 349.2 M 428.34 355.18 423.66 355.18 M 423.55 397.08 428.45 397.08 M 430.93 403.06 421.07 403.06 M 416.49 409.05 435.51 409.05 M 441.49 415.03 410.51 415.03 M 403.2 421.02 448.8 421.02 M 463.25 427 388.75 427 M 391.03 450.94 560.97 450.94 M 546.53 456.93 499.64 456.93 M 508.62 462.91 540.55 462.91 M 534.56 468.9 514.48 468.9 M 518.81 474.88 530.53 474.88 M 528.05 480.87 521.86 480.87 M 523.98 486.85 525.58 486.85 M 526.25 516.78 523.45 516.78 M 521.03 522.76 528.73 522.76 M 531.21 528.75 517.64 528.75 M 512.98 534.73 536.2 534.73 M 542.18 540.72 506.4 540.72 M 496.43 546.7 550.46 546.7 M 564.91 552.69 387.09 552.69 M 401.54 546.7 455.57 546.7 M 445.6 540.72 409.82 540.72 M 415.8 534.73 439.02 534.73 M 434.36 528.75 420.79 528.75 M 423.27 522.76 430.97 522.76 M 428.55 516.78 425.75 516.78 M 426.42 486.85 428.02 486.85 M 430.14 480.87 423.95 480.87 M 421.47 474.88 433.19 474.88 M 437.52 468.9 417.44 468.9 M 411.45 462.91 443.38 462.91 M 452.36 456.93 405.47 456.93 M 360.97 450.94 291.03 450.94 M 305.47 456.93 346.53 456.93 M 340.55 462.91 311.45 462.91 M 317.44 468.9 334.56 468.9 M 330.53 474.88 321.47 474.88 M 323.95 480.87 328.05 480.87 M 326.25 516.78 325.75 516.78 M 323.27 522.76 328.73 522.76 M 331.21 528.75 320.79 528.75 M 315.8 534.73 336.2 534.73 M 342.18 540.72 309.82 540.72 M 301.54 546.7 350.46 546.7 M 364.91 552.69 287.09 552.69 M 179.89 379.12 69 379.12 M 69 373.14 173.91 373.14 M 170.01 367.15 69 367.15 M 69 361.17 167.53 361.17 M 166.19 355.18 69 355.18 M 69 349.2 166.19 349.2 M 166.55 343.21 69 343.21 M 69 337.23 169.03 337.23 M 171.53 331.24 69 331.24 M 69 325.26 177.51 325.26 M 186.64 319.27 69 319.27 M 69 313.29 206.19 313.29 M 212.17 307.3 69 307.3 M 69 301.32 218.16 301.32 M 224.14 295.33 69 295.33 M 69 289.34 230.13 289.34 M 236.11 283.36 69 283.36 M 69 277.37 783 277.37 M 783 271.39 69 271.39 M 69 265.4 783 265.4 M 783 259.42 69 259.42 M 69 253.43 783 253.43 M 783 247.45 69 247.45 M 69 241.46 783 241.46 M 783 235.48 69 235.48 M 69 229.49 783 229.49 M 783 223.51 69 223.51 M 69 217.52 783 217.52 M 783 211.54 69 211.54 M 69 205.55 98 205.55 M 83.55 199.57 69 199.57 M 69 193.58 74.49 193.58 M 154 205.55 698 205.55 M 683.55 199.57 168.45 199.57 M 177.51 193.58 674.49 193.58 M 668.5 187.6 183.5 187.6 M 189.48 181.61 662.52 181.61 M 656.53 175.63 592.07 175.63 M 586.34 178 565.66 178 546.54 170.08 531.92 155.46 526 141.17 520.08 155.46 505.46 170.08 486.34 178 465.66 178 446.54 170.08 431.92 155.46 426 141.17 420.08 155.46 405.46 170.08 386.34 178 365.66 178 346.54 170.08 331.92 155.46 324.68 137.98 322.34 145.19 318.76 152.21 314.14 158.57 308.57 164.14 302.21 168.76 295.19 172.34 287.71 174.77 279.94 176 279 176 279 129 273 129 273 176 272.06 176 264.29 174.77 256.81 172.34 249.79 168.76 243.43 164.14 237.86 158.57 233.24 152.21 229.66 145.19 227.23 137.71 226 129.94 226 129 273 129 273 123 226 123 226 122.06 227.23 114.29 229.66 106.81 233.24 99.79 237.86 93.43 243.43 87.86 249.79 83.24 256.81 79.66 264.29 77.23 272.06 76 273 76 273 123 279 123 279 76 279.94 76 287.71 77.23 295.19 79.66 302.21 83.24 308.57 87.86 314.14 93.43 318.76 99.79 322.34 106.81 324.68 114.02 331.92 96.54 346.54 81.92 365.66 74 386.34 74 405.46 81.92 420.08 96.54 426 110.83 431.92 96.54 446.54 81.92 465.66 74 486.34 74 505.46 81.92 520.08 96.54 526 110.83 531.92 96.54 546.54 81.92 565.66 74 586.34 74 605.46 81.92 620.08 96.54 628 115.66 628 136.34 620.08 155.46 605.46 170.08 586.34 178 M 605.9 169.64 652.93 169.64 M 650.45 163.66 611.88 163.66 M 617.87 157.67 647.97 157.67 M 645.49 151.69 621.64 151.69 M 624.12 145.7 643.01 145.7 M 641.79 139.72 626.6 139.72 M 628 133.73 641.79 133.73 M 641.79 127.75 628 127.75 M 628 121.76 641.79 121.76 M 641.79 115.78 628 115.78 M 625.57 109.79 641.79 109.79 M 644.04 103.81 623.09 103.81 M 620.61 97.82 646.52 97.82 M 649 91.84 615.38 91.84 M 609.39 85.85 651.48 85.85 M 653.96 79.87 600.51 79.87 M 551.49 79.87 500.51 79.87 M 509.39 85.85 542.61 85.85 M 536.62 91.84 515.38 91.84 M 520.61 97.82 531.39 97.82 M 528.91 103.81 523.09 103.81 M 525.57 109.79 526.43 109.79 M 527.88 145.7 524.12 145.7 M 521.64 151.69 530.36 151.69 M 534.13 157.67 517.87 157.67 M 511.88 163.66 540.12 163.66 M 546.1 169.64 505.9 169.64 M 492.07 175.63 559.93 175.63 M 459.93 175.63 392.07 175.63 M 405.9 169.64 446.1 169.64 M 440.12 163.66 411.88 163.66 M 417.87 157.67 434.13 157.67 M 430.36 151.69 421.64 151.69 M 424.12 145.7 427.88 145.7 M 426.43 109.79 425.57 109.79 M 423.09 103.81 428.91 103.81 M 431.39 97.82 420.61 97.82 M 415.38 91.84 436.62 91.84 M 442.61 85.85 409.39 85.85 M 400.51 79.87 451.49 79.87 M 351.49 79.87 295.59 79.87 M 305.8 85.85 342.61 85.85 M 336.62 91.84 312.55 91.84 M 317.33 97.82 331.39 97.82 M 328.91 103.81 320.81 103.81 M 323.31 109.79 326.43 109.79 M 325.4 139.72 324.12 139.72 M 322.08 145.7 327.88 145.7 M 330.36 151.69 319.03 151.69 M 314.79 157.67 334.13 157.67 M 340.12 163.66 309.05 163.66 M 300.48 169.64 346.1 169.64 M 359.93 175.63 282.28 175.63 M 279 175.63 273 175.63 M 269.72 175.63 195.47 175.63 M 199.07 169.64 251.52 169.64 M 242.95 163.66 201.55 163.66 M 204.03 157.67 237.21 157.67 M 232.97 151.69 206.51 151.69 M 208.99 145.7 229.92 145.7 M 227.88 139.72 210.21 139.72 M 210.21 133.73 226.6 133.73 M 226.05 121.76 210.21 121.76 M 210.21 115.78 227 115.78 M 228.69 109.79 210.21 109.79 M 207.96 103.81 231.19 103.81 M 234.67 97.82 205.48 97.82 M 203 91.84 239.45 91.84 M 246.19 85.85 200.52 85.85 M 198.04 79.87 256.41 79.87 M 273 79.87 279 79.87 M 279 85.85 273 85.85 M 273 91.84 279 91.84 M 279 97.82 273 97.82 M 273 103.81 279 103.81 M 279 109.79 273 109.79 M 273 115.78 279 115.78 M 279 121.76 273 121.76 M 273 127.75 210.21 127.75 M 192.98 73.88 659.02 73.88 M 777.51 193.58 783 193.58 M 783 199.57 768.45 199.57 M 754 205.55 783 205.55 M 783 283.36 615.89 283.36 M 621.87 289.34 783 289.34 M 783 295.33 627.86 295.33 M 633.84 301.32 783 301.32 M 783 307.3 639.83 307.3 M 645.81 313.29 783 313.29 M 783 319.27 665.36 319.27 M 674.49 325.26 783 325.26 M 783 331.24 680.47 331.24 M 682.97 337.23 783 337.23 M 783 343.21 685.45 343.21 M 685.81 349.2 783 349.2 M 783 355.18 685.81 355.18 M 684.47 361.17 783 361.17 M 783 367.15 681.99 367.15 M 678.09 373.14 783 373.14 M 783 379.12 672.11 379.12 M 659.62 385.11 783 385.11 M 783 391.09 626.03 391.09 M 628 385.11 642.38 385.11 M 629.89 379.12 628 379.12 M 623.55 397.08 783 397.08 M 783 403.06 621.07 403.06 M 616.49 409.05 783 409.05 M 783 415.03 610.51 415.03 M 603.2 421.02 783 421.02 M 783 427 588.75 427 M 591.03 450.94 783 450.94 M 783 444.96 69 444.96 M 69 438.97 783 438.97 M 783 432.99 69 432.99 M 69 558.68 783 558.68 M 783 564.66 69 564.66 M 69 570.65 783 570.65 M 783 576.63 69 576.63 M 69 582.62 783 582.62 M 783 588.6 69 588.6 M 69 594.59 783 594.59 M 783 600.57 69 600.57 M 69 642.47 107.61 642.47 M 93.16 648.45 69 648.45 M 69 654.44 78.71 654.44 M 72.48 660.42 69 660.42 M 253.29 331.24 253.71 331.24 M 315.89 283.36 536.11 283.36 M 530.13 289.34 321.87 289.34 M 327.86 295.33 524.14 295.33 M 494.22 325.26 489.37 325.26 M 523.55 397.08 528.45 397.08 M 530.93 403.06 521.07 403.06 M 516.49 409.05 535.51 409.05 M 541.49 415.03 510.51 415.03 M 503.2 421.02 548.8 421.02 M 563.25 427 488.75 427 M 479 456.93 473 456.93 M 473 462.91 479 462.91 M 479 468.9 473 468.9 M 473 474.88 479 474.88 M 479 480.87 473 480.87 M 473 486.85 479 486.85 M 479 492.84 473 492.84 M 473 504.81 479 504.81 M 479 510.79 473 510.79 M 473 516.78 479 516.78 M 479 522.76 473 522.76 M 473 528.75 479 528.75 M 479 534.73 473 534.73 M 473 540.72 479 540.72 M 479 546.7 473 546.7 M 587.09 552.69 783 552.69 M 783 546.7 601.54 546.7 M 609.82 540.72 783 540.72 M 783 534.73 615.8 534.73 M 620.79 528.75 783 528.75 M 783 522.76 623.27 522.76 M 625.75 516.78 783 516.78 M 783 510.79 628 510.79 M 628 504.81 783 504.81 M 783 498.82 628 498.82 M 628 492.84 783 492.84 M 783 486.85 626.42 486.85 M 623.95 480.87 783 480.87 M 783 474.88 621.47 474.88 M 617.44 468.9 783 468.9 M 783 462.91 611.45 462.91 M 605.47 456.93 783 456.93 M 783 618.53 602.1 618.53 M 610.05 624.51 783 624.51 M 783 630.5 616.04 630.5 M 620.89 636.48 783 636.48 M 783 642.47 744.39 642.47 M 758.84 648.45 783 648.45 M 783 654.44 773.29 654.44 M 779.52 660.42 783 660.42 M 707.61 642.47 623.36 642.47 M 625.84 648.45 693.16 648.45 M 678.71 654.44 628 654.44 M 628 660.42 672.48 660.42 M 666.5 666.41 628 666.41 M 628 672.39 660.51 672.39 M 654.57 678.38 628 678.38 M 628 684.36 652.1 684.36 M 649.62 690.35 628 690.35 M 628 696.33 647.14 696.33 M 644.66 702.32 628 702.32 M 628 708.3 642.18 708.3 M 641.79 714.29 628 714.29 M 628 720.27 641.79 720.27 M 641.79 726.26 628 726.26 M 628 732.24 641.79 732.24 M 641.79 738.23 628 738.23 M 628 744.21 642.39 744.21 M 644.87 750.2 627.23 750.2 M 624.75 756.18 647.35 756.18 M 649.83 762.17 622.27 762.17 M 619.38 768.15 652.31 768.15 M 655.04 774.14 613.4 774.14 M 607.41 780.12 661.03 780.12 M 279 169.64 273 169.64 M 273 163.66 279 163.66 M 279 157.67 273 157.67 M 273 151.69 279 151.69 M 279 145.7 273 145.7 M 273 139.72 279 139.72 M 279 133.73 273 133.73" fill="none" stroke-width="6"/><use xlink:href="#cAOsjlLNdlVmThfaWEpz_pad-13" x="201" y="351"/><use xlink:href="#cAOsjlLNdlVmThfaWEpz_pad-13" x="651" y="351"/><use xlink:href="#cAOsjlLNdlVmThfaWEpz_pad-13" x="701" y="226"/><path d="M 601 301 651 351 M 601 301 551 301 476 376 M 376 376 301 301 251 301 201 351" fill="none" stroke-width="16"/><use xlink:href="#cAOsjlLNdlVmThfaWEpz_pad-15" x="126" y="126"/><use xlink:href="#cAOsjlLNdlVmThfaWEpz_pad-15" x="126" y="726"/><use xlink:href="#cAOsjlLNdlVmThfaWEpz_pad-15" x="726" y="726"/><use xlink:href="#cAOsjlLNdlVmThfaWEpz_pad-15" x="726" y="126"/></g><g id="YFYzNEpkvXfSAMVl-ixy_bottom_silkscreen"><path d="M 26 26 26 826 826 826 826 26 26 26" fill="none" stroke-width="0"/><path d="M 172.78 259 172.78 293 184.11 274.11 195.45 293 195.45 259 M 214.27 268.44 214.27 283.56 214.29 284.16 214.35 284.77 214.44 285.36 214.58 285.95 214.75 286.53 214.96 287.1 215.2 287.66 215.48 288.19 215.8 288.71 216.14 289.21 216.52 289.68 216.93 290.13 217.36 290.55 217.82 290.94 218.31 291.3 218.82 291.63 219.34 291.93 219.89 292.19 220.45 292.42 221.02 292.61 221.61 292.76 222.2 292.88 222.8 292.96 223.41 293 224.01 293 224.62 292.96 225.22 292.88 225.81 292.76 226.4 292.61 226.97 292.42 227.53 292.19 228.08 291.93 228.6 291.63 229.11 291.3 229.6 290.94 230.06 290.55 230.49 290.13 230.9 289.68 231.28 289.21 231.62 288.71 231.94 288.19 232.22 287.66 232.46 287.1 232.67 286.53 232.84 285.95 232.98 285.36 233.07 284.77 233.13 284.16 233.15 283.56 M 233.16 283.56 233.16 268.44 M 233.15 268.44 233.13 267.84 233.07 267.23 232.98 266.64 232.84 266.05 232.67 265.47 232.46 264.9 232.22 264.34 231.94 263.81 231.62 263.29 231.28 262.79 230.9 262.32 230.49 261.87 230.06 261.45 229.6 261.06 229.11 260.7 228.6 260.37 228.08 260.07 227.53 259.81 226.97 259.58 226.4 259.39 225.81 259.24 225.22 259.12 224.62 259.04 224.01 259 223.41 259 222.8 259.04 222.2 259.12 221.61 259.24 221.02 259.39 220.45 259.58 219.89 259.81 219.34 260.07 218.82 260.37 218.31 260.7 217.82 261.06 217.36 261.45 216.93 261.87 216.52 262.32 216.14 262.79 215.8 263.29 215.48 263.81 215.2 264.34 214.96 264.9 214.75 265.47 214.58 266.05 214.44 266.64 214.35 267.23 214.29 267.84 214.27 268.44 M 248.2 259 255.75 259 256.29 259.02 256.83 259.08 257.36 259.17 257.88 259.31 258.39 259.48 258.89 259.68 259.37 259.92 259.84 260.2 260.28 260.51 260.7 260.85 261.1 261.21 261.46 261.61 261.8 262.03 262.11 262.47 262.39 262.94 262.63 263.42 262.83 263.92 263 264.43 263.14 264.95 263.23 265.48 263.29 266.02 263.31 266.56 263.31 285.44 263.29 285.98 263.23 286.52 263.14 287.05 263 287.57 262.83 288.08 262.63 288.58 262.39 289.06 262.11 289.53 261.8 289.97 261.46 290.39 261.1 290.79 260.7 291.15 260.28 291.49 259.84 291.8 259.37 292.08 258.89 292.32 258.39 292.52 257.88 292.69 257.36 292.83 256.83 292.92 256.29 292.98 255.75 293 248.2 293 M 277.97 260.89 277.97 259 279.86 259 279.86 260.89 277.97 260.89 M 301.71 259 301.71 293 M 292.27 293 311.16 293 M 334.98 293 344.42 293 344.42 259 M 344.42 274.11 334.98 274.11 M 333.09 274.11 325.53 259 M 334.98 274.12 334.38 274.14 333.77 274.2 333.18 274.29 332.59 274.43 332.01 274.6 331.44 274.81 330.88 275.05 330.35 275.33 329.83 275.65 329.33 275.99 328.86 276.37 328.41 276.78 327.99 277.21 327.6 277.67 327.24 278.16 326.91 278.67 326.61 279.19 326.35 279.74 326.12 280.3 325.93 280.87 325.78 281.46 325.66 282.05 325.58 282.65 325.54 283.26 325.54 283.86 325.58 284.47 325.66 285.07 325.78 285.66 325.93 286.25 326.12 286.82 326.35 287.38 326.61 287.93 326.91 288.45 327.24 288.96 327.6 289.45 327.99 289.91 328.41 290.34 328.86 290.75 329.33 291.13 329.83 291.47 330.35 291.79 330.88 292.07 331.44 292.31 332.01 292.52 332.59 292.69 333.18 292.83 333.77 292.92 334.38 292.98 334.98 293 M 364.01 267.5 381.01 267.5 M 383.84 259 372.51 293 361.18 259 M 396.99 259 404.55 259 405.09 259.02 405.63 259.08 406.16 259.17 406.68 259.31 407.19 259.48 407.69 259.68 408.17 259.92 408.64 260.2 409.08 260.51 409.5 260.85 409.9 261.21 410.26 261.61 410.6 262.03 410.91 262.47 411.19 262.94 411.43 263.42 411.63 263.92 411.8 264.43 411.94 264.95 412.03 265.48 412.09 266.02 412.11 266.56 412.11 285.44 412.09 285.98 412.03 286.52 411.94 287.05 411.8 287.57 411.63 288.08 411.43 288.58 411.19 289.06 410.91 289.53 410.6 289.97 410.26 290.39 409.9 290.79 409.5 291.15 409.08 291.49 408.64 291.8 408.17 292.08 407.69 292.32 407.19 292.52 406.68 292.69 406.16 292.83 405.63 292.92 405.09 292.98 404.55 293 396.99 293 M 430.27 293 430.27 259 M 449.16 259 449.16 293 M 449.16 277.89 430.27 277.89 M 468.67 293 468.67 259 487.55 293 487.55 259 M 507.07 259 507.07 293 M 507.07 277.89 525.95 277.89 M 525.95 293 525.95 259 M 541.97 259 543.85 259 543.85 260.89 541.97 260.89 541.97 259 M 565.35 259 557.8 293 M 572.91 281.67 565.35 259 M 580.47 259 572.91 281.67 M 588.02 293 580.47 259 M 610.95 259 603.4 293 M 618.51 281.67 610.95 259 M 626.07 259 618.51 281.67 M 633.62 293 626.07 259 M 656.55 259 649 293 M 664.11 281.67 656.55 259 M 671.67 259 664.11 281.67 M 679.22 293 671.67 259" fill="none" stroke-width="6"/></g><g id="YFYzNEpkvXfSAMVl-ixy_bottom_drill1"><use xlink:href="#lSZ7BAf88iiuzL-jodPc_pad-1" x="201" y="351"/><use xlink:href="#lSZ7BAf88iiuzL-jodPc_pad-1" x="651" y="351"/><use xlink:href="#lSZ7BAf88iiuzL-jodPc_pad-1" x="701" y="226"/><use xlink:href="#lSZ7BAf88iiuzL-jodPc_pad-2" x="576" y="126"/><use xlink:href="#lSZ7BAf88iiuzL-jodPc_pad-2" x="476" y="126"/><use xlink:href="#lSZ7BAf88iiuzL-jodPc_pad-2" x="376" y="126"/><use xlink:href="#lSZ7BAf88iiuzL-jodPc_pad-2" x="276" y="126"/><use xlink:href="#lSZ7BAf88iiuzL-jodPc_pad-2" x="276" y="376"/><use xlink:href="#lSZ7BAf88iiuzL-jodPc_pad-2" x="376" y="376"/><use xlink:href="#lSZ7BAf88iiuzL-jodPc_pad-2" x="476" y="376"/><use xlink:href="#lSZ7BAf88iiuzL-jodPc_pad-2" x="576" y="376"/><use xlink:href="#lSZ7BAf88iiuzL-jodPc_pad-2" x="576" y="501"/><use xlink:href="#lSZ7BAf88iiuzL-jodPc_pad-2" x="476" y="501"/><use xlink:href="#lSZ7BAf88iiuzL-jodPc_pad-2" x="376" y="501"/><use xlink:href="#lSZ7BAf88iiuzL-jodPc_pad-2" x="276" y="501"/><use xlink:href="#lSZ7BAf88iiuzL-jodPc_pad-3" x="276" y="701"/><use xlink:href="#lSZ7BAf88iiuzL-jodPc_pad-3" x="376" y="701"/><use xlink:href="#lSZ7BAf88iiuzL-jodPc_pad-3" x="476" y="701"/><use xlink:href="#lSZ7BAf88iiuzL-jodPc_pad-3" x="576" y="701"/><use xlink:href="#lSZ7BAf88iiuzL-jodPc_pad-4" x="126" y="126"/><use xlink:href="#lSZ7BAf88iiuzL-jodPc_pad-4" x="126" y="726"/><use xlink:href="#lSZ7BAf88iiuzL-jodPc_pad-4" x="726" y="726"/><use xlink:href="#lSZ7BAf88iiuzL-jodPc_pad-4" x="726" y="126"/></g><clipPath id="YFYzNEpkvXfSAMVl-ixy_bottom_outline"><path d="M 26 26 26 826 826 826 826 26 26 26" fill="none" stroke-width="0"/></clipPath><mask id="YFYzNEpkvXfSAMVl-ixy_bottom_mech-mask"><g fill="#000" stroke="#000"><rect x="26" y="26" width="800" height="800" fill="#fff"/><use xlink:href="#YFYzNEpkvXfSAMVl-ixy_bottom_drill1"/></g></mask><mask id="YFYzNEpkvXfSAMVl-ixy_bottom_cf-mask"><g fill="#fff" stroke="#fff"><use xlink:href="#YFYzNEpkvXfSAMVl-ixy_bottom_soldermask"/></g></mask><mask id="YFYzNEpkvXfSAMVl-ixy_bottom_sm-mask"><g fill="#000" stroke="#000"><rect x="26" y="26" width="800" height="800" fill="#fff"/><use xlink:href="#YFYzNEpkvXfSAMVl-ixy_bottom_soldermask"/></g></mask></defs><g transform="translate(0,852) scale(1,-1)"><g mask="url(#YFYzNEpkvXfSAMVl-ixy_bottom_mech-mask)" clip-path="url(#YFYzNEpkvXfSAMVl-ixy_bottom_outline)" transform="translate(852,0) scale(-1,1)"><rect x="26" y="26" width="800" height="800" fill="currentColor" class="YFYzNEpkvXfSAMVl-ixy_fr4"/><use xlink:href="#YFYzNEpkvXfSAMVl-ixy_bottom_copper" fill="currentColor" stroke="currentColor" class="YFYzNEpkvXfSAMVl-ixy_cu"/><use xlink:href="#YFYzNEpkvXfSAMVl-ixy_bottom_copper" fill="currentColor" stroke="currentColor" class="YFYzNEpkvXfSAMVl-ixy_cf" mask="url(#YFYzNEpkvXfSAMVl-ixy_bottom_cf-mask)"/><g mask="url(#YFYzNEpkvXfSAMVl-ixy_bottom_sm-mask)"><rect x="26" y="26" width="800" height="800" fill="currentColor" class="YFYzNEpkvXfSAMVl-ixy_sm"/><use xlink:href="#YFYzNEpkvXfSAMVl-ixy_bottom_silkscreen" fill="currentColor" stroke="currentColor" class="YFYzNEpkvXfSAMVl-ixy_ss"/></g></g></g></svg>