<svg version="1.1" xmlns="http://www.w3.org/2000/svg" xmlns:xlink="http://www.w3.org/1999/xlink" stroke-linecap="round" stroke-linejoin="round" stroke-width="0" fill-rule="evenodd" clip-rule="evenodd" id="YFYzNEpkvXfSAMVl-ixy_top" viewBox="26 26 800 800" width="0.8in" height="0.8in" class="w-100 h-100"><defs><style>.YFYzNEpkvXfSAMVl-ixy_fr4 {color: #666666;}
.YFYzNEpkvXfSAMVl-ixy_cu {color: #cccccc;}
.YFYzNEpkvXfSAMVl-ixy_cf {color: #cc9933;}
.YFYzNEpkvXfSAMVl-ixy_sm {color: #004200; opacity: 0.75;}
.YFYzNEpkvXfSAMVl-ixy_ss {color: #ffffff;}
.YFYzNEpkvXfSAMVl-ixy_sp {color: #999999;}
.YFYzNEpkvXfSAMVl-ixy_out {color: #000000;}</style><rect x="-10" y="-10" width="20" height="20" id="B8Ja4mMDVCT5U-4YTQ5z_pad-16"/><rect x="-27.56" y="-12.795" width="55.12" height="25.59" id="B8Ja4mMDVCT5U-4YTQ5z_pad-19"/><circle cx="0" cy="0" r="37" id="S2HlUpcKXbHZYkBo70WC_pad-10"/><rect x="-29.53" y="-25.59" width="59.06" height="51.18" id="S2HlUpcKXbHZYkBo70WC_pad-11"/><circle cx="0" cy="0" r="19.81" id="S2HlUpcKXbHZYkBo70WC_pad-14"/><circle cx="0" cy="0" r="69.215" id="S2HlUpcKXbHZYkBo70WC_pad-17"/><circle cx="0" cy="0" r="41" id="z6RA4QxKdGR-FAVsy8gg_pad-10"/><rect x="-33.53" y="-29.59" width="67.06" height="59.18" id="z6RA4QxKdGR-FAVsy8gg_pad-11"/><circle cx="0" cy="0" r="23.81" id="z6RA4QxKdGR-FAVsy8gg_pad-13"/><circle cx="0" cy="0" r="73.215" id="z6RA4QxKdGR-FAVsy8gg_pad-14"/><circle cx="0" cy="0" r="11.8" id="lSZ7BAf88iiuzL-jodPc_pad-1"/><circle cx="0" cy="0" r="20" id="lSZ7BAf88iiuzL-jodPc_pad-2"/><circle cx="0" cy="0" r="22" id="lSZ7BAf88iiuzL-jodPc_pad-3"/><circle cx="0" cy="0" r="49.2" id="lSZ7BAf88iiuzL-jodPc_pad-4"/><g id="YFYzNEpkvXfSAMVl-ixy_top_silkscreen"><path d="M 26 26 26 826 826 826 826 26 26 26" fill="none" stroke-width="0"/><path d="M 246.1 191 246.1 211 251.66 211 252.12 210.98 252.58 210.92 253.02 210.83 253.47 210.7 253.89 210.53 254.31 210.33 254.7 210.09 255.08 209.83 255.43 209.53 255.75 209.21 256.05 208.86 256.31 208.48 256.55 208.09 256.75 207.67 256.92 207.25 257.05 206.8 257.14 206.36 257.2 205.9 257.22 205.44 257.2 204.98 257.14 204.52 257.05 204.08 256.92 203.63 256.75 203.21 256.55 202.79 256.31 202.4 256.05 202.02 255.75 201.67 255.43 201.35 255.08 201.05 254.7 200.79 254.31 200.55 253.89 200.35 253.47 200.18 253.02 200.05 252.58 199.96 252.12 199.9 251.66 199.88 M 251.66 199.89 246.1 199.89 M 266.04 211 270.48 191 274.93 204.33 279.37 191 283.81 211 M 294.78 211 300.34 211 M 294.78 211 294.78 191 M 294.78 199.89 300.34 199.89 M 301.45 199.89 305.9 191 M 300.34 199.88 300.8 199.9 301.26 199.96 301.7 200.05 302.15 200.18 302.57 200.35 302.99 200.55 303.38 200.79 303.76 201.05 304.11 201.35 304.43 201.67 304.73 202.02 304.99 202.4 305.23 202.79 305.43 203.21 305.6 203.63 305.73 204.08 305.82 204.52 305.88 204.98 305.9 205.44 305.88 205.9 305.82 206.36 305.73 206.8 305.6 207.25 305.43 207.67 305.23 208.09 304.99 208.48 304.73 208.86 304.43 209.21 304.11 209.53 303.76 209.83 303.38 210.09 302.99 210.33 302.57 210.53 302.15 210.7 301.7 210.83 301.26 210.92 300.8 210.98 300.34 211 M 360.25 211 360.25 191 M 360.25 199.89 365.81 199.89 M 365.81 199.88 366.27 199.9 366.73 199.96 367.17 200.05 367.62 200.18 368.04 200.35 368.46 200.55 368.85 200.79 369.23 201.05 369.58 201.35 369.9 201.67 370.2 202.02 370.46 202.4 370.7 202.79 370.9 203.21 371.07 203.63 371.2 204.08 371.29 204.52 371.35 204.98 371.37 205.44 371.35 205.9 371.29 206.36 371.2 206.8 371.07 207.25 370.9 207.67 370.7 208.09 370.46 208.48 370.2 208.86 369.9 209.21 369.58 209.53 369.23 209.83 368.85 210.09 368.46 210.33 368.04 210.53 367.62 210.7 367.17 210.83 366.73 210.92 366.27 210.98 365.81 211 360.25 211 M 380.64 191 391.75 191 M 380.64 191 390.08 202.11 M 386.75 211 386.28 210.98 385.8 210.93 385.34 210.84 384.88 210.72 384.43 210.57 383.99 210.38 383.57 210.16 383.17 209.91 382.78 209.63 382.42 209.32 382.08 208.99 381.77 208.63 381.48 208.25 381.23 207.85 381 207.44 380.81 207 380.64 206.56 M 390.08 202.11 390.39 202.42 390.66 202.76 390.91 203.12 391.13 203.49 391.32 203.88 391.47 204.29 391.59 204.71 391.68 205.13 391.73 205.57 391.75 206 391.73 206.44 391.67 206.87 391.58 207.29 391.45 207.71 391.28 208.11 391.08 208.5 390.85 208.87 390.58 209.21 390.29 209.54 389.96 209.83 389.62 210.1 389.25 210.33 388.86 210.53 388.46 210.7 388.04 210.83 387.62 210.92 387.19 210.98 386.75 211 M 460.25 211 460.25 191 M 460.25 199.89 465.81 199.89 M 465.81 199.88 466.27 199.9 466.73 199.96 467.17 200.05 467.62 200.18 468.04 200.35 468.46 200.55 468.85 200.79 469.23 201.05 469.58 201.35 469.9 201.67 470.2 202.02 470.46 202.4 470.7 202.79 470.9 203.21 471.07 203.63 471.2 204.08 471.29 204.52 471.35 204.98 471.37 205.44 471.35 205.9 471.29 206.36 471.2 206.8 471.07 207.25 470.9 207.67 470.7 208.09 470.46 208.48 470.2 208.86 469.9 209.21 469.58 209.53 469.23 209.83 468.85 210.09 468.46 210.33 468.04 210.53 467.62 210.7 467.17 210.83 466.73 210.92 466.27 210.98 465.81 211 460.25 211 M 480.64 206.56 486.19 211 486.19 191 M 480.64 191 491.75 191 M 546.1 191 546.1 211 551.66 211 552.12 210.98 552.58 210.92 553.02 210.83 553.47 210.7 553.89 210.53 554.31 210.33 554.7 210.09 555.08 209.83 555.43 209.53 555.75 209.21 556.05 208.86 556.31 208.48 556.55 208.09 556.75 207.67 556.92 207.25 557.05 206.8 557.14 206.36 557.2 205.9 557.22 205.44 557.2 204.98 557.14 204.52 557.05 204.08 556.92 203.63 556.75 203.21 556.55 202.79 556.31 202.4 556.05 202.02 555.75 201.67 555.43 201.35 555.08 201.05 554.7 200.79 554.31 200.55 553.89 200.35 553.47 200.18 553.02 200.05 552.58 199.96 552.12 199.9 551.66 199.88 M 551.66 199.89 546.1 199.89 M 566.04 211 570.48 191 574.93 204.33 579.37 191 583.81 211 M 594.78 211 600.34 211 M 594.78 211 594.78 191 M 594.78 199.89 600.34 199.89 M 601.45 199.89 605.9 191 M 600.34 199.88 600.8 199.9 601.26 199.96 601.7 200.05 602.15 200.18 602.57 200.35 602.99 200.55 603.38 200.79 603.76 201.05 604.11 201.35 604.43 201.67 604.73 202.02 604.99 202.4 605.23 202.79 605.43 203.21 605.6 203.63 605.73 204.08 605.82 204.52 605.88 204.98 605.9 205.44 605.88 205.9 605.82 206.36 605.73 206.8 605.6 207.25 605.43 207.67 605.23 208.09 604.99 208.48 604.73 208.86 604.43 209.21 604.11 209.53 603.76 209.83 603.38 210.09 602.99 210.33 602.57 210.53 602.15 210.7 601.7 210.83 601.26 210.92 600.8 210.98 600.34 211 M 666 249.09 666 254.65 666.02 255.11 666.08 255.57 666.17 256.01 666.3 256.46 666.47 256.88 666.67 257.3 666.91 257.69 667.17 258.07 667.47 258.42 667.79 258.74 668.14 259.04 668.52 259.3 668.91 259.54 669.33 259.74 669.75 259.91 670.2 260.04 670.64 260.13 671.1 260.19 671.56 260.21 672.02 260.19 672.48 260.13 672.92 260.04 673.37 259.91 673.79 259.74 674.21 259.54 674.6 259.3 674.98 259.04 675.33 258.74 675.65 258.42 675.95 258.07 676.21 257.69 676.45 257.3 676.65 256.88 676.82 256.46 676.95 256.01 677.04 255.57 677.1 255.11 677.12 254.65 M 677.11 254.65 677.11 249.09 M 686 249.09 666 249.09 M 670.44 269.48 666 275.03 686 275.03 M 686 269.48 686 280.59 M 686 291.8 666 291.8 666 297.35 666.02 297.81 666.08 298.27 666.17 298.71 666.3 299.16 666.47 299.58 666.67 300 666.91 300.39 667.17 300.77 667.47 301.12 667.79 301.44 668.14 301.74 668.52 302 668.91 302.24 669.33 302.44 669.75 302.61 670.2 302.74 670.64 302.83 671.1 302.89 671.56 302.91 680.44 302.91 680.9 302.89 681.36 302.83 681.8 302.74 682.25 302.61 682.67 302.44 683.09 302.24 683.48 302 683.86 301.74 684.21 301.44 684.53 301.12 684.83 300.76 685.09 300.39 685.33 300 685.53 299.58 685.7 299.16 685.83 298.71 685.92 298.27 685.98 297.81 686 297.35 686 291.8 M 686 549.09 666 549.09 666 554.65 666.02 555.11 666.08 555.57 666.17 556.01 666.3 556.46 666.47 556.88 666.67 557.3 666.91 557.69 667.17 558.07 667.47 558.42 667.79 558.74 668.14 559.04 668.52 559.3 668.91 559.54 669.33 559.74 669.75 559.91 670.2 560.04 670.64 560.13 671.1 560.19 671.56 560.21 672.02 560.19 672.48 560.13 672.92 560.04 673.37 559.91 673.79 559.74 674.21 559.54 674.6 559.3 674.98 559.04 675.33 558.74 675.65 558.42 675.95 558.07 676.21 557.69 676.45 557.3 676.65 556.88 676.82 556.46 676.95 556.01 677.04 555.57 677.1 555.11 677.12 554.65 M 677.11 554.65 677.11 549.09 M 670.44 569.48 666 575.03 686 575.03 M 686 569.48 686 580.59 M 680.44 591.8 666 591.8 M 666 602.91 680.44 602.91 680.9 602.89 681.36 602.83 681.8 602.74 682.25 602.61 682.67 602.44 683.09 602.24 683.48 602 683.86 601.74 684.21 601.44 684.53 601.12 684.83 600.77 685.09 600.39 685.33 600 685.53 599.58 685.7 599.16 685.83 598.71 685.92 598.27 685.98 597.81 686 597.35 685.98 596.89 685.92 596.43 685.83 595.99 685.7 595.54 685.53 595.12 685.33 594.7 685.09 594.31 684.83 593.93 684.53 593.58 684.21 593.26 683.86 592.96 683.48 592.7 683.09 592.46 682.67 592.26 682.25 592.09 681.8 591.96 681.36 591.87 680.9 591.81 680.44 591.79 M 186 597.35 186 602.91 166 602.91 M 174.89 602.91 174.89 597.35 M 174.88 597.35 174.9 596.89 174.96 596.43 175.05 595.99 175.18 595.54 175.35 595.12 175.55 594.7 175.79 594.31 176.05 593.93 176.35 593.58 176.67 593.26 177.02 592.96 177.4 592.7 177.79 592.46 178.21 592.26 178.63 592.09 179.08 591.96 179.52 591.87 179.98 591.81 180.44 591.79 180.9 591.81 181.36 591.87 181.8 591.96 182.25 592.09 182.67 592.26 183.09 592.46 183.48 592.7 183.86 592.96 184.21 593.26 184.53 593.58 184.83 593.93 185.09 594.31 185.33 594.7 185.53 595.12 185.7 595.54 185.83 595.99 185.92 596.43 185.98 596.89 186 597.35 M 166 582.52 166 571.41 M 166 582.52 177.11 573.08 M 186 576.41 185.98 576.88 185.93 577.36 185.84 577.82 185.72 578.28 185.57 578.73 185.38 579.17 185.16 579.59 184.91 579.99 184.63 580.38 184.32 580.74 183.99 581.08 183.63 581.39 183.25 581.68 182.85 581.93 182.44 582.16 182 582.35 181.56 582.52 M 177.11 573.08 177.42 572.77 177.76 572.5 178.12 572.25 178.49 572.03 178.88 571.84 179.29 571.69 179.71 571.57 180.13 571.48 180.57 571.43 181 571.41 181.44 571.43 181.87 571.49 182.29 571.58 182.71 571.71 183.11 571.88 183.5 572.08 183.87 572.31 184.21 572.58 184.54 572.87 184.83 573.2 185.1 573.54 185.33 573.91 185.53 574.3 185.7 574.7 185.83 575.12 185.92 575.54 185.98 575.97 186 576.41 M 186 560.2 171.56 560.2 M 171.56 560.21 171.1 560.19 170.64 560.13 170.2 560.04 169.75 559.91 169.33 559.74 168.91 559.54 168.52 559.3 168.14 559.04 167.79 558.74 167.47 558.42 167.17 558.07 166.91 557.69 166.67 557.3 166.47 556.88 166.3 556.46 166.17 556.01 166.08 555.57 166.02 555.11 166 554.65 166.02 554.19 166.08 553.73 166.17 553.29 166.3 552.84 166.47 552.42 166.67 552 166.91 551.61 167.17 551.23 167.47 550.88 167.79 550.56 168.14 550.26 168.52 550 168.91 549.76 169.33 549.56 169.75 549.39 170.2 549.26 170.64 549.17 171.1 549.11 171.56 549.09 186 549.09 M 186 302.91 166 302.91 M 174.89 302.91 174.89 297.35 M 174.88 297.35 174.9 296.89 174.96 296.43 175.05 295.99 175.18 295.54 175.35 295.12 175.55 294.7 175.79 294.31 176.05 293.93 176.35 293.58 176.67 293.26 177.02 292.96 177.4 292.7 177.79 292.46 178.21 292.26 178.63 292.09 179.08 291.96 179.52 291.87 179.98 291.81 180.44 291.79 180.9 291.81 181.36 291.87 181.8 291.96 182.25 292.09 182.67 292.26 183.09 292.46 183.48 292.7 183.86 292.96 184.21 293.26 184.53 293.58 184.83 293.93 185.09 294.31 185.33 294.7 185.53 295.12 185.7 295.54 185.83 295.99 185.92 296.43 185.98 296.89 186 297.35 186 302.91 M 166 282.52 166 271.41 M 166 282.52 177.11 273.08 M 186 276.41 185.98 276.88 185.93 277.36 185.84 277.82 185.72 278.28 185.57 278.73 185.38 279.17 185.16 279.59 184.91 279.99 184.63 280.38 184.32 280.74 183.99 281.08 183.63 281.39 183.25 281.68 182.85 281.93 182.44 282.16 182 282.35 181.56 282.52 M 177.11 273.08 177.42 272.77 177.76 272.5 178.12 272.25 178.49 272.03 178.88 271.84 179.29 271.69 179.71 271.57 180.13 271.48 180.57 271.43 181 271.41 181.44 271.43 181.87 271.49 182.29 271.58 182.71 271.71 183.11 271.88 183.5 272.08 183.87 272.31 184.21 272.58 184.54 272.87 184.83 273.2 185.1 273.54 185.33 273.91 185.53 274.3 185.7 274.7 185.83 275.12 185.92 275.54 185.98 275.97 186 276.41 M 186 260.2 166 260.2 166 254.65 166.02 254.19 166.08 253.73 166.17 253.29 166.3 252.84 166.47 252.42 166.67 252 166.91 251.61 167.17 251.23 167.47 250.88 167.79 250.56 168.14 250.26 168.52 250 168.91 249.76 169.33 249.56 169.75 249.39 170.2 249.26 170.64 249.17 171.1 249.11 171.56 249.09 180.44 249.09 180.9 249.11 181.36 249.17 181.8 249.26 182.25 249.39 182.67 249.56 183.09 249.76 183.48 250 183.86 250.26 184.21 250.56 184.53 250.88 184.83 251.23 185.09 251.61 185.33 252 185.53 252.42 185.7 252.84 185.83 253.29 185.92 253.73 185.98 254.19 186 254.65 186 260.2" fill="none" stroke-width="4"/><path d="M 215.83 253.33 239.17 253.33 M 239.17 272 239.17 230 M 260 230 274 272 288 230 M 284.5 240.5 263.5 240.5 M 215.83 230 215.83 272 M 251 326 301 326 326 351 351 326 401 326 426 351 451 326 501 326 526 351 551 326 601 326 626 351 626 401 601 426 551 426 526 401 501 426 451 426 426 401 401 426 351 426 326 401 301 426 251 426 226 401 226 351 251 326 M 304.33 272 327.67 272 M 316 272 316 230 M 346.14 239.33 346.14 262.67 346.16 263.28 346.22 263.89 346.32 264.49 346.46 265.08 346.64 265.67 346.85 266.24 347.1 266.8 347.39 267.33 347.71 267.85 348.07 268.35 348.46 268.82 348.87 269.27 349.32 269.68 349.79 270.07 350.29 270.43 350.8 270.75 351.34 271.04 351.9 271.29 352.47 271.5 353.06 271.68 353.65 271.82 354.25 271.92 354.86 271.98 355.47 272 364.8 272 M 385.33 272 385.33 230 M 408.67 230 408.67 272 M 408.67 253.33 385.33 253.33 M 364.8 230 355.47 230 354.88 230.02 354.3 230.07 353.72 230.17 353.15 230.29 352.59 230.46 352.04 230.66 351.5 230.89 350.98 231.15 350.47 231.45 349.99 231.78 349.52 232.14 349.08 232.53 348.67 232.94 348.28 233.38 347.92 233.85 347.59 234.33 347.29 234.84 347.03 235.36 346.8 235.9 346.6 236.45 346.43 237.01 346.31 237.58 346.21 238.16 346.16 238.74 346.14 239.33 M 351 176 401 176 426 151 451 176 501 176 526 151 551 176 601 176 626 151 626 101 601 76 551 76 526 101 501 76 451 76 426 101 401 76 351 76 326 101 301 76 251 76 226 101 226 151 251 176 301 176 326 151 351 176 M 433.33 230 433.33 272 456.67 230 456.67 272 M 481.33 272 481.33 230 M 481.33 253.33 504.67 253.33 M 504.67 272 504.67 230 M 525.5 230 539.5 272 553.5 230 M 550 240.5 529 240.5 M 572.64 239.33 572.64 262.67 572.66 263.28 572.72 263.89 572.82 264.49 572.96 265.08 573.14 265.67 573.35 266.24 573.6 266.8 573.89 267.33 574.21 267.85 574.57 268.35 574.96 268.82 575.37 269.27 575.82 269.68 576.29 270.07 576.79 270.43 577.3 270.75 577.84 271.04 578.4 271.29 578.97 271.5 579.56 271.68 580.15 271.82 580.75 271.92 581.36 271.98 581.97 272 591.3 272 M 612.83 272 612.83 230 M 612.83 246.33 636.17 272 M 622.17 255.67 636.17 230 M 591.3 230 581.97 230 581.38 230.02 580.8 230.07 580.22 230.17 579.65 230.29 579.09 230.46 578.54 230.66 578 230.89 577.48 231.15 576.97 231.45 576.49 231.78 576.02 232.14 575.58 232.53 575.17 232.94 574.78 233.38 574.42 233.85 574.09 234.33 573.79 234.84 573.53 235.36 573.3 235.9 573.1 236.45 572.93 237.01 572.81 237.58 572.71 238.16 572.66 238.74 572.64 239.33 M 551 451 601 451 626 476 626 526 601 551 551 551 526 526 501 551 451 551 426 526 401 551 351 551 326 526 301 551 251 551 226 526 226 476 251 451 301 451 326 476 351 451 401 451 426 476 451 451 501 451 526 476 551 451 M 626 676 626 726 M 226 726 226 676" fill="none" stroke-width="8"/><path d="M 26 226 26 26 226 26 251 26 276 26 301 26 326 26 351 26 376 26 401 26 426 26 451 26 476 26 501 26 526 26 551 26 576 26 601 26 626 26 826 26 826 226 826 276 826 326 826 376 826 476 826 526 826 576 826 626 826 826 626 826 601 826 576 826 551 826 526 826 501 826 476 826 451 826 426 826 401 826 376 826 351 826 326 826 301 826 276 826 251 826 226 826 26 826 26 626 26 576 26 526 26 476 26 376 26 326 26 276 26 226" fill="none" stroke-width="32"/><path d="M 255.87 304 255.87 318 259.76 318 M 260.76 318 256.87 318 256.87 304 M 256.87 310.22 260.76 310.22 M 259.76 310.22 255.87 310.22 M 259.76 310.22 260.14 310.24 260.52 310.29 260.89 310.39 261.25 310.52 261.59 310.68 261.92 310.88 262.23 311.1 262.51 311.36 262.77 311.64 262.99 311.95 263.19 312.28 263.35 312.62 263.48 312.98 263.58 313.35 263.63 313.73 263.65 314.11 263.63 314.49 263.58 314.87 263.48 315.24 263.35 315.6 263.19 315.94 262.99 316.27 262.77 316.58 262.51 316.86 262.23 317.12 261.92 317.34 261.59 317.54 261.25 317.7 260.89 317.83 260.52 317.93 260.14 317.98 259.76 318 M 260.76 318 261.14 317.98 261.52 317.93 261.89 317.83 262.25 317.7 262.59 317.54 262.92 317.34 263.23 317.12 263.51 316.86 263.77 316.58 263.99 316.27 264.19 315.94 264.35 315.6 264.48 315.24 264.58 314.87 264.63 314.49 264.65 314.11 264.63 313.73 264.58 313.35 264.48 312.98 264.35 312.62 264.19 312.28 263.99 311.95 263.77 311.64 263.51 311.36 263.23 311.1 262.92 310.88 262.59 310.68 262.25 310.52 261.89 310.39 261.52 310.29 261.14 310.24 260.76 310.22 M 269.1 318 272.21 304 275.32 313.33 278.44 304 281.55 318 M 282.55 318 279.44 304 276.32 313.33 273.21 304 270.1 318 M 288.35 318 288.35 304 M 289.35 304 289.35 318 293.24 318 M 292.24 318 288.35 318 M 292.24 318 292.62 317.98 293 317.93 293.37 317.83 293.73 317.7 294.07 317.54 294.4 317.34 294.71 317.12 294.99 316.86 295.25 316.58 295.47 316.27 295.67 315.94 295.83 315.6 295.96 315.24 296.06 314.87 296.11 314.49 296.13 314.11 296.11 313.73 296.06 313.35 295.96 312.98 295.83 312.62 295.67 312.28 295.47 311.95 295.25 311.64 294.99 311.36 294.71 311.1 294.4 310.88 294.07 310.68 293.73 310.52 293.37 310.39 293 310.29 292.62 310.24 292.24 310.22 288.35 310.22 M 289.35 310.22 293.24 310.22 M 293.02 310.22 296.13 304 M 297.13 304 294.02 310.22 M 293.24 310.22 293.62 310.24 294 310.29 294.37 310.39 294.73 310.52 295.07 310.68 295.4 310.88 295.71 311.1 295.99 311.36 296.25 311.64 296.47 311.95 296.67 312.28 296.83 312.62 296.96 312.98 297.06 313.35 297.11 313.73 297.13 314.11 297.11 314.49 297.06 314.87 296.96 315.24 296.83 315.6 296.67 315.94 296.47 316.27 296.25 316.58 295.99 316.86 295.71 317.12 295.4 317.34 295.07 317.54 294.73 317.7 294.37 317.83 294 317.93 293.62 317.98 293.24 318 M 365.29 318 365.29 304 M 366.29 304 366.29 318 370.18 318 M 369.18 318 365.29 318 M 369.18 318 369.56 317.98 369.94 317.93 370.31 317.83 370.67 317.7 371.01 317.54 371.34 317.34 371.65 317.12 371.93 316.86 372.19 316.58 372.41 316.27 372.61 315.94 372.77 315.6 372.9 315.24 373 314.87 373.05 314.49 373.07 314.11 373.05 313.73 373 313.35 372.9 312.98 372.77 312.62 372.61 312.28 372.41 311.95 372.19 311.64 371.93 311.36 371.65 311.1 371.34 310.88 371.01 310.68 370.67 310.52 370.31 310.39 369.94 310.29 369.56 310.24 369.18 310.22 365.29 310.22 M 366.29 310.22 370.18 310.22 370.56 310.24 370.94 310.29 371.31 310.39 371.67 310.52 372.01 310.68 372.34 310.88 372.65 311.1 372.93 311.36 373.19 311.64 373.41 311.95 373.61 312.28 373.77 312.62 373.9 312.98 374 313.35 374.05 313.73 374.07 314.11 374.05 314.49 374 314.87 373.9 315.24 373.77 315.6 373.61 315.94 373.41 316.27 373.19 316.58 372.93 316.86 372.65 317.12 372.34 317.34 372.01 317.54 371.67 317.7 371.31 317.83 370.94 317.93 370.56 317.98 370.18 318 M 385.54 311.78 385.81 312.05 386.04 312.35 386.24 312.68 386.41 313.02 386.54 313.38 386.63 313.74 386.69 314.12 386.71 314.5 M 387.71 314.5 387.69 314.87 387.63 315.23 387.54 315.58 387.41 315.92 387.24 316.25 387.04 316.56 386.81 316.84 386.55 317.1 386.27 317.33 385.96 317.53 385.63 317.7 385.29 317.83 384.94 317.92 384.58 317.98 384.21 318 M 387.71 314.5 387.69 314.12 387.63 313.74 387.54 313.38 387.41 313.02 387.24 312.68 387.04 312.35 386.81 312.05 386.54 311.78 M 386.55 311.78 379.93 304 387.71 304 M 386.71 304 378.93 304 385.55 311.78 M 384.21 318 383.81 317.98 383.41 317.93 383.01 317.84 382.63 317.71 382.26 317.55 381.9 317.36 381.56 317.14 381.25 316.89 380.96 316.61 380.69 316.3 380.45 315.98 380.25 315.63 380.07 315.26 379.93 314.89 M 383.21 318 383.58 317.98 383.94 317.92 384.29 317.83 384.63 317.7 384.96 317.53 385.27 317.33 385.55 317.1 385.81 316.84 386.04 316.56 386.24 316.25 386.41 315.92 386.54 315.58 386.63 315.23 386.69 314.87 386.71 314.5 M 383.21 318 382.81 317.98 382.41 317.93 382.01 317.84 381.63 317.71 381.26 317.55 380.9 317.36 380.56 317.14 380.25 316.89 379.96 316.61 379.69 316.3 379.45 315.98 379.25 315.63 379.07 315.26 378.93 314.89 M 465.29 318 465.29 304 M 466.29 304 466.29 318 470.18 318 M 469.18 318 465.29 318 M 469.18 318 469.56 317.98 469.94 317.93 470.31 317.83 470.67 317.7 471.01 317.54 471.34 317.34 471.65 317.12 471.93 316.86 472.19 316.58 472.41 316.27 472.61 315.94 472.77 315.6 472.9 315.24 473 314.87 473.05 314.49 473.07 314.11 473.05 313.73 473 313.35 472.9 312.98 472.77 312.62 472.61 312.28 472.41 311.95 472.19 311.64 471.93 311.36 471.65 311.1 471.34 310.88 471.01 310.68 470.67 310.52 470.31 310.39 469.94 310.29 469.56 310.24 469.18 310.22 465.29 310.22 M 466.29 310.22 470.18 310.22 470.56 310.24 470.94 310.29 471.31 310.39 471.67 310.52 472.01 310.68 472.34 310.88 472.65 311.1 472.93 311.36 473.19 311.64 473.41 311.95 473.61 312.28 473.77 312.62 473.9 312.98 474 313.35 474.05 313.73 474.07 314.11 474.05 314.49 474 314.87 473.9 315.24 473.77 315.6 473.61 315.94 473.41 316.27 473.19 316.58 472.93 316.86 472.65 317.12 472.34 317.34 472.01 317.54 471.67 317.7 471.31 317.83 470.94 317.93 470.56 317.98 470.18 318 M 478.93 314.89 482.82 318 482.82 304 M 483.82 304 483.82 318 479.93 314.89 M 479.93 304 487.71 304 M 486.71 304 478.93 304 M 555.87 304 555.87 318 559.76 318 M 560.76 318 556.87 318 556.87 304 M 556.87 310.22 560.76 310.22 M 559.76 310.22 555.87 310.22 M 559.76 310.22 560.14 310.24 560.52 310.29 560.89 310.39 561.25 310.52 561.59 310.68 561.92 310.88 562.23 311.1 562.51 311.36 562.77 311.64 562.99 311.95 563.19 312.28 563.35 312.62 563.48 312.98 563.58 313.35 563.63 313.73 563.65 314.11 563.63 314.49 563.58 314.87 563.48 315.24 563.35 315.6 563.19 315.94 562.99 316.27 562.77 316.58 562.51 316.86 562.23 317.12 561.92 317.34 561.59 317.54 561.25 317.7 560.89 317.83 560.52 317.93 560.14 317.98 559.76 318 M 560.76 318 561.14 317.98 561.52 317.93 561.89 317.83 562.25 317.7 562.59 317.54 562.92 317.34 563.23 317.12 563.51 316.86 563.77 316.58 563.99 316.27 564.19 315.94 564.35 315.6 564.48 315.24 564.58 314.87 564.63 314.49 564.65 314.11 564.63 313.73 564.58 313.35 564.48 312.98 564.35 312.62 564.19 312.28 563.99 311.95 563.77 311.64 563.51 311.36 563.23 311.1 562.92 310.88 562.59 310.68 562.25 310.52 561.89 310.39 561.52 310.29 561.14 310.24 560.76 310.22 M 569.1 318 572.21 304 575.32 313.33 578.44 304 581.55 318 M 582.55 318 579.44 304 576.32 313.33 573.21 304 570.1 318 M 588.35 318 588.35 304 M 589.35 304 589.35 318 593.24 318 M 592.24 318 588.35 318 M 592.24 318 592.62 317.98 593 317.93 593.37 317.83 593.73 317.7 594.07 317.54 594.4 317.34 594.71 317.12 594.99 316.86 595.25 316.58 595.47 316.27 595.67 315.94 595.83 315.6 595.96 315.24 596.06 314.87 596.11 314.49 596.13 314.11 596.11 313.73 596.06 313.35 595.96 312.98 595.83 312.62 595.67 312.28 595.47 311.95 595.25 311.64 594.99 311.36 594.71 311.1 594.4 310.88 594.07 310.68 593.73 310.52 593.37 310.39 593 310.29 592.62 310.24 592.24 310.22 588.35 310.22 M 589.35 310.22 593.24 310.22 M 593.02 310.22 596.13 304 M 597.13 304 594.02 310.22 M 593.24 310.22 593.62 310.24 594 310.29 594.37 310.39 594.73 310.52 595.07 310.68 595.4 310.88 595.71 311.1 595.99 311.36 596.25 311.64 596.47 311.95 596.67 312.28 596.83 312.62 596.96 312.98 597.06 313.35 597.11 313.73 597.13 314.11 597.11 314.49 597.06 314.87 596.96 315.24 596.83 315.6 596.67 315.94 596.47 316.27 596.25 316.58 595.99 316.86 595.71 317.12 595.4 317.34 595.07 317.54 594.73 317.7 594.37 317.83 594 317.93 593.62 317.98 593.24 318 M 596.13 559 593.02 565.22 M 593.24 565.22 589.35 565.22 M 588.35 565.22 592.24 565.22 M 594.02 565.22 597.13 559 M 589.35 559 589.35 573 593.24 573 M 592.24 573 588.35 573 588.35 559 M 579.44 559 582.55 573 M 581.55 573 578.44 559 575.32 568.33 572.21 559 569.1 573 M 570.1 573 573.21 559 576.32 568.33 579.44 559 M 592.24 565.22 592.62 565.24 593 565.29 593.37 565.39 593.73 565.52 594.07 565.68 594.4 565.88 594.71 566.1 594.99 566.36 595.25 566.64 595.47 566.95 595.67 567.28 595.83 567.62 595.96 567.98 596.06 568.35 596.11 568.73 596.13 569.11 596.11 569.49 596.06 569.87 595.96 570.24 595.83 570.6 595.67 570.94 595.47 571.27 595.25 571.58 594.99 571.86 594.71 572.12 594.4 572.34 594.07 572.54 593.73 572.7 593.37 572.83 593 572.93 592.62 572.98 592.24 573 M 593.24 573 593.62 572.98 594 572.93 594.37 572.83 594.73 572.7 595.07 572.54 595.4 572.34 595.71 572.12 595.99 571.86 596.25 571.58 596.47 571.27 596.67 570.94 596.83 570.6 596.96 570.24 597.06 569.87 597.11 569.49 597.13 569.11 597.11 568.73 597.06 568.35 596.96 567.98 596.83 567.62 596.67 567.28 596.47 566.95 596.25 566.64 595.99 566.36 595.71 566.1 595.4 565.88 595.07 565.68 594.73 565.52 594.37 565.39 594 565.29 593.62 565.24 593.24 565.22 M 560.76 565.22 556.87 565.22 M 555.87 565.22 559.76 565.22 560.14 565.24 560.52 565.29 560.89 565.39 561.25 565.52 561.59 565.68 561.92 565.88 562.23 566.1 562.51 566.36 562.77 566.64 562.99 566.95 563.19 567.28 563.35 567.62 563.48 567.98 563.58 568.35 563.63 568.73 563.65 569.11 563.63 569.49 563.58 569.87 563.48 570.24 563.35 570.6 563.19 570.94 562.99 571.27 562.77 571.58 562.51 571.86 562.23 572.12 561.92 572.34 561.59 572.54 561.25 572.7 560.89 572.83 560.52 572.93 560.14 572.98 559.76 573 555.87 573 555.87 559 M 556.87 559 556.87 573 560.76 573 561.14 572.98 561.52 572.93 561.89 572.83 562.25 572.7 562.59 572.54 562.92 572.34 563.23 572.12 563.51 571.86 563.77 571.58 563.99 571.27 564.19 570.94 564.35 570.6 564.48 570.24 564.58 569.87 564.63 569.49 564.65 569.11 564.63 568.73 564.58 568.35 564.48 567.98 564.35 567.62 564.19 567.28 563.99 566.95 563.77 566.64 563.51 566.36 563.23 566.1 562.92 565.88 562.59 565.68 562.25 565.52 561.89 565.39 561.52 565.29 561.14 565.24 560.76 565.22 M 556.87 604 556.87 618 560.76 618 M 559.76 618 555.87 618 555.87 604 M 555.87 610.22 559.76 610.22 M 560.76 610.22 556.87 610.22 M 559.76 610.22 560.14 610.24 560.52 610.29 560.89 610.39 561.25 610.52 561.59 610.68 561.92 610.88 562.23 611.1 562.51 611.36 562.77 611.64 562.99 611.95 563.19 612.28 563.35 612.62 563.48 612.98 563.58 613.35 563.63 613.73 563.65 614.11 563.63 614.49 563.58 614.87 563.48 615.24 563.35 615.6 563.19 615.94 562.99 616.27 562.77 616.58 562.51 616.86 562.23 617.12 561.92 617.34 561.59 617.54 561.25 617.7 560.89 617.83 560.52 617.93 560.14 617.98 559.76 618 M 560.76 618 561.14 617.98 561.52 617.93 561.89 617.83 562.25 617.7 562.59 617.54 562.92 617.34 563.23 617.12 563.51 616.86 563.77 616.58 563.99 616.27 564.19 615.94 564.35 615.6 564.48 615.24 564.58 614.87 564.63 614.49 564.65 614.11 564.63 613.73 564.58 613.35 564.48 612.98 564.35 612.62 564.19 612.28 563.99 611.95 563.77 611.64 563.51 611.36 563.23 611.1 562.92 610.88 562.59 610.68 562.25 610.52 561.89 610.39 561.52 610.29 561.14 610.24 560.76 610.22 M 569.1 618 572.21 604 575.32 613.33 578.44 604 581.55 618 M 582.55 618 579.44 604 576.32 613.33 573.21 604 570.1 618 M 588.35 618 588.35 604 M 589.35 604 589.35 618 593.24 618 M 592.24 618 588.35 618 M 592.24 618 592.62 617.98 593 617.93 593.37 617.83 593.73 617.7 594.07 617.54 594.4 617.34 594.71 617.12 594.99 616.86 595.25 616.58 595.47 616.27 595.67 615.94 595.83 615.6 595.96 615.24 596.06 614.87 596.11 614.49 596.13 614.11 596.11 613.73 596.06 613.35 595.96 612.98 595.83 612.62 595.67 612.28 595.47 611.95 595.25 611.64 594.99 611.36 594.71 611.1 594.4 610.88 594.07 610.68 593.73 610.52 593.37 610.39 593 610.29 592.62 610.24 592.24 610.22 588.35 610.22 M 589.35 610.22 593.24 610.22 M 593.02 610.22 596.13 604 M 597.13 604 594.02 610.22 M 593.24 610.22 593.62 610.24 594 610.29 594.37 610.39 594.73 610.52 595.07 610.68 595.4 610.88 595.71 611.1 595.99 611.36 596.25 611.64 596.47 611.95 596.67 612.28 596.83 612.62 596.96 612.98 597.06 613.35 597.11 613.73 597.13 614.11 597.11 614.49 597.06 614.87 596.96 615.24 596.83 615.6 596.67 615.94 596.47 616.27 596.25 616.58 595.99 616.86 595.71 617.12 595.4 617.34 595.07 617.54 594.73 617.7 594.37 617.83 594 617.93 593.62 617.98 593.24 618 M 494.02 565.22 497.13 559 M 496.13 559 493.02 565.22 M 493.24 565.22 489.35 565.22 M 488.35 565.22 492.24 565.22 492.62 565.24 493 565.29 493.37 565.39 493.73 565.52 494.07 565.68 494.4 565.88 494.71 566.1 494.99 566.36 495.25 566.64 495.47 566.95 495.67 567.28 495.83 567.62 495.96 567.98 496.06 568.35 496.11 568.73 496.13 569.11 496.11 569.49 496.06 569.87 495.96 570.24 495.83 570.6 495.67 570.94 495.47 571.27 495.25 571.58 494.99 571.86 494.71 572.12 494.4 572.34 494.07 572.54 493.73 572.7 493.37 572.83 493 572.93 492.62 572.98 492.24 573 488.35 573 488.35 559 M 489.35 559 489.35 573 493.24 573 493.62 572.98 494 572.93 494.37 572.83 494.73 572.7 495.07 572.54 495.4 572.34 495.71 572.12 495.99 571.86 496.25 571.58 496.47 571.27 496.67 570.94 496.83 570.6 496.96 570.24 497.06 569.87 497.11 569.49 497.13 569.11 497.11 568.73 497.06 568.35 496.96 567.98 496.83 567.62 496.67 567.28 496.47 566.95 496.25 566.64 495.99 566.36 495.71 566.1 495.4 565.88 495.07 565.68 494.73 565.52 494.37 565.39 494 565.29 493.62 565.24 493.24 565.22 M 482.55 573 479.44 559 476.32 568.33 473.21 559 470.1 573 M 469.1 573 472.21 559 475.32 568.33 478.44 559 481.55 573 M 460.76 573 456.87 573 456.87 559 M 455.87 559 455.87 573 459.76 573 460.14 572.98 460.52 572.93 460.89 572.83 461.25 572.7 461.59 572.54 461.92 572.34 462.23 572.12 462.51 571.86 462.77 571.58 462.99 571.27 463.19 570.94 463.35 570.6 463.48 570.24 463.58 569.87 463.63 569.49 463.65 569.11 463.63 568.73 463.58 568.35 463.48 567.98 463.35 567.62 463.19 567.28 462.99 566.95 462.77 566.64 462.51 566.36 462.23 566.1 461.92 565.88 461.59 565.68 461.25 565.52 460.89 565.39 460.52 565.29 460.14 565.24 459.76 565.22 455.87 565.22 M 456.87 565.22 460.76 565.22 461.14 565.24 461.52 565.29 461.89 565.39 462.25 565.52 462.59 565.68 462.92 565.88 463.23 566.1 463.51 566.36 463.77 566.64 463.99 566.95 464.19 567.28 464.35 567.62 464.48 567.98 464.58 568.35 464.63 568.73 464.65 569.11 464.63 569.49 464.58 569.87 464.48 570.24 464.35 570.6 464.19 570.94 463.99 571.27 463.77 571.58 463.51 571.86 463.23 572.12 462.92 572.34 462.59 572.54 462.25 572.7 461.89 572.83 461.52 572.93 461.14 572.98 460.76 573 M 465.29 604 465.29 618 469.18 618 M 470.18 618 466.29 618 466.29 604 M 466.29 610.22 470.18 610.22 M 469.18 610.22 465.29 610.22 M 469.18 610.22 469.56 610.24 469.94 610.29 470.31 610.39 470.67 610.52 471.01 610.68 471.34 610.88 471.65 611.1 471.93 611.36 472.19 611.64 472.41 611.95 472.61 612.28 472.77 612.62 472.9 612.98 473 613.35 473.05 613.73 473.07 614.11 473.05 614.49 473 614.87 472.9 615.24 472.77 615.6 472.61 615.94 472.41 616.27 472.19 616.58 471.93 616.86 471.65 617.12 471.34 617.34 471.01 617.54 470.67 617.7 470.31 617.83 469.94 617.93 469.56 617.98 469.18 618 M 470.18 618 470.56 617.98 470.94 617.93 471.31 617.83 471.67 617.7 472.01 617.54 472.34 617.34 472.65 617.12 472.93 616.86 473.19 616.58 473.41 616.27 473.61 615.94 473.77 615.6 473.9 615.24 474 614.87 474.05 614.49 474.07 614.11 474.05 613.73 474 613.35 473.9 612.98 473.77 612.62 473.61 612.28 473.41 611.95 473.19 611.64 472.93 611.36 472.65 611.1 472.34 610.88 472.01 610.68 471.67 610.52 471.31 610.39 470.94 610.29 470.56 610.24 470.18 610.22 M 478.93 614.89 482.82 618 482.82 604 M 483.82 604 483.82 618 479.93 614.89 M 479.93 604 487.71 604 M 486.71 604 478.93 604 M 397.13 604 394.02 610.22 M 393.24 610.22 389.35 610.22 M 388.35 610.22 392.24 610.22 M 393.02 610.22 396.13 604 M 389.35 604 389.35 618 393.24 618 M 392.24 618 388.35 618 388.35 604 M 379.44 604 376.32 613.33 373.21 604 370.1 618 M 369.1 618 372.21 604 375.32 613.33 378.44 604 381.55 618 M 382.55 618 379.44 604 M 392.24 610.22 392.62 610.24 393 610.29 393.37 610.39 393.73 610.52 394.07 610.68 394.4 610.88 394.71 611.1 394.99 611.36 395.25 611.64 395.47 611.95 395.67 612.28 395.83 612.62 395.96 612.98 396.06 613.35 396.11 613.73 396.13 614.11 396.11 614.49 396.06 614.87 395.96 615.24 395.83 615.6 395.67 615.94 395.47 616.27 395.25 616.58 394.99 616.86 394.71 617.12 394.4 617.34 394.07 617.54 393.73 617.7 393.37 617.83 393 617.93 392.62 617.98 392.24 618 M 393.24 618 393.62 617.98 394 617.93 394.37 617.83 394.73 617.7 395.07 617.54 395.4 617.34 395.71 617.12 395.99 616.86 396.25 616.58 396.47 616.27 396.67 615.94 396.83 615.6 396.96 615.24 397.06 614.87 397.11 614.49 397.13 614.11 397.11 613.73 397.06 613.35 396.96 612.98 396.83 612.62 396.67 612.28 396.47 611.95 396.25 611.64 395.99 611.36 395.71 611.1 395.4 610.88 395.07 610.68 394.73 610.52 394.37 610.39 394 610.29 393.62 610.24 393.24 610.22 M 360.76 610.22 356.87 610.22 M 355.87 610.22 359.76 610.22 360.14 610.24 360.52 610.29 360.89 610.39 361.25 610.52 361.59 610.68 361.92 610.88 362.23 611.1 362.51 611.36 362.77 611.64 362.99 611.95 363.19 612.28 363.35 612.62 363.48 612.98 363.58 613.35 363.63 613.73 363.65 614.11 363.63 614.49 363.58 614.87 363.48 615.24 363.35 615.6 363.19 615.94 362.99 616.27 362.77 616.58 362.51 616.86 362.23 617.12 361.92 617.34 361.59 617.54 361.25 617.7 360.89 617.83 360.52 617.93 360.14 617.98 359.76 618 355.87 618 355.87 604 M 356.87 604 356.87 618 360.76 618 361.14 617.98 361.52 617.93 361.89 617.83 362.25 617.7 362.59 617.54 362.92 617.34 363.23 617.12 363.51 616.86 363.77 616.58 363.99 616.27 364.19 615.94 364.35 615.6 364.48 615.24 364.58 614.87 364.63 614.49 364.65 614.11 364.63 613.73 364.58 613.35 364.48 612.98 364.35 612.62 364.19 612.28 363.99 611.95 363.77 611.64 363.51 611.36 363.23 611.1 362.92 610.88 362.59 610.68 362.25 610.52 361.89 610.39 361.52 610.29 361.14 610.24 360.76 610.22 M 365.29 573 369.18 573 M 370.18 573 366.29 573 366.29 559 M 365.29 559 365.29 573 M 369.18 573 369.56 572.98 369.94 572.93 370.31 572.83 370.67 572.7 371.01 572.54 371.34 572.34 371.65 572.12 371.93 571.86 372.19 571.58 372.41 571.27 372.61 570.94 372.77 570.6 372.9 570.24 373 569.87 373.05 569.49 373.07 569.11 373.05 568.73 373 568.35 372.9 567.98 372.77 567.62 372.61 567.28 372.41 566.95 372.19 566.64 371.93 566.36 371.65 566.1 371.34 565.88 371.01 565.68 370.67 565.52 370.31 565.39 369.94 565.29 369.56 565.24 369.18 565.22 365.29 565.22 M 366.29 565.22 370.18 565.22 370.56 565.24 370.94 565.29 371.31 565.39 371.67 565.52 372.01 565.68 372.34 565.88 372.65 566.1 372.93 566.36 373.19 566.64 373.41 566.95 373.61 567.28 373.77 567.62 373.9 567.98 374 568.35 374.05 568.73 374.07 569.11 374.05 569.49 374 569.87 373.9 570.24 373.77 570.6 373.61 570.94 373.41 571.27 373.19 571.58 372.93 571.86 372.65 572.12 372.34 572.34 372.01 572.54 371.67 572.7 371.31 572.83 370.94 572.93 370.56 572.98 370.18 573 M 378.93 569.89 382.82 573 382.82 559 M 383.82 559 383.82 573 379.93 569.89 M 379.93 559 387.71 559 M 386.71 559 378.93 559 M 287.71 559 279.93 559 286.55 566.78 M 285.55 566.78 278.93 559 286.71 559 M 279.93 569.89 280.07 570.26 280.25 570.63 280.45 570.98 280.69 571.3 280.96 571.61 281.25 571.89 281.56 572.14 281.9 572.36 282.26 572.55 282.63 572.71 283.01 572.84 283.41 572.93 283.81 572.98 284.21 573 284.58 572.98 284.94 572.92 285.29 572.83 285.63 572.7 285.96 572.53 286.27 572.33 286.55 572.1 286.81 571.84 287.04 571.56 287.24 571.25 287.41 570.92 287.54 570.58 287.63 570.23 287.69 569.87 287.71 569.5 287.69 569.12 287.63 568.74 287.54 568.38 287.41 568.02 287.24 567.68 287.04 567.35 286.81 567.05 286.54 566.78 M 283.21 573 282.81 572.98 282.41 572.93 282.01 572.84 281.63 572.71 281.26 572.55 280.9 572.36 280.56 572.14 280.25 571.89 279.96 571.61 279.69 571.3 279.45 570.98 279.25 570.63 279.07 570.26 278.93 569.89 M 285.54 566.78 285.81 567.05 286.04 567.35 286.24 567.68 286.41 568.02 286.54 568.38 286.63 568.74 286.69 569.12 286.71 569.5 286.69 569.87 286.63 570.23 286.54 570.58 286.41 570.92 286.24 571.25 286.04 571.56 285.81 571.84 285.55 572.1 285.27 572.33 284.96 572.53 284.63 572.7 284.29 572.83 283.94 572.92 283.58 572.98 283.21 573 M 270.18 573 266.29 573 266.29 559 M 265.29 559 265.29 573 269.18 573 269.56 572.98 269.94 572.93 270.31 572.83 270.67 572.7 271.01 572.54 271.34 572.34 271.65 572.12 271.93 571.86 272.19 571.58 272.41 571.27 272.61 570.94 272.77 570.6 272.9 570.24 273 569.87 273.05 569.49 273.07 569.11 273.05 568.73 273 568.35 272.9 567.98 272.77 567.62 272.61 567.28 272.41 566.95 272.19 566.64 271.93 566.36 271.65 566.1 271.34 565.88 271.01 565.68 270.67 565.52 270.31 565.39 269.94 565.29 269.56 565.24 269.18 565.22 265.29 565.22 M 266.29 565.22 270.18 565.22 270.56 565.24 270.94 565.29 271.31 565.39 271.67 565.52 272.01 565.68 272.34 565.88 272.65 566.1 272.93 566.36 273.19 566.64 273.41 566.95 273.61 567.28 273.77 567.62 273.9 567.98 274 568.35 274.05 568.73 274.07 569.11 274.05 569.49 274 569.87 273.9 570.24 273.77 570.6 273.61 570.94 273.41 571.27 273.19 571.58 272.93 571.86 272.65 572.12 272.34 572.34 272.01 572.54 271.67 572.7 271.31 572.83 270.94 572.93 270.56 572.98 270.18 573 M 266.29 604 266.29 618 270.18 618 M 269.18 618 265.29 618 265.29 604 M 265.29 610.22 269.18 610.22 M 270.18 610.22 266.29 610.22 M 269.18 610.22 269.56 610.24 269.94 610.29 270.31 610.39 270.67 610.52 271.01 610.68 271.34 610.88 271.65 611.1 271.93 611.36 272.19 611.64 272.41 611.95 272.61 612.28 272.77 612.62 272.9 612.98 273 613.35 273.05 613.73 273.07 614.11 273.05 614.49 273 614.87 272.9 615.24 272.77 615.6 272.61 615.94 272.41 616.27 272.19 616.58 271.93 616.86 271.65 617.12 271.34 617.34 271.01 617.54 270.67 617.7 270.31 617.83 269.94 617.93 269.56 617.98 269.18 618 M 270.18 618 270.56 617.98 270.94 617.93 271.31 617.83 271.67 617.7 272.01 617.54 272.34 617.34 272.65 617.12 272.93 616.86 273.19 616.58 273.41 616.27 273.61 615.94 273.77 615.6 273.9 615.24 274 614.87 274.05 614.49 274.07 614.11 274.05 613.73 274 613.35 273.9 612.98 273.77 612.62 273.61 612.28 273.41 611.95 273.19 611.64 272.93 611.36 272.65 611.1 272.34 610.88 272.01 610.68 271.67 610.52 271.31 610.39 270.94 610.29 270.56 610.24 270.18 610.22 M 278.93 604 286.71 604 M 287.71 604 279.93 604 286.55 611.78 M 285.55 611.78 278.93 604 M 278.93 614.89 279.07 615.26 279.25 615.63 279.45 615.98 279.69 616.3 279.96 616.61 280.25 616.89 280.56 617.14 280.9 617.36 281.26 617.55 281.63 617.71 282.01 617.84 282.41 617.93 282.81 617.98 283.21 618 283.58 617.98 283.94 617.92 284.29 617.83 284.63 617.7 284.96 617.53 285.27 617.33 285.55 617.1 285.81 616.84 286.04 616.56 286.24 616.25 286.41 615.92 286.54 615.58 286.63 615.23 286.69 614.87 286.71 614.5 M 287.71 614.5 287.69 614.87 287.63 615.23 287.54 615.58 287.41 615.92 287.24 616.25 287.04 616.56 286.81 616.84 286.55 617.1 286.27 617.33 285.96 617.53 285.63 617.7 285.29 617.83 284.94 617.92 284.58 617.98 284.21 618 M 287.71 614.5 287.69 614.12 287.63 613.74 287.54 613.38 287.41 613.02 287.24 612.68 287.04 612.35 286.81 612.05 286.54 611.78 M 284.21 618 283.81 617.98 283.41 617.93 283.01 617.84 282.63 617.71 282.26 617.55 281.9 617.36 281.56 617.14 281.25 616.89 280.96 616.61 280.69 616.3 280.45 615.98 280.25 615.63 280.07 615.26 279.93 614.89 M 285.54 611.78 285.81 612.05 286.04 612.35 286.24 612.68 286.41 613.02 286.54 613.38 286.63 613.74 286.69 614.12 286.71 614.5" fill="none" stroke-width="2"/><path d="M 226 586 626 586 M 601 451 601 426 M 601 326 626 301 626 296 526 296 526 776 476 826 426 776 376 826 326 776 276 826 226 776 226 801 251 776 276 801 301 826 326 801 351 826 376 801 401 826 426 801 451 826 476 801 501 826 526 801 551 826 576 801 601 826 626 801 601 776 576 801 551 776 526 801 501 776 476 801 451 776 426 801 401 776 376 801 351 776 326 801 301 776 276 801 251 826 M 226 826 226 801 M 226 826 276 776 326 826 376 776 426 826 476 776 526 826 576 776 626 826 626 801 626 776 576 826 526 776 526 801 526 826 M 426 826 426 801 426 776 426 296 526 296 M 426 296 326 296 326 776 326 801 326 826 M 226 776 226 301 251 326 M 226 301 226 296 326 296 M 251 426 251 451 M 76 426 76 376 26 326 M 26 276 76 326 76 376 M 76 426 26 376 M 76 326 76 276 26 226 M 226 76 226 51 251 76 276 51 251 26 226 51 226 26 276 76 326 26 376 76 426 26 476 76 526 26 576 76 626 26 626 51 601 26 576 51 551 26 526 51 501 26 476 51 451 26 426 51 401 26 376 51 351 26 326 51 301 26 276 51 301 76 326 51 351 76 376 51 401 76 426 51 451 76 476 51 501 76 526 51 551 76 576 51 601 76 626 51 626 76 576 26 526 76 476 26 426 76 376 26 326 76 276 26 226 76 251 76 276 76 301 76 326 76 351 76 376 76 401 76 426 76 451 76 476 76 501 76 526 76 551 76 576 76 601 76 626 76 M 776 276 826 226 M 826 276 776 326 776 276 M 776 326 776 376 826 326 M 826 376 776 426 826 476 M 776 476 776 426 776 376 M 776 476 826 526 M 776 526 826 576 M 776 576 776 526 776 476 M 776 576 826 626 M 626 776 626 301 M 76 426 26 476 M 76 476 76 426 M 76 476 26 526 M 76 526 26 576 M 76 576 26 626 M 76 576 76 526 76 476" fill="none" stroke-width="10"/><use xlink:href="#B8Ja4mMDVCT5U-4YTQ5z_pad-16" x="276" y="501"/><use xlink:href="#B8Ja4mMDVCT5U-4YTQ5z_pad-16" x="376" y="501"/><use xlink:href="#B8Ja4mMDVCT5U-4YTQ5z_pad-16" x="476" y="501"/><use xlink:href="#B8Ja4mMDVCT5U-4YTQ5z_pad-16" x="576" y="501"/><use xlink:href="#B8Ja4mMDVCT5U-4YTQ5z_pad-16" x="576" y="376"/><use xlink:href="#B8Ja4mMDVCT5U-4YTQ5z_pad-16" x="476" y="376"/><use xlink:href="#B8Ja4mMDVCT5U-4YTQ5z_pad-16" x="376" y="376"/><use xlink:href="#B8Ja4mMDVCT5U-4YTQ5z_pad-16" x="276" y="376"/><use xlink:href="#B8Ja4mMDVCT5U-4YTQ5z_pad-16" x="276" y="126"/><use xlink:href="#B8Ja4mMDVCT5U-4YTQ5z_pad-16" x="376" y="126"/><use xlink:href="#B8Ja4mMDVCT5U-4YTQ5z_pad-16" x="476" y="126"/><use xlink:href="#B8Ja4mMDVCT5U-4YTQ5z_pad-16" x="576" y="126"/><use xlink:href="#B8Ja4mMDVCT5U-4YTQ5z_pad-16" x="576" y="701"/><use xlink:href="#B8Ja4mMDVCT5U-4YTQ5z_pad-16" x="476" y="701"/><use xlink:href="#B8Ja4mMDVCT5U-4YTQ5z_pad-16" x="376" y="701"/><use xlink:href="#B8Ja4mMDVCT5U-4YTQ5z_pad-16" x="276" y="701"/><path d="M 213.5 678.83 205.06 678.83 M 209.28 681.99 209.28 671.44 194.5 675.66 M 194.5 659.83 209.28 659.83 209.67 659.81 210.06 659.76 210.43 659.67 210.8 659.55 211.16 659.39 211.5 659.2 211.82 658.98 212.12 658.73 212.4 658.45 212.65 658.15 212.87 657.83 213.06 657.49 213.22 657.13 213.34 656.76 213.43 656.39 213.48 656 213.5 655.61 213.5 653.5 M 207.94 517.77 207.94 513.55 M 207.94 517.77 207.92 518.17 207.86 518.57 207.77 518.96 207.64 519.34 207.47 519.7 207.27 520.05 207.04 520.38 206.77 520.68 206.48 520.96 206.17 521.21 205.83 521.42 205.47 521.61 205.1 521.76 204.71 521.87 204.32 521.95 203.92 521.99 203.52 521.99 203.12 521.95 202.73 521.87 202.34 521.76 201.97 521.61 201.61 521.42 201.27 521.21 200.96 520.96 200.67 520.68 200.4 520.38 200.17 520.05 199.97 519.7 199.8 519.34 199.67 518.96 199.58 518.57 199.52 518.17 199.5 517.77 199.5 511.44 M 199.5 499.83 214.28 499.83 214.67 499.81 215.06 499.76 215.43 499.67 215.8 499.55 216.16 499.39 216.5 499.2 216.82 498.98 217.12 498.73 217.4 498.45 217.65 498.15 217.87 497.83 218.06 497.49 218.22 497.13 218.34 496.76 218.43 496.39 218.48 496 218.5 495.61 218.5 493.5 M 218.5 511.44 218.5 516.72 218.48 517.17 218.42 517.61 218.33 518.05 218.2 518.48 218.03 518.89 217.83 519.3 217.59 519.68 217.33 520.04 217.03 520.37 216.71 520.68 216.36 520.97 215.99 521.22 215.6 521.43 215.19 521.62 214.77 521.77 214.33 521.88 213.89 521.96 213.44 522 213 522 212.55 521.96 212.11 521.88 211.67 521.77 211.25 521.62 210.84 521.43 210.45 521.22 210.08 520.97 209.73 520.68 209.41 520.37 209.11 520.04 208.85 519.68 208.61 519.3 208.41 518.89 208.24 518.48 208.11 518.05 208.02 517.61 207.96 517.17 207.94 516.72 M 213.5 401.99 213.5 391.44 202.94 400.41 M 194.5 397.24 194.52 396.76 194.58 396.29 194.67 395.82 194.8 395.35 194.96 394.9 195.17 394.47 195.4 394.05 195.67 393.65 195.96 393.28 196.29 392.92 196.64 392.6 197.02 392.3 197.42 392.04 197.84 391.8 198.27 391.6 198.72 391.44 M 202.94 400.41 202.65 400.69 202.33 400.96 201.99 401.19 201.63 401.4 201.26 401.58 200.87 401.72 200.48 401.84 200.07 401.92 199.66 401.97 199.25 401.99 198.84 401.97 198.43 401.92 198.02 401.83 197.63 401.7 197.24 401.54 196.88 401.35 196.53 401.13 196.2 400.88 195.89 400.6 195.61 400.29 195.36 399.96 195.14 399.62 194.95 399.25 194.79 398.86 194.66 398.47 194.57 398.07 194.52 397.65 194.5 397.24 M 194.5 379.83 209.28 379.83 209.67 379.81 210.06 379.76 210.43 379.67 210.8 379.55 211.16 379.39 211.5 379.2 211.82 378.98 212.12 378.73 212.4 378.45 212.65 378.15 212.87 377.83 213.06 377.49 213.22 377.13 213.34 376.76 213.43 376.39 213.48 376 213.5 375.61 213.5 373.5 M 628.5 158.5 630.61 158.5 631 158.52 631.39 158.57 631.76 158.66 632.13 158.78 632.49 158.94 632.83 159.13 633.15 159.35 633.45 159.6 633.73 159.88 633.98 160.18 634.2 160.5 634.39 160.84 634.55 161.2 634.67 161.57 634.76 161.94 634.81 162.33 634.83 162.72 634.83 177.5 M 646.44 173.28 651.72 177.5 651.72 158.5 M 656.99 158.5 646.44 158.5" fill="none" stroke-width="5"/><path d="M 701 309.86 701 342.14 M 751 342.14 751 309.86 M 751 509.86 751 542.14 M 701 542.14 701 509.86 M 151 509.86 151 542.14 M 101 542.14 101 509.86 M 101 342.14 101 309.86 M 151 309.86 151 342.14" fill="none" stroke-width="6"/><use xlink:href="#B8Ja4mMDVCT5U-4YTQ5z_pad-19" x="125.94" y="354.8"/><use xlink:href="#B8Ja4mMDVCT5U-4YTQ5z_pad-19" x="125.94" y="296.8"/><use xlink:href="#B8Ja4mMDVCT5U-4YTQ5z_pad-19" x="125.94" y="496.8"/><use xlink:href="#B8Ja4mMDVCT5U-4YTQ5z_pad-19" x="125.94" y="554.8"/><use xlink:href="#B8Ja4mMDVCT5U-4YTQ5z_pad-19" x="725.94" y="554.8"/><use xlink:href="#B8Ja4mMDVCT5U-4YTQ5z_pad-19" x="725.94" y="496.8"/><use xlink:href="#B8Ja4mMDVCT5U-4YTQ5z_pad-19" x="725.94" y="354.8"/><use xlink:href="#B8Ja4mMDVCT5U-4YTQ5z_pad-19" x="725.94" y="296.8"/></g><g id="YFYzNEpkvXfSAMVl-ixy_top_copper"><use xlink:href="#S2HlUpcKXbHZYkBo70WC_pad-10" x="276" y="126"/><use xlink:href="#S2HlUpcKXbHZYkBo70WC_pad-10" x="376" y="126"/><use xlink:href="#S2HlUpcKXbHZYkBo70WC_pad-10" x="476" y="126"/><use xlink:href="#S2HlUpcKXbHZYkBo70WC_pad-10" x="576" y="126"/><use xlink:href="#S2HlUpcKXbHZYkBo70WC_pad-10" x="576" y="376"/><use xlink:href="#S2HlUpcKXbHZYkBo70WC_pad-10" x="476" y="376"/><use xlink:href="#S2HlUpcKXbHZYkBo70WC_pad-10" x="376" y="376"/><use xlink:href="#S2HlUpcKXbHZYkBo70WC_pad-10" x="276" y="376"/><use xlink:href="#S2HlUpcKXbHZYkBo70WC_pad-10" x="276" y="501"/><use xlink:href="#S2HlUpcKXbHZYkBo70WC_pad-10" x="376" y="501"/><use xlink:href="#S2HlUpcKXbHZYkBo70WC_pad-10" x="476" y="501"/><use xlink:href="#S2HlUpcKXbHZYkBo70WC_pad-10" x="576" y="501"/><use xlink:href="#S2HlUpcKXbHZYkBo70WC_pad-11" x="726" y="488.6"/><use xlink:href="#S2HlUpcKXbHZYkBo70WC_pad-11" x="726" y="563.4"/><use xlink:href="#S2HlUpcKXbHZYkBo70WC_pad-11" x="726" y="363.4"/><use xlink:href="#S2HlUpcKXbHZYkBo70WC_pad-11" x="726" y="288.6"/><use xlink:href="#S2HlUpcKXbHZYkBo70WC_pad-11" x="126" y="288.6"/><use xlink:href="#S2HlUpcKXbHZYkBo70WC_pad-11" x="126" y="363.4"/><use xlink:href="#S2HlUpcKXbHZYkBo70WC_pad-11" x="126" y="488.6"/><use xlink:href="#S2HlUpcKXbHZYkBo70WC_pad-11" x="126" y="563.4"/><path d="M 276 664 276 738 M 376 738 376 664 M 476 664 476 738 M 576 738 576 664" fill="none" stroke-width="74"/><path d="M 576 376 576 126 M 701 226 726 251 726 288.6 M 713.6 351 726 363.4 M 276 376 276 226 213.4 288.6 126 288.6 M 151 351 126 376 126 363.4 M 276 226 276 126" fill="none" stroke-width="20"/><use xlink:href="#S2HlUpcKXbHZYkBo70WC_pad-14" x="201" y="351"/><use xlink:href="#S2HlUpcKXbHZYkBo70WC_pad-14" x="651" y="351"/><use xlink:href="#S2HlUpcKXbHZYkBo70WC_pad-14" x="701" y="226"/><path d="M 713.6 351 651 351 M 726 363.4 726 488.6 M 476 426 476 376 476 126 M 376 126 376 376 M 401 451 376 476 376 501 376 551 401 576 451 576 476 601 476 701 M 276 701 276 501 251 476 138.6 476 126 488.6 126 376 M 151 351 201 351 M 401 451 451 451 476 426" fill="none" stroke-width="16"/><path d="M 489.57 444.96 703 444.96 M 703 448.01 703 403.99 690.26 403.99 681.47 395.21 681.47 374 677.23 374 670.72 380.51 657.92 385.81 644.08 385.81 631.28 380.51 623.77 373 579 373 579 379 573 379 573 426 572.06 426 564.29 424.77 556.81 422.34 549.79 418.76 543.43 414.14 537.86 408.57 533.24 402.21 529.66 395.19 527.32 387.98 520.08 405.46 505.46 420.08 499 422.76 499 435.53 485.53 449 486.34 449 505.46 456.92 520.08 471.54 527.32 489.02 529.66 481.81 533.24 474.79 537.86 468.43 543.43 462.86 549.79 458.24 556.81 454.66 564.29 452.23 572.06 451 573 451 573 498 579 498 579 504 573 504 573 551 572.06 551 564.29 549.77 556.81 547.34 549.79 543.76 543.43 539.14 537.86 533.57 533.24 527.21 529.66 520.19 527.32 512.98 520.08 530.46 505.46 545.08 486.34 553 465.66 553 446.54 545.08 431.92 530.46 426 516.17 420.08 530.46 405.46 545.08 403.44 545.92 410.53 553 460.53 553 485.53 578 499 591.47 499 617.24 505.46 619.92 520.08 634.54 527.32 652.02 529.66 644.81 533.24 637.79 537.86 631.43 543.43 625.86 549.79 621.24 556.81 617.66 564.29 615.23 572.06 614 573 614 573 698 579 698 579 704 626 704 626 741.94 624.77 749.71 622.34 757.19 618.76 764.21 614.14 770.57 608.57 776.14 602.21 780.76 597.82 783 663.91 783 654.61 773.7 641.79 742.75 641.79 709.25 654.61 678.3 678.3 654.61 709.25 641.79 742.75 641.79 773.7 654.61 783 663.91 783 188.09 773.7 197.39 742.75 210.21 732.14 210.21 735.81 219.08 735.81 225.46 740.16 229.81 747.19 236.84 751 246.03 751 248.01 761.74 248.01 770.53 256.79 770.53 320.4 764.93 326 770.53 331.6 770.53 395.21 761.74 403.99 749 403.99 749 448.01 761.74 448.01 770.53 456.79 770.53 520.4 763.52 527.41 765.93 529.83 767.64 532.79 768.53 536.1 768.53 560.4 729 560.4 729 566.4 768.53 566.4 768.53 590.7 767.64 594.01 765.93 596.97 763.51 599.39 760.55 601.11 757.24 601.99 729 601.99 729 566.4 723 566.4 723 560.4 683.47 560.4 683.47 536.1 684.36 532.79 686.07 529.83 688.48 527.41 681.47 520.4 681.47 456.79 690.26 448.01 703 448.01 M 703 438.97 495.55 438.97 M 499 432.99 703 432.99 M 703 427 499 427 M 503.2 421.02 554.22 421.02 M 544.66 415.03 510.51 415.03 M 516.49 409.05 538.34 409.05 M 533.86 403.06 521.07 403.06 M 523.55 397.08 530.62 397.08 M 528.33 391.09 526.03 391.09 M 527.32 364.02 529.66 356.81 533.24 349.79 537.86 343.43 543.43 337.86 549.79 333.24 556.81 329.66 564.29 327.23 572.06 326 573 326 573 373 579 373 579 326 579.94 326 587.71 327.23 595.19 329.66 602.21 333.24 608.57 337.86 614.14 343.43 616.19 346.25 616.19 344.08 621.49 331.28 631.28 321.49 644.08 316.19 657.92 316.19 670.72 321.49 677.23 328 685.07 328 687.07 326 681.47 320.4 681.47 256.79 682.32 255.94 681.28 255.51 671.49 245.72 666.19 232.92 666.19 219.08 671.49 206.28 679.77 198 678.3 197.39 654.61 173.7 641.79 142.75 641.79 109.25 654.61 78.3 663.91 69 188.09 69 197.39 78.3 210.21 109.25 210.21 142.75 197.39 173.7 173.7 197.39 142.75 210.21 109.25 210.21 78.3 197.39 69 188.09 69 663.91 78.3 654.61 109.25 641.79 142.75 641.79 173.7 654.61 197.39 678.3 210.21 709.25 210.21 742.75 197.39 773.7 188.09 783 248.76 783 246.54 782.08 231.92 767.46 224 748.34 224 653.66 231.92 634.54 246.54 619.92 253 617.24 253 547.76 246.54 545.08 231.92 530.46 224 511.34 224 499 170.53 499 170.53 520.4 163.52 527.41 165.93 529.83 167.64 532.79 168.53 536.1 168.53 560.4 129 560.4 129 566.4 168.53 566.4 168.53 590.7 167.64 594.01 165.93 596.97 163.51 599.39 160.55 601.11 157.24 601.99 129 601.99 129 566.4 123 566.4 123 560.4 83.47 560.4 83.47 536.1 84.36 532.79 86.07 529.83 88.48 527.41 81.47 520.4 81.47 456.79 90.26 448.01 103 448.01 103 403.99 90.26 403.99 81.47 395.21 81.47 331.6 87.07 326 81.47 320.4 81.47 256.79 90.26 248.01 161.74 248.01 170.53 256.79 170.53 263.6 203.05 263.6 251 215.64 251 171.93 246.54 170.08 231.92 155.46 224 136.34 224 115.66 231.92 96.54 246.54 81.92 265.66 74 286.34 74 305.46 81.92 320.08 96.54 326 110.83 331.92 96.54 346.54 81.92 365.66 74 386.34 74 405.46 81.92 420.08 96.54 426 110.83 431.92 96.54 446.54 81.92 465.66 74 486.34 74 505.46 81.92 520.08 96.54 527.32 114.02 529.66 106.81 533.24 99.79 537.86 93.43 543.43 87.86 549.79 83.24 556.81 79.66 564.29 77.23 572.06 76 573 76 573 123 579 123 579 129 573 129 573 176 572.06 176 564.29 174.77 556.81 172.34 549.79 168.76 543.43 164.14 537.86 158.57 533.24 152.21 529.66 145.19 527.32 137.98 520.08 155.46 505.46 170.08 499 172.76 499 329.24 505.46 331.92 520.08 346.54 527.32 364.02 M 528.25 361.17 526.14 361.17 M 523.66 355.18 530.49 355.18 M 533.67 349.2 521.18 349.2 M 516.75 343.21 538.08 343.21 M 544.3 337.23 510.77 337.23 M 503.82 331.24 553.71 331.24 M 573 331.24 579 331.24 M 579 337.23 573 337.23 M 573 343.21 579 343.21 M 579 349.2 573 349.2 M 573 355.18 579 355.18 M 579 361.17 573 361.17 M 573 367.15 579 367.15 M 579 373.14 623.91 373.14 M 626 379 626 379.94 624.77 387.71 622.34 395.19 618.76 402.21 614.14 408.57 608.57 414.14 602.21 418.76 595.19 422.34 587.71 424.77 579.94 426 579 426 579 379 626 379 M 626 379.12 629.89 379.12 M 625.18 385.11 642.38 385.11 M 659.62 385.11 681.47 385.11 M 681.47 391.09 623.67 391.09 M 621.38 397.08 683.34 397.08 M 689.33 403.06 618.14 403.06 M 613.66 409.05 703 409.05 M 703 415.03 607.34 415.03 M 597.78 421.02 703 421.02 M 687.32 450.94 491.03 450.94 M 505.47 456.93 552.36 456.93 M 543.38 462.91 511.45 462.91 M 517.44 468.9 537.52 468.9 M 533.19 474.88 521.47 474.88 M 523.95 480.87 530.14 480.87 M 528.02 486.85 526.42 486.85 M 525.75 516.78 528.55 516.78 M 530.97 522.76 523.27 522.76 M 520.79 528.75 534.36 528.75 M 539.02 534.73 515.8 534.73 M 509.82 540.72 545.6 540.72 M 555.57 546.7 501.54 546.7 M 487.09 552.69 683.47 552.69 M 683.47 546.7 596.43 546.7 M 595.19 547.34 602.21 543.76 608.57 539.14 614.14 533.57 618.76 527.21 622.34 520.19 624.77 512.71 626 504.94 626 504 579 504 579 551 579.94 551 587.71 549.77 595.19 547.34 M 606.4 540.72 683.47 540.72 M 683.84 534.73 612.98 534.73 M 617.64 528.75 687.15 528.75 M 683.83 522.76 621.03 522.76 M 623.45 516.78 681.47 516.78 M 681.47 510.79 625.07 510.79 M 626 504.81 681.47 504.81 M 681.47 498.82 579 498.82 M 579 498 626 498 626 497.06 624.77 489.29 622.34 481.81 618.76 474.79 614.14 468.43 608.57 462.86 602.21 458.24 595.19 454.66 587.71 452.23 579.94 451 579 451 579 498 M 579 492.84 573 492.84 M 573 486.85 579 486.85 M 579 480.87 573 480.87 M 573 474.88 579 474.88 M 579 468.9 573 468.9 M 573 462.91 579 462.91 M 579 456.93 573 456.93 M 599.64 456.93 681.47 456.93 M 681.47 462.91 608.62 462.91 M 614.48 468.9 681.47 468.9 M 681.47 474.88 618.81 474.88 M 621.86 480.87 681.47 480.87 M 681.47 486.85 623.98 486.85 M 625.33 492.84 681.47 492.84 M 683.47 558.68 466.2 558.68 M 464.91 552.69 410.22 552.69 M 404.23 546.7 450.46 546.7 M 442.18 540.72 409.82 540.72 M 415.8 534.73 436.2 534.73 M 431.21 528.75 420.79 528.75 M 423.27 522.76 428.73 522.76 M 426.25 516.78 425.75 516.78 M 472.19 564.66 723 564.66 M 723 566.4 683.47 566.4 683.47 590.7 684.36 594.01 686.07 596.97 688.49 599.39 691.45 601.11 694.76 601.99 723 601.99 723 566.4 M 723 570.65 729 570.65 M 729 576.63 723 576.63 M 723 582.62 729 582.62 M 729 588.6 723 588.6 M 723 594.59 729 594.59 M 729 600.57 723 600.57 M 690.53 600.57 499 600.57 M 499 594.59 684.69 594.59 M 683.47 588.6 496.13 588.6 M 490.14 582.62 683.47 582.62 M 683.47 576.63 484.16 576.63 M 478.17 570.65 683.47 570.65 M 729 564.66 783 564.66 M 783 558.68 768.53 558.68 M 768.53 552.69 783 552.69 M 783 546.7 768.53 546.7 M 768.53 540.72 783 540.72 M 783 534.73 768.16 534.73 M 764.85 528.75 783 528.75 M 783 522.76 768.17 522.76 M 770.53 516.78 783 516.78 M 783 510.79 770.53 510.79 M 770.53 504.81 783 504.81 M 783 498.82 770.53 498.82 M 770.53 492.84 783 492.84 M 783 486.85 770.53 486.85 M 770.53 480.87 783 480.87 M 783 474.88 770.53 474.88 M 770.53 468.9 783 468.9 M 783 462.91 770.53 462.91 M 770.53 456.93 783 456.93 M 783 450.94 764.68 450.94 M 749 444.96 783 444.96 M 783 438.97 749 438.97 M 749 432.99 783 432.99 M 783 427 749 427 M 749 421.02 783 421.02 M 783 415.03 749 415.03 M 749 409.05 783 409.05 M 783 403.06 762.67 403.06 M 768.66 397.08 783 397.08 M 783 391.09 770.53 391.09 M 770.53 385.11 783 385.11 M 783 379.12 770.53 379.12 M 770.53 373.14 783 373.14 M 783 367.15 770.53 367.15 M 770.53 361.17 783 361.17 M 783 355.18 770.53 355.18 M 770.53 349.2 783 349.2 M 783 343.21 770.53 343.21 M 770.53 337.23 783 337.23 M 783 331.24 770.17 331.24 M 765.67 325.26 783 325.26 M 783 319.27 770.53 319.27 M 770.53 313.29 783 313.29 M 783 307.3 770.53 307.3 M 770.53 301.32 783 301.32 M 783 295.33 770.53 295.33 M 770.53 289.34 783 289.34 M 783 283.36 770.53 283.36 M 770.53 277.37 783 277.37 M 783 271.39 770.53 271.39 M 770.53 265.4 783 265.4 M 783 259.42 770.53 259.42 M 767.17 253.43 783 253.43 M 783 247.45 751 247.45 M 749.11 241.46 783 241.46 M 783 235.48 745.83 235.48 M 739.85 229.49 783 229.49 M 783 223.51 735.81 223.51 M 735.17 217.52 783 217.52 M 783 211.54 732.69 211.54 M 754 205.55 783 205.55 M 783 199.57 768.45 199.57 M 777.51 193.58 783 193.58 M 678.2 199.57 499 199.57 M 499 205.55 672.22 205.55 M 669.31 211.54 499 211.54 M 499 217.52 666.83 217.52 M 666.19 223.51 499 223.51 M 499 229.49 666.19 229.49 M 667.25 235.48 499 235.48 M 499 241.46 669.73 241.46 M 673.22 247.45 499 247.45 M 499 253.43 679.2 253.43 M 681.47 259.42 499 259.42 M 499 265.4 681.47 265.4 M 681.47 271.39 499 271.39 M 499 277.37 681.47 277.37 M 681.47 283.36 499 283.36 M 499 289.34 681.47 289.34 M 681.47 295.33 499 295.33 M 499 301.32 681.47 301.32 M 681.47 307.3 499 307.3 M 499 313.29 681.47 313.29 M 681.47 319.27 665.36 319.27 M 674.49 325.26 686.33 325.26 M 636.64 319.27 499 319.27 M 499 325.26 627.51 325.26 M 621.53 331.24 598.29 331.24 M 607.7 337.23 619.03 337.23 M 616.55 343.21 613.92 343.21 M 579 379.12 573 379.12 M 573 385.11 579 385.11 M 579 391.09 573 391.09 M 573 397.08 579 397.08 M 579 403.06 573 403.06 M 573 409.05 579 409.05 M 579 415.03 573 415.03 M 573 421.02 579 421.02 M 579 504.81 573 504.81 M 573 510.79 579 510.79 M 579 516.78 573 516.78 M 573 522.76 579 522.76 M 579 528.75 573 528.75 M 573 534.73 579 534.73 M 579 540.72 573 540.72 M 573 546.7 579 546.7 M 579 614 579.94 614 587.71 615.23 595.19 617.66 602.21 621.24 608.57 625.86 614.14 631.43 618.76 637.79 622.34 644.81 624.77 652.29 626 660.06 626 698 579 698 579 614 M 579 618.53 573 618.53 M 573 624.51 579 624.51 M 579 630.5 573 630.5 M 573 636.48 579 636.48 M 579 642.47 573 642.47 M 573 648.45 579 648.45 M 579 654.44 573 654.44 M 573 660.42 579 660.42 M 579 666.41 573 666.41 M 573 672.39 579 672.39 M 579 678.38 573 678.38 M 573 684.36 579 684.36 M 579 690.35 573 690.35 M 573 696.33 579 696.33 M 579 702.32 644.66 702.32 M 642.18 708.3 626 708.3 M 626 714.29 641.79 714.29 M 641.79 720.27 626 720.27 M 626 726.26 641.79 726.26 M 641.79 732.24 626 732.24 M 626 738.23 641.79 738.23 M 642.39 744.21 625.64 744.21 M 624.61 750.2 644.87 750.2 M 647.35 756.18 622.66 756.18 M 619.8 762.17 649.83 762.17 M 652.31 768.15 615.9 768.15 M 610.57 774.14 655.04 774.14 M 661.03 780.12 603.09 780.12 M 626 696.33 647.14 696.33 M 649.62 690.35 626 690.35 M 626 684.36 652.1 684.36 M 654.57 678.38 626 678.38 M 626 672.39 660.51 672.39 M 666.5 666.41 626 666.41 M 626 660.42 672.48 660.42 M 678.71 654.44 625.11 654.44 M 623.52 648.45 693.16 648.45 M 707.61 642.47 621.14 642.47 M 617.81 636.48 783 636.48 M 783 630.5 613.21 630.5 M 606.71 624.51 783 624.51 M 783 618.53 596.89 618.53 M 555.11 618.53 502.1 618.53 M 499 612.54 783 612.54 M 783 606.56 499 606.56 M 510.05 624.51 545.29 624.51 M 538.79 630.5 516.04 630.5 M 520.89 636.48 534.19 636.48 M 530.86 642.47 523.36 642.47 M 525.84 648.45 528.48 648.45 M 744.39 642.47 783 642.47 M 783 648.45 758.84 648.45 M 773.29 654.44 783 654.44 M 783 660.42 779.52 660.42 M 783 600.57 761.47 600.57 M 767.31 594.59 783 594.59 M 783 588.6 768.53 588.6 M 768.53 582.62 783 582.62 M 783 576.63 768.53 576.63 M 768.53 570.65 783 570.65 M 681.47 379.12 672.11 379.12 M 674.49 193.58 499 193.58 M 499 187.6 668.5 187.6 M 662.52 181.61 499 181.61 M 499 175.63 569.72 175.63 M 573 175.63 579 175.63 M 579 176 579 129 626 129 626 129.94 624.77 137.71 622.34 145.19 618.76 152.21 614.14 158.57 608.57 164.14 602.21 168.76 595.19 172.34 587.71 174.77 579.94 176 579 176 M 582.28 175.63 656.53 175.63 M 652.93 169.64 600.48 169.64 M 609.05 163.66 650.45 163.66 M 647.97 157.67 614.79 157.67 M 619.03 151.69 645.49 151.69 M 643.01 145.7 622.08 145.7 M 624.12 139.72 641.79 139.72 M 641.79 133.73 625.4 133.73 M 626 123 579 123 579 76 579.94 76 587.71 77.23 595.19 79.66 602.21 83.24 608.57 87.86 614.14 93.43 618.76 99.79 622.34 106.81 624.77 114.29 626 122.06 626 123 M 625.95 121.76 641.79 121.76 M 641.79 115.78 625 115.78 M 623.31 109.79 641.79 109.79 M 644.04 103.81 620.81 103.81 M 617.33 97.82 646.52 97.82 M 649 91.84 612.55 91.84 M 605.8 85.85 651.48 85.85 M 653.96 79.87 595.59 79.87 M 579 79.87 573 79.87 M 573 85.85 579 85.85 M 579 91.84 573 91.84 M 573 97.82 579 97.82 M 579 103.81 573 103.81 M 573 109.79 579 109.79 M 579 115.78 573 115.78 M 573 121.76 579 121.76 M 579 127.75 641.79 127.75 M 659.02 73.88 192.98 73.88 M 198.04 79.87 251.49 79.87 M 242.61 85.85 200.52 85.85 M 203 91.84 236.62 91.84 M 231.39 97.82 205.48 97.82 M 207.96 103.81 228.91 103.81 M 226.43 109.79 210.21 109.79 M 210.21 115.78 224 115.78 M 224 121.76 210.21 121.76 M 210.21 127.75 224 127.75 M 224 133.73 210.21 133.73 M 210.21 139.72 225.4 139.72 M 227.88 145.7 208.99 145.7 M 206.51 151.69 230.36 151.69 M 234.13 157.67 204.03 157.67 M 201.55 163.66 240.12 163.66 M 246.1 169.64 199.07 169.64 M 195.47 175.63 251 175.63 M 251 181.61 189.48 181.61 M 183.5 187.6 251 187.6 M 251 193.58 177.51 193.58 M 168.45 199.57 251 199.57 M 251 205.55 154 205.55 M 167.17 253.43 213.21 253.43 M 219.2 247.45 69 247.45 M 69 253.43 84.83 253.43 M 81.47 259.42 69 259.42 M 69 265.4 81.47 265.4 M 81.47 271.39 69 271.39 M 69 277.37 81.47 277.37 M 81.47 283.36 69 283.36 M 69 289.34 81.47 289.34 M 81.47 295.33 69 295.33 M 69 301.32 81.47 301.32 M 81.47 307.3 69 307.3 M 69 313.29 81.47 313.29 M 81.47 319.27 69 319.27 M 69 325.26 86.33 325.26 M 81.83 331.24 69 331.24 M 69 337.23 81.47 337.23 M 81.47 343.21 69 343.21 M 69 349.2 81.47 349.2 M 81.47 355.18 69 355.18 M 69 361.17 81.47 361.17 M 81.47 367.15 69 367.15 M 69 373.14 81.47 373.14 M 81.47 379.12 69 379.12 M 69 385.11 81.47 385.11 M 81.47 391.09 69 391.09 M 69 397.08 83.34 397.08 M 89.33 403.06 69 403.06 M 69 409.05 103 409.05 M 103 415.03 69 415.03 M 69 421.02 103 421.02 M 103 427 69 427 M 69 432.99 103 432.99 M 103 438.97 69 438.97 M 69 444.96 103 444.96 M 87.32 450.94 69 450.94 M 69 456.93 81.47 456.93 M 81.47 462.91 69 462.91 M 69 468.9 81.47 468.9 M 81.47 474.88 69 474.88 M 69 480.87 81.47 480.87 M 81.47 486.85 69 486.85 M 69 492.84 81.47 492.84 M 81.47 498.82 69 498.82 M 69 504.81 81.47 504.81 M 81.47 510.79 69 510.79 M 69 516.78 81.47 516.78 M 83.83 522.76 69 522.76 M 69 528.75 87.15 528.75 M 83.84 534.73 69 534.73 M 69 540.72 83.47 540.72 M 83.47 546.7 69 546.7 M 69 552.69 83.47 552.69 M 83.47 558.68 69 558.68 M 69 564.66 123 564.66 M 123 566.4 83.47 566.4 83.47 590.7 84.36 594.01 86.07 596.97 88.49 599.39 91.45 601.11 94.76 601.99 123 601.99 123 566.4 M 123 570.65 129 570.65 M 129 576.63 123 576.63 M 123 582.62 129 582.62 M 129 588.6 123 588.6 M 123 594.59 129 594.59 M 129 600.57 123 600.57 M 90.53 600.57 69 600.57 M 69 594.59 84.69 594.59 M 83.47 588.6 69 588.6 M 69 582.62 83.47 582.62 M 83.47 576.63 69 576.63 M 69 570.65 83.47 570.65 M 69 606.56 253 606.56 M 253 612.54 69 612.54 M 69 618.53 249.9 618.53 M 241.95 624.51 69 624.51 M 69 630.5 235.96 630.5 M 231.11 636.48 69 636.48 M 69 642.47 107.61 642.47 M 93.16 648.45 69 648.45 M 69 654.44 78.71 654.44 M 72.48 660.42 69 660.42 M 144.39 642.47 228.63 642.47 M 226.16 648.45 158.84 648.45 M 173.29 654.44 224 654.44 M 224 660.42 179.52 660.42 M 185.5 666.41 224 666.41 M 224 672.39 191.49 672.39 M 197.42 678.38 224 678.38 M 224 684.36 199.9 684.36 M 202.38 690.35 224 690.35 M 224 696.33 204.86 696.33 M 207.34 702.32 224 702.32 M 224 708.3 209.82 708.3 M 210.21 714.29 224 714.29 M 224 720.27 210.21 720.27 M 210.21 726.26 224 726.26 M 224 732.24 210.21 732.24 M 210.21 738.23 224 738.23 M 224 744.21 209.61 744.21 M 207.13 750.2 224.77 750.2 M 227.25 756.18 204.65 756.18 M 202.17 762.17 229.73 762.17 M 232.61 768.15 199.69 768.15 M 196.96 774.14 238.6 774.14 M 244.59 780.12 190.97 780.12 M 161.47 600.57 253 600.57 M 253 594.59 167.31 594.59 M 168.53 588.6 253 588.6 M 253 582.62 168.53 582.62 M 168.53 576.63 253 576.63 M 253 570.65 168.53 570.65 M 168.53 558.68 253 558.68 M 253 564.66 129 564.66 M 168.53 552.69 253 552.69 M 250.46 546.7 168.53 546.7 M 168.53 540.72 242.18 540.72 M 236.2 534.73 168.16 534.73 M 164.85 528.75 231.21 528.75 M 228.73 522.76 168.17 522.76 M 170.53 516.78 226.25 516.78 M 224 510.79 170.53 510.79 M 170.53 504.81 224 504.81 M 207.23 259.42 170.53 259.42 M 225.18 241.46 69 241.46 M 69 235.48 231.17 235.48 M 237.15 229.49 69 229.49 M 69 223.51 243.14 223.51 M 249.12 217.52 69 217.52 M 69 211.54 251 211.54 M 325.57 109.79 326.43 109.79 M 328.91 103.81 323.09 103.81 M 320.61 97.82 331.39 97.82 M 336.62 91.84 315.38 91.84 M 309.39 85.85 342.61 85.85 M 351.49 79.87 300.51 79.87 M 400.51 79.87 451.49 79.87 M 442.61 85.85 409.39 85.85 M 415.38 91.84 436.62 91.84 M 431.39 97.82 420.61 97.82 M 423.09 103.81 428.91 103.81 M 426.43 109.79 425.57 109.79 M 500.51 79.87 556.41 79.87 M 546.19 85.85 509.39 85.85 M 515.38 91.84 539.45 91.84 M 534.67 97.82 520.61 97.82 M 523.09 103.81 531.19 103.81 M 528.69 109.79 525.57 109.79 M 526.6 139.72 527.88 139.72 M 529.92 145.7 524.12 145.7 M 521.64 151.69 532.97 151.69 M 537.21 157.67 517.87 157.67 M 511.88 163.66 542.95 163.66 M 551.52 169.64 505.9 169.64 M 573 169.64 579 169.64 M 579 163.66 573 163.66 M 573 157.67 579 157.67 M 579 151.69 573 151.69 M 573 145.7 579 145.7 M 579 139.72 573 139.72 M 573 133.73 579 133.73 M 98 205.55 69 205.55 M 69 199.57 83.55 199.57 M 74.49 193.58 69 193.58" fill="none" stroke-width="6"/><use xlink:href="#S2HlUpcKXbHZYkBo70WC_pad-17" x="126" y="126"/><use xlink:href="#S2HlUpcKXbHZYkBo70WC_pad-17" x="126" y="726"/><use xlink:href="#S2HlUpcKXbHZYkBo70WC_pad-17" x="726" y="726"/><use xlink:href="#S2HlUpcKXbHZYkBo70WC_pad-17" x="726" y="126"/></g><g id="YFYzNEpkvXfSAMVl-ixy_top_soldermask"><use xlink:href="#z6RA4QxKdGR-FAVsy8gg_pad-10" x="276" y="126"/><use xlink:href="#z6RA4QxKdGR-FAVsy8gg_pad-10" x="376" y="126"/><use xlink:href="#z6RA4QxKdGR-FAVsy8gg_pad-10" x="476" y="126"/><use xlink:href="#z6RA4QxKdGR-FAVsy8gg_pad-10" x="576" y="126"/><use xlink:href="#z6RA4QxKdGR-FAVsy8gg_pad-10" x="576" y="376"/><use xlink:href="#z6RA4QxKdGR-FAVsy8gg_pad-10" x="476" y="376"/><use xlink:href="#z6RA4QxKdGR-FAVsy8gg_pad-10" x="376" y="376"/><use xlink:href="#z6RA4QxKdGR-FAVsy8gg_pad-10" x="276" y="376"/><use xlink:href="#z6RA4QxKdGR-FAVsy8gg_pad-10" x="276" y="501"/><use xlink:href="#z6RA4QxKdGR-FAVsy8gg_pad-10" x="376" y="501"/><use xlink:href="#z6RA4QxKdGR-FAVsy8gg_pad-10" x="476" y="501"/><use xlink:href="#z6RA4QxKdGR-FAVsy8gg_pad-10" x="576" y="501"/><use xlink:href="#z6RA4QxKdGR-FAVsy8gg_pad-11" x="726" y="488.6"/><use xlink:href="#z6RA4QxKdGR-FAVsy8gg_pad-11" x="726" y="563.4"/><use xlink:href="#z6RA4QxKdGR-FAVsy8gg_pad-11" x="726" y="363.4"/><use xlink:href="#z6RA4QxKdGR-FAVsy8gg_pad-11" x="726" y="288.6"/><use xlink:href="#z6RA4QxKdGR-FAVsy8gg_pad-11" x="126" y="288.6"/><use xlink:href="#z6RA4QxKdGR-FAVsy8gg_pad-11" x="126" y="363.4"/><use xlink:href="#z6RA4QxKdGR-FAVsy8gg_pad-11" x="126" y="488.6"/><use xlink:href="#z6RA4QxKdGR-FAVsy8gg_pad-11" x="126" y="563.4"/><path d="M 276 664 276 738 M 376 738 376 664 M 476 664 476 738 M 576 738 576 664" fill="none" stroke-width="82"/><use xlink:href="#z6RA4QxKdGR-FAVsy8gg_pad-13" x="651" y="351"/><use xlink:href="#z6RA4QxKdGR-FAVsy8gg_pad-13" x="701" y="226"/><use xlink:href="#z6RA4QxKdGR-FAVsy8gg_pad-13" x="201" y="351"/><use xlink:href="#z6RA4QxKdGR-FAVsy8gg_pad-14" x="126" y="126"/><use xlink:href="#z6RA4QxKdGR-FAVsy8gg_pad-14" x="126" y="726"/><use xlink:href="#z6RA4QxKdGR-FAVsy8gg_pad-14" x="726" y="726"/><use xlink:href="#z6RA4QxKdGR-FAVsy8gg_pad-14" x="726" y="126"/></g><g id="YFYzNEpkvXfSAMVl-ixy_top_drill1"><use xlink:href="#lSZ7BAf88iiuzL-jodPc_pad-1" x="201" y="351"/><use xlink:href="#lSZ7BAf88iiuzL-jodPc_pad-1" x="651" y="351"/><use xlink:href="#lSZ7BAf88iiuzL-jodPc_pad-1" x="701" y="226"/><use xlink:href="#lSZ7BAf88iiuzL-jodPc_pad-2" x="576" y="126"/><use xlink:href="#lSZ7BAf88iiuzL-jodPc_pad-2" x="476" y="126"/><use xlink:href="#lSZ7BAf88iiuzL-jodPc_pad-2" x="376" y="126"/><use xlink:href="#lSZ7BAf88iiuzL-jodPc_pad-2" x="276" y="126"/><use xlink:href="#lSZ7BAf88iiuzL-jodPc_pad-2" x="276" y="376"/><use xlink:href="#lSZ7BAf88iiuzL-jodPc_pad-2" x="376" y="376"/><use xlink:href="#lSZ7BAf88iiuzL-jodPc_pad-2" x="476" y="376"/><use xlink:href="#lSZ7BAf88iiuzL-jodPc_pad-2" x="576" y="376"/><use xlink:href="#lSZ7BAf88iiuzL-jodPc_pad-2" x="576" y="501"/><use xlink:href="#lSZ7BAf88iiuzL-jodPc_pad-2" x="476" y="501"/><use xlink:href="#lSZ7BAf88iiuzL-jodPc_pad-2" x="376" y="501"/><use xlink:href="#lSZ7BAf88iiuzL-jodPc_pad-2" x="276" y="501"/><use xlink:href="#lSZ7BAf88iiuzL-jodPc_pad-3" x="276" y="701"/><use xlink:href="#lSZ7BAf88iiuzL-jodPc_pad-3" x="376" y="701"/><use xlink:href="#lSZ7BAf88iiuzL-jodPc_pad-3" x="476" y="701"/><use xlink:href="#lSZ7BAf88iiuzL-jodPc_pad-3" x="576" y="701"/><use xlink:href="#lSZ7BAf88iiuzL-jodPc_pad-4" x="126" y="126"/><use xlink:href="#lSZ7BAf88iiuzL-jodPc_pad-4" x="126" y="726"/><use xlink:href="#lSZ7BAf88iiuzL-jodPc_pad-4" x="726" y="726"/><use xlink:href="#lSZ7BAf88iiuzL-jodPc_pad-4" x="726" y="126"/></g><clipPath id="YFYzNEpkvXfSAMVl-ixy_top_outline"><path d="M 26 26 26 826 826 826 826 26 26 26" fill="none" stroke-width="0"/></clipPath><mask id="YFYzNEpkvXfSAMVl-ixy_top_mech-mask"><g fill="#000" stroke="#000"><rect x="26" y="26" width="800" height="800" fill="#fff"/><use xlink:href="#YFYzNEpkvXfSAMVl-ixy_top_drill1"/></g></mask><mask id="YFYzNEpkvXfSAMVl-ixy_top_cf-mask"><g fill="#fff" stroke="#fff"><use xlink:href="#YFYzNEpkvXfSAMVl-ixy_top_soldermask"/></g></mask><mask id="YFYzNEpkvXfSAMVl-ixy_top_sm-mask"><g fill="#000" stroke="#000"><rect x="26" y="26" width="800" height="800" fill="#fff"/><use xlink:href="#YFYzNEpkvXfSAMVl-ixy_top_soldermask"/></g></mask></defs><g transform="translate(0,852) scale(1,-1)"><g mask="url(#YFYzNEpkvXfSAMVl-ixy_top_mech-mask)" clip-path="url(#YFYzNEpkvXfSAMVl-ixy_top_outline)"><rect x="26" y="26" width="800" height="800" fill="currentColor" class="YFYzNEpkvXfSAMVl-ixy_fr4"/><use xlink:href="#YFYzNEpkvXfSAMVl-ixy_top_copper" fill="currentColor" stroke="currentColor" class="YFYzNEpkvXfSAMVl-ixy_cu"/><use xlink:href="#YFYzNEpkvXfSAMVl-ixy_top_copper" fill="currentColor" stroke="currentColor" class="YFYzNEpkvXfSAMVl-ixy_cf" mask="url(#YFYzNEpkvXfSAMVl-ixy_top_cf-mask)"/><g mask="url(#YFYzNEpkvXfSAMVl-ixy_top_sm-mask)"><rect x="26" y="26" width="800" height="800" fill="currentColor" class="YFYzNEpkvXfSAMVl-ixy_sm"/><use xlink:href="#YFYzNEpkvXfSAMVl-ixy_top_silkscreen" fill="currentColor" stroke="currentColor" class="YFYzNEpkvXfSAMVl-ixy_ss"/></g></g></g></svg>