<svg version="1.1" xmlns="http://www.w3.org/2000/svg" xmlns:xlink="http://www.w3.org/1999/xlink" stroke-linecap="round" stroke-linejoin="round" stroke-width="0" fill-rule="evenodd" clip-rule="evenodd" id="zzEI75UuONLH9Ysi0QU5_bottom" viewBox="13 53 1100 2550" width="1.1in" height="2.55in" class="w-100 h-100"><defs><style>.zzEI75UuONLH9Ysi0QU5_fr4 {color: #666666;}
.zzEI75UuONLH9Ysi0QU5_cu {color: #cccccc;}
.zzEI75UuONLH9Ysi0QU5_cf {color: #cc9933;}
.zzEI75UuONLH9Ysi0QU5_sm {color: #004200; opacity: 0.75;}
.zzEI75UuONLH9Ysi0QU5_ss {color: #ffffff;}
.zzEI75UuONLH9Ysi0QU5_sp {color: #999999;}
.zzEI75UuONLH9Ysi0QU5_out {color: #000000;}</style><polygon points="29.99994,12.42638 12.42638,29.99994 -12.42638,29.99994 -29.99994,12.42638 -29.99994,-12.42638 -12.42638,-29.99994 12.42638,-29.99994 29.99994,-12.42638" id="nTcQNEQcYhQE07DTliP1_pad-10"/><circle cx="0" cy="0" r="33" id="nTcQNEQcYhQE07DTliP1_pad-11"/><polygon points="25.99995,10.76953 10.76953,25.99995 -10.76953,25.99995 -25.99995,10.76953 -25.99995,-10.76953 -10.76953,-25.99995 10.76953,-25.99995 25.99995,-10.76953" id="nTcQNEQcYhQE07DTliP1_pad-13"/><circle cx="0" cy="0" r="69.215" id="nTcQNEQcYhQE07DTliP1_pad-21"/><polygon points="33.99993,14.08323 14.08323,33.99993 -14.08323,33.99993 -33.99993,14.08323 -33.99993,-14.08323 -14.08323,-33.99993 14.08323,-33.99993 33.99993,-14.08323" id="qAvXtFStwFGVJawbmgIr_pad-10"/><circle cx="0" cy="0" r="37" id="qAvXtFStwFGVJawbmgIr_pad-11"/><polygon points="29.99994,12.42638 12.42638,29.99994 -12.42638,29.99994 -29.99994,12.42638 -29.99994,-12.42638 -12.42638,-29.99994 12.42638,-29.99994 29.99994,-12.42638" id="qAvXtFStwFGVJawbmgIr_pad-13"/><circle cx="0" cy="0" r="73.215" id="qAvXtFStwFGVJawbmgIr_pad-16"/><circle cx="0" cy="0" r="16" id="oW8azKyj3EYer85hlRuN_pad-1"/><circle cx="0" cy="0" r="20" id="oW8azKyj3EYer85hlRuN_pad-2"/><circle cx="0" cy="0" r="22" id="oW8azKyj3EYer85hlRuN_pad-3"/><circle cx="0" cy="0" r="26" id="oW8azKyj3EYer85hlRuN_pad-4"/><circle cx="0" cy="0" r="49.2" id="oW8azKyj3EYer85hlRuN_pad-5"/><g id="zzEI75UuONLH9Ysi0QU5_bottom_copper"><use xlink:href="#nTcQNEQcYhQE07DTliP1_pad-10" x="913" y="1153"/><use xlink:href="#nTcQNEQcYhQE07DTliP1_pad-10" x="913" y="1553"/><use xlink:href="#nTcQNEQcYhQE07DTliP1_pad-11" x="363" y="1553"/><use xlink:href="#nTcQNEQcYhQE07DTliP1_pad-11" x="363" y="1153"/><path d="M 363 1055 363 1003 M 263 1003 263 1055 M 263 703 263 651 M 363 651 363 703 M 463 703 463 651 M 463 1003 463 1055 M 663 1055 663 1003 M 763 1003 763 1055 M 863 1055 863 1003 M 863 703 863 651 M 763 651 763 703 M 663 703 663 651" fill="none" stroke-width="52"/><use xlink:href="#nTcQNEQcYhQE07DTliP1_pad-13" x="563" y="528"/><use xlink:href="#nTcQNEQcYhQE07DTliP1_pad-13" x="463" y="528"/><use xlink:href="#nTcQNEQcYhQE07DTliP1_pad-13" x="263" y="528"/><use xlink:href="#nTcQNEQcYhQE07DTliP1_pad-13" x="238" y="1153"/><use xlink:href="#nTcQNEQcYhQE07DTliP1_pad-13" x="113" y="1153"/><use xlink:href="#nTcQNEQcYhQE07DTliP1_pad-13" x="113" y="1453"/><use xlink:href="#nTcQNEQcYhQE07DTliP1_pad-13" x="238" y="1453"/><use xlink:href="#nTcQNEQcYhQE07DTliP1_pad-13" x="563" y="1553"/><use xlink:href="#nTcQNEQcYhQE07DTliP1_pad-13" x="713" y="1553"/><use xlink:href="#nTcQNEQcYhQE07DTliP1_pad-13" x="713" y="1153"/><use xlink:href="#nTcQNEQcYhQE07DTliP1_pad-13" x="563" y="1153"/><use xlink:href="#nTcQNEQcYhQE07DTliP1_pad-13" x="863" y="528"/><path d="M 663 1923 663 1983 M 563 1983 563 1923 M 463 1923 463 1983" fill="none" stroke-width="60"/><path d="M 362 2314 362 2392 M 164 2392 164 2314 M 764 2314 764 2392 M 962 2392 962 2314 M 859 342 859 264 M 661 264 661 342 M 465 342 465 264 M 267 264 267 342" fill="none" stroke-width="78"/><path d="M 613 1003 563 1053 563 1153 M 613 1003 663 1003 M 713 1153 913 1153 M 713 1553 563 1553 563 1953 M 563 1553 363 1553 M 238 1453 113 1453 M 238 1153 363 1153" fill="none" stroke-width="32"/><path d="M 288 778 738 778 763 753 763 703 M 688 528 661 501 661 303 M 688 528 863 528 M 663 703 613 703 563 653 563 528 M 465 528 465 303 M 465 528 463 528 388 528 363 553 363 703 M 288 778 263 753 263 703 M 263 528 267 528 267 303" fill="none" stroke-width="20"/><path d="M 563 1953 563 2053" fill="none" stroke-width="80"/><path d="M 563 2053 563 2103 513 2153 263 2153 164 2252 164 2353" fill="none" stroke-width="100"/><path d="M 60.34 131.19 67.78 118.3 78.3 107.78 91.19 100.34 105.56 96.49 113 96 1013 96 1020.44 96.49 1034.81 100.34 1047.7 107.78 1058.22 118.3 1065.66 131.19 1065.66 131.19 1069.51 145.56 1070 153 1070 490.91 1060.7 481.61 1029.75 468.79 996.25 468.79 965.3 481.61 941.61 505.3 928.79 536.25 928.79 569.75 941.61 600.7 965.3 624.39 996.25 637.21 1029.75 637.21 1060.7 624.39 1070 615.09 1070 803 1023.81 803 1012.36 791.55 996.55 785 129.45 785 113.64 791.55 102.19 803 56 803 56 615.09 65.3 624.39 96.25 637.21 129.75 637.21 160.7 624.39 184.39 600.7 197.21 569.75 197.21 536.25 184.39 505.3 160.7 481.61 129.75 468.79 96.25 468.79 65.3 481.61 56 490.91 56 153 56.49 145.56 60.34 131.19 M 60.56 130.81 1065.44 130.81 M 1067.16 136.79 58.84 136.79 M 57.23 142.78 1068.77 142.78 M 1069.72 148.76 56.28 148.76 M 56 154.75 1070 154.75 M 1070 160.73 56 160.73 M 56 166.72 1070 166.72 M 1070 172.7 56 172.7 M 56 178.69 1070 178.69 M 1070 184.67 56 184.67 M 56 190.66 1070 190.66 M 1070 196.64 56 196.64 M 56 202.63 1070 202.63 M 1070 208.61 56 208.61 M 56 214.6 245.16 214.6 M 236.41 218.22 256.26 210 277.74 210 297.59 218.22 312.78 233.41 321 253.26 321 352.74 312.78 372.59 297.59 387.78 292 390.09 292 499.02 304 511.02 304 544.98 279.98 569 246.02 569 222 544.98 222 511.02 242 491.02 242 390.09 236.41 387.78 221.22 372.59 213 352.74 213 253.26 221.22 233.41 236.41 218.22 M 234.05 220.58 56 220.58 M 56 226.57 228.06 226.57 M 222.08 232.55 56 232.55 M 56 238.54 219.1 238.54 M 216.62 244.52 56 244.52 M 56 250.51 214.14 250.51 M 213 256.49 56 256.49 M 56 262.48 213 262.48 M 213 268.46 56 268.46 M 56 274.45 213 274.45 M 213 280.43 56 280.43 M 56 286.42 213 286.42 M 213 292.4 56 292.4 M 56 298.39 213 298.39 M 213 304.37 56 304.37 M 56 310.36 213 310.36 M 213 316.34 56 316.34 M 56 322.33 213 322.33 M 213 328.32 56 328.32 M 56 334.3 213 334.3 M 213 340.29 56 340.29 M 56 346.27 213 346.27 M 213 352.26 56 352.26 M 56 358.24 215.28 358.24 M 217.76 364.23 56 364.23 M 56 370.21 220.24 370.21 M 224.83 376.2 56 376.2 M 56 382.18 230.81 382.18 M 237.35 388.17 56 388.17 M 56 394.15 242 394.15 M 242 400.14 56 400.14 M 56 406.12 242 406.12 M 242 412.11 56 412.11 M 56 418.09 242 418.09 M 242 424.08 56 424.08 M 56 430.06 242 430.06 M 242 436.05 56 436.05 M 56 442.03 242 442.03 M 242 448.02 56 448.02 M 56 454 242 454 M 242 459.99 56 459.99 M 56 465.97 242 465.97 M 242 471.96 137.41 471.96 M 151.85 477.94 242 477.94 M 242 483.93 163.02 483.93 M 169.01 489.91 242 489.91 M 237.12 495.9 174.99 495.9 M 180.98 501.88 231.13 501.88 M 225.15 507.87 185.46 507.87 M 187.94 513.85 222 513.85 M 222 519.84 190.42 519.84 M 192.89 525.82 222 525.82 M 222 531.81 195.37 531.81 M 197.21 537.79 222 537.79 M 222 543.78 197.21 543.78 M 197.21 549.76 226.78 549.76 M 232.77 555.75 197.21 555.75 M 197.21 561.73 238.75 561.73 M 244.74 567.72 197.21 567.72 M 195.57 573.7 338 573.7 M 338 567.72 281.26 567.72 M 287.25 561.73 338 561.73 M 338 555.75 293.23 555.75 M 299.22 549.76 338 549.76 M 338 548.03 341.81 538.84 348.84 531.81 373.84 506.81 383.03 503 430.02 503 440 493.02 440 390.09 434.41 387.78 419.22 372.59 411 352.74 411 253.26 419.22 233.41 434.41 218.22 454.26 210 475.74 210 495.59 218.22 510.78 233.41 519 253.26 519 352.74 510.78 372.59 495.59 387.78 490 390.09 490 497.02 504 511.02 504 544.98 479.98 569 446.02 569 430.02 553 398.36 553 388 563.36 388 618.02 397.76 627.78 404 642.84 404 711.16 397.76 726.22 386.22 737.76 371.16 744 354.84 744 339.78 737.76 328.24 726.22 322 711.16 322 642.84 328.24 627.78 338 618.02 338 548.03 M 339.76 543.78 304 543.78 M 304 537.79 342.85 537.79 M 348.84 531.81 304 531.81 M 304 525.82 354.82 525.82 M 360.81 519.84 304 519.84 M 304 513.85 366.79 513.85 M 372.78 507.87 300.85 507.87 M 294.87 501.88 431.13 501.88 M 437.12 495.9 292 495.9 M 292 489.91 440 489.91 M 440 483.93 292 483.93 M 292 477.94 440 477.94 M 440 471.96 292 471.96 M 292 465.97 440 465.97 M 440 459.99 292 459.99 M 292 454 440 454 M 440 448.02 292 448.02 M 292 442.03 440 442.03 M 440 436.05 292 436.05 M 292 430.06 440 430.06 M 440 424.08 292 424.08 M 292 418.09 440 418.09 M 440 412.11 292 412.11 M 292 406.12 440 406.12 M 440 400.14 292 400.14 M 292 394.15 440 394.15 M 435.35 388.17 296.65 388.17 M 303.19 382.18 428.81 382.18 M 422.83 376.2 309.17 376.2 M 313.76 370.21 418.24 370.21 M 415.76 364.23 316.24 364.23 M 318.72 358.24 413.28 358.24 M 411 352.26 321 352.26 M 321 346.27 411 346.27 M 411 340.29 321 340.29 M 321 334.3 411 334.3 M 411 328.32 321 328.32 M 321 322.33 411 322.33 M 411 316.34 321 316.34 M 321 310.36 411 310.36 M 411 304.37 321 304.37 M 321 298.39 411 298.39 M 411 292.4 321 292.4 M 321 286.42 411 286.42 M 411 280.43 321 280.43 M 321 274.45 411 274.45 M 411 268.46 321 268.46 M 321 262.48 411 262.48 M 411 256.49 321 256.49 M 319.86 250.51 412.14 250.51 M 414.62 244.52 317.38 244.52 M 314.9 238.54 417.1 238.54 M 420.08 232.55 311.92 232.55 M 305.94 226.57 426.06 226.57 M 432.05 220.58 299.95 220.58 M 288.84 214.6 443.16 214.6 M 486.84 214.6 639.16 214.6 M 630.41 218.22 650.26 210 671.74 210 691.59 218.22 706.78 233.41 715 253.26 715 352.74 706.78 372.59 691.59 387.78 686 390.09 686 490.64 698.36 503 830.02 503 846.02 487 879.98 487 904 511.02 904 544.98 879.98 569 846.02 569 830.02 553 683.03 553 673.84 549.19 639.81 515.16 636 505.97 636 390.09 630.41 387.78 615.22 372.59 607 352.74 607 253.26 615.22 233.41 630.41 218.22 M 628.05 220.58 497.95 220.58 M 503.94 226.57 622.06 226.57 M 616.08 232.55 509.92 232.55 M 512.9 238.54 613.1 238.54 M 610.62 244.52 515.38 244.52 M 517.86 250.51 608.14 250.51 M 607 256.49 519 256.49 M 519 262.48 607 262.48 M 607 268.46 519 268.46 M 519 274.45 607 274.45 M 607 280.43 519 280.43 M 519 286.42 607 286.42 M 607 292.4 519 292.4 M 519 298.39 607 298.39 M 607 304.37 519 304.37 M 519 310.36 607 310.36 M 607 316.34 519 316.34 M 519 322.33 607 322.33 M 607 328.32 519 328.32 M 519 334.3 607 334.3 M 607 340.29 519 340.29 M 519 346.27 607 346.27 M 607 352.26 519 352.26 M 516.72 358.24 609.28 358.24 M 611.76 364.23 514.24 364.23 M 511.76 370.21 614.24 370.21 M 618.83 376.2 507.17 376.2 M 501.19 382.18 624.81 382.18 M 631.35 388.17 494.65 388.17 M 490 394.15 636 394.15 M 636 400.14 490 400.14 M 490 406.12 636 406.12 M 636 412.11 490 412.11 M 490 418.09 636 418.09 M 636 424.08 490 424.08 M 490 430.06 636 430.06 M 636 436.05 490 436.05 M 490 442.03 636 442.03 M 636 448.02 490 448.02 M 490 454 636 454 M 636 459.99 490 459.99 M 490 465.97 636 465.97 M 636 471.96 490 471.96 M 490 477.94 636 477.94 M 636 483.93 490 483.93 M 490 489.91 543.1 489.91 M 546.02 487 579.98 487 604 511.02 604 544.98 588 560.98 588 642.64 622 676.64 622 642.84 628.24 627.78 639.78 616.24 654.84 610 671.16 610 686.22 616.24 697.76 627.78 704 642.84 704 711.16 697.76 726.22 686.22 737.76 671.16 744 654.84 744 639.78 737.76 630.02 728 608.03 728 598.84 724.19 591.81 717.16 541.81 667.16 538 657.97 538 560.98 522 544.98 522 511.02 546.02 487 M 537.12 495.9 490 495.9 M 494.87 501.88 531.13 501.88 M 525.15 507.87 500.85 507.87 M 504 513.85 522 513.85 M 522 519.84 504 519.84 M 504 525.82 522 525.82 M 522 531.81 504 531.81 M 504 537.79 522 537.79 M 522 543.78 504 543.78 M 499.22 549.76 526.78 549.76 M 532.77 555.75 493.23 555.75 M 487.25 561.73 538 561.73 M 538 567.72 481.26 567.72 M 471.16 610 486.22 616.24 497.76 627.78 504 642.84 504 711.16 497.76 726.22 486.22 737.76 471.16 744 454.84 744 439.78 737.76 428.24 726.22 422 711.16 422 642.84 428.24 627.78 439.78 616.24 454.84 610 471.16 610 M 484.68 615.6 538 615.6 M 538 609.62 388 609.62 M 388 615.6 441.32 615.6 M 434.43 621.59 391.57 621.59 M 397.55 627.57 428.45 627.57 M 425.85 633.56 400.15 633.56 M 402.63 639.54 423.37 639.54 M 422 645.53 404 645.53 M 404 651.51 422 651.51 M 422 657.5 404 657.5 M 404 663.48 422 663.48 M 422 669.47 404 669.47 M 404 675.45 422 675.45 M 422 681.44 404 681.44 M 404 687.42 422 687.42 M 422 693.41 404 693.41 M 404 699.39 422 699.39 M 422 705.38 404 705.38 M 403.91 711.36 422.09 711.36 M 424.56 717.35 401.44 717.35 M 398.96 723.33 427.04 723.33 M 431.34 729.32 394.66 729.32 M 388.68 735.3 437.32 735.3 M 448.3 741.29 377.7 741.29 M 348.3 741.29 270.42 741.29 M 266.84 742 274.38 740.5 281.47 737.56 287.86 733.29 293.29 727.86 297.56 721.47 300.5 714.38 302 706.84 302 706 266 706 260 706 260 742 259.16 742 251.62 740.5 244.53 737.56 238.14 733.29 232.71 727.86 228.44 721.47 225.5 714.38 224 706.84 224 706 260 706 260 700 224 700 224 647.16 225.5 639.62 228.44 632.53 232.71 626.14 238.14 620.71 244.53 616.44 251.62 613.5 259.16 612 260 612 260 700 266 700 266 706 266 742 266.84 742 M 266 741.29 260 741.29 M 255.58 741.29 56 741.29 M 56 747.27 1070 747.27 M 1070 741.29 877.7 741.29 M 871.16 744 854.84 744 839.78 737.76 828.24 726.22 822 711.16 822 642.84 828.24 627.78 839.78 616.24 854.84 610 871.16 610 886.22 616.24 897.76 627.78 904 642.84 904 711.16 897.76 726.22 886.22 737.76 871.16 744 M 888.68 735.3 1070 735.3 M 1070 729.32 894.66 729.32 M 898.96 723.33 1070 723.33 M 1070 717.35 901.44 717.35 M 903.91 711.36 1070 711.36 M 1070 705.38 904 705.38 M 904 699.39 1070 699.39 M 1070 693.41 904 693.41 M 904 687.42 1070 687.42 M 1070 681.44 904 681.44 M 904 675.45 1070 675.45 M 1070 669.47 904 669.47 M 904 663.48 1070 663.48 M 1070 657.5 904 657.5 M 904 651.51 1070 651.51 M 1070 645.53 904 645.53 M 902.63 639.54 1070 639.54 M 1070 633.56 1038.58 633.56 M 1053.03 627.57 1070 627.57 M 1070 621.59 1063.51 621.59 M 1069.49 615.6 1070 615.6 M 1069.01 489.91 1070 489.91 M 1070 483.93 1063.02 483.93 M 1070 477.94 1051.85 477.94 M 1037.41 471.96 1070 471.96 M 1070 465.97 686 465.97 M 686 459.99 1070 459.99 M 1070 454 686 454 M 686 448.02 1070 448.02 M 1070 442.03 686 442.03 M 686 436.05 1070 436.05 M 1070 430.06 686 430.06 M 686 424.08 1070 424.08 M 1070 418.09 686 418.09 M 686 412.11 1070 412.11 M 1070 406.12 686 406.12 M 686 400.14 1070 400.14 M 1070 394.15 686 394.15 M 690.65 388.17 835.07 388.17 M 831.75 386.47 839.04 390.19 846.82 392.72 854.91 394 856 394 856 306 862 306 911 306 911 346.09 909.72 354.18 907.19 361.96 903.47 369.25 898.66 375.88 892.88 381.66 886.25 386.47 878.96 390.19 871.18 392.72 863.09 394 862 394 862 306 862 300 911 300 911 259.91 909.72 251.82 907.19 244.04 903.47 236.75 898.66 230.12 892.88 224.34 886.25 219.53 878.96 215.81 871.18 213.28 863.09 212 862 212 862 300 856 300 856 212 854.91 212 846.82 213.28 839.04 215.81 831.75 219.53 825.12 224.34 819.34 230.12 814.53 236.75 810.81 244.04 808.28 251.82 807 259.91 807 300 856 300 856 306 807 306 807 346.09 808.28 354.18 810.81 361.96 814.53 369.25 819.34 375.88 825.12 381.66 831.75 386.47 M 825.84 382.18 697.19 382.18 M 703.17 376.2 819.66 376.2 M 815.22 370.21 707.76 370.21 M 710.24 364.23 811.96 364.23 M 809.6 358.24 712.72 358.24 M 715 352.26 807.98 352.26 M 807.03 346.27 715 346.27 M 715 340.29 807 340.29 M 807 334.3 715 334.3 M 715 328.32 807 328.32 M 807 322.33 715 322.33 M 715 316.34 807 316.34 M 807 310.36 715 310.36 M 715 304.37 856 304.37 M 856 298.39 862 298.39 M 862 304.37 1070 304.37 M 1070 298.39 911 298.39 M 911 292.4 1070 292.4 M 1070 286.42 911 286.42 M 911 280.43 1070 280.43 M 1070 274.45 911 274.45 M 911 268.46 1070 268.46 M 1070 262.48 911 262.48 M 910.46 256.49 1070 256.49 M 1070 250.51 909.29 250.51 M 907.35 244.52 1070 244.52 M 1070 238.54 904.39 238.54 M 900.43 232.55 1070 232.55 M 1070 226.57 895.11 226.57 M 887.71 220.58 1070 220.58 M 1070 214.6 875.23 214.6 M 862 214.6 856 214.6 M 856 220.58 862 220.58 M 862 226.57 856 226.57 M 856 232.55 862 232.55 M 862 238.54 856 238.54 M 856 244.52 862 244.52 M 862 250.51 856 250.51 M 856 256.49 862 256.49 M 862 262.48 856 262.48 M 856 268.46 862 268.46 M 862 274.45 856 274.45 M 856 280.43 862 280.43 M 862 286.42 856 286.42 M 856 292.4 862 292.4 M 862 310.36 856 310.36 M 856 316.34 862 316.34 M 862 322.33 856 322.33 M 856 328.32 862 328.32 M 862 334.3 856 334.3 M 856 340.29 862 340.29 M 862 346.27 856 346.27 M 856 352.26 862 352.26 M 862 358.24 856 358.24 M 856 364.23 862 364.23 M 862 370.21 856 370.21 M 856 376.2 862 376.2 M 862 382.18 856 382.18 M 856 388.17 862 388.17 M 882.93 388.17 1070 388.17 M 1070 382.18 892.16 382.18 M 898.34 376.2 1070 376.2 M 1070 370.21 902.78 370.21 M 906.04 364.23 1070 364.23 M 1070 358.24 908.4 358.24 M 910.02 352.26 1070 352.26 M 1070 346.27 910.97 346.27 M 911 340.29 1070 340.29 M 1070 334.3 911 334.3 M 911 328.32 1070 328.32 M 1070 322.33 911 322.33 M 911 316.34 1070 316.34 M 1070 310.36 911 310.36 M 842.77 214.6 682.84 214.6 M 693.95 220.58 830.29 220.58 M 822.89 226.57 699.94 226.57 M 705.92 232.55 817.57 232.55 M 813.61 238.54 708.9 238.54 M 711.38 244.52 810.65 244.52 M 808.71 250.51 713.86 250.51 M 715 256.49 807.54 256.49 M 807 262.48 715 262.48 M 715 268.46 807 268.46 M 807 274.45 715 274.45 M 715 280.43 807 280.43 M 807 286.42 715 286.42 M 715 292.4 807 292.4 M 807 298.39 715 298.39 M 686 471.96 988.59 471.96 M 974.15 477.94 686 477.94 M 686 483.93 962.98 483.93 M 956.99 489.91 882.9 489.91 M 888.88 495.9 951.01 495.9 M 945.02 501.88 894.87 501.88 M 900.85 507.87 940.54 507.87 M 938.06 513.85 904 513.85 M 904 519.84 935.58 519.84 M 933.11 525.82 904 525.82 M 904 531.81 930.63 531.81 M 928.79 537.79 904 537.79 M 904 543.78 928.79 543.78 M 928.79 549.76 899.22 549.76 M 893.23 555.75 928.79 555.75 M 928.79 561.73 887.25 561.73 M 881.26 567.72 928.79 567.72 M 930.43 573.7 588 573.7 M 588 567.72 844.74 567.72 M 838.75 561.73 588 561.73 M 593.23 555.75 832.77 555.75 M 831.13 501.88 697.24 501.88 M 691.25 495.9 837.12 495.9 M 843.1 489.91 686 489.91 M 656.45 531.81 604 531.81 M 604 537.79 662.44 537.79 M 668.42 543.78 604 543.78 M 599.22 549.76 675.22 549.76 M 650.47 525.82 604 525.82 M 604 519.84 644.48 519.84 M 639.26 513.85 604 513.85 M 600.85 507.87 636.79 507.87 M 636 501.88 594.87 501.88 M 588.88 495.9 636 495.9 M 636 489.91 582.9 489.91 M 588 579.69 932.9 579.69 M 935.38 585.68 588 585.68 M 588 591.66 937.86 591.66 M 940.34 597.65 588 597.65 M 588 603.63 944.54 603.63 M 950.52 609.62 588 609.62 M 588 615.6 641.32 615.6 M 634.43 621.59 588 621.59 M 588 627.57 628.45 627.57 M 625.85 633.56 588 633.56 M 588 639.54 623.37 639.54 M 622 645.53 590.88 645.53 M 596.87 651.51 622 651.51 M 622 657.5 602.85 657.5 M 608.84 663.48 622 663.48 M 622 669.47 614.82 669.47 M 620.81 675.45 622 675.45 M 597.98 723.33 498.96 723.33 M 501.44 717.35 591.99 717.35 M 586.01 711.36 503.91 711.36 M 504 705.38 580.02 705.38 M 574.04 699.39 504 699.39 M 504 693.41 568.05 693.41 M 562.07 687.42 504 687.42 M 504 681.44 556.08 681.44 M 550.1 675.45 504 675.45 M 504 669.47 544.11 669.47 M 540.28 663.48 504 663.48 M 504 657.5 538 657.5 M 538 651.51 504 651.51 M 504 645.53 538 645.53 M 538 639.54 502.63 639.54 M 500.15 633.56 538 633.56 M 538 627.57 497.55 627.57 M 491.57 621.59 538 621.59 M 538 603.63 388 603.63 M 388 597.65 538 597.65 M 538 591.66 388 591.66 M 388 585.68 538 585.68 M 538 579.69 388 579.69 M 388 573.7 538 573.7 M 494.66 729.32 631.34 729.32 M 637.32 735.3 488.68 735.3 M 477.7 741.29 648.3 741.29 M 677.7 741.29 755.58 741.29 M 759.16 742 751.62 740.5 744.53 737.56 738.14 733.29 732.71 727.86 728.44 721.47 725.5 714.38 724 706.84 724 706 760 706 760 742 759.16 742 M 760 741.29 766 741.29 M 766 742 766 706 760 706 760 700 724 700 724 647.16 725.5 639.62 728.44 632.53 732.71 626.14 738.14 620.71 744.53 616.44 751.62 613.5 759.16 612 760 612 760 700 766 700 766 706 802 706 802 706.84 800.5 714.38 797.56 721.47 793.29 727.86 787.86 733.29 781.47 737.56 774.38 740.5 766.84 742 766 742 M 770.42 741.29 848.3 741.29 M 837.32 735.3 784.85 735.3 M 791.84 729.32 831.34 729.32 M 827.04 723.33 796.32 723.33 M 799.27 717.35 824.56 717.35 M 822.09 711.36 801.1 711.36 M 802 700 766 700 766 612 766.84 612 774.38 613.5 781.47 616.44 787.86 620.71 793.29 626.14 797.56 632.53 800.5 639.62 802 647.16 802 700 M 802 699.39 822 699.39 M 822 693.41 802 693.41 M 802 687.42 822 687.42 M 822 681.44 802 681.44 M 802 675.45 822 675.45 M 822 669.47 802 669.47 M 802 663.48 822 663.48 M 822 657.5 802 657.5 M 802 651.51 822 651.51 M 822 645.53 801.68 645.53 M 800.47 639.54 823.37 639.54 M 825.85 633.56 797.99 633.56 M 794.25 627.57 828.45 627.57 M 834.43 621.59 788.74 621.59 M 779.45 615.6 841.32 615.6 M 822 705.38 766 705.38 M 766 711.36 760 711.36 M 760 705.38 704 705.38 M 703.91 711.36 724.9 711.36 M 726.73 717.35 701.44 717.35 M 698.96 723.33 729.68 723.33 M 734.16 729.32 694.66 729.32 M 688.68 735.3 741.15 735.3 M 724 699.39 704 699.39 M 704 693.41 724 693.41 M 724 687.42 704 687.42 M 704 681.44 724 681.44 M 724 675.45 704 675.45 M 704 669.47 724 669.47 M 724 663.48 704 663.48 M 704 657.5 724 657.5 M 724 651.51 704 651.51 M 704 645.53 724.32 645.53 M 725.53 639.54 702.63 639.54 M 700.15 633.56 728.01 633.56 M 731.75 627.57 697.55 627.57 M 691.57 621.59 737.26 621.59 M 746.55 615.6 684.68 615.6 M 760 615.6 766 615.6 M 766 621.59 760 621.59 M 760 627.57 766 627.57 M 766 633.56 760 633.56 M 760 639.54 766 639.54 M 766 645.53 760 645.53 M 760 651.51 766 651.51 M 766 657.5 760 657.5 M 760 663.48 766 663.48 M 766 669.47 760 669.47 M 760 675.45 766 675.45 M 766 681.44 760 681.44 M 760 687.42 766 687.42 M 766 693.41 760 693.41 M 760 699.39 766 699.39 M 766 717.35 760 717.35 M 760 723.33 766 723.33 M 766 729.32 760 729.32 M 760 735.3 766 735.3 M 884.68 615.6 956.51 615.6 M 962.49 621.59 891.57 621.59 M 897.55 627.57 972.97 627.57 M 987.42 633.56 900.15 633.56 M 1006.62 789.17 1070 789.17 M 1070 795.15 1015.97 795.15 M 1021.95 801.14 1070 801.14 M 1070 783.18 56 783.18 M 56 777.2 1070 777.2 M 1070 771.21 56 771.21 M 56 765.23 1070 765.23 M 1070 759.24 56 759.24 M 56 753.26 1070 753.26 M 1061.99 124.82 64.01 124.82 M 67.47 118.84 1058.53 118.84 M 1052.77 112.85 73.23 112.85 M 79.88 106.87 1046.12 106.87 M 1035.75 100.88 90.25 100.88 M 88.59 471.96 56 471.96 M 56 477.94 74.15 477.94 M 62.98 483.93 56 483.93 M 56 489.91 56.99 489.91 M 56 615.6 56.51 615.6 M 56 621.59 62.49 621.59 M 56 627.57 72.97 627.57 M 87.42 633.56 56 633.56 M 56 639.54 225.53 639.54 M 224.32 645.53 56 645.53 M 56 651.51 224 651.51 M 224 657.5 56 657.5 M 56 663.48 224 663.48 M 224 669.47 56 669.47 M 56 675.45 224 675.45 M 224 681.44 56 681.44 M 56 687.42 224 687.42 M 224 693.41 56 693.41 M 56 699.39 224 699.39 M 224.9 711.36 56 711.36 M 56 705.38 260 705.38 M 260 711.36 266 711.36 M 266 705.38 322 705.38 M 322.09 711.36 301.1 711.36 M 299.27 717.35 324.56 717.35 M 327.04 723.33 296.32 723.33 M 291.84 729.32 331.34 729.32 M 337.32 735.3 284.85 735.3 M 302 700 266 700 266 612 266.84 612 274.38 613.5 281.47 616.44 287.86 620.71 293.29 626.14 297.56 632.53 300.5 639.62 302 647.16 302 700 M 302 699.39 322 699.39 M 322 693.41 302 693.41 M 302 687.42 322 687.42 M 322 681.44 302 681.44 M 302 675.45 322 675.45 M 322 669.47 302 669.47 M 302 663.48 322 663.48 M 322 657.5 302 657.5 M 302 651.51 322 651.51 M 322 645.53 301.68 645.53 M 300.47 639.54 323.37 639.54 M 325.85 633.56 297.99 633.56 M 294.25 627.57 328.45 627.57 M 334.43 621.59 288.74 621.59 M 279.45 615.6 338 615.6 M 338 609.62 175.48 609.62 M 169.49 615.6 246.55 615.6 M 237.26 621.59 163.51 621.59 M 153.03 627.57 231.75 627.57 M 228.01 633.56 138.58 633.56 M 181.46 603.63 338 603.63 M 338 597.65 185.66 597.65 M 188.14 591.66 338 591.66 M 338 585.68 190.62 585.68 M 193.1 579.69 338 579.69 M 388 567.72 444.74 567.72 M 438.75 561.73 389.62 561.73 M 395.61 555.75 432.77 555.75 M 266 615.6 260 615.6 M 260 621.59 266 621.59 M 266 627.57 260 627.57 M 260 633.56 266 633.56 M 266 639.54 260 639.54 M 260 645.53 266 645.53 M 266 651.51 260 651.51 M 260 657.5 266 657.5 M 266 663.48 260 663.48 M 260 669.47 266 669.47 M 266 675.45 260 675.45 M 260 681.44 266 681.44 M 266 687.42 260 687.42 M 260 693.41 266 693.41 M 266 699.39 260 699.39 M 260 717.35 266 717.35 M 266 723.33 260 723.33 M 260 729.32 266 729.32 M 266 735.3 260 735.3 M 241.15 735.3 56 735.3 M 56 729.32 234.16 729.32 M 229.68 723.33 56 723.33 M 56 717.35 226.73 717.35 M 119.38 789.17 56 789.17 M 56 795.15 110.03 795.15 M 104.05 801.14 56 801.14" fill="none" stroke-width="6"/><use xlink:href="#nTcQNEQcYhQE07DTliP1_pad-21" x="113" y="553"/><use xlink:href="#nTcQNEQcYhQE07DTliP1_pad-21" x="113" y="2003"/><use xlink:href="#nTcQNEQcYhQE07DTliP1_pad-21" x="1013" y="2003"/><use xlink:href="#nTcQNEQcYhQE07DTliP1_pad-21" x="1013" y="553"/></g><g id="zzEI75UuONLH9Ysi0QU5_bottom_soldermask"><use xlink:href="#qAvXtFStwFGVJawbmgIr_pad-10" x="913" y="1153"/><use xlink:href="#qAvXtFStwFGVJawbmgIr_pad-10" x="913" y="1553"/><use xlink:href="#qAvXtFStwFGVJawbmgIr_pad-11" x="363" y="1553"/><use xlink:href="#qAvXtFStwFGVJawbmgIr_pad-11" x="363" y="1153"/><path d="M 363 1055 363 1003 M 263 1003 263 1055 M 263 703 263 651 M 363 651 363 703 M 463 703 463 651 M 463 1003 463 1055 M 663 1055 663 1003 M 763 1003 763 1055 M 863 1055 863 1003 M 863 703 863 651 M 763 651 763 703 M 663 703 663 651" fill="none" stroke-width="60"/><use xlink:href="#qAvXtFStwFGVJawbmgIr_pad-13" x="563" y="528"/><use xlink:href="#qAvXtFStwFGVJawbmgIr_pad-13" x="463" y="528"/><use xlink:href="#qAvXtFStwFGVJawbmgIr_pad-13" x="263" y="528"/><use xlink:href="#qAvXtFStwFGVJawbmgIr_pad-13" x="238" y="1153"/><use xlink:href="#qAvXtFStwFGVJawbmgIr_pad-13" x="113" y="1153"/><use xlink:href="#qAvXtFStwFGVJawbmgIr_pad-13" x="113" y="1453"/><use xlink:href="#qAvXtFStwFGVJawbmgIr_pad-13" x="238" y="1453"/><use xlink:href="#qAvXtFStwFGVJawbmgIr_pad-13" x="563" y="1553"/><use xlink:href="#qAvXtFStwFGVJawbmgIr_pad-13" x="713" y="1553"/><use xlink:href="#qAvXtFStwFGVJawbmgIr_pad-13" x="713" y="1153"/><use xlink:href="#qAvXtFStwFGVJawbmgIr_pad-13" x="563" y="1153"/><use xlink:href="#qAvXtFStwFGVJawbmgIr_pad-13" x="863" y="528"/><path d="M 663 1923 663 1983 M 563 1983 563 1923 M 463 1923 463 1983" fill="none" stroke-width="68"/><path d="M 362 2314 362 2392 M 164 2392 164 2314 M 764 2314 764 2392 M 962 2392 962 2314 M 859 342 859 264 M 661 264 661 342 M 465 342 465 264 M 267 264 267 342" fill="none" stroke-width="86"/><use xlink:href="#qAvXtFStwFGVJawbmgIr_pad-16" x="113" y="553"/><use xlink:href="#qAvXtFStwFGVJawbmgIr_pad-16" x="113" y="2003"/><use xlink:href="#qAvXtFStwFGVJawbmgIr_pad-16" x="1013" y="2003"/><use xlink:href="#qAvXtFStwFGVJawbmgIr_pad-16" x="1013" y="553"/></g><g id="zzEI75UuONLH9Ysi0QU5_bottom_silkscreen"><path d="M 13 153 13 2503 13.03 2505.42 13.12 2507.83 13.26 2510.24 13.47 2512.65 13.73 2515.05 14.05 2517.45 14.43 2519.84 14.86 2522.21 15.36 2524.58 15.91 2526.93 16.51 2529.27 17.18 2531.59 17.89 2533.9 18.67 2536.19 19.5 2538.46 20.38 2540.71 21.32 2542.94 22.31 2545.14 23.36 2547.32 24.45 2549.47 25.6 2551.6 26.8 2553.7 28.05 2555.76 29.35 2557.8 30.7 2559.81 32.1 2561.78 33.54 2563.72 35.03 2565.62 36.57 2567.48 38.15 2569.31 39.77 2571.1 41.44 2572.85 43.15 2574.56 44.9 2576.23 46.69 2577.85 48.52 2579.43 50.38 2580.97 52.28 2582.46 54.22 2583.9 56.19 2585.3 58.2 2586.65 60.24 2587.95 62.3 2589.2 64.4 2590.4 66.53 2591.55 68.68 2592.64 70.86 2593.69 73.06 2594.68 75.29 2595.62 77.54 2596.5 79.81 2597.33 82.1 2598.11 84.41 2598.82 86.73 2599.49 89.07 2600.09 91.42 2600.64 93.79 2601.14 96.16 2601.57 98.55 2601.95 100.95 2602.27 103.35 2602.53 105.76 2602.74 108.17 2602.88 110.58 2602.97 113 2603 1013 2603 1015.42 2602.97 1017.83 2602.88 1020.24 2602.74 1022.65 2602.53 1025.05 2602.27 1027.45 2601.95 1029.84 2601.57 1032.21 2601.14 1034.58 2600.64 1036.93 2600.09 1039.27 2599.49 1041.59 2598.82 1043.9 2598.11 1046.19 2597.33 1048.46 2596.5 1050.71 2595.62 1052.94 2594.68 1055.14 2593.69 1057.32 2592.64 1059.47 2591.55 1061.6 2590.4 1063.7 2589.2 1065.76 2587.95 1067.8 2586.65 1069.81 2585.3 1071.78 2583.9 1073.72 2582.46 1075.62 2580.97 1077.48 2579.43 1079.31 2577.85 1081.1 2576.23 1082.85 2574.56 1084.56 2572.85 1086.23 2571.1 1087.85 2569.31 1089.43 2567.48 1090.97 2565.62 1092.46 2563.72 1093.9 2561.78 1095.3 2559.81 1096.65 2557.8 1097.95 2555.76 1099.2 2553.7 1100.4 2551.6 1101.55 2549.47 1102.64 2547.32 1103.69 2545.14 1104.68 2542.94 1105.62 2540.71 1106.5 2538.46 1107.33 2536.19 1108.11 2533.9 1108.82 2531.59 1109.49 2529.27 1110.09 2526.93 1110.64 2524.58 1111.14 2522.21 1111.57 2519.84 1111.95 2517.45 1112.27 2515.05 1112.53 2512.65 1112.74 2510.24 1112.88 2507.83 1112.97 2505.42 1113 2503 1113 153 1112.97 150.58 1112.88 148.17 1112.74 145.76 1112.53 143.35 1112.27 140.95 1111.95 138.55 1111.57 136.16 1111.14 133.79 1110.64 131.42 1110.09 129.07 1109.49 126.73 1108.82 124.41 1108.11 122.1 1107.33 119.81 1106.5 117.54 1105.62 115.29 1104.68 113.06 1103.69 110.86 1102.64 108.68 1101.55 106.53 1100.4 104.4 1099.2 102.3 1097.95 100.24 1096.65 98.2 1095.3 96.19 1093.9 94.22 1092.46 92.28 1090.97 90.38 1089.43 88.52 1087.85 86.69 1086.23 84.9 1084.56 83.15 1082.85 81.44 1081.1 79.77 1079.31 78.15 1077.48 76.57 1075.62 75.03 1073.72 73.54 1071.78 72.1 1069.81 70.7 1067.8 69.35 1065.76 68.05 1063.7 66.8 1061.6 65.6 1059.47 64.45 1057.32 63.36 1055.14 62.31 1052.94 61.32 1050.71 60.38 1048.46 59.5 1046.19 58.67 1043.9 57.89 1041.59 57.18 1039.27 56.51 1036.93 55.91 1034.58 55.36 1032.21 54.86 1029.84 54.43 1027.45 54.05 1025.05 53.73 1022.65 53.47 1020.24 53.26 1017.83 53.12 1015.42 53.03 1013 53 113 53 110.58 53.03 108.17 53.12 105.76 53.26 103.35 53.47 100.95 53.73 98.55 54.05 96.16 54.43 93.79 54.86 91.42 55.36 89.07 55.91 86.73 56.51 84.41 57.18 82.1 57.89 79.81 58.67 77.54 59.5 75.29 60.38 73.06 61.32 70.86 62.31 68.68 63.36 66.53 64.45 64.4 65.6 62.3 66.8 60.24 68.05 58.2 69.35 56.19 70.7 54.22 72.1 52.28 73.54 50.38 75.03 48.52 76.57 46.69 78.15 44.9 79.77 43.15 81.44 41.44 83.15 39.77 84.9 38.15 86.69 36.57 88.52 35.03 90.38 33.54 92.28 32.1 94.22 30.7 96.19 29.35 98.2 28.05 100.24 26.8 102.3 25.6 104.4 24.45 106.53 23.36 108.68 22.31 110.86 21.32 113.06 20.38 115.29 19.5 117.54 18.67 119.81 17.89 122.1 17.18 124.41 16.51 126.73 15.91 129.07 15.36 131.42 14.86 133.79 14.43 136.16 14.05 138.55 13.73 140.95 13.47 143.35 13.26 145.76 13.12 148.17 13.03 150.58 13 153 M 138 828 113 853 138 878 988 878 1013 853 988 828 138 828 M 263 2278 288 2303 288 2503 263 2528 238 2503 238 2303 263 2278 M 838 2303 863 2278 888 2303 888 2503 863 2528 838 2503 838 2303" fill="none" stroke-width="0"/><path d="M 613 2028 613 1878 M 513 1878 513 2028" fill="none" stroke-width="50"/><path d="M 363 1503 513 1203 213 1203 363 1503 M 613 1203 913 1203 763 1503 613 1203" fill="none" stroke-width="20"/><path d="M 388 1278 363 1278 363 1253 388 1278 M 363 1253 388 1328 338 1303 363 1403 M 352.83 199 376.17 173.33 M 366.83 182.67 352.83 157 M 343.52 149 343.52 107 324.85 107 M 329.52 130.33 343.52 130.33 M 343.52 149 324.85 149 M 363.85 107 382.52 107 382.52 149 M 376.17 157 376.17 199 M 397.7 199 407.03 199 407.64 198.98 408.25 198.92 408.85 198.82 409.44 198.68 410.03 198.5 410.6 198.29 411.16 198.04 411.7 197.75 412.21 197.43 412.71 197.07 413.18 196.68 413.63 196.27 414.04 195.82 414.43 195.35 414.79 194.85 415.11 194.33 415.4 193.8 415.65 193.24 415.86 192.67 416.04 192.08 416.18 191.49 416.28 190.89 416.34 190.28 416.36 189.67 416.36 166.33 416.34 165.74 416.29 165.16 416.19 164.58 416.07 164.01 415.9 163.45 415.7 162.9 415.47 162.36 415.21 161.84 414.91 161.33 414.58 160.85 414.22 160.38 413.83 159.94 413.42 159.53 412.98 159.14 412.51 158.78 412.03 158.45 411.52 158.15 411 157.89 410.46 157.66 409.91 157.46 409.35 157.29 408.78 157.17 408.2 157.07 407.62 157.02 407.03 157 397.7 157 M 407.32 149 407.32 118.67 M 407.31 118.67 407.33 118 407.39 117.34 407.48 116.68 407.61 116.03 407.78 115.38 407.99 114.75 408.23 114.13 408.51 113.52 408.82 112.93 409.16 112.36 409.54 111.81 409.95 111.28 410.38 110.78 410.85 110.3 411.34 109.85 411.85 109.43 412.39 109.04 412.95 108.68 413.53 108.35 414.13 108.05 414.75 107.8 415.37 107.57 416.01 107.38 416.66 107.23 417.32 107.12 417.98 107.04 418.65 107 419.31 107 419.98 107.04 420.64 107.12 421.3 107.23 421.95 107.38 422.59 107.57 423.21 107.8 423.83 108.05 424.43 108.35 425.01 108.68 425.57 109.04 426.11 109.43 426.62 109.85 427.11 110.3 427.58 110.78 428.01 111.28 428.42 111.81 428.8 112.36 429.14 112.93 429.45 113.52 429.73 114.13 429.97 114.75 430.18 115.38 430.35 116.03 430.48 116.68 430.57 117.34 430.63 118 430.65 118.67 430.65 149 M 435.5 157 449.5 199 463.5 157 M 466.98 149 478.65 149 478.65 107 466.98 107 466.33 107.02 465.67 107.07 465.03 107.16 464.38 107.29 463.75 107.46 463.13 107.65 462.51 107.89 461.92 108.16 461.34 108.46 460.77 108.79 460.23 109.15 459.7 109.55 459.2 109.97 458.73 110.42 458.28 110.89 457.86 111.39 457.46 111.92 457.1 112.46 456.77 113.02 456.47 113.61 456.2 114.2 455.96 114.82 455.77 115.44 455.6 116.07 455.47 116.72 455.38 117.36 455.33 118.02 455.31 118.67 M 455.32 118.67 455.32 137.33 M 455.31 137.33 455.33 138.01 455.39 138.68 455.49 139.36 455.62 140.02 455.8 140.68 456.01 141.32 456.26 141.95 456.55 142.57 456.87 143.17 457.23 143.74 457.62 144.3 458.04 144.83 458.49 145.34 458.97 145.82 459.48 146.27 460.01 146.69 460.57 147.08 461.15 147.44 461.74 147.76 462.36 148.05 462.99 148.3 463.63 148.51 464.29 148.69 464.95 148.82 465.63 148.92 466.3 148.98 466.98 149 M 460 167.5 439 167.5 M 484.33 157 484.33 199 M 484.33 180.33 507.67 180.33 M 507.67 199 507.67 157 M 501.81 137.33 501.83 138 501.89 138.66 501.98 139.32 502.11 139.97 502.28 140.62 502.49 141.25 502.73 141.87 503.01 142.48 503.32 143.07 503.66 143.64 504.04 144.19 504.45 144.72 504.88 145.22 505.35 145.7 505.84 146.15 506.35 146.57 506.89 146.96 507.45 147.32 508.03 147.65 508.63 147.95 509.25 148.2 509.87 148.43 510.51 148.62 511.16 148.77 511.82 148.88 512.48 148.96 513.15 149 513.81 149 514.48 148.96 515.14 148.88 515.8 148.77 516.45 148.62 517.09 148.43 517.71 148.2 518.33 147.95 518.93 147.65 519.51 147.32 520.07 146.96 520.61 146.57 521.12 146.15 521.61 145.7 522.08 145.22 522.51 144.72 522.92 144.19 523.3 143.64 523.64 143.07 523.95 142.48 524.23 141.87 524.47 141.25 524.68 140.62 524.85 139.97 524.98 139.32 525.07 138.66 525.13 138 525.15 137.33 525.15 118.67 525.13 118 525.07 117.34 524.98 116.68 524.85 116.03 524.68 115.38 524.47 114.75 524.23 114.13 523.95 113.52 523.64 112.93 523.3 112.36 522.92 111.81 522.51 111.28 522.08 110.78 521.61 110.3 521.12 109.85 520.61 109.43 520.07 109.04 519.51 108.68 518.93 108.35 518.33 108.05 517.71 107.8 517.09 107.57 516.45 107.38 515.8 107.23 515.14 107.12 514.48 107.04 513.81 107 513.15 107 512.48 107.04 511.82 107.12 511.16 107.23 510.51 107.38 509.87 107.57 509.25 107.8 508.63 108.05 508.03 108.35 507.45 108.68 506.89 109.04 506.35 109.43 505.84 109.85 505.35 110.3 504.88 110.78 504.45 111.28 504.04 111.81 503.66 112.36 503.32 112.93 503.01 113.52 502.73 114.13 502.49 114.75 502.28 115.38 502.11 116.03 501.98 116.68 501.89 117.34 501.83 118 501.81 118.67 M 501.82 118.67 501.82 137.33 M 532.33 157 532.33 199 M 555.67 199 532.33 157 M 548.98 149 548.98 107 M 562.98 125.67 548.98 149 M 555.67 157 555.67 199 M 580.33 199 580.33 157 M 576.98 149 562.98 125.67 M 576.98 107 576.98 149 M 580.33 180.33 603.67 180.33 M 603.67 199 603.67 157 M 622.18 149 631.51 149 M 633.53 157 624.2 157 M 633.53 157 634.12 157.02 634.7 157.07 635.28 157.17 635.85 157.29 636.41 157.46 636.96 157.66 637.5 157.89 638.02 158.15 638.53 158.45 639.01 158.78 639.48 159.14 639.92 159.53 640.33 159.94 640.72 160.38 641.08 160.85 641.41 161.33 641.71 161.84 641.97 162.36 642.2 162.9 642.4 163.45 642.57 164.01 642.69 164.58 642.79 165.16 642.84 165.74 642.86 166.33 642.86 189.67 642.84 190.28 642.78 190.89 642.68 191.49 642.54 192.08 642.36 192.67 642.15 193.24 641.9 193.8 641.61 194.33 641.29 194.85 640.93 195.35 640.54 195.82 640.13 196.27 639.68 196.68 639.21 197.07 638.71 197.43 638.2 197.75 637.66 198.04 637.1 198.29 636.53 198.5 635.94 198.68 635.35 198.82 634.75 198.92 634.14 198.98 633.53 199 624.2 199 M 631.51 149 632.12 148.98 632.73 148.92 633.33 148.82 633.92 148.68 634.51 148.5 635.08 148.29 635.64 148.04 636.18 147.75 636.69 147.43 637.19 147.07 637.66 146.68 638.11 146.27 638.52 145.82 638.91 145.35 639.27 144.85 639.59 144.33 639.88 143.8 640.13 143.24 640.34 142.67 640.52 142.08 640.66 141.49 640.76 140.89 640.82 140.28 640.84 139.67 M 640.85 139.67 640.85 116.33 M 640.84 116.33 640.82 115.74 640.77 115.16 640.67 114.58 640.55 114.01 640.38 113.45 640.18 112.9 639.95 112.36 639.69 111.84 639.39 111.33 639.06 110.85 638.7 110.38 638.31 109.94 637.9 109.53 637.46 109.14 636.99 108.78 636.51 108.45 636 108.15 635.48 107.89 634.94 107.66 634.39 107.46 633.83 107.29 633.26 107.17 632.68 107.07 632.1 107.02 631.51 107 622.18 107 M 659.98 107 673.98 149 687.98 107 M 684.48 117.5 663.48 117.5 M 673 157 673 199 M 684.67 199 661.33 199 M 704.5 167.5 725.5 167.5 M 729 157 715 199 701 157 M 705.32 149 714.65 149 M 709.98 149 709.98 107 M 705.32 107 714.65 107 M 733.88 107 743.21 125.67 M 745.55 125.67 757.21 125.67 M 745.55 125.66 744.88 125.68 744.22 125.74 743.56 125.83 742.91 125.96 742.26 126.13 741.63 126.34 741.01 126.58 740.4 126.86 739.81 127.17 739.24 127.51 738.69 127.89 738.16 128.3 737.66 128.73 737.18 129.2 736.73 129.69 736.31 130.2 735.92 130.74 735.56 131.3 735.23 131.88 734.93 132.48 734.68 133.1 734.45 133.72 734.26 134.36 734.11 135.01 734 135.67 733.92 136.33 733.88 137 733.88 137.66 733.92 138.33 734 138.99 734.11 139.65 734.26 140.3 734.45 140.94 734.68 141.56 734.93 142.18 735.23 142.78 735.56 143.36 735.92 143.92 736.31 144.46 736.73 144.97 737.18 145.46 737.66 145.93 738.16 146.36 738.69 146.77 739.24 147.15 739.81 147.49 740.4 147.8 741.01 148.08 741.63 148.32 742.26 148.53 742.91 148.7 743.56 148.83 744.22 148.92 744.88 148.98 745.55 149 757.21 149 757.21 107 M 749.83 157 749.83 199 M 749.83 180.33 773.17 180.33 M 773.17 199 773.17 157 M 777.82 149 801.15 149 M 789.48 149 789.48 107" fill="none" stroke-width="8"/><path d="M 758 1253 758.02 1253.44 758.08 1253.88 758.18 1254.31 758.31 1254.73 758.48 1255.14 758.69 1255.53 758.93 1255.9 759.2 1256.25 759.5 1256.57 759.83 1256.87 760.19 1257.13 760.56 1257.37 760.96 1257.56 761.37 1257.73 761.8 1257.85 762.23 1257.94 762.67 1257.99 763.11 1258 763.55 1257.97 763.99 1257.9 764.42 1257.79 764.84 1257.65 765.24 1257.47 765.63 1257.25 765.99 1257.01 766.33 1256.73 766.65 1256.42 766.94 1256.08 767.2 1255.72 767.42 1255.34 767.61 1254.94 767.76 1254.52 767.88 1254.1 767.96 1253.66 768 1253.22 768 1252.78 767.96 1252.34 767.88 1251.9 767.76 1251.48 767.61 1251.06 767.42 1250.66 767.2 1250.28 766.94 1249.92 766.65 1249.58 766.33 1249.27 765.99 1248.99 765.63 1248.75 765.24 1248.53 764.84 1248.35 764.42 1248.21 763.99 1248.1 763.55 1248.03 763.11 1248 762.67 1248.01 762.23 1248.06 761.8 1248.15 761.37 1248.27 760.96 1248.44 760.56 1248.63 760.19 1248.87 759.83 1249.13 759.5 1249.43 759.2 1249.75 758.93 1250.1 758.69 1250.47 758.48 1250.86 758.31 1251.27 758.18 1251.69 758.08 1252.12 758.02 1252.56 758 1253 M 763 1278 763 1403" fill="none" stroke-width="10"/><path d="M 729.84 1671 716.73 1671 716.02 1671.02 715.31 1671.08 714.61 1671.17 713.91 1671.31 713.22 1671.48 712.54 1671.69 711.88 1671.93 711.23 1672.21 710.59 1672.53 709.97 1672.88 709.37 1673.26 708.8 1673.67 708.24 1674.12 707.71 1674.59 707.21 1675.09 706.74 1675.62 706.29 1676.18 705.88 1676.75 705.5 1677.35 705.15 1677.97 704.83 1678.61 704.55 1679.26 704.31 1679.92 704.1 1680.6 703.93 1681.29 703.79 1681.99 703.7 1682.69 703.64 1683.4 703.62 1684.11 703.62 1716.89 703.64 1717.6 703.7 1718.31 703.79 1719.01 703.93 1719.71 704.1 1720.4 704.31 1721.08 704.55 1721.74 704.83 1722.39 705.15 1723.03 705.5 1723.65 705.88 1724.25 706.29 1724.82 706.74 1725.38 707.21 1725.91 707.71 1726.41 708.24 1726.88 708.8 1727.33 709.37 1727.74 709.97 1728.12 710.59 1728.47 711.23 1728.79 711.88 1729.07 712.54 1729.31 713.22 1729.52 713.91 1729.69 714.61 1729.83 715.31 1729.92 716.02 1729.98 716.73 1730 729.84 1730 M 726.67 1776 687.34 1835 M 665.13 1835 645.47 1776 625.8 1835 M 630.72 1820.25 660.22 1820.25 M 687.34 1776 726.67 1835 M 678.37 1730 658.71 1671 639.04 1730 M 643.96 1715.25 673.46 1715.25 M 616.83 1671 597.16 1730 577.5 1671 M 519.24 1700.5 519.26 1701.88 519.32 1703.26 519.42 1704.63 519.55 1706 519.73 1707.37 519.94 1708.73 520.19 1710.09 520.49 1711.43 520.81 1712.77 521.18 1714.1 521.58 1715.42 522.03 1716.72 522.5 1718.02 523.02 1719.29 523.57 1720.56 524.16 1721.81 M 522.51 1716.89 548.74 1684.11 M 547.09 1679.2 546.85 1678.56 546.58 1677.93 546.27 1677.32 545.92 1676.73 545.55 1676.16 545.14 1675.61 544.7 1675.09 544.23 1674.59 543.74 1674.12 543.22 1673.67 542.67 1673.26 542.1 1672.88 541.51 1672.53 540.91 1672.21 540.28 1671.93 539.65 1671.69 538.99 1671.48 538.33 1671.31 537.66 1671.17 536.99 1671.08 536.3 1671.02 535.62 1671 534.94 1671.02 534.25 1671.08 533.58 1671.17 532.91 1671.31 532.25 1671.48 531.59 1671.69 530.96 1671.93 530.33 1672.21 529.73 1672.53 529.14 1672.88 528.57 1673.26 528.02 1673.67 527.5 1674.12 527.01 1674.59 526.54 1675.09 526.1 1675.61 525.69 1676.16 525.32 1676.73 524.97 1677.32 524.66 1677.93 524.39 1678.56 524.15 1679.2 M 547.09 1721.8 546.85 1722.44 546.58 1723.07 546.27 1723.68 545.92 1724.27 545.55 1724.84 545.14 1725.39 544.7 1725.91 544.23 1726.41 543.74 1726.88 543.22 1727.33 542.67 1727.74 542.1 1728.12 541.51 1728.47 540.91 1728.79 540.28 1729.07 539.65 1729.31 538.99 1729.52 538.33 1729.69 537.66 1729.83 536.99 1729.92 536.3 1729.98 535.62 1730 534.94 1729.98 534.25 1729.92 533.58 1729.83 532.91 1729.69 532.25 1729.52 531.59 1729.31 530.96 1729.07 530.33 1728.79 529.73 1728.47 529.14 1728.12 528.57 1727.74 528.02 1727.33 527.5 1726.88 527.01 1726.41 526.54 1725.91 526.1 1725.39 525.69 1724.84 525.32 1724.27 524.97 1723.68 524.66 1723.07 524.39 1722.44 524.15 1721.8 M 552.01 1700.5 551.99 1699.12 551.93 1697.74 551.83 1696.37 551.7 1695 551.52 1693.63 551.31 1692.27 551.06 1690.91 550.76 1689.57 550.44 1688.23 550.07 1686.9 549.67 1685.58 549.22 1684.28 548.75 1682.98 548.23 1681.71 547.68 1680.44 547.09 1679.19 M 524.16 1679.19 523.57 1680.44 523.02 1681.71 522.5 1682.98 522.03 1684.28 521.58 1685.58 521.18 1686.9 520.81 1688.23 520.49 1689.57 520.19 1690.91 519.94 1692.27 519.73 1693.63 519.55 1695 519.42 1696.37 519.32 1697.74 519.26 1699.12 519.24 1700.5 M 552.01 1700.5 551.99 1701.88 551.93 1703.26 551.83 1704.63 551.7 1706 551.52 1707.37 551.31 1708.73 551.06 1710.09 550.76 1711.43 550.44 1712.77 550.07 1714.1 549.67 1715.42 549.22 1716.72 548.75 1718.02 548.23 1719.29 547.68 1720.56 547.09 1721.81 M 558.11 1776 577.77 1808.78 597.44 1776 597.44 1835 M 558.11 1835 558.11 1776 M 477.26 1776 496.92 1835 M 492.01 1820.25 462.51 1820.25 M 457.59 1835 477.26 1776 M 490.47 1730 457.7 1730 485.56 1697.22 M 475.72 1671 474.87 1671.02 474.02 1671.08 473.17 1671.17 472.33 1671.31 471.5 1671.48 470.67 1671.68 469.86 1671.93 469.06 1672.21 468.27 1672.53 467.49 1672.88 466.73 1673.27 465.99 1673.69 465.27 1674.14 464.57 1674.62 463.9 1675.14 463.24 1675.69 462.62 1676.26 462.01 1676.86 461.44 1677.49 460.9 1678.15 460.38 1678.82 459.9 1679.52 459.44 1680.24 459.03 1680.98 458.64 1681.74 458.29 1682.52 457.97 1683.31 457.69 1684.11 M 485.55 1697.22 486.09 1696.69 486.6 1696.13 487.08 1695.55 487.53 1694.94 487.95 1694.32 488.34 1693.68 488.71 1693.01 489.04 1692.33 489.33 1691.64 489.6 1690.93 489.83 1690.22 490.02 1689.49 490.18 1688.75 490.31 1688.01 490.4 1687.26 490.45 1686.5 490.47 1685.75 490.45 1685 490.39 1684.26 490.3 1683.52 490.17 1682.78 490 1682.05 489.79 1681.33 489.55 1680.63 489.27 1679.93 488.96 1679.25 488.62 1678.59 488.24 1677.95 487.83 1677.32 487.38 1676.72 486.91 1676.14 486.41 1675.59 485.88 1675.06 485.33 1674.56 484.75 1674.09 484.15 1673.64 483.52 1673.23 482.88 1672.85 482.22 1672.51 481.54 1672.2 480.84 1671.92 480.14 1671.68 479.42 1671.47 478.69 1671.3 477.95 1671.17 477.21 1671.08 476.47 1671.02 475.72 1671 M 428.93 1730 396.16 1730 424.02 1697.22 M 414.18 1671 413.33 1671.02 412.48 1671.08 411.63 1671.17 410.79 1671.31 409.96 1671.48 409.13 1671.68 408.32 1671.93 407.52 1672.21 406.73 1672.53 405.95 1672.88 405.19 1673.27 404.45 1673.69 403.73 1674.14 403.03 1674.62 402.36 1675.14 401.7 1675.69 401.08 1676.26 400.47 1676.86 399.9 1677.49 399.36 1678.15 398.84 1678.82 398.36 1679.52 397.9 1680.24 397.49 1680.98 397.1 1681.74 396.75 1682.52 396.43 1683.31 396.15 1684.11 M 424.01 1697.22 424.55 1696.69 425.06 1696.13 425.54 1695.55 425.99 1694.94 426.41 1694.32 426.8 1693.68 427.17 1693.01 427.5 1692.33 427.79 1691.64 428.06 1690.93 428.29 1690.22 428.48 1689.49 428.64 1688.75 428.77 1688.01 428.86 1687.26 428.91 1686.5 428.93 1685.75 428.91 1685 428.85 1684.26 428.76 1683.52 428.63 1682.78 428.46 1682.05 428.25 1681.33 428.01 1680.63 427.73 1679.93 427.42 1679.25 427.08 1678.59 426.7 1677.95 426.29 1677.32 425.84 1676.72 425.37 1676.14 424.87 1675.59 424.34 1675.06 423.79 1674.56 423.21 1674.09 422.61 1673.64 421.98 1673.23 421.34 1672.85 420.68 1672.51 420 1672.2 419.3 1671.92 418.6 1671.68 417.88 1671.47 417.15 1671.3 416.41 1671.17 415.67 1671.08 414.93 1671.02 414.18 1671 M 399.33 1776 432.1 1776 M 418.99 1802.22 399.33 1802.22 399.33 1776 M 418.99 1802.22 419.7 1802.24 420.41 1802.3 421.11 1802.39 421.81 1802.53 422.5 1802.7 423.18 1802.91 423.84 1803.15 424.49 1803.43 425.13 1803.75 425.75 1804.1 426.35 1804.48 426.92 1804.89 427.48 1805.34 428.01 1805.81 428.51 1806.31 428.98 1806.84 429.43 1807.4 429.84 1807.97 430.22 1808.57 430.57 1809.19 430.89 1809.83 431.17 1810.48 431.41 1811.14 431.62 1811.82 431.79 1812.51 431.93 1813.21 432.02 1813.91 432.08 1814.62 432.1 1815.33 432.1 1821.89 432.08 1822.6 432.02 1823.31 431.93 1824.01 431.79 1824.71 431.62 1825.4 431.41 1826.08 431.17 1826.74 430.89 1827.39 430.57 1828.03 430.22 1828.65 429.84 1829.25 429.43 1829.82 428.98 1830.38 428.51 1830.91 428.01 1831.41 427.48 1831.88 426.92 1832.33 426.35 1832.74 425.75 1833.12 425.13 1833.47 424.49 1833.79 423.84 1834.07 423.18 1834.31 422.5 1834.52 421.81 1834.69 421.11 1834.83 420.41 1834.92 419.7 1834.98 418.99 1835 399.33 1835" fill="none" stroke-width="11"/></g><g id="zzEI75UuONLH9Ysi0QU5_bottom_drill1"><use xlink:href="#oW8azKyj3EYer85hlRuN_pad-1" x="263" y="528"/><use xlink:href="#oW8azKyj3EYer85hlRuN_pad-1" x="263" y="703"/><use xlink:href="#oW8azKyj3EYer85hlRuN_pad-1" x="363" y="703"/><use xlink:href="#oW8azKyj3EYer85hlRuN_pad-1" x="463" y="703"/><use xlink:href="#oW8azKyj3EYer85hlRuN_pad-1" x="463" y="528"/><use xlink:href="#oW8azKyj3EYer85hlRuN_pad-1" x="563" y="528"/><use xlink:href="#oW8azKyj3EYer85hlRuN_pad-1" x="663" y="703"/><use xlink:href="#oW8azKyj3EYer85hlRuN_pad-1" x="763" y="703"/><use xlink:href="#oW8azKyj3EYer85hlRuN_pad-1" x="863" y="703"/><use xlink:href="#oW8azKyj3EYer85hlRuN_pad-1" x="863" y="528"/><use xlink:href="#oW8azKyj3EYer85hlRuN_pad-1" x="863" y="1003"/><use xlink:href="#oW8azKyj3EYer85hlRuN_pad-1" x="763" y="1003"/><use xlink:href="#oW8azKyj3EYer85hlRuN_pad-1" x="713" y="1153"/><use xlink:href="#oW8azKyj3EYer85hlRuN_pad-1" x="663" y="1003"/><use xlink:href="#oW8azKyj3EYer85hlRuN_pad-1" x="563" y="1153"/><use xlink:href="#oW8azKyj3EYer85hlRuN_pad-1" x="463" y="1003"/><use xlink:href="#oW8azKyj3EYer85hlRuN_pad-1" x="363" y="1003"/><use xlink:href="#oW8azKyj3EYer85hlRuN_pad-1" x="263" y="1003"/><use xlink:href="#oW8azKyj3EYer85hlRuN_pad-1" x="238" y="1153"/><use xlink:href="#oW8azKyj3EYer85hlRuN_pad-1" x="113" y="1153"/><use xlink:href="#oW8azKyj3EYer85hlRuN_pad-1" x="113" y="1453"/><use xlink:href="#oW8azKyj3EYer85hlRuN_pad-1" x="238" y="1453"/><use xlink:href="#oW8azKyj3EYer85hlRuN_pad-1" x="563" y="1553"/><use xlink:href="#oW8azKyj3EYer85hlRuN_pad-1" x="713" y="1553"/><use xlink:href="#oW8azKyj3EYer85hlRuN_pad-2" x="663" y="1953"/><use xlink:href="#oW8azKyj3EYer85hlRuN_pad-2" x="563" y="1953"/><use xlink:href="#oW8azKyj3EYer85hlRuN_pad-2" x="463" y="1953"/><use xlink:href="#oW8azKyj3EYer85hlRuN_pad-2" x="913" y="1553"/><use xlink:href="#oW8azKyj3EYer85hlRuN_pad-2" x="913" y="1153"/><use xlink:href="#oW8azKyj3EYer85hlRuN_pad-3" x="363" y="1153"/><use xlink:href="#oW8azKyj3EYer85hlRuN_pad-3" x="363" y="1553"/><use xlink:href="#oW8azKyj3EYer85hlRuN_pad-4" x="362" y="2353"/><use xlink:href="#oW8azKyj3EYer85hlRuN_pad-4" x="164" y="2353"/><use xlink:href="#oW8azKyj3EYer85hlRuN_pad-4" x="764" y="2353"/><use xlink:href="#oW8azKyj3EYer85hlRuN_pad-4" x="962" y="2353"/><use xlink:href="#oW8azKyj3EYer85hlRuN_pad-4" x="859" y="303"/><use xlink:href="#oW8azKyj3EYer85hlRuN_pad-4" x="661" y="303"/><use xlink:href="#oW8azKyj3EYer85hlRuN_pad-4" x="465" y="303"/><use xlink:href="#oW8azKyj3EYer85hlRuN_pad-4" x="267" y="303"/><use xlink:href="#oW8azKyj3EYer85hlRuN_pad-5" x="113" y="553"/><use xlink:href="#oW8azKyj3EYer85hlRuN_pad-5" x="113" y="2003"/><use xlink:href="#oW8azKyj3EYer85hlRuN_pad-5" x="1013" y="2003"/><use xlink:href="#oW8azKyj3EYer85hlRuN_pad-5" x="1013" y="553"/></g><clipPath id="zzEI75UuONLH9Ysi0QU5_bottom_outline"><path d="M 13 153 13 2503 13.03 2505.42 13.12 2507.83 13.26 2510.24 13.47 2512.65 13.73 2515.05 14.05 2517.45 14.43 2519.84 14.86 2522.21 15.36 2524.58 15.91 2526.93 16.51 2529.27 17.18 2531.59 17.89 2533.9 18.67 2536.19 19.5 2538.46 20.38 2540.71 21.32 2542.94 22.31 2545.14 23.36 2547.32 24.45 2549.47 25.6 2551.6 26.8 2553.7 28.05 2555.76 29.35 2557.8 30.7 2559.81 32.1 2561.78 33.54 2563.72 35.03 2565.62 36.57 2567.48 38.15 2569.31 39.77 2571.1 41.44 2572.85 43.15 2574.56 44.9 2576.23 46.69 2577.85 48.52 2579.43 50.38 2580.97 52.28 2582.46 54.22 2583.9 56.19 2585.3 58.2 2586.65 60.24 2587.95 62.3 2589.2 64.4 2590.4 66.53 2591.55 68.68 2592.64 70.86 2593.69 73.06 2594.68 75.29 2595.62 77.54 2596.5 79.81 2597.33 82.1 2598.11 84.41 2598.82 86.73 2599.49 89.07 2600.09 91.42 2600.64 93.79 2601.14 96.16 2601.57 98.55 2601.95 100.95 2602.27 103.35 2602.53 105.76 2602.74 108.17 2602.88 110.58 2602.97 113 2603 1013 2603 1015.42 2602.97 1017.83 2602.88 1020.24 2602.74 1022.65 2602.53 1025.05 2602.27 1027.45 2601.95 1029.84 2601.57 1032.21 2601.14 1034.58 2600.64 1036.93 2600.09 1039.27 2599.49 1041.59 2598.82 1043.9 2598.11 1046.19 2597.33 1048.46 2596.5 1050.71 2595.62 1052.94 2594.68 1055.14 2593.69 1057.32 2592.64 1059.47 2591.55 1061.6 2590.4 1063.7 2589.2 1065.76 2587.95 1067.8 2586.65 1069.81 2585.3 1071.78 2583.9 1073.72 2582.46 1075.62 2580.97 1077.48 2579.43 1079.31 2577.85 1081.1 2576.23 1082.85 2574.56 1084.56 2572.85 1086.23 2571.1 1087.85 2569.31 1089.43 2567.48 1090.97 2565.62 1092.46 2563.72 1093.9 2561.78 1095.3 2559.81 1096.65 2557.8 1097.95 2555.76 1099.2 2553.7 1100.4 2551.6 1101.55 2549.47 1102.64 2547.32 1103.69 2545.14 1104.68 2542.94 1105.62 2540.71 1106.5 2538.46 1107.33 2536.19 1108.11 2533.9 1108.82 2531.59 1109.49 2529.27 1110.09 2526.93 1110.64 2524.58 1111.14 2522.21 1111.57 2519.84 1111.95 2517.45 1112.27 2515.05 1112.53 2512.65 1112.74 2510.24 1112.88 2507.83 1112.97 2505.42 1113 2503 1113 153 1112.97 150.58 1112.88 148.17 1112.74 145.76 1112.53 143.35 1112.27 140.95 1111.95 138.55 1111.57 136.16 1111.14 133.79 1110.64 131.42 1110.09 129.07 1109.49 126.73 1108.82 124.41 1108.11 122.1 1107.33 119.81 1106.5 117.54 1105.62 115.29 1104.68 113.06 1103.69 110.86 1102.64 108.68 1101.55 106.53 1100.4 104.4 1099.2 102.3 1097.95 100.24 1096.65 98.2 1095.3 96.19 1093.9 94.22 1092.46 92.28 1090.97 90.38 1089.43 88.52 1087.85 86.69 1086.23 84.9 1084.56 83.15 1082.85 81.44 1081.1 79.77 1079.31 78.15 1077.48 76.57 1075.62 75.03 1073.72 73.54 1071.78 72.1 1069.81 70.7 1067.8 69.35 1065.76 68.05 1063.7 66.8 1061.6 65.6 1059.47 64.45 1057.32 63.36 1055.14 62.31 1052.94 61.32 1050.71 60.38 1048.46 59.5 1046.19 58.67 1043.9 57.89 1041.59 57.18 1039.27 56.51 1036.93 55.91 1034.58 55.36 1032.21 54.86 1029.84 54.43 1027.45 54.05 1025.05 53.73 1022.65 53.47 1020.24 53.26 1017.83 53.12 1015.42 53.03 1013 53 113 53 110.58 53.03 108.17 53.12 105.76 53.26 103.35 53.47 100.95 53.73 98.55 54.05 96.16 54.43 93.79 54.86 91.42 55.36 89.07 55.91 86.73 56.51 84.41 57.18 82.1 57.89 79.81 58.67 77.54 59.5 75.29 60.38 73.06 61.32 70.86 62.31 68.68 63.36 66.53 64.45 64.4 65.6 62.3 66.8 60.24 68.05 58.2 69.35 56.19 70.7 54.22 72.1 52.28 73.54 50.38 75.03 48.52 76.57 46.69 78.15 44.9 79.77 43.15 81.44 41.44 83.15 39.77 84.9 38.15 86.69 36.57 88.52 35.03 90.38 33.54 92.28 32.1 94.22 30.7 96.19 29.35 98.2 28.05 100.24 26.8 102.3 25.6 104.4 24.45 106.53 23.36 108.68 22.31 110.86 21.32 113.06 20.38 115.29 19.5 117.54 18.67 119.81 17.89 122.1 17.18 124.41 16.51 126.73 15.91 129.07 15.36 131.42 14.86 133.79 14.43 136.16 14.05 138.55 13.73 140.95 13.47 143.35 13.26 145.76 13.12 148.17 13.03 150.58 13 153 M 138 828 113 853 138 878 988 878 1013 853 988 828 138 828 M 263 2278 288 2303 288 2503 263 2528 238 2503 238 2303 263 2278 M 838 2303 863 2278 888 2303 888 2503 863 2528 838 2503 838 2303" fill="none" stroke-width="0"/></clipPath><mask id="zzEI75UuONLH9Ysi0QU5_bottom_mech-mask"><g fill="#000" stroke="#000"><rect x="13" y="53" width="1100" height="2550" fill="#fff"/><use xlink:href="#zzEI75UuONLH9Ysi0QU5_bottom_drill1"/></g></mask><mask id="zzEI75UuONLH9Ysi0QU5_bottom_cf-mask"><g fill="#fff" stroke="#fff"><use xlink:href="#zzEI75UuONLH9Ysi0QU5_bottom_soldermask"/></g></mask><mask id="zzEI75UuONLH9Ysi0QU5_bottom_sm-mask"><g fill="#000" stroke="#000"><rect x="13" y="53" width="1100" height="2550" fill="#fff"/><use xlink:href="#zzEI75UuONLH9Ysi0QU5_bottom_soldermask"/></g></mask></defs><g transform="translate(0,2656) scale(1,-1)"><g mask="url(#zzEI75UuONLH9Ysi0QU5_bottom_mech-mask)" clip-path="url(#zzEI75UuONLH9Ysi0QU5_bottom_outline)" transform="translate(1126,0) scale(-1,1)"><rect x="13" y="53" width="1100" height="2550" fill="currentColor" class="zzEI75UuONLH9Ysi0QU5_fr4"/><use xlink:href="#zzEI75UuONLH9Ysi0QU5_bottom_copper" fill="currentColor" stroke="currentColor" class="zzEI75UuONLH9Ysi0QU5_cu"/><use xlink:href="#zzEI75UuONLH9Ysi0QU5_bottom_copper" fill="currentColor" stroke="currentColor" class="zzEI75UuONLH9Ysi0QU5_cf" mask="url(#zzEI75UuONLH9Ysi0QU5_bottom_cf-mask)"/><g mask="url(#zzEI75UuONLH9Ysi0QU5_bottom_sm-mask)"><rect x="13" y="53" width="1100" height="2550" fill="currentColor" class="zzEI75UuONLH9Ysi0QU5_sm"/><use xlink:href="#zzEI75UuONLH9Ysi0QU5_bottom_silkscreen" fill="currentColor" stroke="currentColor" class="zzEI75UuONLH9Ysi0QU5_ss"/></g></g></g></svg>