<svg version="1.1" xmlns="http://www.w3.org/2000/svg" xmlns:xlink="http://www.w3.org/1999/xlink" stroke-linecap="round" stroke-linejoin="round" stroke-width="0" fill-rule="evenodd" clip-rule="evenodd" id="N-Gu1IWNseYV4nU45Lsc_top" viewBox="239.33 18 999.9999999999999 800" width="0.9999999999999999in" height="0.8in" class="w-100 h-100"><defs><style>.N-Gu1IWNseYV4nU45Lsc_fr4 {color: #666666;}
.N-Gu1IWNseYV4nU45Lsc_cu {color: #cccccc;}
.N-Gu1IWNseYV4nU45Lsc_cf {color: #cc9933;}
.N-Gu1IWNseYV4nU45Lsc_sm {color: #004200; opacity: 0.75;}
.N-Gu1IWNseYV4nU45Lsc_ss {color: #ffffff;}
.N-Gu1IWNseYV4nU45Lsc_sp {color: #999999;}
.N-Gu1IWNseYV4nU45Lsc_out {color: #000000;}</style><rect x="-53.215" y="-13.845" width="106.43" height="27.69" id="irDss1eHazydPOadCW0__pad-10"/><rect x="-53.215" y="-43.37" width="106.43" height="86.74" id="irDss1eHazydPOadCW0__pad-11"/><circle cx="0" cy="0" r="21.715" id="irDss1eHazydPOadCW0__pad-12"/><circle cx="0" cy="0" r="41" id="irDss1eHazydPOadCW0__pad-13"/><circle cx="0" cy="0" r="20.73" id="irDss1eHazydPOadCW0__pad-14"/><rect x="-10" y="-10" width="20" height="20" id="je2gFfElYoSa5Dzkwhlz_pad-14"/><rect x="-49.215" y="-9.845" width="98.43" height="19.69" id="oDQm-8_XAeOTYAktSd7Q_pad-11"/><rect x="-49.215" y="-39.37" width="98.43" height="78.74" id="oDQm-8_XAeOTYAktSd7Q_pad-12"/><circle cx="0" cy="0" r="37" id="oDQm-8_XAeOTYAktSd7Q_pad-13"/><circle cx="0" cy="0" r="16.75" id="GoYKpdtIwiThz3m3eXSU_pad-1"/><circle cx="0" cy="0" r="17.7" id="GoYKpdtIwiThz3m3eXSU_pad-2"/><circle cx="0" cy="0" r="20" id="GoYKpdtIwiThz3m3eXSU_pad-3"/><g id="N-Gu1IWNseYV4nU45Lsc_top_soldermask"><use xlink:href="#irDss1eHazydPOadCW0__pad-10" x="890.91" y="355.01"/><use xlink:href="#irDss1eHazydPOadCW0__pad-10" x="890.91" y="386.5"/><use xlink:href="#irDss1eHazydPOadCW0__pad-10" x="890.91" y="418"/><use xlink:href="#irDss1eHazydPOadCW0__pad-10" x="890.91" y="449.5"/><use xlink:href="#irDss1eHazydPOadCW0__pad-10" x="890.91" y="480.99"/><use xlink:href="#irDss1eHazydPOadCW0__pad-11" x="890.91" y="595.17"/><use xlink:href="#irDss1eHazydPOadCW0__pad-11" x="1107.44" y="595.17"/><use xlink:href="#irDss1eHazydPOadCW0__pad-11" x="1107.44" y="240.83"/><use xlink:href="#irDss1eHazydPOadCW0__pad-11" x="890.91" y="240.83"/><use xlink:href="#irDss1eHazydPOadCW0__pad-12" x="989.33" y="331.39"/><use xlink:href="#irDss1eHazydPOadCW0__pad-12" x="989.33" y="504.61"/><use xlink:href="#irDss1eHazydPOadCW0__pad-13" x="389.33" y="218"/><use xlink:href="#irDss1eHazydPOadCW0__pad-13" x="389.33" y="318"/><use xlink:href="#irDss1eHazydPOadCW0__pad-13" x="389.33" y="418"/><use xlink:href="#irDss1eHazydPOadCW0__pad-13" x="389.33" y="518"/><use xlink:href="#irDss1eHazydPOadCW0__pad-13" x="389.33" y="618"/><use xlink:href="#irDss1eHazydPOadCW0__pad-13" x="739.33" y="618"/><use xlink:href="#irDss1eHazydPOadCW0__pad-13" x="739.33" y="718"/><use xlink:href="#irDss1eHazydPOadCW0__pad-13" x="739.33" y="218"/><use xlink:href="#irDss1eHazydPOadCW0__pad-13" x="639.33" y="218"/><use xlink:href="#irDss1eHazydPOadCW0__pad-13" x="539.33" y="218"/><use xlink:href="#irDss1eHazydPOadCW0__pad-14" x="1077.72" y="343.2"/><use xlink:href="#irDss1eHazydPOadCW0__pad-14" x="1077.72" y="492.8"/></g><g id="N-Gu1IWNseYV4nU45Lsc_top_silkscreen"><path d="M 239.33 118 239.33 718 239.36 720.42 239.45 722.83 239.59 725.24 239.8 727.65 240.06 730.05 240.38 732.45 240.76 734.84 241.19 737.21 241.69 739.58 242.24 741.93 242.84 744.27 243.51 746.59 244.22 748.9 245 751.19 245.83 753.46 246.71 755.71 247.65 757.94 248.64 760.14 249.69 762.32 250.78 764.47 251.93 766.6 253.13 768.7 254.38 770.76 255.68 772.8 257.03 774.81 258.43 776.78 259.87 778.72 261.36 780.62 262.9 782.48 264.48 784.31 266.1 786.1 267.77 787.85 269.48 789.56 271.23 791.23 273.02 792.85 274.85 794.43 276.71 795.97 278.61 797.46 280.55 798.9 282.52 800.3 284.53 801.65 286.57 802.95 288.63 804.2 290.73 805.4 292.86 806.55 295.01 807.64 297.19 808.69 299.39 809.68 301.62 810.62 303.87 811.5 306.14 812.33 308.43 813.11 310.74 813.82 313.06 814.49 315.4 815.09 317.75 815.64 320.12 816.14 322.49 816.57 324.88 816.95 327.28 817.27 329.68 817.53 332.09 817.74 334.5 817.88 336.91 817.97 339.33 818 1139.33 818 1141.75 817.97 1144.16 817.88 1146.57 817.74 1148.98 817.53 1151.38 817.27 1153.78 816.95 1156.17 816.57 1158.54 816.14 1160.91 815.64 1163.26 815.09 1165.6 814.49 1167.92 813.82 1170.23 813.11 1172.52 812.33 1174.79 811.5 1177.04 810.62 1179.27 809.68 1181.47 808.69 1183.65 807.64 1185.8 806.55 1187.93 805.4 1190.03 804.2 1192.09 802.95 1194.13 801.65 1196.14 800.3 1198.11 798.9 1200.05 797.46 1201.95 795.97 1203.81 794.43 1205.64 792.85 1207.43 791.23 1209.18 789.56 1210.89 787.85 1212.56 786.1 1214.18 784.31 1215.76 782.48 1217.3 780.62 1218.79 778.72 1220.23 776.78 1221.63 774.81 1222.98 772.8 1224.28 770.76 1225.53 768.7 1226.73 766.6 1227.88 764.47 1228.97 762.32 1230.02 760.14 1231.01 757.94 1231.95 755.71 1232.83 753.46 1233.66 751.19 1234.44 748.9 1235.15 746.59 1235.82 744.27 1236.42 741.93 1236.97 739.58 1237.47 737.21 1237.9 734.84 1238.28 732.45 1238.6 730.05 1238.86 727.65 1239.07 725.24 1239.21 722.83 1239.3 720.42 1239.33 718 1239.33 118 1239.3 115.58 1239.21 113.17 1239.07 110.76 1238.86 108.35 1238.6 105.95 1238.28 103.55 1237.9 101.16 1237.47 98.79 1236.97 96.42 1236.42 94.07 1235.82 91.73 1235.15 89.41 1234.44 87.1 1233.66 84.81 1232.83 82.54 1231.95 80.29 1231.01 78.06 1230.02 75.86 1228.97 73.68 1227.88 71.53 1226.73 69.4 1225.53 67.3 1224.28 65.24 1222.98 63.2 1221.63 61.19 1220.23 59.22 1218.79 57.28 1217.3 55.38 1215.76 53.52 1214.18 51.69 1212.56 49.9 1210.89 48.15 1209.18 46.44 1207.43 44.77 1205.64 43.15 1203.81 41.57 1201.95 40.03 1200.05 38.54 1198.11 37.1 1196.14 35.7 1194.13 34.35 1192.09 33.05 1190.03 31.8 1187.93 30.6 1185.8 29.45 1183.65 28.36 1181.47 27.31 1179.27 26.32 1177.04 25.38 1174.79 24.5 1172.52 23.67 1170.23 22.89 1167.92 22.18 1165.6 21.51 1163.26 20.91 1160.91 20.36 1158.54 19.86 1156.17 19.43 1153.78 19.05 1151.38 18.73 1148.98 18.47 1146.57 18.26 1144.16 18.12 1141.75 18.03 1139.33 18 339.33 18 336.91 18.03 334.5 18.12 332.09 18.26 329.68 18.47 327.28 18.73 324.88 19.05 322.49 19.43 320.12 19.86 317.75 20.36 315.4 20.91 313.06 21.51 310.74 22.18 308.43 22.89 306.14 23.67 303.87 24.5 301.62 25.38 299.39 26.32 297.19 27.31 295.01 28.36 292.86 29.45 290.73 30.6 288.63 31.8 286.57 33.05 284.53 34.35 282.52 35.7 280.55 37.1 278.61 38.54 276.71 40.03 274.85 41.57 273.02 43.15 271.23 44.77 269.48 46.44 267.77 48.15 266.1 49.9 264.48 51.69 262.9 53.52 261.36 55.38 259.87 57.28 258.43 59.22 257.03 61.19 255.68 63.2 254.38 65.24 253.13 67.3 251.93 69.4 250.78 71.53 249.69 73.68 248.64 75.86 247.65 78.06 246.71 80.29 245.83 82.54 245 84.81 244.22 87.1 243.51 89.41 242.84 91.73 242.24 94.07 241.69 96.42 241.19 98.79 240.76 101.16 240.38 103.55 240.06 105.95 239.8 108.35 239.59 110.76 239.45 113.17 239.36 115.58 239.33 118 M 971.61 331.39 971.63 332.23 971.69 333.06 971.79 333.89 971.93 334.72 972.1 335.54 972.32 336.35 972.57 337.14 972.86 337.93 973.19 338.7 973.55 339.45 973.95 340.19 974.38 340.91 974.85 341.6 975.35 342.27 975.88 342.92 976.44 343.54 977.02 344.14 977.64 344.71 978.28 345.24 978.95 345.75 979.64 346.22 980.35 346.67 981.08 347.07 981.83 347.44 982.6 347.78 983.38 348.08 984.17 348.34 984.98 348.57 985.8 348.75 986.62 348.9 987.45 349.01 988.28 349.08 989.12 349.11 989.96 349.1 990.79 349.05 991.63 348.96 992.45 348.83 993.27 348.67 994.08 348.46 994.89 348.22 995.67 347.94 996.45 347.62 997.21 347.26 997.95 346.87 998.67 346.45 999.37 345.99 1000.05 345.5 1000.7 344.98 1001.33 344.43 1001.93 343.85 1002.51 343.24 1003.05 342.6 1003.57 341.94 1004.05 341.26 1004.5 340.55 1004.91 339.82 1005.3 339.08 1005.64 338.32 1005.95 337.54 1006.22 336.75 1006.46 335.94 1006.65 335.13 1006.81 334.31 1006.93 333.48 1007.01 332.64 1007.05 331.81 1007.05 330.97 1007.01 330.14 1006.93 329.3 1006.81 328.47 1006.65 327.65 1006.46 326.84 1006.22 326.03 1005.95 325.24 1005.64 324.46 1005.3 323.7 1004.91 322.96 1004.5 322.23 1004.05 321.52 1003.57 320.84 1003.05 320.18 1002.51 319.54 1001.93 318.93 1001.33 318.35 1000.7 317.8 1000.05 317.28 999.37 316.79 998.67 316.33 997.95 315.91 997.21 315.52 996.45 315.16 995.67 314.84 994.89 314.56 994.08 314.32 993.27 314.11 992.45 313.95 991.63 313.82 990.79 313.73 989.96 313.68 989.12 313.67 988.28 313.7 987.45 313.77 986.62 313.88 985.8 314.03 984.98 314.21 984.17 314.44 983.38 314.7 982.6 315 981.83 315.34 981.08 315.71 980.35 316.11 979.64 316.56 978.95 317.03 978.28 317.54 977.64 318.07 977.02 318.64 976.44 319.24 975.88 319.86 975.35 320.51 974.85 321.18 974.38 321.87 973.95 322.59 973.55 323.33 973.19 324.08 972.86 324.85 972.57 325.64 972.32 326.43 972.1 327.24 971.93 328.06 971.79 328.89 971.69 329.72 971.63 330.55 971.61 331.39 M 1060.99 343.2 1061.01 344.01 1061.07 344.83 1061.17 345.64 1061.31 346.44 1061.48 347.23 1061.7 348.02 1061.95 348.79 1062.24 349.56 1062.57 350.3 1062.94 351.03 1063.33 351.74 1063.77 352.43 1064.23 353.1 1064.73 353.74 1065.26 354.36 1065.82 354.96 1066.4 355.52 1067.02 356.06 1067.66 356.57 1068.32 357.04 1069 357.48 1069.71 357.89 1070.43 358.26 1071.18 358.6 1071.93 358.9 1072.71 359.16 1073.49 359.39 1074.28 359.57 1075.08 359.72 1075.89 359.83 1076.7 359.9 1077.52 359.93 1078.33 359.92 1079.14 359.87 1079.95 359.78 1080.76 359.65 1081.56 359.48 1082.34 359.28 1083.12 359.03 1083.89 358.75 1084.64 358.43 1085.37 358.08 1086.08 357.69 1086.78 357.26 1087.45 356.81 1088.11 356.32 1088.73 355.8 1089.33 355.24 1089.9 354.66 1090.45 354.06 1090.96 353.42 1091.44 352.77 1091.89 352.09 1092.31 351.39 1092.69 350.67 1093.04 349.93 1093.35 349.18 1093.62 348.41 1093.85 347.63 1094.05 346.84 1094.21 346.04 1094.33 345.23 1094.41 344.42 1094.45 343.61 1094.45 342.79 1094.41 341.98 1094.33 341.17 1094.21 340.36 1094.05 339.56 1093.85 338.77 1093.62 337.99 1093.35 337.22 1093.04 336.47 1092.69 335.73 1092.31 335.01 1091.89 334.31 1091.44 333.63 1090.96 332.98 1090.45 332.34 1089.9 331.74 1089.33 331.16 1088.73 330.6 1088.11 330.08 1087.45 329.59 1086.78 329.14 1086.09 328.71 1085.37 328.32 1084.64 327.97 1083.89 327.65 1083.12 327.37 1082.34 327.12 1081.56 326.92 1080.76 326.75 1079.95 326.62 1079.14 326.53 1078.33 326.48 1077.52 326.47 1076.7 326.5 1075.89 326.57 1075.08 326.68 1074.28 326.83 1073.49 327.01 1072.71 327.24 1071.93 327.5 1071.18 327.8 1070.43 328.14 1069.71 328.51 1069 328.92 1068.32 329.36 1067.66 329.83 1067.02 330.34 1066.4 330.88 1065.82 331.44 1065.26 332.04 1064.73 332.66 1064.23 333.3 1063.77 333.97 1063.33 334.66 1062.94 335.37 1062.57 336.1 1062.24 336.84 1061.95 337.61 1061.7 338.38 1061.48 339.17 1061.31 339.96 1061.17 340.76 1061.07 341.57 1061.01 342.39 1060.99 343.2 M 1060.99 492.8 1061.01 493.61 1061.07 494.43 1061.17 495.24 1061.31 496.04 1061.48 496.83 1061.7 497.62 1061.95 498.39 1062.24 499.16 1062.57 499.9 1062.94 500.63 1063.33 501.34 1063.77 502.03 1064.23 502.7 1064.73 503.34 1065.26 503.96 1065.82 504.56 1066.4 505.12 1067.02 505.66 1067.66 506.17 1068.32 506.64 1069 507.08 1069.71 507.49 1070.43 507.86 1071.18 508.2 1071.93 508.5 1072.71 508.76 1073.49 508.99 1074.28 509.17 1075.08 509.32 1075.89 509.43 1076.7 509.5 1077.52 509.53 1078.33 509.52 1079.14 509.47 1079.95 509.38 1080.76 509.25 1081.56 509.08 1082.34 508.88 1083.12 508.63 1083.89 508.35 1084.64 508.03 1085.37 507.68 1086.08 507.29 1086.78 506.86 1087.45 506.41 1088.11 505.92 1088.73 505.4 1089.33 504.84 1089.9 504.26 1090.45 503.66 1090.96 503.02 1091.44 502.37 1091.89 501.69 1092.31 500.99 1092.69 500.27 1093.04 499.53 1093.35 498.78 1093.62 498.01 1093.85 497.23 1094.05 496.44 1094.21 495.64 1094.33 494.83 1094.41 494.02 1094.45 493.21 1094.45 492.39 1094.41 491.58 1094.33 490.77 1094.21 489.96 1094.05 489.16 1093.85 488.37 1093.62 487.59 1093.35 486.82 1093.04 486.07 1092.69 485.33 1092.31 484.61 1091.89 483.91 1091.44 483.23 1090.96 482.58 1090.45 481.94 1089.9 481.34 1089.33 480.76 1088.73 480.2 1088.11 479.68 1087.45 479.19 1086.78 478.74 1086.09 478.31 1085.37 477.92 1084.64 477.57 1083.89 477.25 1083.12 476.97 1082.34 476.72 1081.56 476.52 1080.76 476.35 1079.95 476.22 1079.14 476.13 1078.33 476.08 1077.52 476.07 1076.7 476.1 1075.89 476.17 1075.08 476.28 1074.28 476.43 1073.49 476.61 1072.71 476.84 1071.93 477.1 1071.18 477.4 1070.43 477.74 1069.71 478.11 1069 478.52 1068.32 478.96 1067.66 479.43 1067.02 479.94 1066.4 480.48 1065.82 481.04 1065.26 481.64 1064.73 482.26 1064.23 482.9 1063.77 483.57 1063.33 484.26 1062.94 484.97 1062.57 485.7 1062.24 486.44 1061.95 487.21 1061.7 487.98 1061.48 488.77 1061.31 489.56 1061.17 490.36 1061.07 491.17 1061.01 491.99 1060.99 492.8 M 971.61 504.61 971.63 505.45 971.69 506.28 971.79 507.11 971.93 507.94 972.1 508.76 972.32 509.57 972.57 510.36 972.86 511.15 973.19 511.92 973.55 512.67 973.95 513.41 974.38 514.13 974.85 514.82 975.35 515.49 975.88 516.14 976.44 516.76 977.02 517.36 977.64 517.93 978.28 518.46 978.95 518.97 979.64 519.44 980.35 519.89 981.08 520.29 981.83 520.66 982.6 521 983.38 521.3 984.17 521.56 984.98 521.79 985.8 521.97 986.62 522.12 987.45 522.23 988.28 522.3 989.12 522.33 989.96 522.32 990.79 522.27 991.63 522.18 992.45 522.05 993.27 521.89 994.08 521.68 994.89 521.44 995.67 521.16 996.45 520.84 997.21 520.48 997.95 520.09 998.67 519.67 999.37 519.21 1000.05 518.72 1000.7 518.2 1001.33 517.65 1001.93 517.07 1002.51 516.46 1003.05 515.82 1003.57 515.16 1004.05 514.48 1004.5 513.77 1004.91 513.04 1005.3 512.3 1005.64 511.54 1005.95 510.76 1006.22 509.97 1006.46 509.16 1006.65 508.35 1006.81 507.53 1006.93 506.7 1007.01 505.86 1007.05 505.03 1007.05 504.19 1007.01 503.36 1006.93 502.52 1006.81 501.69 1006.65 500.87 1006.46 500.06 1006.22 499.25 1005.95 498.46 1005.64 497.68 1005.3 496.92 1004.91 496.18 1004.5 495.45 1004.05 494.74 1003.57 494.06 1003.05 493.4 1002.51 492.76 1001.93 492.15 1001.33 491.57 1000.7 491.02 1000.05 490.5 999.37 490.01 998.67 489.55 997.95 489.13 997.21 488.74 996.45 488.38 995.67 488.06 994.89 487.78 994.08 487.54 993.27 487.33 992.45 487.17 991.63 487.04 990.79 486.95 989.96 486.9 989.12 486.89 988.28 486.92 987.45 486.99 986.62 487.1 985.8 487.25 984.98 487.43 984.17 487.66 983.38 487.92 982.6 488.22 981.83 488.56 981.08 488.93 980.35 489.33 979.64 489.78 978.95 490.25 978.28 490.76 977.64 491.29 977.02 491.86 976.44 492.46 975.88 493.08 975.35 493.73 974.85 494.4 974.38 495.09 973.95 495.81 973.55 496.55 973.19 497.3 972.86 498.07 972.57 498.86 972.32 499.65 972.1 500.46 971.93 501.28 971.79 502.11 971.69 502.94 971.63 503.77 971.61 504.61" fill="none" stroke-width="0"/><path d="M 1116.27 671 1116.27 705 1125.71 705 1126.25 704.98 1126.79 704.92 1127.32 704.83 1127.84 704.69 1128.35 704.52 1128.85 704.32 1129.33 704.08 1129.8 703.8 1130.24 703.49 1130.66 703.15 1131.06 702.79 1131.42 702.39 1131.76 701.97 1132.07 701.53 1132.35 701.06 1132.59 700.58 1132.79 700.08 1132.96 699.57 1133.1 699.05 1133.19 698.52 1133.25 697.98 1133.27 697.44 1133.25 696.9 1133.19 696.36 1133.1 695.83 1132.96 695.31 1132.79 694.8 1132.59 694.3 1132.35 693.82 1132.07 693.35 1131.76 692.91 1131.42 692.49 1131.06 692.09 1130.66 691.73 1130.24 691.39 1129.8 691.08 1129.33 690.8 1128.85 690.56 1128.35 690.36 1127.84 690.19 1127.32 690.05 1126.79 689.96 1126.25 689.9 1125.71 689.88 M 1125.71 689.89 1116.27 689.89 M 1125.71 689.88 1126.31 689.86 1126.92 689.8 1127.51 689.71 1128.1 689.57 1128.68 689.4 1129.25 689.19 1129.81 688.95 1130.34 688.67 1130.86 688.35 1131.36 688.01 1131.83 687.63 1132.28 687.22 1132.7 686.79 1133.09 686.33 1133.45 685.84 1133.78 685.33 1134.08 684.81 1134.34 684.26 1134.57 683.7 1134.76 683.13 1134.91 682.54 1135.03 681.95 1135.11 681.35 1135.15 680.74 1135.15 680.14 1135.11 679.53 1135.03 678.93 1134.91 678.34 1134.76 677.75 1134.57 677.18 1134.34 676.62 1134.08 676.07 1133.78 675.55 1133.45 675.04 1133.09 674.55 1132.7 674.09 1132.28 673.66 1131.83 673.25 1131.36 672.87 1130.86 672.53 1130.34 672.21 1129.81 671.93 1129.25 671.69 1128.68 671.48 1128.1 671.31 1127.51 671.17 1126.92 671.08 1126.31 671.02 1125.71 671 1116.27 671 M 1094.61 685.17 1084.23 690.83 M 1088 705 1088.7 704.98 1089.4 704.93 1090.1 704.84 1090.79 704.72 1091.47 704.57 1092.15 704.38 1092.81 704.16 1093.47 703.9 1094.11 703.62 1094.73 703.3 1095.34 702.95 1095.93 702.57 1096.5 702.17 M 1084.23 690.83 1083.78 691.12 1083.35 691.43 1082.95 691.78 1082.57 692.15 1082.22 692.54 1081.89 692.96 1081.6 693.41 1081.33 693.87 1081.1 694.35 1080.9 694.84 1080.74 695.34 1080.61 695.86 1080.52 696.38 1080.47 696.91 1080.45 697.44 M 1080.44 697.44 1080.46 697.98 1080.52 698.52 1080.61 699.05 1080.75 699.57 1080.92 700.08 1081.12 700.58 1081.36 701.06 1081.64 701.53 1081.95 701.97 1082.29 702.39 1082.65 702.79 1083.05 703.15 1083.47 703.49 1083.91 703.8 1084.38 704.08 1084.86 704.32 1085.36 704.52 1085.87 704.69 1086.39 704.83 1086.92 704.92 1087.46 704.98 1088 705 M 1062.39 705 1062.39 680.44 1062.37 679.84 1062.31 679.23 1062.22 678.64 1062.08 678.05 1061.91 677.47 1061.7 676.9 1061.46 676.34 1061.18 675.81 1060.86 675.29 1060.52 674.79 1060.14 674.32 1059.73 673.87 1059.3 673.45 1058.84 673.06 1058.35 672.7 1057.84 672.37 1057.32 672.07 1056.77 671.81 1056.21 671.58 1055.64 671.39 1055.05 671.24 1054.46 671.12 1053.86 671.04 1053.25 671 1052.65 671 1052.04 671.04 1051.44 671.12 1050.85 671.24 1050.26 671.39 1049.69 671.58 1049.13 671.81 1048.58 672.07 1048.06 672.37 1047.55 672.7 1047.06 673.06 1046.6 673.45 1046.17 673.87 1045.76 674.32 1045.38 674.79 1045.04 675.29 1044.72 675.81 1044.44 676.34 1044.2 676.9 1043.99 677.47 1043.82 678.05 1043.68 678.64 1043.59 679.23 1043.53 679.84 1043.51 680.44 M 1043.5 680.44 1043.5 705 M 1035.58 731 1035.58 765 1046.91 746.11 1058.24 765 1058.24 731 M 1075.53 731 1083.09 731 M 1079.31 731 1079.31 765 M 1075.53 765 1083.09 765 M 1099.86 765 1118.75 731 1118.75 765 M 1135.53 765 1143.09 765 M 1139.31 765 1139.31 731 M 1135.53 731 1143.09 731 M 1099.86 731 1099.86 765 M 1079.51 675.72 1080.08 675.18 1080.67 674.66 1081.29 674.17 1081.93 673.72 1082.6 673.29 1083.28 672.9 1083.98 672.55 1084.7 672.23 1085.44 671.94 1086.18 671.69 1086.94 671.48 1087.71 671.31 1088.49 671.17 1089.27 671.08 1090.05 671.02 1090.84 671 1091.38 671.02 1091.92 671.08 1092.45 671.17 1092.97 671.31 1093.48 671.48 1093.98 671.68 1094.46 671.92 1094.93 672.2 1095.37 672.51 1095.79 672.85 1096.19 673.21 1096.55 673.61 1096.89 674.03 1097.2 674.47 1097.48 674.94 1097.72 675.42 1097.92 675.92 1098.09 676.43 1098.23 676.95 1098.32 677.48 1098.38 678.02 1098.4 678.56 M 1098.39 678.56 1098.37 679.09 1098.32 679.62 1098.23 680.14 1098.1 680.66 1097.94 681.16 1097.74 681.65 1097.51 682.13 1097.24 682.59 1096.95 683.04 1096.62 683.46 1096.27 683.85 1095.89 684.22 1095.49 684.57 1095.06 684.88 1094.61 685.17 M 675.54 715.17 665.15 720.83 M 668.93 735 669.63 734.98 670.33 734.93 671.03 734.84 671.72 734.72 672.4 734.57 673.08 734.38 673.74 734.16 674.4 733.9 675.04 733.62 675.66 733.3 676.27 732.95 676.86 732.57 677.43 732.17 M 665.16 720.83 664.71 721.12 664.28 721.43 663.88 721.78 663.5 722.15 663.15 722.54 662.82 722.96 662.53 723.41 662.26 723.87 662.03 724.35 661.83 724.84 661.67 725.34 661.54 725.86 661.45 726.38 661.4 726.91 661.38 727.44 M 661.37 727.44 661.39 727.98 661.45 728.52 661.54 729.05 661.68 729.57 661.85 730.08 662.05 730.58 662.29 731.06 662.57 731.53 662.88 731.97 663.22 732.39 663.58 732.79 663.98 733.15 664.4 733.49 664.84 733.8 665.31 734.08 665.79 734.32 666.29 734.52 666.8 734.69 667.32 734.83 667.85 734.92 668.39 734.98 668.93 735 M 660.43 705.72 661 705.18 661.59 704.66 662.21 704.17 662.85 703.72 663.52 703.29 664.2 702.9 664.9 702.55 665.62 702.23 666.36 701.94 667.1 701.69 667.86 701.48 668.63 701.31 669.41 701.17 670.19 701.08 670.97 701.02 671.76 701 672.3 701.02 672.84 701.08 673.37 701.17 673.89 701.31 674.4 701.48 674.9 701.68 675.38 701.92 675.85 702.2 676.29 702.51 676.71 702.85 677.11 703.21 677.47 703.61 677.81 704.03 678.12 704.47 678.4 704.94 678.64 705.42 678.84 705.92 679.01 706.43 679.15 706.95 679.24 707.48 679.3 708.02 679.32 708.56 679.3 709.09 679.25 709.62 679.16 710.14 679.03 710.66 678.87 711.16 678.67 711.65 678.44 712.13 678.17 712.59 677.88 713.04 677.55 713.46 677.2 713.85 676.82 714.22 676.42 714.57 675.99 714.88 675.54 715.17 M 643.32 710.44 643.32 735 M 624.43 735 624.43 710.44 624.45 709.84 624.51 709.23 624.6 708.64 624.74 708.05 624.91 707.47 625.12 706.9 625.36 706.34 625.64 705.81 625.96 705.29 626.3 704.79 626.68 704.32 627.09 703.87 627.52 703.45 627.98 703.06 628.47 702.7 628.98 702.37 629.5 702.07 630.05 701.81 630.61 701.58 631.18 701.39 631.77 701.24 632.36 701.12 632.96 701.04 633.57 701 634.17 701 634.78 701.04 635.38 701.12 635.97 701.24 636.56 701.39 637.13 701.58 637.69 701.81 638.24 702.07 638.76 702.37 639.27 702.7 639.76 703.06 640.22 703.45 640.65 703.87 641.06 704.32 641.44 704.79 641.78 705.29 642.1 705.81 642.38 706.34 642.62 706.9 642.83 707.47 643 708.05 643.14 708.64 643.23 709.23 643.29 709.84 643.31 710.44 M 598.64 701 599.24 701.02 599.85 701.08 600.44 701.17 601.03 701.31 601.61 701.48 602.18 701.69 602.74 701.93 603.27 702.21 603.79 702.53 604.29 702.87 604.76 703.25 605.21 703.66 605.63 704.09 606.02 704.55 606.38 705.04 606.71 705.55 607.01 706.07 607.27 706.62 607.5 707.18 607.69 707.75 607.84 708.34 607.96 708.93 608.04 709.53 608.08 710.14 608.08 710.74 608.04 711.35 607.96 711.95 607.84 712.54 607.69 713.13 607.5 713.7 607.27 714.26 607.01 714.81 606.71 715.33 606.38 715.84 606.02 716.33 605.63 716.79 605.21 717.22 604.76 717.63 604.29 718.01 603.79 718.35 603.27 718.67 602.74 718.95 602.18 719.19 601.61 719.4 601.03 719.57 600.44 719.71 599.85 719.8 599.24 719.86 598.64 719.88 M 598.64 719.89 589.2 719.89 M 598.64 719.88 599.18 719.9 599.72 719.96 600.25 720.05 600.77 720.19 601.28 720.36 601.78 720.56 602.26 720.8 602.73 721.08 603.17 721.39 603.59 721.73 603.99 722.09 604.35 722.49 604.69 722.91 605 723.35 605.28 723.82 605.52 724.3 605.72 724.8 605.89 725.31 606.03 725.83 606.12 726.36 606.18 726.9 606.2 727.44 606.18 727.98 606.12 728.52 606.03 729.05 605.89 729.57 605.72 730.08 605.52 730.58 605.28 731.06 605 731.53 604.69 731.97 604.35 732.39 603.99 732.79 603.59 733.15 603.17 733.49 602.73 733.8 602.26 734.08 601.78 734.32 601.28 734.52 600.77 734.69 600.25 734.83 599.72 734.92 599.18 734.98 598.64 735 589.2 735 589.2 701 598.64 701 M 560.68 701 572.01 735 M 549.34 735 560.68 701 M 574.04 635 585.38 635 M 574.04 635 573.5 634.98 572.96 634.92 572.43 634.83 571.91 634.69 571.4 634.52 570.9 634.32 570.42 634.08 569.95 633.8 569.51 633.49 569.09 633.15 568.69 632.79 568.33 632.39 567.99 631.97 567.68 631.53 567.4 631.06 567.16 630.58 566.96 630.08 566.79 629.57 566.65 629.05 566.56 628.52 566.5 627.98 566.48 627.44 M 566.49 627.44 566.49 608.56 M 566.48 608.56 566.5 608.02 566.56 607.48 566.65 606.95 566.79 606.43 566.96 605.92 567.16 605.42 567.4 604.94 567.68 604.47 567.99 604.03 568.33 603.61 568.69 603.21 569.09 602.85 569.51 602.51 569.95 602.2 570.42 601.92 570.9 601.68 571.4 601.48 571.91 601.31 572.43 601.17 572.96 601.08 573.5 601.02 574.04 601 585.38 601 585.38 619.89 579.71 619.89 M 604.89 635 604.89 601 M 623.78 601 623.78 635 M 643.29 635 652.73 635 M 643.29 635 643.29 601 652.73 601 653.32 601.02 653.91 601.07 654.5 601.17 655.08 601.3 655.65 601.46 656.21 601.66 656.75 601.9 657.28 602.17 657.79 602.47 658.28 602.8 658.75 603.17 659.19 603.56 659.61 603.98 660 604.42 660.37 604.89 660.7 605.38 661 605.89 661.27 606.42 661.51 606.96 661.71 607.52 661.87 608.09 662 608.67 662.1 609.26 662.15 609.85 662.17 610.44 662.17 625.56 662.15 626.15 662.1 626.74 662 627.33 661.87 627.91 661.71 628.48 661.51 629.04 661.27 629.58 661 630.11 660.7 630.62 660.37 631.11 660 631.58 659.61 632.02 659.19 632.44 658.75 632.83 658.28 633.2 657.79 633.53 657.28 633.83 656.75 634.1 656.21 634.34 655.65 634.54 655.08 634.7 654.5 634.83 653.91 634.93 653.32 634.98 652.73 635 M 623.78 601 604.89 635 M 437.17 685.44 437.17 700.56 437.15 701.15 437.1 701.74 437 702.33 436.87 702.91 436.71 703.48 436.51 704.04 436.27 704.58 436 705.11 435.7 705.62 435.37 706.11 435 706.58 434.61 707.02 434.19 707.44 433.75 707.83 433.28 708.2 432.79 708.53 432.28 708.83 431.75 709.1 431.21 709.34 430.65 709.54 430.08 709.7 429.5 709.83 428.91 709.93 428.32 709.98 427.73 710 418.29 710 418.29 676 427.73 676 428.32 676.02 428.91 676.07 429.5 676.17 430.08 676.3 430.65 676.46 431.21 676.66 431.75 676.9 432.28 677.17 432.79 677.47 433.28 677.8 433.75 678.17 434.19 678.56 434.61 678.98 435 679.42 435.37 679.89 435.7 680.38 436 680.89 436.27 681.42 436.51 681.96 436.71 682.52 436.87 683.09 437 683.67 437.1 684.26 437.15 684.85 437.17 685.44 M 398.78 676 398.78 710 M 379.89 710 398.78 676 M 379.89 676 379.89 710 M 360.38 710 349.04 710 348.5 709.98 347.96 709.92 347.43 709.83 346.91 709.69 346.4 709.52 345.9 709.32 345.42 709.08 344.95 708.8 344.51 708.49 344.09 708.15 343.69 707.79 343.33 707.39 342.99 706.97 342.68 706.53 342.4 706.06 342.16 705.58 341.96 705.08 341.79 704.57 341.65 704.05 341.56 703.52 341.5 702.98 341.48 702.44 M 341.49 702.44 341.49 683.56 M 341.48 683.56 341.5 683.02 341.56 682.48 341.65 681.95 341.79 681.43 341.96 680.92 342.16 680.42 342.4 679.94 342.68 679.47 342.99 679.03 343.33 678.61 343.69 678.21 344.09 677.85 344.51 677.51 344.95 677.2 345.42 676.92 345.9 676.68 346.4 676.48 346.91 676.31 347.43 676.17 347.96 676.08 348.5 676.02 349.04 676 360.38 676 360.38 694.89 354.71 694.89 M 331.33 539.61 331.33 532.06 M 331.33 535.83 297.33 535.83 M 297.33 532.06 297.33 539.61 M 297.33 515.28 297.33 505.83 M 297.34 505.83 297.36 505.24 297.41 504.65 297.51 504.06 297.64 503.48 297.8 502.91 298 502.35 298.24 501.81 298.51 501.28 298.81 500.77 299.14 500.28 299.51 499.81 299.9 499.37 300.32 498.95 300.76 498.56 301.23 498.19 301.72 497.86 302.23 497.56 302.76 497.29 303.3 497.05 303.86 496.85 304.43 496.69 305.01 496.56 305.6 496.46 306.19 496.41 306.78 496.39 321.89 496.39 322.48 496.41 323.07 496.46 323.66 496.56 324.24 496.69 324.81 496.85 325.37 497.05 325.91 497.29 326.44 497.56 326.95 497.86 327.44 498.19 327.91 498.56 328.35 498.95 328.77 499.37 329.16 499.81 329.53 500.28 329.86 500.77 330.16 501.28 330.43 501.81 330.67 502.35 330.87 502.91 331.03 503.48 331.16 504.06 331.26 504.65 331.31 505.24 331.33 505.83 331.33 515.28 297.33 515.28 M 297.33 448.19 297.33 438.74 M 297.34 438.74 297.36 438.15 297.41 437.56 297.51 436.97 297.64 436.39 297.8 435.82 298 435.26 298.24 434.72 298.51 434.19 298.81 433.68 299.14 433.19 299.51 432.72 299.9 432.28 300.32 431.86 300.76 431.47 301.23 431.1 301.72 430.77 302.23 430.47 302.76 430.2 303.3 429.96 303.86 429.76 304.43 429.6 305.01 429.47 305.6 429.37 306.19 429.32 306.78 429.3 321.89 429.3 322.48 429.32 323.07 429.37 323.66 429.47 324.24 429.6 324.81 429.76 325.37 429.96 325.91 430.2 326.44 430.47 326.95 430.77 327.44 431.1 327.91 431.47 328.35 431.86 328.77 432.28 329.16 432.72 329.53 433.19 329.86 433.68 330.16 434.19 330.43 434.72 330.67 435.26 330.87 435.82 331.03 436.39 331.16 436.97 331.26 437.56 331.31 438.15 331.33 438.74 331.33 448.19 297.33 448.19 M 310.55 410.48 310.55 387.81 M 299.22 399.14 321.89 399.14 M 331.33 348.19 297.33 348.19 297.33 338.74 M 297.34 338.74 297.36 338.15 297.41 337.56 297.51 336.97 297.64 336.39 297.8 335.82 298 335.26 298.24 334.72 298.51 334.19 298.81 333.68 299.14 333.19 299.51 332.72 299.9 332.28 300.32 331.86 300.76 331.47 301.23 331.1 301.72 330.77 302.23 330.47 302.76 330.2 303.3 329.96 303.86 329.76 304.43 329.6 305.01 329.47 305.6 329.37 306.19 329.32 306.78 329.3 321.89 329.3 322.48 329.32 323.07 329.37 323.66 329.47 324.24 329.6 324.81 329.76 325.37 329.96 325.91 330.2 326.44 330.47 326.95 330.77 327.44 331.1 327.91 331.47 328.35 331.86 328.77 332.28 329.16 332.72 329.53 333.19 329.86 333.68 330.16 334.19 330.43 334.72 330.67 335.26 330.87 335.82 331.03 336.39 331.16 336.97 331.26 337.56 331.31 338.15 331.33 338.74 331.33 348.19 M 310.55 310.48 310.55 287.81 M 324.34 160 335.68 126 347.01 160 M 364.2 160 373.64 160 374.18 159.98 374.72 159.92 375.25 159.83 375.77 159.69 376.28 159.52 376.78 159.32 377.26 159.08 377.73 158.8 378.17 158.49 378.59 158.15 378.99 157.79 379.35 157.39 379.69 156.97 380 156.53 380.28 156.06 380.52 155.58 380.72 155.08 380.89 154.57 381.03 154.05 381.12 153.52 381.18 152.98 381.2 152.44 381.18 151.9 381.12 151.36 381.03 150.83 380.89 150.31 380.72 149.8 380.52 149.3 380.28 148.82 380 148.35 379.69 147.91 379.35 147.49 378.99 147.09 378.59 146.73 378.17 146.39 377.73 146.08 377.26 145.8 376.78 145.56 376.28 145.36 375.77 145.19 375.25 145.05 374.72 144.96 374.18 144.9 373.64 144.88 M 373.64 144.89 364.2 144.89 M 373.64 144.88 374.24 144.86 374.85 144.8 375.44 144.71 376.03 144.57 376.61 144.4 377.18 144.19 377.74 143.95 378.27 143.67 378.79 143.35 379.29 143.01 379.76 142.63 380.21 142.22 380.63 141.79 381.02 141.33 381.38 140.84 381.71 140.33 382.01 139.81 382.27 139.26 382.5 138.7 382.69 138.13 382.84 137.54 382.96 136.95 383.04 136.35 383.08 135.74 383.08 135.14 383.04 134.53 382.96 133.93 382.84 133.34 382.69 132.75 382.5 132.18 382.27 131.62 382.01 131.07 381.71 130.55 381.38 130.04 381.02 129.55 380.63 129.09 380.21 128.66 379.76 128.25 379.29 127.87 378.79 127.53 378.27 127.21 377.74 126.93 377.18 126.69 376.61 126.48 376.03 126.31 375.44 126.17 374.85 126.08 374.24 126.02 373.64 126 364.2 126 364.2 160 M 399.43 160 399.43 135.44 M 399.44 135.44 399.46 134.84 399.52 134.23 399.61 133.64 399.75 133.05 399.92 132.47 400.13 131.9 400.37 131.34 400.65 130.81 400.97 130.29 401.31 129.79 401.69 129.32 402.1 128.87 402.53 128.45 402.99 128.06 403.48 127.7 403.99 127.37 404.51 127.07 405.06 126.81 405.62 126.58 406.19 126.39 406.78 126.24 407.37 126.12 407.97 126.04 408.58 126 409.18 126 409.79 126.04 410.39 126.12 410.98 126.24 411.57 126.39 412.14 126.58 412.7 126.81 413.25 127.07 413.77 127.37 414.28 127.7 414.77 128.06 415.23 128.45 415.66 128.87 416.07 129.32 416.45 129.79 416.79 130.29 417.11 130.81 417.39 131.34 417.63 131.9 417.84 132.47 418.01 133.05 418.15 133.64 418.24 134.23 418.3 134.84 418.32 135.44 418.32 160 M 440.15 145.83 450.54 140.17 M 446.76 126 445.97 126.02 445.19 126.08 444.41 126.17 443.63 126.31 442.86 126.48 442.1 126.69 441.36 126.94 440.62 127.23 439.9 127.55 439.2 127.9 438.52 128.29 437.85 128.72 437.21 129.17 436.59 129.66 436 130.18 435.43 130.72 M 450.54 140.17 450.99 139.88 451.42 139.57 451.82 139.22 452.2 138.85 452.55 138.46 452.88 138.04 453.17 137.59 453.44 137.13 453.67 136.65 453.87 136.16 454.03 135.66 454.16 135.14 454.25 134.62 454.3 134.09 454.32 133.56 454.3 133.02 454.24 132.48 454.15 131.95 454.01 131.43 453.84 130.92 453.64 130.42 453.4 129.94 453.12 129.47 452.81 129.03 452.47 128.61 452.11 128.21 451.71 127.85 451.29 127.51 450.85 127.2 450.38 126.92 449.9 126.68 449.4 126.48 448.89 126.31 448.37 126.17 447.84 126.08 447.3 126.02 446.76 126 M 452.43 157.17 451.86 157.57 451.27 157.95 450.66 158.3 450.04 158.62 449.4 158.9 448.74 159.16 448.08 159.38 447.4 159.57 446.72 159.72 446.03 159.84 445.33 159.93 444.63 159.98 443.93 160 443.39 159.98 442.85 159.92 442.32 159.83 441.8 159.69 441.29 159.52 440.79 159.32 440.31 159.08 439.84 158.8 439.4 158.49 438.98 158.15 438.58 157.79 438.22 157.39 437.88 156.97 437.57 156.53 437.29 156.06 437.05 155.58 436.85 155.08 436.68 154.57 436.54 154.05 436.45 153.52 436.39 152.98 436.37 152.44 M 436.38 152.44 436.4 151.91 436.45 151.38 436.54 150.86 436.67 150.34 436.83 149.84 437.03 149.35 437.26 148.87 437.53 148.41 437.82 147.96 438.15 147.54 438.5 147.15 438.88 146.78 439.28 146.43 439.71 146.12 440.16 145.83 M 509.14 160 509.14 126 518.59 126 519.18 126.02 519.77 126.07 520.36 126.17 520.94 126.3 521.51 126.46 522.07 126.66 522.61 126.9 523.14 127.17 523.65 127.47 524.14 127.8 524.61 128.17 525.05 128.56 525.47 128.98 525.86 129.42 526.23 129.89 526.56 130.38 526.86 130.89 527.13 131.42 527.37 131.96 527.57 132.52 527.73 133.09 527.86 133.67 527.96 134.26 528.01 134.85 528.03 135.44 528.03 150.56 528.01 151.15 527.96 151.74 527.86 152.33 527.73 152.91 527.57 153.48 527.37 154.04 527.13 154.58 526.86 155.11 526.56 155.62 526.23 156.11 525.86 156.58 525.47 157.02 525.05 157.44 524.61 157.83 524.14 158.2 523.65 158.53 523.14 158.83 522.61 159.1 522.07 159.34 521.51 159.54 520.94 159.7 520.36 159.83 519.77 159.93 519.18 159.98 518.59 160 509.14 160 M 546.85 139.22 569.52 139.22 M 609.14 126 618.59 126 619.18 126.02 619.77 126.07 620.36 126.17 620.94 126.3 621.51 126.46 622.07 126.66 622.61 126.9 623.14 127.17 623.65 127.47 624.14 127.8 624.61 128.17 625.05 128.56 625.47 128.98 625.86 129.42 626.23 129.89 626.56 130.38 626.86 130.89 627.13 131.42 627.37 131.96 627.57 132.52 627.73 133.09 627.86 133.67 627.96 134.26 628.01 134.85 628.03 135.44 628.03 150.56 628.01 151.15 627.96 151.74 627.86 152.33 627.73 152.91 627.57 153.48 627.37 154.04 627.13 154.58 626.86 155.11 626.56 155.62 626.23 156.11 625.86 156.58 625.47 157.02 625.05 157.44 624.61 157.83 624.14 158.2 623.65 158.53 623.14 158.83 622.61 159.1 622.07 159.34 621.51 159.54 620.94 159.7 620.36 159.83 619.77 159.93 619.18 159.98 618.59 160 609.14 160 609.14 126 M 646.85 139.22 669.52 139.22 M 658.19 127.89 658.19 150.56 M 717.72 160 725.28 160 M 721.5 160 721.5 126 M 717.72 126 725.28 126 M 742.05 126 751.5 126 752.09 126.02 752.68 126.07 753.27 126.17 753.85 126.3 754.42 126.46 754.98 126.66 755.52 126.9 756.05 127.17 756.56 127.47 757.05 127.8 757.52 128.17 757.96 128.56 758.38 128.98 758.77 129.42 759.14 129.89 759.47 130.38 759.77 130.89 760.04 131.42 760.28 131.96 760.48 132.52 760.64 133.09 760.77 133.67 760.87 134.26 760.92 134.85 760.94 135.44 760.94 150.56 760.92 151.15 760.87 151.74 760.77 152.33 760.64 152.91 760.48 153.48 760.28 154.04 760.04 154.58 759.77 155.11 759.47 155.62 759.14 156.11 758.77 156.58 758.38 157.02 757.96 157.44 757.52 157.83 757.05 158.2 756.56 158.53 756.05 158.83 755.52 159.1 754.98 159.34 754.42 159.54 753.85 159.7 753.27 159.83 752.68 159.93 752.09 159.98 751.5 160 742.05 160 742.05 126 M 812.74 119.89 831.63 119.89 M 831.63 135 831.63 101 M 851.14 101 851.14 135 870.03 101 870.03 135 M 889.54 135 889.54 101 M 908.43 101 908.43 135 M 908.43 119.89 889.54 119.89 M 879.08 151 867.75 185 856.41 151 M 859.25 159.5 876.25 159.5 M 901.35 151 901.35 185 M 910.79 185 891.9 185 M 925.35 177.44 925.35 158.56 925.37 158.02 925.43 157.48 925.52 156.95 925.66 156.43 925.83 155.92 926.03 155.42 926.27 154.94 926.55 154.47 926.86 154.03 927.2 153.61 927.56 153.21 927.96 152.85 928.38 152.51 928.82 152.2 929.29 151.92 929.77 151.68 930.27 151.48 930.78 151.31 931.3 151.17 931.83 151.08 932.37 151.02 932.91 151 940.46 151 M 956.7 151 956.7 185 M 956.7 169.89 975.59 169.89 M 975.59 185 975.59 151 M 966.19 135 977.52 101 M 974.69 109.5 957.69 109.5 M 954.85 101 966.19 135 M 941.7 135 934.15 135 933.61 134.98 933.07 134.92 932.54 134.83 932.02 134.69 931.51 134.52 931.01 134.32 930.53 134.08 930.06 133.8 929.62 133.49 929.2 133.15 928.8 132.79 928.44 132.39 928.1 131.97 927.79 131.53 927.51 131.06 927.27 130.58 927.07 130.08 926.9 129.57 926.76 129.05 926.67 128.52 926.61 127.98 926.59 127.44 926.59 108.56 926.61 108.02 926.67 107.48 926.76 106.95 926.9 106.43 927.07 105.92 927.27 105.42 927.51 104.94 927.79 104.47 928.1 104.03 928.44 103.61 928.8 103.21 929.2 102.85 929.62 102.51 930.06 102.2 930.53 101.92 931.01 101.68 931.51 101.48 932.02 101.31 932.54 101.17 933.07 101.08 933.61 101.02 934.15 101 941.7 101 M 994.28 101 994.28 135 1003.72 135 1004.32 134.98 1004.93 134.92 1005.52 134.83 1006.11 134.69 1006.69 134.52 1007.26 134.31 1007.82 134.07 1008.35 133.79 1008.87 133.47 1009.37 133.13 1009.84 132.75 1010.29 132.34 1010.71 131.91 1011.1 131.45 1011.46 130.96 1011.79 130.45 1012.09 129.93 1012.35 129.38 1012.58 128.82 1012.77 128.25 1012.92 127.66 1013.04 127.07 1013.12 126.47 1013.16 125.86 1013.16 125.26 1013.12 124.65 1013.04 124.05 1012.92 123.46 1012.77 122.87 1012.58 122.3 1012.35 121.74 1012.09 121.19 1011.79 120.67 1011.46 120.16 1011.1 119.67 1010.71 119.21 1010.29 118.78 1009.84 118.37 1009.37 117.99 1008.87 117.65 1008.35 117.33 1007.82 117.05 1007.26 116.81 1006.69 116.6 1006.11 116.43 1005.52 116.29 1004.93 116.2 1004.32 116.14 1003.72 116.12 M 1003.72 116.11 994.28 116.11 M 1005.61 116.11 1013.16 101 M 1036.99 101 1036.99 135 M 1046.43 135 1027.54 135 M 1033.5 151 1033.5 185 M 1033.5 169.89 1052.39 169.89 M 1052.39 185 1052.39 151 M 1068.81 151 1080.15 185 1091.48 151 M 1088.65 159.5 1071.65 159.5 M 1082.95 135 1090.5 135 M 1082.95 135 1082.41 134.98 1081.87 134.92 1081.34 134.83 1080.82 134.69 1080.31 134.52 1079.81 134.32 1079.33 134.08 1078.86 133.8 1078.42 133.49 1078 133.15 1077.6 132.79 1077.24 132.39 1076.9 131.97 1076.59 131.53 1076.31 131.06 1076.07 130.58 1075.87 130.08 1075.7 129.57 1075.56 129.05 1075.47 128.52 1075.41 127.98 1075.39 127.44 1075.39 108.56 1075.41 108.02 1075.47 107.48 1075.56 106.95 1075.7 106.43 1075.87 105.92 1076.07 105.42 1076.31 104.94 1076.59 104.47 1076.9 104.03 1077.24 103.61 1077.6 103.21 1078 102.85 1078.42 102.51 1078.86 102.2 1079.33 101.92 1079.81 101.68 1080.31 101.48 1080.82 101.31 1081.34 101.17 1081.87 101.08 1082.41 101.02 1082.95 101 1090.5 101 M 1105.54 110.44 1105.54 125.56 M 1105.55 125.56 1105.57 126.16 1105.63 126.77 1105.72 127.36 1105.86 127.95 1106.03 128.53 1106.24 129.1 1106.48 129.66 1106.76 130.19 1107.08 130.71 1107.42 131.21 1107.8 131.68 1108.21 132.13 1108.64 132.55 1109.1 132.94 1109.59 133.3 1110.1 133.63 1110.62 133.93 1111.17 134.19 1111.73 134.42 1112.3 134.61 1112.89 134.76 1113.48 134.88 1114.08 134.96 1114.69 135 1115.29 135 1115.9 134.96 1116.5 134.88 1117.09 134.76 1117.68 134.61 1118.25 134.42 1118.81 134.19 1119.36 133.93 1119.88 133.63 1120.39 133.3 1120.88 132.94 1121.34 132.55 1121.77 132.13 1122.18 131.68 1122.56 131.21 1122.9 130.71 1123.22 130.19 1123.5 129.66 1123.74 129.1 1123.95 128.53 1124.12 127.95 1124.26 127.36 1124.35 126.77 1124.41 126.16 1124.43 125.56 1124.43 110.44 1124.41 109.84 1124.35 109.23 1124.26 108.64 1124.12 108.05 1123.95 107.47 1123.74 106.9 1123.5 106.34 1123.22 105.81 1122.9 105.29 1122.56 104.79 1122.18 104.32 1121.77 103.87 1121.34 103.45 1120.88 103.06 1120.39 102.7 1119.88 102.37 1119.36 102.07 1118.81 101.81 1118.25 101.58 1117.68 101.39 1117.09 101.24 1116.5 101.12 1115.9 101.04 1115.29 101 1114.69 101 1114.08 101.04 1113.48 101.12 1112.89 101.24 1112.3 101.39 1111.73 101.58 1111.17 101.81 1110.62 102.07 1110.1 102.37 1109.59 102.7 1109.1 103.06 1108.64 103.45 1108.21 103.87 1107.8 104.32 1107.42 104.79 1107.08 105.29 1106.76 105.81 1106.48 106.34 1106.24 106.9 1106.03 107.47 1105.86 108.05 1105.72 108.64 1105.63 109.23 1105.57 109.84 1105.55 110.44 M 1143.25 101 1143.25 135 1154.59 116.11 1165.92 135 1165.92 101 M 1157.56 151 1146.22 171.78 M 1138.67 164.22 1157.56 185 M 1138.67 185 1138.67 151 M 1121.66 151 1114.11 151 1113.57 151.02 1113.03 151.08 1112.5 151.17 1111.98 151.31 1111.47 151.48 1110.97 151.68 1110.49 151.92 1110.02 152.2 1109.58 152.51 1109.16 152.85 1108.76 153.21 1108.4 153.61 1108.06 154.03 1107.75 154.47 1107.47 154.94 1107.23 155.42 1107.03 155.92 1106.86 156.43 1106.72 156.95 1106.63 157.48 1106.57 158.02 1106.55 158.56 1106.55 177.44 1106.57 177.98 1106.63 178.52 1106.72 179.05 1106.86 179.57 1107.03 180.08 1107.23 180.58 1107.47 181.06 1107.75 181.53 1108.06 181.97 1108.4 182.39 1108.76 182.79 1109.16 183.15 1109.58 183.49 1110.02 183.8 1110.49 184.08 1110.97 184.32 1111.47 184.52 1111.98 184.69 1112.5 184.83 1113.03 184.92 1113.57 184.98 1114.11 185 1121.66 185 M 1060.73 102.89 1060.73 101 1058.84 101 1058.84 102.89 1060.73 102.89 M 1013.99 151 1013.99 185 M 995.1 185 1013.99 151 M 995.1 151 995.1 185 M 940.46 185 932.91 185 932.37 184.98 931.83 184.92 931.3 184.83 930.78 184.69 930.27 184.52 929.77 184.32 929.29 184.08 928.82 183.8 928.38 183.49 927.96 183.15 927.56 182.79 927.2 182.39 926.86 181.97 926.55 181.53 926.27 181.06 926.03 180.58 925.83 180.08 925.66 179.57 925.52 179.05 925.43 178.52 925.37 177.98 925.35 177.44 M 839.99 169.89 821.1 169.89 M 821.1 185 821.1 151 M 839.99 151 839.99 185 M 812.74 135 812.74 101" fill="none" stroke-width="6"/><path d="M 239.33 118 239.33 168 289.33 218 239.33 268 289.33 318 239.33 368 289.33 418 239.33 468 289.33 518 239.33 568 289.33 618 239.33 668 239.33 568 239.33 468 239.33 368 239.33 268 239.33 168 M 239.33 118 239.36 115.58 239.45 113.17 239.59 110.76 239.8 108.35 240.06 105.95 240.38 103.55 240.76 101.16 241.19 98.79 241.69 96.42 242.24 94.07 242.84 91.73 243.51 89.41 244.22 87.1 245 84.81 245.83 82.54 246.71 80.29 247.65 78.06 248.64 75.86 249.69 73.68 250.78 71.53 251.93 69.4 253.13 67.3 254.38 65.24 255.68 63.2 257.03 61.19 258.43 59.22 259.87 57.28 261.36 55.38 262.9 53.52 264.48 51.69 266.1 49.9 267.77 48.15 269.48 46.44 271.23 44.77 273.02 43.15 274.85 41.57 276.71 40.03 278.61 38.54 280.55 37.1 282.52 35.7 284.53 34.35 286.57 33.05 288.63 31.8 290.73 30.6 292.86 29.45 295.01 28.36 297.19 27.31 299.39 26.32 301.62 25.38 303.87 24.5 306.14 23.67 308.43 22.89 310.74 22.18 313.06 21.51 315.4 20.91 317.75 20.36 320.12 19.86 322.49 19.43 324.88 19.05 327.28 18.73 329.68 18.47 332.09 18.26 334.5 18.12 336.91 18.03 339.33 18 1139.33 18 1141.75 18.03 1144.16 18.12 1146.57 18.26 1148.98 18.47 1151.38 18.73 1153.78 19.05 1156.17 19.43 1158.54 19.86 1160.91 20.36 1163.26 20.91 1165.6 21.51 1167.92 22.18 1170.23 22.89 1172.52 23.67 1174.79 24.5 1177.04 25.38 1179.27 26.32 1181.47 27.31 1183.65 28.36 1185.8 29.45 1187.93 30.6 1190.03 31.8 1192.09 33.05 1194.13 34.35 1196.14 35.7 1198.11 37.1 1200.05 38.54 1201.95 40.03 1203.81 41.57 1205.64 43.15 1207.43 44.77 1209.18 46.44 1210.89 48.15 1212.56 49.9 1214.18 51.69 1215.76 53.52 1217.3 55.38 1218.79 57.28 1220.23 59.22 1221.63 61.19 1222.98 63.2 1224.28 65.24 1225.53 67.3 1226.73 69.4 1227.88 71.53 1228.97 73.68 1230.02 75.86 1231.01 78.06 1231.95 80.29 1232.83 82.54 1233.66 84.81 1234.44 87.1 1235.15 89.41 1235.82 91.73 1236.42 94.07 1236.97 96.42 1237.47 98.79 1237.9 101.16 1238.28 103.55 1238.6 105.95 1238.86 108.35 1239.07 110.76 1239.21 113.17 1239.3 115.58 1239.33 118 1239.33 718 1239.3 720.42 1239.21 722.83 1239.07 725.24 1238.86 727.65 1238.6 730.05 1238.28 732.45 1237.9 734.84 1237.47 737.21 1236.97 739.58 1236.42 741.93 1235.82 744.27 1235.15 746.59 1234.44 748.9 1233.66 751.19 1232.83 753.46 1231.95 755.71 1231.01 757.94 1230.02 760.14 1228.97 762.32 1227.88 764.47 1226.73 766.6 1225.53 768.7 1224.28 770.76 1222.98 772.8 1221.63 774.81 1220.23 776.78 1218.79 778.72 1217.3 780.62 1215.76 782.48 1214.18 784.31 1212.56 786.1 1210.89 787.85 1209.18 789.56 1207.43 791.23 1205.64 792.85 1203.81 794.43 1201.95 795.97 1200.05 797.46 1198.11 798.9 1196.14 800.3 1194.13 801.65 1192.09 802.95 1190.03 804.2 1187.93 805.4 1185.8 806.55 1183.65 807.64 1181.47 808.69 1179.27 809.68 1177.04 810.62 1174.79 811.5 1172.52 812.33 1170.23 813.11 1167.92 813.82 1165.6 814.49 1163.26 815.09 1160.91 815.64 1158.54 816.14 1156.17 816.57 1153.78 816.95 1151.38 817.27 1148.98 817.53 1146.57 817.74 1144.16 817.88 1141.75 817.97 1139.33 818 339.33 818 336.91 817.97 334.5 817.88 332.09 817.74 329.68 817.53 327.28 817.27 324.88 816.95 322.49 816.57 320.12 816.14 317.75 815.64 315.4 815.09 313.06 814.49 310.74 813.82 308.43 813.11 306.14 812.33 303.87 811.5 301.62 810.62 299.39 809.68 297.19 808.69 295.01 807.64 292.86 806.55 290.73 805.4 288.63 804.2 286.57 802.95 284.53 801.65 282.52 800.3 280.55 798.9 278.61 797.46 276.71 795.97 274.85 794.43 273.02 792.85 271.23 791.23 269.48 789.56 267.77 787.85 266.1 786.1 264.48 784.31 262.9 782.48 261.36 780.62 259.87 778.72 258.43 776.78 257.03 774.81 255.68 772.8 254.38 770.76 253.13 768.7 251.93 766.6 250.78 764.47 249.69 762.32 248.64 760.14 247.65 757.94 246.71 755.71 245.83 753.46 245 751.19 244.22 748.9 243.51 746.59 242.84 744.27 242.24 741.93 241.69 739.58 241.19 737.21 240.76 734.84 240.38 732.45 240.06 730.05 239.8 727.65 239.59 725.24 239.45 722.83 239.36 720.42 239.33 718 239.33 668 M 464.33 668 489.33 643 489.33 318 764.33 318 789.33 293 M 814.33 343 789.33 368 789.33 468 814.33 493 M 839.33 568 789.33 568 M 839.33 568 839.33 618 M 839.33 718 839.33 768 789.33 768" fill="none" stroke-width="16"/><path d="M 789.33 743 764.33 768 714.33 768 689.33 743 689.33 693 714.33 668 689.33 643 689.33 593 714.33 568 764.33 568 789.33 593 789.33 643 764.33 668 789.33 693 789.33 743 M 957.83 567.61 1040.51 567.61 M 1166.5 567.61 1221.61 567.61 1221.61 268.39 1166.5 268.39 M 1040.51 268.39 957.83 268.39 M 859.41 295.95 859.41 331.39 M 789.33 243 764.33 268 714.33 268 689.33 243 664.33 268 614.33 268 589.33 243 564.33 268 514.33 268 489.33 243 489.33 193 514.33 168 564.33 168 589.33 193 614.33 168 664.33 168 689.33 193 714.33 168 764.33 168 789.33 193 789.33 243 M 859.41 504.61 859.41 540.05 M 439.33 543 439.33 493 414.33 468 439.33 443 439.33 393 414.33 368 439.33 343 439.33 293 414.33 268 439.33 243 439.33 193 414.33 168 364.33 168 339.33 193 339.33 243 364.33 268 339.33 293 339.33 343 364.33 368 339.33 393 339.33 443 364.33 468 339.33 493 339.33 543 364.33 568 339.33 593 339.33 643 364.33 668 414.33 668 439.33 643 439.33 593 414.33 568 439.33 543" fill="none" stroke-width="8"/><use xlink:href="#je2gFfElYoSa5Dzkwhlz_pad-14" x="389.33" y="518"/><use xlink:href="#je2gFfElYoSa5Dzkwhlz_pad-14" x="389.33" y="418"/><use xlink:href="#je2gFfElYoSa5Dzkwhlz_pad-14" x="389.33" y="318"/><use xlink:href="#je2gFfElYoSa5Dzkwhlz_pad-14" x="389.33" y="218"/><use xlink:href="#je2gFfElYoSa5Dzkwhlz_pad-14" x="539.33" y="218"/><use xlink:href="#je2gFfElYoSa5Dzkwhlz_pad-14" x="639.33" y="218"/><use xlink:href="#je2gFfElYoSa5Dzkwhlz_pad-14" x="739.33" y="218"/><use xlink:href="#je2gFfElYoSa5Dzkwhlz_pad-14" x="739.33" y="618"/><use xlink:href="#je2gFfElYoSa5Dzkwhlz_pad-14" x="739.33" y="718"/><use xlink:href="#je2gFfElYoSa5Dzkwhlz_pad-14" x="389.33" y="618"/></g><g id="N-Gu1IWNseYV4nU45Lsc_top_copper"><path d="M 239.33 118 239.33 718 239.36 720.42 239.45 722.83 239.59 725.24 239.8 727.65 240.06 730.05 240.38 732.45 240.76 734.84 241.19 737.21 241.69 739.58 242.24 741.93 242.84 744.27 243.51 746.59 244.22 748.9 245 751.19 245.83 753.46 246.71 755.71 247.65 757.94 248.64 760.14 249.69 762.32 250.78 764.47 251.93 766.6 253.13 768.7 254.38 770.76 255.68 772.8 257.03 774.81 258.43 776.78 259.87 778.72 261.36 780.62 262.9 782.48 264.48 784.31 266.1 786.1 267.77 787.85 269.48 789.56 271.23 791.23 273.02 792.85 274.85 794.43 276.71 795.97 278.61 797.46 280.55 798.9 282.52 800.3 284.53 801.65 286.57 802.95 288.63 804.2 290.73 805.4 292.86 806.55 295.01 807.64 297.19 808.69 299.39 809.68 301.62 810.62 303.87 811.5 306.14 812.33 308.43 813.11 310.74 813.82 313.06 814.49 315.4 815.09 317.75 815.64 320.12 816.14 322.49 816.57 324.88 816.95 327.28 817.27 329.68 817.53 332.09 817.74 334.5 817.88 336.91 817.97 339.33 818 1139.33 818 1141.75 817.97 1144.16 817.88 1146.57 817.74 1148.98 817.53 1151.38 817.27 1153.78 816.95 1156.17 816.57 1158.54 816.14 1160.91 815.64 1163.26 815.09 1165.6 814.49 1167.92 813.82 1170.23 813.11 1172.52 812.33 1174.79 811.5 1177.04 810.62 1179.27 809.68 1181.47 808.69 1183.65 807.64 1185.8 806.55 1187.93 805.4 1190.03 804.2 1192.09 802.95 1194.13 801.65 1196.14 800.3 1198.11 798.9 1200.05 797.46 1201.95 795.97 1203.81 794.43 1205.64 792.85 1207.43 791.23 1209.18 789.56 1210.89 787.85 1212.56 786.1 1214.18 784.31 1215.76 782.48 1217.3 780.62 1218.79 778.72 1220.23 776.78 1221.63 774.81 1222.98 772.8 1224.28 770.76 1225.53 768.7 1226.73 766.6 1227.88 764.47 1228.97 762.32 1230.02 760.14 1231.01 757.94 1231.95 755.71 1232.83 753.46 1233.66 751.19 1234.44 748.9 1235.15 746.59 1235.82 744.27 1236.42 741.93 1236.97 739.58 1237.47 737.21 1237.9 734.84 1238.28 732.45 1238.6 730.05 1238.86 727.65 1239.07 725.24 1239.21 722.83 1239.3 720.42 1239.33 718 1239.33 118 1239.3 115.58 1239.21 113.17 1239.07 110.76 1238.86 108.35 1238.6 105.95 1238.28 103.55 1237.9 101.16 1237.47 98.79 1236.97 96.42 1236.42 94.07 1235.82 91.73 1235.15 89.41 1234.44 87.1 1233.66 84.81 1232.83 82.54 1231.95 80.29 1231.01 78.06 1230.02 75.86 1228.97 73.68 1227.88 71.53 1226.73 69.4 1225.53 67.3 1224.28 65.24 1222.98 63.2 1221.63 61.19 1220.23 59.22 1218.79 57.28 1217.3 55.38 1215.76 53.52 1214.18 51.69 1212.56 49.9 1210.89 48.15 1209.18 46.44 1207.43 44.77 1205.64 43.15 1203.81 41.57 1201.95 40.03 1200.05 38.54 1198.11 37.1 1196.14 35.7 1194.13 34.35 1192.09 33.05 1190.03 31.8 1187.93 30.6 1185.8 29.45 1183.65 28.36 1181.47 27.31 1179.27 26.32 1177.04 25.38 1174.79 24.5 1172.52 23.67 1170.23 22.89 1167.92 22.18 1165.6 21.51 1163.26 20.91 1160.91 20.36 1158.54 19.86 1156.17 19.43 1153.78 19.05 1151.38 18.73 1148.98 18.47 1146.57 18.26 1144.16 18.12 1141.75 18.03 1139.33 18 339.33 18 336.91 18.03 334.5 18.12 332.09 18.26 329.68 18.47 327.28 18.73 324.88 19.05 322.49 19.43 320.12 19.86 317.75 20.36 315.4 20.91 313.06 21.51 310.74 22.18 308.43 22.89 306.14 23.67 303.87 24.5 301.62 25.38 299.39 26.32 297.19 27.31 295.01 28.36 292.86 29.45 290.73 30.6 288.63 31.8 286.57 33.05 284.53 34.35 282.52 35.7 280.55 37.1 278.61 38.54 276.71 40.03 274.85 41.57 273.02 43.15 271.23 44.77 269.48 46.44 267.77 48.15 266.1 49.9 264.48 51.69 262.9 53.52 261.36 55.38 259.87 57.28 258.43 59.22 257.03 61.19 255.68 63.2 254.38 65.24 253.13 67.3 251.93 69.4 250.78 71.53 249.69 73.68 248.64 75.86 247.65 78.06 246.71 80.29 245.83 82.54 245 84.81 244.22 87.1 243.51 89.41 242.84 91.73 242.24 94.07 241.69 96.42 241.19 98.79 240.76 101.16 240.38 103.55 240.06 105.95 239.8 108.35 239.59 110.76 239.45 113.17 239.36 115.58 239.33 118 M 971.61 331.39 971.63 332.23 971.69 333.06 971.79 333.89 971.93 334.72 972.1 335.54 972.32 336.35 972.57 337.14 972.86 337.93 973.19 338.7 973.55 339.45 973.95 340.19 974.38 340.91 974.85 341.6 975.35 342.27 975.88 342.92 976.44 343.54 977.02 344.14 977.64 344.71 978.28 345.24 978.95 345.75 979.64 346.22 980.35 346.67 981.08 347.07 981.83 347.44 982.6 347.78 983.38 348.08 984.17 348.34 984.98 348.57 985.8 348.75 986.62 348.9 987.45 349.01 988.28 349.08 989.12 349.11 989.96 349.1 990.79 349.05 991.63 348.96 992.45 348.83 993.27 348.67 994.08 348.46 994.89 348.22 995.67 347.94 996.45 347.62 997.21 347.26 997.95 346.87 998.67 346.45 999.37 345.99 1000.05 345.5 1000.7 344.98 1001.33 344.43 1001.93 343.85 1002.51 343.24 1003.05 342.6 1003.57 341.94 1004.05 341.26 1004.5 340.55 1004.91 339.82 1005.3 339.08 1005.64 338.32 1005.95 337.54 1006.22 336.75 1006.46 335.94 1006.65 335.13 1006.81 334.31 1006.93 333.48 1007.01 332.64 1007.05 331.81 1007.05 330.97 1007.01 330.14 1006.93 329.3 1006.81 328.47 1006.65 327.65 1006.46 326.84 1006.22 326.03 1005.95 325.24 1005.64 324.46 1005.3 323.7 1004.91 322.96 1004.5 322.23 1004.05 321.52 1003.57 320.84 1003.05 320.18 1002.51 319.54 1001.93 318.93 1001.33 318.35 1000.7 317.8 1000.05 317.28 999.37 316.79 998.67 316.33 997.95 315.91 997.21 315.52 996.45 315.16 995.67 314.84 994.89 314.56 994.08 314.32 993.27 314.11 992.45 313.95 991.63 313.82 990.79 313.73 989.96 313.68 989.12 313.67 988.28 313.7 987.45 313.77 986.62 313.88 985.8 314.03 984.98 314.21 984.17 314.44 983.38 314.7 982.6 315 981.83 315.34 981.08 315.71 980.35 316.11 979.64 316.56 978.95 317.03 978.28 317.54 977.64 318.07 977.02 318.64 976.44 319.24 975.88 319.86 975.35 320.51 974.85 321.18 974.38 321.87 973.95 322.59 973.55 323.33 973.19 324.08 972.86 324.85 972.57 325.64 972.32 326.43 972.1 327.24 971.93 328.06 971.79 328.89 971.69 329.72 971.63 330.55 971.61 331.39 M 1060.99 343.2 1061.01 344.01 1061.07 344.83 1061.17 345.64 1061.31 346.44 1061.48 347.23 1061.7 348.02 1061.95 348.79 1062.24 349.56 1062.57 350.3 1062.94 351.03 1063.33 351.74 1063.77 352.43 1064.23 353.1 1064.73 353.74 1065.26 354.36 1065.82 354.96 1066.4 355.52 1067.02 356.06 1067.66 356.57 1068.32 357.04 1069 357.48 1069.71 357.89 1070.43 358.26 1071.18 358.6 1071.93 358.9 1072.71 359.16 1073.49 359.39 1074.28 359.57 1075.08 359.72 1075.89 359.83 1076.7 359.9 1077.52 359.93 1078.33 359.92 1079.14 359.87 1079.95 359.78 1080.76 359.65 1081.56 359.48 1082.34 359.28 1083.12 359.03 1083.89 358.75 1084.64 358.43 1085.37 358.08 1086.08 357.69 1086.78 357.26 1087.45 356.81 1088.11 356.32 1088.73 355.8 1089.33 355.24 1089.9 354.66 1090.45 354.06 1090.96 353.42 1091.44 352.77 1091.89 352.09 1092.31 351.39 1092.69 350.67 1093.04 349.93 1093.35 349.18 1093.62 348.41 1093.85 347.63 1094.05 346.84 1094.21 346.04 1094.33 345.23 1094.41 344.42 1094.45 343.61 1094.45 342.79 1094.41 341.98 1094.33 341.17 1094.21 340.36 1094.05 339.56 1093.85 338.77 1093.62 337.99 1093.35 337.22 1093.04 336.47 1092.69 335.73 1092.31 335.01 1091.89 334.31 1091.44 333.63 1090.96 332.98 1090.45 332.34 1089.9 331.74 1089.33 331.16 1088.73 330.6 1088.11 330.08 1087.45 329.59 1086.78 329.14 1086.09 328.71 1085.37 328.32 1084.64 327.97 1083.89 327.65 1083.12 327.37 1082.34 327.12 1081.56 326.92 1080.76 326.75 1079.95 326.62 1079.14 326.53 1078.33 326.48 1077.52 326.47 1076.7 326.5 1075.89 326.57 1075.08 326.68 1074.28 326.83 1073.49 327.01 1072.71 327.24 1071.93 327.5 1071.18 327.8 1070.43 328.14 1069.71 328.51 1069 328.92 1068.32 329.36 1067.66 329.83 1067.02 330.34 1066.4 330.88 1065.82 331.44 1065.26 332.04 1064.73 332.66 1064.23 333.3 1063.77 333.97 1063.33 334.66 1062.94 335.37 1062.57 336.1 1062.24 336.84 1061.95 337.61 1061.7 338.38 1061.48 339.17 1061.31 339.96 1061.17 340.76 1061.07 341.57 1061.01 342.39 1060.99 343.2 M 1060.99 492.8 1061.01 493.61 1061.07 494.43 1061.17 495.24 1061.31 496.04 1061.48 496.83 1061.7 497.62 1061.95 498.39 1062.24 499.16 1062.57 499.9 1062.94 500.63 1063.33 501.34 1063.77 502.03 1064.23 502.7 1064.73 503.34 1065.26 503.96 1065.82 504.56 1066.4 505.12 1067.02 505.66 1067.66 506.17 1068.32 506.64 1069 507.08 1069.71 507.49 1070.43 507.86 1071.18 508.2 1071.93 508.5 1072.71 508.76 1073.49 508.99 1074.28 509.17 1075.08 509.32 1075.89 509.43 1076.7 509.5 1077.52 509.53 1078.33 509.52 1079.14 509.47 1079.95 509.38 1080.76 509.25 1081.56 509.08 1082.34 508.88 1083.12 508.63 1083.89 508.35 1084.64 508.03 1085.37 507.68 1086.08 507.29 1086.78 506.86 1087.45 506.41 1088.11 505.92 1088.73 505.4 1089.33 504.84 1089.9 504.26 1090.45 503.66 1090.96 503.02 1091.44 502.37 1091.89 501.69 1092.31 500.99 1092.69 500.27 1093.04 499.53 1093.35 498.78 1093.62 498.01 1093.85 497.23 1094.05 496.44 1094.21 495.64 1094.33 494.83 1094.41 494.02 1094.45 493.21 1094.45 492.39 1094.41 491.58 1094.33 490.77 1094.21 489.96 1094.05 489.16 1093.85 488.37 1093.62 487.59 1093.35 486.82 1093.04 486.07 1092.69 485.33 1092.31 484.61 1091.89 483.91 1091.44 483.23 1090.96 482.58 1090.45 481.94 1089.9 481.34 1089.33 480.76 1088.73 480.2 1088.11 479.68 1087.45 479.19 1086.78 478.74 1086.09 478.31 1085.37 477.92 1084.64 477.57 1083.89 477.25 1083.12 476.97 1082.34 476.72 1081.56 476.52 1080.76 476.35 1079.95 476.22 1079.14 476.13 1078.33 476.08 1077.52 476.07 1076.7 476.1 1075.89 476.17 1075.08 476.28 1074.28 476.43 1073.49 476.61 1072.71 476.84 1071.93 477.1 1071.18 477.4 1070.43 477.74 1069.71 478.11 1069 478.52 1068.32 478.96 1067.66 479.43 1067.02 479.94 1066.4 480.48 1065.82 481.04 1065.26 481.64 1064.73 482.26 1064.23 482.9 1063.77 483.57 1063.33 484.26 1062.94 484.97 1062.57 485.7 1062.24 486.44 1061.95 487.21 1061.7 487.98 1061.48 488.77 1061.31 489.56 1061.17 490.36 1061.07 491.17 1061.01 491.99 1060.99 492.8 M 971.61 504.61 971.63 505.45 971.69 506.28 971.79 507.11 971.93 507.94 972.1 508.76 972.32 509.57 972.57 510.36 972.86 511.15 973.19 511.92 973.55 512.67 973.95 513.41 974.38 514.13 974.85 514.82 975.35 515.49 975.88 516.14 976.44 516.76 977.02 517.36 977.64 517.93 978.28 518.46 978.95 518.97 979.64 519.44 980.35 519.89 981.08 520.29 981.83 520.66 982.6 521 983.38 521.3 984.17 521.56 984.98 521.79 985.8 521.97 986.62 522.12 987.45 522.23 988.28 522.3 989.12 522.33 989.96 522.32 990.79 522.27 991.63 522.18 992.45 522.05 993.27 521.89 994.08 521.68 994.89 521.44 995.67 521.16 996.45 520.84 997.21 520.48 997.95 520.09 998.67 519.67 999.37 519.21 1000.05 518.72 1000.7 518.2 1001.33 517.65 1001.93 517.07 1002.51 516.46 1003.05 515.82 1003.57 515.16 1004.05 514.48 1004.5 513.77 1004.91 513.04 1005.3 512.3 1005.64 511.54 1005.95 510.76 1006.22 509.97 1006.46 509.16 1006.65 508.35 1006.81 507.53 1006.93 506.7 1007.01 505.86 1007.05 505.03 1007.05 504.19 1007.01 503.36 1006.93 502.52 1006.81 501.69 1006.65 500.87 1006.46 500.06 1006.22 499.25 1005.95 498.46 1005.64 497.68 1005.3 496.92 1004.91 496.18 1004.5 495.45 1004.05 494.74 1003.57 494.06 1003.05 493.4 1002.51 492.76 1001.93 492.15 1001.33 491.57 1000.7 491.02 1000.05 490.5 999.37 490.01 998.67 489.55 997.95 489.13 997.21 488.74 996.45 488.38 995.67 488.06 994.89 487.78 994.08 487.54 993.27 487.33 992.45 487.17 991.63 487.04 990.79 486.95 989.96 486.9 989.12 486.89 988.28 486.92 987.45 486.99 986.62 487.1 985.8 487.25 984.98 487.43 984.17 487.66 983.38 487.92 982.6 488.22 981.83 488.56 981.08 488.93 980.35 489.33 979.64 489.78 978.95 490.25 978.28 490.76 977.64 491.29 977.02 491.86 976.44 492.46 975.88 493.08 975.35 493.73 974.85 494.4 974.38 495.09 973.95 495.81 973.55 496.55 973.19 497.3 972.86 498.07 972.57 498.86 972.32 499.65 972.1 500.46 971.93 501.28 971.79 502.11 971.69 502.94 971.63 503.77 971.61 504.61" fill="none" stroke-width="0"/><use xlink:href="#oDQm-8_XAeOTYAktSd7Q_pad-11" x="890.91" y="480.99"/><use xlink:href="#oDQm-8_XAeOTYAktSd7Q_pad-11" x="890.91" y="449.5"/><use xlink:href="#oDQm-8_XAeOTYAktSd7Q_pad-11" x="890.91" y="418"/><use xlink:href="#oDQm-8_XAeOTYAktSd7Q_pad-11" x="890.91" y="386.5"/><use xlink:href="#oDQm-8_XAeOTYAktSd7Q_pad-11" x="890.91" y="355.01"/><use xlink:href="#oDQm-8_XAeOTYAktSd7Q_pad-12" x="890.91" y="240.83"/><use xlink:href="#oDQm-8_XAeOTYAktSd7Q_pad-12" x="1107.44" y="240.83"/><use xlink:href="#oDQm-8_XAeOTYAktSd7Q_pad-12" x="1107.44" y="595.17"/><use xlink:href="#oDQm-8_XAeOTYAktSd7Q_pad-12" x="890.91" y="595.17"/><use xlink:href="#oDQm-8_XAeOTYAktSd7Q_pad-13" x="739.33" y="618"/><use xlink:href="#oDQm-8_XAeOTYAktSd7Q_pad-13" x="739.33" y="718"/><use xlink:href="#oDQm-8_XAeOTYAktSd7Q_pad-13" x="389.33" y="618"/><use xlink:href="#oDQm-8_XAeOTYAktSd7Q_pad-13" x="389.33" y="518"/><use xlink:href="#oDQm-8_XAeOTYAktSd7Q_pad-13" x="389.33" y="418"/><use xlink:href="#oDQm-8_XAeOTYAktSd7Q_pad-13" x="389.33" y="318"/><use xlink:href="#oDQm-8_XAeOTYAktSd7Q_pad-13" x="389.33" y="218"/><use xlink:href="#oDQm-8_XAeOTYAktSd7Q_pad-13" x="539.33" y="218"/><use xlink:href="#oDQm-8_XAeOTYAktSd7Q_pad-13" x="639.33" y="218"/><use xlink:href="#oDQm-8_XAeOTYAktSd7Q_pad-13" x="739.33" y="218"/><path d="M 689.33 241.01 692.7 249.15 708.18 264.63 728.39 273 750.27 273 770.49 264.63 785.96 249.15 794.33 228.94 794.33 207.06 785.96 186.84 770.49 171.37 750.27 163 728.39 163 708.18 171.37 692.7 186.84 689.33 194.99 685.96 186.84 670.49 171.37 650.27 163 628.39 163 608.18 171.37 592.7 186.84 589.33 194.99 585.96 186.84 570.49 171.37 550.27 163 528.39 163 508.18 171.37 492.7 186.84 484.33 207.06 484.33 228.94 484.41 229.14 459.68 204.41 452.93 197.65 444.1 194 438.92 194 435.96 186.84 420.49 171.37 400.27 163 378.39 163 358.18 171.37 342.7 186.84 339.74 194 334.56 194 325.74 197.65 318.98 204.41 285.33 238.06 285.33 118 285.79 110.95 289.44 97.34 296.49 85.13 306.46 75.16 318.67 68.11 332.28 64.46 332.28 64.46 339.33 64 1139.33 64 1146.38 64.46 1160 68.11 1172.2 75.16 1182.17 85.13 1189.22 97.33 1192.87 110.95 1193.33 118 1193.33 718 1192.87 725.05 1189.22 738.66 1182.17 750.87 1172.2 760.84 1160 767.89 1146.38 771.54 1139.33 772 752.68 772 770.49 764.63 785.96 749.15 794.33 728.94 794.33 707.06 785.96 686.84 770.49 671.37 759.91 666.99 767.11 663.33 773.86 658.43 779.76 652.53 784.66 645.78 788.45 638.34 791.03 630.41 792.33 622.17 792.33 622 743.33 622 743.33 614 743.33 565 743.5 565 751.74 566.3 759.68 568.88 767.11 572.67 773.86 577.57 779.76 583.47 784.66 590.22 788.45 597.66 791.03 605.59 792.33 613.83 792.33 614 743.33 614 735.33 614 686.33 614 686.33 613.83 687.64 605.59 690.21 597.66 694 590.22 698.9 583.47 704.8 577.57 711.55 572.67 718.99 568.88 726.92 566.3 735.16 565 735.33 565 735.33 614 735.33 622 686.33 622 686.33 622.17 687.64 630.41 690.21 638.34 694 645.78 698.9 652.53 704.8 658.43 711.55 663.33 718.75 666.99 708.18 671.37 692.7 686.84 689.74 694 349.27 694 313.33 658.06 313.33 277.94 342.53 248.74 342.7 249.15 358.18 264.63 366.32 268 358.18 271.37 342.7 286.84 334.33 307.06 334.33 328.94 342.7 349.15 358.18 364.63 366.32 368 358.18 371.37 342.7 386.84 334.33 407.06 334.33 428.94 342.7 449.15 358.18 464.63 366.32 468 358.18 471.37 342.7 486.84 334.33 507.06 334.33 528.94 342.7 549.15 358.18 564.63 368.75 569.01 361.55 572.67 354.8 577.57 348.9 583.47 344 590.22 340.21 597.66 337.64 605.59 336.33 613.83 336.33 614 385.33 614 385.33 622 336.33 622 336.33 622.17 337.64 630.41 340.21 638.34 344 645.78 348.9 652.53 354.8 658.43 361.55 663.33 368.99 667.12 376.92 669.69 385.16 671 385.33 671 385.33 622 393.33 622 393.33 671 393.5 671 401.74 669.69 409.68 667.12 417.11 663.33 423.86 658.43 429.76 652.53 434.66 645.78 438.45 638.34 441.03 630.41 442.33 622.17 442.33 622 393.33 622 393.33 614 442.33 614 442.33 613.83 441.03 605.59 438.45 597.66 434.66 590.22 429.76 583.47 423.86 577.57 417.11 572.67 409.91 569.01 420.49 564.63 435.96 549.15 438.92 542 444.1 542 452.93 538.35 459.68 531.59 517.78 473.5 825.69 473.5 825.69 480.99 890.9 480.99 890.9 480.99 825.69 480.99 825.69 492.94 826.78 497.01 828.89 500.66 831.87 503.64 835.52 505.74 839.59 506.83 890.9 506.83 890.9 480.99 890.91 480.99 776.34 480.99 739.33 518 739.33 618 389.33 618 M 385.33 617.26 313.33 617.26 M 313.33 629.24 337.45 629.24 M 341.68 641.23 313.33 641.23 M 313.33 653.21 349.59 653.21 M 365.22 665.2 320.47 665.2 M 332.45 677.18 702.37 677.18 M 691.74 689.17 344.44 689.17 M 339.33 718 289.33 668 289.33 268 339.33 218 389.33 218 439.33 218 464.33 243 464.33 293 526.34 355.01 890.91 355.01 M 890.91 386.5 507.83 386.5 439.33 318 389.33 318 M 347.13 353.58 313.33 353.58 M 313.33 341.6 339.57 341.6 M 334.61 329.61 313.33 329.61 M 313.33 317.63 334.33 317.63 M 334.92 305.64 313.33 305.64 M 313.33 293.66 339.88 293.66 M 347.88 281.67 313.33 281.67 M 321.58 269.69 362.25 269.69 M 351.25 257.7 333.57 257.7 M 289.66 233.73 285.33 233.73 M 285.33 221.75 301.64 221.75 M 313.63 209.76 285.33 209.76 M 285.33 197.78 325.61 197.78 M 343.76 185.79 285.33 185.79 M 285.33 173.81 355.74 173.81 M 422.92 173.81 505.74 173.81 M 493.76 185.79 434.9 185.79 M 453.05 197.78 488.18 197.78 M 484.33 209.76 465.03 209.76 M 477.02 221.75 484.33 221.75 M 488.33 238.6 488.33 283.06 536.28 331.01 830.39 331.01 834.24 327.17 925.61 327.17 925.61 318.71 934.94 296.2 896.91 296.2 896.91 246.84 884.91 246.84 884.91 296.2 839.59 296.2 835.52 295.11 831.87 293.01 828.89 290.03 826.78 286.38 825.69 282.31 825.69 246.83 884.91 246.83 884.91 234.83 896.91 234.83 896.91 246.83 956.12 246.83 956.12 276.18 976.66 267.67 1002 267.67 1025.42 277.37 1040.12 292.07 1042.18 290.02 1044.79 288.93 1043.32 286.38 1042.23 282.31 1042.23 246.83 1101.44 246.83 1101.44 234.83 1113.44 234.83 1113.44 185.46 1158.76 185.46 1162.83 186.55 1166.48 188.66 1169.46 191.64 1171.56 195.29 1172.65 199.36 1172.65 234.83 1113.44 234.83 1113.44 246.83 1172.65 246.83 1172.65 282.31 1171.56 286.38 1169.46 290.03 1166.48 293.01 1162.83 295.11 1158.76 296.2 1119.44 296.2 1130.9 307.66 1140.45 330.72 1140.45 355.68 1130.9 378.73 1113.25 396.38 1090.19 405.93 1065.24 405.93 1042.18 396.38 1028.31 382.51 1025.42 385.4 1002 395.1 976.66 395.1 958.12 387.42 958.12 448.58 976.66 440.9 1002 440.9 1025.42 450.6 1028.31 453.49 1042.18 439.62 1065.24 430.07 1090.19 430.07 1113.25 439.62 1130.9 457.27 1140.45 480.32 1140.45 505.28 1130.9 528.34 1119.44 539.8 1158.76 539.8 1162.83 540.89 1166.48 542.99 1169.46 545.97 1171.56 549.62 1172.65 553.69 1172.65 589.17 1113.44 589.17 1113.44 601.16 1172.65 601.16 1172.65 636.64 1171.56 640.71 1169.46 644.36 1166.48 647.34 1162.83 649.45 1158.76 650.54 1113.44 650.54 1113.44 601.17 1101.44 601.17 1101.44 650.54 1056.12 650.54 1052.05 649.45 1048.4 647.34 1045.43 644.36 1043.32 640.71 1042.23 636.64 1042.23 601.16 1101.44 601.16 1101.44 589.17 1042.23 589.17 1042.23 553.69 1043.32 549.62 1044.79 547.07 1042.18 545.98 1040.12 543.93 1025.42 558.63 1002 568.33 976.66 568.33 956.12 559.82 956.12 589.17 896.91 589.17 896.91 601.16 956.12 601.16 956.12 636.64 955.03 640.71 952.92 644.36 949.94 647.34 946.29 649.45 942.22 650.54 896.91 650.54 896.91 601.17 884.91 601.17 884.91 650.54 839.59 650.54 835.52 649.45 831.87 647.34 828.89 644.36 826.78 640.71 825.69 636.64 825.69 601.16 884.91 601.16 884.91 589.17 M 884.91 589.16 896.91 589.16 896.91 539.8 934.94 539.8 925.61 517.29 925.61 506.83 890.91 506.83 890.91 480.99 M 890.9 485.42 890.91 485.42 M 890.9 497.4 890.91 497.4 M 925.61 509.39 481.88 509.39 M 469.9 521.37 927.31 521.37 M 932.27 533.36 457.91 533.36 M 437.54 545.34 829.52 545.34 M 828.89 545.97 831.87 542.99 835.52 540.89 839.59 539.8 884.91 539.8 884.91 589.16 M 884.91 589.17 825.69 589.17 825.69 553.69 826.78 549.62 828.89 545.97 M 825.69 557.33 427.78 557.33 M 410.52 569.32 718.14 569.32 M 735.33 569.32 743.33 569.32 M 743.33 581.3 735.33 581.3 M 735.33 593.29 743.33 593.29 M 743.33 605.27 735.33 605.27 M 735.33 617.26 393.33 617.26 M 393.33 629.24 385.33 629.24 M 385.33 641.23 393.33 641.23 M 393.33 653.21 385.33 653.21 M 385.33 665.2 393.33 665.2 M 413.45 665.2 715.22 665.2 M 699.59 653.21 429.07 653.21 M 436.98 641.23 691.68 641.23 M 687.45 629.24 441.21 629.24 M 440.92 605.27 687.74 605.27 M 692.44 593.29 436.22 593.29 M 427.58 581.3 701.08 581.3 M 743.33 617.26 825.69 617.26 M 825.69 629.24 791.21 629.24 M 786.98 641.23 827.08 641.23 M 825.69 605.27 790.92 605.27 M 786.22 593.29 884.91 593.29 M 884.91 605.27 896.91 605.27 M 896.91 593.29 1101.44 593.29 M 1101.44 605.27 1113.44 605.27 M 1113.44 593.29 1193.33 593.29 M 1193.33 605.27 1172.65 605.27 M 1172.65 617.26 1193.33 617.26 M 1193.33 629.24 1172.65 629.24 M 1171.27 641.23 1193.33 641.23 M 1193.33 653.21 779.07 653.21 M 763.45 665.2 1193.33 665.2 M 1193.33 677.18 776.29 677.18 M 786.92 689.17 1193.33 689.17 M 1193.33 701.15 791.88 701.15 M 794.33 713.14 1193.33 713.14 M 1192.85 725.12 794.33 725.12 M 790.95 737.11 1189.64 737.11 M 1183.2 749.09 785.98 749.09 M 774.04 761.08 1171.79 761.08 M 1113.44 641.23 1101.44 641.23 M 1101.44 629.24 1113.44 629.24 M 1113.44 617.26 1101.44 617.26 M 1042.23 617.26 956.12 617.26 M 956.12 629.24 1042.23 629.24 M 1043.62 641.23 954.73 641.23 M 956.12 605.27 1042.23 605.27 M 1042.23 581.3 956.12 581.3 M 956.12 569.32 1042.23 569.32 M 1042.23 557.33 1026.72 557.33 M 1038.71 545.34 1041.54 545.34 M 1125.88 533.36 1193.33 533.36 M 1193.33 545.34 1168.83 545.34 M 1172.65 557.33 1193.33 557.33 M 1193.33 569.32 1172.65 569.32 M 1172.65 581.3 1193.33 581.3 M 1193.33 521.37 1133.78 521.37 M 1138.75 509.39 1193.33 509.39 M 1193.33 497.4 1140.45 497.4 M 1140.45 485.42 1193.33 485.42 M 1193.33 473.43 1137.59 473.43 M 1132.63 461.45 1193.33 461.45 M 1193.33 449.46 1123.09 449.46 M 1108.08 437.48 1193.33 437.48 M 1193.33 425.49 958.12 425.49 M 958.12 413.51 1193.33 413.51 M 1193.33 401.52 1100.83 401.52 M 1120.09 389.54 1193.33 389.54 M 1193.33 377.55 1131.39 377.55 M 1136.35 365.57 1193.33 365.57 M 1193.33 353.58 1140.45 353.58 M 1140.45 341.6 1193.33 341.6 M 1193.33 329.61 1139.99 329.61 M 1135.03 317.63 1193.33 317.63 M 1193.33 305.64 1128.88 305.64 M 1165.35 293.66 1193.33 293.66 M 1193.33 281.67 1172.65 281.67 M 1172.65 269.69 1193.33 269.69 M 1193.33 257.7 1172.65 257.7 M 1193.33 245.72 1113.44 245.72 M 1113.44 233.73 1101.44 233.73 M 1101.44 234.83 1101.44 185.46 1056.12 185.46 1052.05 186.55 1048.4 188.66 1045.43 191.64 1043.32 195.29 1042.23 199.36 1042.23 234.83 1101.44 234.83 M 1101.44 245.72 896.91 245.72 M 896.91 234.83 956.12 234.83 956.12 199.36 955.03 195.29 952.92 191.64 949.94 188.66 946.29 186.55 942.22 185.46 896.91 185.46 896.91 234.83 M 896.91 233.73 884.91 233.73 M 884.91 234.83 884.91 185.46 839.59 185.46 835.52 186.55 831.87 188.66 828.89 191.64 826.78 195.29 825.69 199.36 825.69 234.83 884.91 234.83 M 884.91 245.72 787.38 245.72 M 792.35 233.73 825.69 233.73 M 825.69 221.75 794.33 221.75 M 794.33 209.76 825.69 209.76 M 826.12 197.78 790.49 197.78 M 784.9 185.79 838.37 185.79 M 884.91 185.79 896.91 185.79 M 896.91 197.78 884.91 197.78 M 884.91 209.76 896.91 209.76 M 896.91 221.75 884.91 221.75 M 884.91 257.7 896.91 257.7 M 896.91 269.69 884.91 269.69 M 884.91 281.67 896.91 281.67 M 896.91 293.66 884.91 293.66 M 926.06 317.63 522.9 317.63 M 534.88 329.61 831.79 329.61 M 832.99 293.66 498.93 293.66 M 488.33 281.67 825.69 281.67 M 825.69 269.69 758.27 269.69 M 777.41 257.7 825.69 257.7 M 720.39 269.69 658.27 269.69 M 650.27 273 628.39 273 608.18 264.63 592.7 249.15 589.33 241.01 585.96 249.15 570.49 264.63 550.27 273 528.39 273 508.18 264.63 492.7 249.15 488.33 238.6 M 488.33 245.72 491.28 245.72 M 488.33 257.7 501.25 257.7 M 488.33 269.69 520.39 269.69 M 510.91 305.64 931.03 305.64 M 956.12 269.69 971.78 269.69 M 956.12 257.7 1042.23 257.7 M 1042.23 269.69 1006.88 269.69 M 1029.73 281.67 1042.23 281.67 M 1042.23 233.73 956.12 233.73 M 956.12 221.75 1042.23 221.75 M 1042.23 209.76 956.12 209.76 M 955.69 197.78 1042.65 197.78 M 1054.9 185.79 943.45 185.79 M 1101.44 185.79 1113.44 185.79 M 1113.44 197.78 1101.44 197.78 M 1101.44 209.76 1113.44 209.76 M 1113.44 221.75 1101.44 221.75 M 1159.98 185.79 1193.33 185.79 M 1193.33 173.81 772.92 173.81 M 705.74 173.81 672.92 173.81 M 684.9 185.79 693.76 185.79 M 689.33 241.01 685.96 249.15 670.49 264.63 650.27 273 M 620.39 269.69 558.27 269.69 M 577.41 257.7 601.25 257.7 M 591.28 245.72 587.38 245.72 M 584.9 185.79 593.76 185.79 M 605.74 173.81 572.92 173.81 M 677.41 257.7 701.25 257.7 M 691.28 245.72 687.38 245.72 M 890.91 418 389.33 418 M 337.87 437.48 313.33 437.48 M 313.33 449.46 343.01 449.46 M 355 461.45 313.33 461.45 M 313.33 473.43 356.11 473.43 M 344.13 485.42 313.33 485.42 M 313.33 497.4 338.33 497.4 M 334.33 509.39 313.33 509.39 M 313.33 521.37 334.33 521.37 M 336.16 533.36 313.33 533.36 M 313.33 545.34 341.13 545.34 M 350.88 557.33 313.33 557.33 M 313.33 569.32 368.14 569.32 M 351.08 581.3 313.33 581.3 M 313.33 593.29 342.44 593.29 M 337.74 605.27 313.33 605.27 M 389.33 518 439.33 518 507.83 449.5 890.91 449.5 M 958.12 437.48 1047.35 437.48 M 1032.34 449.46 1022.69 449.46 M 1054.6 401.52 958.12 401.52 M 958.12 389.54 963.22 389.54 M 1015.44 389.54 1035.34 389.54 M 1172.65 233.73 1193.33 233.73 M 1193.33 221.75 1172.65 221.75 M 1172.65 209.76 1193.33 209.76 M 1193.33 197.78 1172.23 197.78 M 1193.33 161.82 285.33 161.82 M 285.33 149.84 1193.33 149.84 M 1193.33 137.85 285.33 137.85 M 285.33 125.87 1193.33 125.87 M 1193.06 113.88 285.6 113.88 M 288.22 101.9 1190.44 101.9 M 1184.93 89.91 293.73 89.91 M 303.69 77.93 1174.97 77.93 M 1151.9 65.94 326.76 65.94 M 313.33 365.57 360.45 365.57 M 352 377.55 313.33 377.55 M 313.33 389.54 341.59 389.54 M 336.62 401.52 313.33 401.52 M 313.33 413.51 334.33 413.51 M 334.33 425.49 313.33 425.49 M 493.87 497.4 827.01 497.4 M 825.69 485.42 505.85 485.42 M 760.52 569.32 825.69 569.32 M 825.69 581.3 777.58 581.3 M 884.91 581.3 896.91 581.3 M 896.91 569.32 884.91 569.32 M 884.91 557.33 896.91 557.33 M 896.91 545.34 884.91 545.34 M 884.91 617.26 896.91 617.26 M 896.91 629.24 884.91 629.24 M 884.91 641.23 896.91 641.23 M 739.33 718 339.33 718" fill="none" stroke-width="12"/></g><g id="N-Gu1IWNseYV4nU45Lsc_top_drill1"><use xlink:href="#GoYKpdtIwiThz3m3eXSU_pad-1" x="1077.7" y="343.2"/><use xlink:href="#GoYKpdtIwiThz3m3eXSU_pad-1" x="1077.7" y="492.8"/><use xlink:href="#GoYKpdtIwiThz3m3eXSU_pad-2" x="989.3" y="504.6"/><use xlink:href="#GoYKpdtIwiThz3m3eXSU_pad-2" x="989.3" y="331.4"/><use xlink:href="#GoYKpdtIwiThz3m3eXSU_pad-3" x="389.3" y="218"/><use xlink:href="#GoYKpdtIwiThz3m3eXSU_pad-3" x="389.3" y="318"/><use xlink:href="#GoYKpdtIwiThz3m3eXSU_pad-3" x="389.3" y="418"/><use xlink:href="#GoYKpdtIwiThz3m3eXSU_pad-3" x="389.3" y="518"/><use xlink:href="#GoYKpdtIwiThz3m3eXSU_pad-3" x="389.3" y="618"/><use xlink:href="#GoYKpdtIwiThz3m3eXSU_pad-3" x="739.3" y="618"/><use xlink:href="#GoYKpdtIwiThz3m3eXSU_pad-3" x="739.3" y="718"/><use xlink:href="#GoYKpdtIwiThz3m3eXSU_pad-3" x="739.3" y="218"/><use xlink:href="#GoYKpdtIwiThz3m3eXSU_pad-3" x="639.3" y="218"/><use xlink:href="#GoYKpdtIwiThz3m3eXSU_pad-3" x="539.3" y="218"/></g><clipPath id="N-Gu1IWNseYV4nU45Lsc_top_outline"><path d="M 239.33 118 239.33 718 239.36 720.42 239.45 722.83 239.59 725.24 239.8 727.65 240.06 730.05 240.38 732.45 240.76 734.84 241.19 737.21 241.69 739.58 242.24 741.93 242.84 744.27 243.51 746.59 244.22 748.9 245 751.19 245.83 753.46 246.71 755.71 247.65 757.94 248.64 760.14 249.69 762.32 250.78 764.47 251.93 766.6 253.13 768.7 254.38 770.76 255.68 772.8 257.03 774.81 258.43 776.78 259.87 778.72 261.36 780.62 262.9 782.48 264.48 784.31 266.1 786.1 267.77 787.85 269.48 789.56 271.23 791.23 273.02 792.85 274.85 794.43 276.71 795.97 278.61 797.46 280.55 798.9 282.52 800.3 284.53 801.65 286.57 802.95 288.63 804.2 290.73 805.4 292.86 806.55 295.01 807.64 297.19 808.69 299.39 809.68 301.62 810.62 303.87 811.5 306.14 812.33 308.43 813.11 310.74 813.82 313.06 814.49 315.4 815.09 317.75 815.64 320.12 816.14 322.49 816.57 324.88 816.95 327.28 817.27 329.68 817.53 332.09 817.74 334.5 817.88 336.91 817.97 339.33 818 1139.33 818 1141.75 817.97 1144.16 817.88 1146.57 817.74 1148.98 817.53 1151.38 817.27 1153.78 816.95 1156.17 816.57 1158.54 816.14 1160.91 815.64 1163.26 815.09 1165.6 814.49 1167.92 813.82 1170.23 813.11 1172.52 812.33 1174.79 811.5 1177.04 810.62 1179.27 809.68 1181.47 808.69 1183.65 807.64 1185.8 806.55 1187.93 805.4 1190.03 804.2 1192.09 802.95 1194.13 801.65 1196.14 800.3 1198.11 798.9 1200.05 797.46 1201.95 795.97 1203.81 794.43 1205.64 792.85 1207.43 791.23 1209.18 789.56 1210.89 787.85 1212.56 786.1 1214.18 784.31 1215.76 782.48 1217.3 780.62 1218.79 778.72 1220.23 776.78 1221.63 774.81 1222.98 772.8 1224.28 770.76 1225.53 768.7 1226.73 766.6 1227.88 764.47 1228.97 762.32 1230.02 760.14 1231.01 757.94 1231.95 755.71 1232.83 753.46 1233.66 751.19 1234.44 748.9 1235.15 746.59 1235.82 744.27 1236.42 741.93 1236.97 739.58 1237.47 737.21 1237.9 734.84 1238.28 732.45 1238.6 730.05 1238.86 727.65 1239.07 725.24 1239.21 722.83 1239.3 720.42 1239.33 718 1239.33 118 1239.3 115.58 1239.21 113.17 1239.07 110.76 1238.86 108.35 1238.6 105.95 1238.28 103.55 1237.9 101.16 1237.47 98.79 1236.97 96.42 1236.42 94.07 1235.82 91.73 1235.15 89.41 1234.44 87.1 1233.66 84.81 1232.83 82.54 1231.95 80.29 1231.01 78.06 1230.02 75.86 1228.97 73.68 1227.88 71.53 1226.73 69.4 1225.53 67.3 1224.28 65.24 1222.98 63.2 1221.63 61.19 1220.23 59.22 1218.79 57.28 1217.3 55.38 1215.76 53.52 1214.18 51.69 1212.56 49.9 1210.89 48.15 1209.18 46.44 1207.43 44.77 1205.64 43.15 1203.81 41.57 1201.95 40.03 1200.05 38.54 1198.11 37.1 1196.14 35.7 1194.13 34.35 1192.09 33.05 1190.03 31.8 1187.93 30.6 1185.8 29.45 1183.65 28.36 1181.47 27.31 1179.27 26.32 1177.04 25.38 1174.79 24.5 1172.52 23.67 1170.23 22.89 1167.92 22.18 1165.6 21.51 1163.26 20.91 1160.91 20.36 1158.54 19.86 1156.17 19.43 1153.78 19.05 1151.38 18.73 1148.98 18.47 1146.57 18.26 1144.16 18.12 1141.75 18.03 1139.33 18 339.33 18 336.91 18.03 334.5 18.12 332.09 18.26 329.68 18.47 327.28 18.73 324.88 19.05 322.49 19.43 320.12 19.86 317.75 20.36 315.4 20.91 313.06 21.51 310.74 22.18 308.43 22.89 306.14 23.67 303.87 24.5 301.62 25.38 299.39 26.32 297.19 27.31 295.01 28.36 292.86 29.45 290.73 30.6 288.63 31.8 286.57 33.05 284.53 34.35 282.52 35.7 280.55 37.1 278.61 38.54 276.71 40.03 274.85 41.57 273.02 43.15 271.23 44.77 269.48 46.44 267.77 48.15 266.1 49.9 264.48 51.69 262.9 53.52 261.36 55.38 259.87 57.28 258.43 59.22 257.03 61.19 255.68 63.2 254.38 65.24 253.13 67.3 251.93 69.4 250.78 71.53 249.69 73.68 248.64 75.86 247.65 78.06 246.71 80.29 245.83 82.54 245 84.81 244.22 87.1 243.51 89.41 242.84 91.73 242.24 94.07 241.69 96.42 241.19 98.79 240.76 101.16 240.38 103.55 240.06 105.95 239.8 108.35 239.59 110.76 239.45 113.17 239.36 115.58 239.33 118 M 971.61 331.39 971.63 332.23 971.69 333.06 971.79 333.89 971.93 334.72 972.1 335.54 972.32 336.35 972.57 337.14 972.86 337.93 973.19 338.7 973.55 339.45 973.95 340.19 974.38 340.91 974.85 341.6 975.35 342.27 975.88 342.92 976.44 343.54 977.02 344.14 977.64 344.71 978.28 345.24 978.95 345.75 979.64 346.22 980.35 346.67 981.08 347.07 981.83 347.44 982.6 347.78 983.38 348.08 984.17 348.34 984.98 348.57 985.8 348.75 986.62 348.9 987.45 349.01 988.28 349.08 989.12 349.11 989.96 349.1 990.79 349.05 991.63 348.96 992.45 348.83 993.27 348.67 994.08 348.46 994.89 348.22 995.67 347.94 996.45 347.62 997.21 347.26 997.95 346.87 998.67 346.45 999.37 345.99 1000.05 345.5 1000.7 344.98 1001.33 344.43 1001.93 343.85 1002.51 343.24 1003.05 342.6 1003.57 341.94 1004.05 341.26 1004.5 340.55 1004.91 339.82 1005.3 339.08 1005.64 338.32 1005.95 337.54 1006.22 336.75 1006.46 335.94 1006.65 335.13 1006.81 334.31 1006.93 333.48 1007.01 332.64 1007.05 331.81 1007.05 330.97 1007.01 330.14 1006.93 329.3 1006.81 328.47 1006.65 327.65 1006.46 326.84 1006.22 326.03 1005.95 325.24 1005.64 324.46 1005.3 323.7 1004.91 322.96 1004.5 322.23 1004.05 321.52 1003.57 320.84 1003.05 320.18 1002.51 319.54 1001.93 318.93 1001.33 318.35 1000.7 317.8 1000.05 317.28 999.37 316.79 998.67 316.33 997.95 315.91 997.21 315.52 996.45 315.16 995.67 314.84 994.89 314.56 994.08 314.32 993.27 314.11 992.45 313.95 991.63 313.82 990.79 313.73 989.96 313.68 989.12 313.67 988.28 313.7 987.45 313.77 986.62 313.88 985.8 314.03 984.98 314.21 984.17 314.44 983.38 314.7 982.6 315 981.83 315.34 981.08 315.71 980.35 316.11 979.64 316.56 978.95 317.03 978.28 317.54 977.64 318.07 977.02 318.64 976.44 319.24 975.88 319.86 975.35 320.51 974.85 321.18 974.38 321.87 973.95 322.59 973.55 323.33 973.19 324.08 972.86 324.85 972.57 325.64 972.32 326.43 972.1 327.24 971.93 328.06 971.79 328.89 971.69 329.72 971.63 330.55 971.61 331.39 M 1060.99 343.2 1061.01 344.01 1061.07 344.83 1061.17 345.64 1061.31 346.44 1061.48 347.23 1061.7 348.02 1061.95 348.79 1062.24 349.56 1062.57 350.3 1062.94 351.03 1063.33 351.74 1063.77 352.43 1064.23 353.1 1064.73 353.74 1065.26 354.36 1065.82 354.96 1066.4 355.52 1067.02 356.06 1067.66 356.57 1068.32 357.04 1069 357.48 1069.71 357.89 1070.43 358.26 1071.18 358.6 1071.93 358.9 1072.71 359.16 1073.49 359.39 1074.28 359.57 1075.08 359.72 1075.89 359.83 1076.7 359.9 1077.52 359.93 1078.33 359.92 1079.14 359.87 1079.95 359.78 1080.76 359.65 1081.56 359.48 1082.34 359.28 1083.12 359.03 1083.89 358.75 1084.64 358.43 1085.37 358.08 1086.08 357.69 1086.78 357.26 1087.45 356.81 1088.11 356.32 1088.73 355.8 1089.33 355.24 1089.9 354.66 1090.45 354.06 1090.96 353.42 1091.44 352.77 1091.89 352.09 1092.31 351.39 1092.69 350.67 1093.04 349.93 1093.35 349.18 1093.62 348.41 1093.85 347.63 1094.05 346.84 1094.21 346.04 1094.33 345.23 1094.41 344.42 1094.45 343.61 1094.45 342.79 1094.41 341.98 1094.33 341.17 1094.21 340.36 1094.05 339.56 1093.85 338.77 1093.62 337.99 1093.35 337.22 1093.04 336.47 1092.69 335.73 1092.31 335.01 1091.89 334.31 1091.44 333.63 1090.96 332.98 1090.45 332.34 1089.9 331.74 1089.33 331.16 1088.73 330.6 1088.11 330.08 1087.45 329.59 1086.78 329.14 1086.09 328.71 1085.37 328.32 1084.64 327.97 1083.89 327.65 1083.12 327.37 1082.34 327.12 1081.56 326.92 1080.76 326.75 1079.95 326.62 1079.14 326.53 1078.33 326.48 1077.52 326.47 1076.7 326.5 1075.89 326.57 1075.08 326.68 1074.28 326.83 1073.49 327.01 1072.71 327.24 1071.93 327.5 1071.18 327.8 1070.43 328.14 1069.71 328.51 1069 328.92 1068.32 329.36 1067.66 329.83 1067.02 330.34 1066.4 330.88 1065.82 331.44 1065.26 332.04 1064.73 332.66 1064.23 333.3 1063.77 333.97 1063.33 334.66 1062.94 335.37 1062.57 336.1 1062.24 336.84 1061.95 337.61 1061.7 338.38 1061.48 339.17 1061.31 339.96 1061.17 340.76 1061.07 341.57 1061.01 342.39 1060.99 343.2 M 1060.99 492.8 1061.01 493.61 1061.07 494.43 1061.17 495.24 1061.31 496.04 1061.48 496.83 1061.7 497.62 1061.95 498.39 1062.24 499.16 1062.57 499.9 1062.94 500.63 1063.33 501.34 1063.77 502.03 1064.23 502.7 1064.73 503.34 1065.26 503.96 1065.82 504.56 1066.4 505.12 1067.02 505.66 1067.66 506.17 1068.32 506.64 1069 507.08 1069.71 507.49 1070.43 507.86 1071.18 508.2 1071.93 508.5 1072.71 508.76 1073.49 508.99 1074.28 509.17 1075.08 509.32 1075.89 509.43 1076.7 509.5 1077.52 509.53 1078.33 509.52 1079.14 509.47 1079.95 509.38 1080.76 509.25 1081.56 509.08 1082.34 508.88 1083.12 508.63 1083.89 508.35 1084.64 508.03 1085.37 507.68 1086.08 507.29 1086.78 506.86 1087.45 506.41 1088.11 505.92 1088.73 505.4 1089.33 504.84 1089.9 504.26 1090.45 503.66 1090.96 503.02 1091.44 502.37 1091.89 501.69 1092.31 500.99 1092.69 500.27 1093.04 499.53 1093.35 498.78 1093.62 498.01 1093.85 497.23 1094.05 496.44 1094.21 495.64 1094.33 494.83 1094.41 494.02 1094.45 493.21 1094.45 492.39 1094.41 491.58 1094.33 490.77 1094.21 489.96 1094.05 489.16 1093.85 488.37 1093.62 487.59 1093.35 486.82 1093.04 486.07 1092.69 485.33 1092.31 484.61 1091.89 483.91 1091.44 483.23 1090.96 482.58 1090.45 481.94 1089.9 481.34 1089.33 480.76 1088.73 480.2 1088.11 479.68 1087.45 479.19 1086.78 478.74 1086.09 478.31 1085.37 477.92 1084.64 477.57 1083.89 477.25 1083.12 476.97 1082.34 476.72 1081.56 476.52 1080.76 476.35 1079.95 476.22 1079.14 476.13 1078.33 476.08 1077.52 476.07 1076.7 476.1 1075.89 476.17 1075.08 476.28 1074.28 476.43 1073.49 476.61 1072.71 476.84 1071.93 477.1 1071.18 477.4 1070.43 477.74 1069.71 478.11 1069 478.52 1068.32 478.96 1067.66 479.43 1067.02 479.94 1066.4 480.48 1065.82 481.04 1065.26 481.64 1064.73 482.26 1064.23 482.9 1063.77 483.57 1063.33 484.26 1062.94 484.97 1062.57 485.7 1062.24 486.44 1061.95 487.21 1061.7 487.98 1061.48 488.77 1061.31 489.56 1061.17 490.36 1061.07 491.17 1061.01 491.99 1060.99 492.8 M 971.61 504.61 971.63 505.45 971.69 506.28 971.79 507.11 971.93 507.94 972.1 508.76 972.32 509.57 972.57 510.36 972.86 511.15 973.19 511.92 973.55 512.67 973.95 513.41 974.38 514.13 974.85 514.82 975.35 515.49 975.88 516.14 976.44 516.76 977.02 517.36 977.64 517.93 978.28 518.46 978.95 518.97 979.64 519.44 980.35 519.89 981.08 520.29 981.83 520.66 982.6 521 983.38 521.3 984.17 521.56 984.98 521.79 985.8 521.97 986.62 522.12 987.45 522.23 988.28 522.3 989.12 522.33 989.96 522.32 990.79 522.27 991.63 522.18 992.45 522.05 993.27 521.89 994.08 521.68 994.89 521.44 995.67 521.16 996.45 520.84 997.21 520.48 997.95 520.09 998.67 519.67 999.37 519.21 1000.05 518.72 1000.7 518.2 1001.33 517.65 1001.93 517.07 1002.51 516.46 1003.05 515.82 1003.57 515.16 1004.05 514.48 1004.5 513.77 1004.91 513.04 1005.3 512.3 1005.64 511.54 1005.95 510.76 1006.22 509.97 1006.46 509.16 1006.65 508.35 1006.81 507.53 1006.93 506.7 1007.01 505.86 1007.05 505.03 1007.05 504.19 1007.01 503.36 1006.93 502.52 1006.81 501.69 1006.65 500.87 1006.46 500.06 1006.22 499.25 1005.95 498.46 1005.64 497.68 1005.3 496.92 1004.91 496.18 1004.5 495.45 1004.05 494.74 1003.57 494.06 1003.05 493.4 1002.51 492.76 1001.93 492.15 1001.33 491.57 1000.7 491.02 1000.05 490.5 999.37 490.01 998.67 489.55 997.95 489.13 997.21 488.74 996.45 488.38 995.67 488.06 994.89 487.78 994.08 487.54 993.27 487.33 992.45 487.17 991.63 487.04 990.79 486.95 989.96 486.9 989.12 486.89 988.28 486.92 987.45 486.99 986.62 487.1 985.8 487.25 984.98 487.43 984.17 487.66 983.38 487.92 982.6 488.22 981.83 488.56 981.08 488.93 980.35 489.33 979.64 489.78 978.95 490.25 978.28 490.76 977.64 491.29 977.02 491.86 976.44 492.46 975.88 493.08 975.35 493.73 974.85 494.4 974.38 495.09 973.95 495.81 973.55 496.55 973.19 497.3 972.86 498.07 972.57 498.86 972.32 499.65 972.1 500.46 971.93 501.28 971.79 502.11 971.69 502.94 971.63 503.77 971.61 504.61" fill="none" stroke-width="0"/></clipPath><mask id="N-Gu1IWNseYV4nU45Lsc_top_mech-mask"><g fill="#000" stroke="#000"><rect x="239.33" y="18" width="1000" height="800" fill="#fff"/><use xlink:href="#N-Gu1IWNseYV4nU45Lsc_top_drill1"/></g></mask><mask id="N-Gu1IWNseYV4nU45Lsc_top_cf-mask"><g fill="#fff" stroke="#fff"><use xlink:href="#N-Gu1IWNseYV4nU45Lsc_top_soldermask"/></g></mask><mask id="N-Gu1IWNseYV4nU45Lsc_top_sm-mask"><g fill="#000" stroke="#000"><rect x="239.33" y="18" width="1000" height="800" fill="#fff"/><use xlink:href="#N-Gu1IWNseYV4nU45Lsc_top_soldermask"/></g></mask></defs><g transform="translate(0,836) scale(1,-1)"><g mask="url(#N-Gu1IWNseYV4nU45Lsc_top_mech-mask)" clip-path="url(#N-Gu1IWNseYV4nU45Lsc_top_outline)"><rect x="239.33" y="18" width="1000" height="800" fill="currentColor" class="N-Gu1IWNseYV4nU45Lsc_fr4"/><use xlink:href="#N-Gu1IWNseYV4nU45Lsc_top_copper" fill="currentColor" stroke="currentColor" class="N-Gu1IWNseYV4nU45Lsc_cu"/><use xlink:href="#N-Gu1IWNseYV4nU45Lsc_top_copper" fill="currentColor" stroke="currentColor" class="N-Gu1IWNseYV4nU45Lsc_cf" mask="url(#N-Gu1IWNseYV4nU45Lsc_top_cf-mask)"/><g mask="url(#N-Gu1IWNseYV4nU45Lsc_top_sm-mask)"><rect x="239.33" y="18" width="1000" height="800" fill="currentColor" class="N-Gu1IWNseYV4nU45Lsc_sm"/><use xlink:href="#N-Gu1IWNseYV4nU45Lsc_top_silkscreen" fill="currentColor" stroke="currentColor" class="N-Gu1IWNseYV4nU45Lsc_ss"/></g></g></g></svg>