<svg version="1.1" xmlns="http://www.w3.org/2000/svg" xmlns:xlink="http://www.w3.org/1999/xlink" stroke-linecap="round" stroke-linejoin="round" stroke-width="0" fill-rule="evenodd" clip-rule="evenodd" id="N-Gu1IWNseYV4nU45Lsc_bottom" viewBox="239.33 18 999.9999999999999 800" width="0.9999999999999999in" height="0.8in" class="w-100 h-100"><defs><style>.N-Gu1IWNseYV4nU45Lsc_fr4 {color: #666666;}
.N-Gu1IWNseYV4nU45Lsc_cu {color: #cccccc;}
.N-Gu1IWNseYV4nU45Lsc_cf {color: #cc9933;}
.N-Gu1IWNseYV4nU45Lsc_sm {color: #004200; opacity: 0.75;}
.N-Gu1IWNseYV4nU45Lsc_ss {color: #ffffff;}
.N-Gu1IWNseYV4nU45Lsc_sp {color: #999999;}
.N-Gu1IWNseYV4nU45Lsc_out {color: #000000;}</style><circle cx="0" cy="0" r="21.715" id="Gt94yEB1AOoM3MIG1rnF_pad-10"/><circle cx="0" cy="0" r="41" id="Gt94yEB1AOoM3MIG1rnF_pad-11"/><rect x="-32.545" y="-11.875" width="65.09" height="23.75" id="Gt94yEB1AOoM3MIG1rnF_pad-12"/><circle cx="0" cy="0" r="20.73" id="Gt94yEB1AOoM3MIG1rnF_pad-13"/><rect x="-33.465" y="-39.37" width="66.93" height="78.74" id="Gt94yEB1AOoM3MIG1rnF_pad-14"/><rect x="-33.465" y="-53.15" width="66.93" height="106.3" id="Gt94yEB1AOoM3MIG1rnF_pad-15"/><circle cx="0" cy="0" r="37" id="LLA4oMy8Q9EBCFnqIS5h_pad-10"/><rect x="-28.545" y="-7.875" width="57.09" height="15.75" id="LLA4oMy8Q9EBCFnqIS5h_pad-11"/><rect x="-29.53" y="-35.435" width="59.06" height="70.87" id="LLA4oMy8Q9EBCFnqIS5h_pad-12"/><rect x="-29.53" y="-49.215" width="59.06" height="98.43" id="LLA4oMy8Q9EBCFnqIS5h_pad-13"/><circle cx="0" cy="0" r="16.75" id="GoYKpdtIwiThz3m3eXSU_pad-1"/><circle cx="0" cy="0" r="17.7" id="GoYKpdtIwiThz3m3eXSU_pad-2"/><circle cx="0" cy="0" r="20" id="GoYKpdtIwiThz3m3eXSU_pad-3"/><g id="N-Gu1IWNseYV4nU45Lsc_bottom_soldermask"><use xlink:href="#Gt94yEB1AOoM3MIG1rnF_pad-10" x="989.33" y="331.39"/><use xlink:href="#Gt94yEB1AOoM3MIG1rnF_pad-10" x="989.33" y="504.61"/><use xlink:href="#Gt94yEB1AOoM3MIG1rnF_pad-11" x="389.33" y="218"/><use xlink:href="#Gt94yEB1AOoM3MIG1rnF_pad-11" x="389.33" y="318"/><use xlink:href="#Gt94yEB1AOoM3MIG1rnF_pad-11" x="389.33" y="418"/><use xlink:href="#Gt94yEB1AOoM3MIG1rnF_pad-11" x="389.33" y="518"/><use xlink:href="#Gt94yEB1AOoM3MIG1rnF_pad-11" x="389.33" y="618"/><use xlink:href="#Gt94yEB1AOoM3MIG1rnF_pad-11" x="739.33" y="618"/><use xlink:href="#Gt94yEB1AOoM3MIG1rnF_pad-11" x="739.33" y="718"/><use xlink:href="#Gt94yEB1AOoM3MIG1rnF_pad-11" x="739.33" y="218"/><use xlink:href="#Gt94yEB1AOoM3MIG1rnF_pad-11" x="639.33" y="218"/><use xlink:href="#Gt94yEB1AOoM3MIG1rnF_pad-11" x="539.33" y="218"/><use xlink:href="#Gt94yEB1AOoM3MIG1rnF_pad-12" x="1057.05" y="366.82"/><use xlink:href="#Gt94yEB1AOoM3MIG1rnF_pad-12" x="1057.05" y="392.41"/><use xlink:href="#Gt94yEB1AOoM3MIG1rnF_pad-12" x="1057.05" y="418"/><use xlink:href="#Gt94yEB1AOoM3MIG1rnF_pad-12" x="1057.05" y="443.59"/><use xlink:href="#Gt94yEB1AOoM3MIG1rnF_pad-12" x="1057.05" y="469.18"/><use xlink:href="#Gt94yEB1AOoM3MIG1rnF_pad-13" x="1077.72" y="492.8"/><use xlink:href="#Gt94yEB1AOoM3MIG1rnF_pad-13" x="1077.72" y="343.2"/><use xlink:href="#Gt94yEB1AOoM3MIG1rnF_pad-14" x="1164.33" y="272.96"/><use xlink:href="#Gt94yEB1AOoM3MIG1rnF_pad-14" x="1164.33" y="563.04"/><use xlink:href="#Gt94yEB1AOoM3MIG1rnF_pad-15" x="1164.33" y="418"/></g><g id="N-Gu1IWNseYV4nU45Lsc_bottom_copper"><use xlink:href="#LLA4oMy8Q9EBCFnqIS5h_pad-10" x="389.33" y="218"/><use xlink:href="#LLA4oMy8Q9EBCFnqIS5h_pad-10" x="389.33" y="318"/><use xlink:href="#LLA4oMy8Q9EBCFnqIS5h_pad-10" x="389.33" y="418"/><use xlink:href="#LLA4oMy8Q9EBCFnqIS5h_pad-10" x="389.33" y="518"/><use xlink:href="#LLA4oMy8Q9EBCFnqIS5h_pad-10" x="389.33" y="618"/><use xlink:href="#LLA4oMy8Q9EBCFnqIS5h_pad-10" x="739.33" y="618"/><use xlink:href="#LLA4oMy8Q9EBCFnqIS5h_pad-10" x="739.33" y="718"/><use xlink:href="#LLA4oMy8Q9EBCFnqIS5h_pad-10" x="739.33" y="218"/><use xlink:href="#LLA4oMy8Q9EBCFnqIS5h_pad-10" x="639.33" y="218"/><use xlink:href="#LLA4oMy8Q9EBCFnqIS5h_pad-10" x="539.33" y="218"/><use xlink:href="#LLA4oMy8Q9EBCFnqIS5h_pad-11" x="1057.05" y="366.82"/><use xlink:href="#LLA4oMy8Q9EBCFnqIS5h_pad-11" x="1057.05" y="392.41"/><use xlink:href="#LLA4oMy8Q9EBCFnqIS5h_pad-11" x="1057.05" y="418"/><use xlink:href="#LLA4oMy8Q9EBCFnqIS5h_pad-11" x="1057.05" y="443.59"/><use xlink:href="#LLA4oMy8Q9EBCFnqIS5h_pad-11" x="1057.05" y="469.18"/><use xlink:href="#LLA4oMy8Q9EBCFnqIS5h_pad-12" x="1164.33" y="563.08"/><use xlink:href="#LLA4oMy8Q9EBCFnqIS5h_pad-12" x="1164.33" y="272.92"/><use xlink:href="#LLA4oMy8Q9EBCFnqIS5h_pad-13" x="1164.33" y="418"/><path d="M 285.79 110.95 289.44 97.34 296.49 85.13 306.46 75.16 318.67 68.11 332.28 64.46 332.28 64.46 339.33 64 1139.33 64 1146.38 64.46 1160 68.11 1172.2 75.16 1182.17 85.13 1189.22 97.33 1192.87 110.95 1193.33 118 1193.33 221.49 1170.33 221.49 1170.33 266.92 1158.33 266.92 1158.33 221.49 1132.7 221.49 1128.63 222.58 1124.98 224.69 1122 227.66 1119.89 231.31 1118.8 235.38 1118.8 266.92 1158.33 266.92 1158.33 278.92 1118.8 278.92 1118.8 295.57 1113.25 290.02 1090.19 280.46 1065.24 280.46 1042.18 290.02 1040.12 292.07 1025.42 277.37 1002 267.67 976.66 267.67 953.24 277.37 935.31 295.29 925.61 318.71 925.61 344.06 935.31 367.48 936.25 368.41 773.68 368.41 763.33 358.06 763.33 267.59 770.49 264.63 785.96 249.15 794.33 228.94 794.33 207.06 785.96 186.84 770.49 171.37 763.33 168.41 763.33 113.23 759.68 104.41 752.93 97.65 727.93 72.65 719.1 69 334.56 69 325.74 72.65 318.98 79.41 285.68 112.71 285.79 110.95 M 288.22 101.9 296.49 101.9 M 293.73 89.91 308.48 89.91 M 303.69 77.93 320.46 77.93 M 326.76 65.94 1151.9 65.94 M 1174.97 77.93 733.2 77.93 M 745.18 89.91 1184.93 89.91 M 1190.44 101.9 757.17 101.9 M 763.33 113.88 1193.06 113.88 M 1193.33 125.87 763.33 125.87 M 763.33 137.85 1193.33 137.85 M 1193.33 149.84 763.33 149.84 M 763.33 161.82 1193.33 161.82 M 1193.33 173.81 772.92 173.81 M 784.9 185.79 1193.33 185.79 M 1193.33 197.78 790.49 197.78 M 794.33 209.76 1193.33 209.76 M 1170.33 221.75 1158.33 221.75 M 1158.33 233.73 1170.33 233.73 M 1170.33 245.72 1158.33 245.72 M 1158.33 257.7 1170.33 257.7 M 1158.33 269.69 1006.88 269.69 M 1029.73 281.67 1062.32 281.67 M 1093.11 281.67 1118.8 281.67 M 1118.8 293.66 1116.89 293.66 M 1118.8 257.7 777.41 257.7 M 787.38 245.72 1118.8 245.72 M 1119.25 233.73 792.35 233.73 M 794.33 221.75 1131.73 221.75 M 1158.33 278.92 1158.33 324.35 1137.81 324.35 1140.45 330.72 1140.45 352.79 1158.33 352.79 1158.33 412 1118.8 412 1118.8 390.83 1113.25 396.38 1103.59 400.38 1103.59 407.74 1103.59 428.26 1103.59 435.62 1113.25 439.62 1118.8 445.17 1118.8 424 1158.33 424 1158.33 412 1170.33 412 1170.33 352.79 1193.33 352.79 1193.33 324.35 1170.33 324.35 1170.33 278.92 1158.33 278.92 M 1158.33 281.67 1170.33 281.67 M 1170.33 293.66 1158.33 293.66 M 1158.33 305.64 1170.33 305.64 M 1170.33 317.63 1158.33 317.63 M 1139.99 329.61 1193.33 329.61 M 1193.33 341.6 1140.45 341.6 M 1158.33 353.58 1170.33 353.58 M 1170.33 365.57 1158.33 365.57 M 1158.33 377.55 1170.33 377.55 M 1170.33 389.54 1158.33 389.54 M 1158.33 401.52 1170.33 401.52 M 1158.33 413.51 1103.59 413.51 M 1103.59 425.49 1118.8 425.49 M 1118.8 437.48 1108.08 437.48 M 1103.59 401.52 1118.8 401.52 M 1139.33 366.82 1164.33 418 M 1158.33 424 1158.33 483.21 1140.45 483.21 1140.45 505.28 1137.81 511.65 1158.33 511.65 1158.33 557.08 1118.8 557.08 1118.8 540.43 1113.25 545.98 1090.19 555.54 1065.24 555.54 1042.18 545.98 1040.12 543.93 1025.42 558.63 1002 568.33 976.66 568.33 953.24 558.63 935.31 540.71 925.61 517.29 925.61 493.18 748.09 493.18 663.33 577.94 663.33 658.06 692.53 687.26 692.7 686.84 708.18 671.37 718.75 666.99 711.55 663.33 704.8 658.43 698.9 652.53 694 645.78 690.21 638.34 687.64 630.41 686.33 622.17 686.33 622 735.33 622 735.33 614 686.33 614 686.33 613.83 687.64 605.59 690.21 597.66 694 590.22 698.9 583.47 704.8 577.57 711.55 572.67 718.99 568.88 726.92 566.3 735.16 565 735.33 565 735.33 614 743.33 614 743.33 565 743.5 565 751.74 566.3 759.68 568.88 767.11 572.67 773.86 577.57 779.76 583.47 784.66 590.22 788.45 597.66 791.03 605.59 792.33 613.83 792.33 614 743.33 614 743.33 622 792.33 622 792.33 622.17 791.03 630.41 788.45 638.34 784.66 645.78 779.76 652.53 773.86 658.43 767.11 663.33 759.91 666.99 770.49 671.37 785.96 686.84 794.33 707.06 794.33 728.94 785.96 749.15 770.49 764.63 752.68 772 1139.33 772 1146.38 771.54 1160 767.89 1172.2 760.84 1182.17 750.87 1189.22 738.66 1192.87 725.05 1193.33 718 1193.33 614.51 1170.33 614.51 1170.33 569.08 1158.33 569.08 1158.33 614.51 1132.7 614.51 1128.63 613.42 1124.98 611.31 1122 608.34 1119.89 604.69 1118.8 600.62 1118.8 569.08 1158.33 569.08 1158.33 557.08 1170.33 557.08 1170.33 511.65 1193.33 511.65 1193.33 483.21 1170.33 483.21 1170.33 424 1158.33 424 M 1158.33 425.49 1170.33 425.49 M 1170.33 437.48 1158.33 437.48 M 1158.33 449.46 1170.33 449.46 M 1170.33 461.45 1158.33 461.45 M 1158.33 473.43 1170.33 473.43 M 1193.33 485.42 1140.45 485.42 M 1140.45 497.4 1193.33 497.4 M 1193.33 509.39 1138.75 509.39 M 1158.33 521.37 1170.33 521.37 M 1170.33 533.36 1158.33 533.36 M 1158.33 545.34 1170.33 545.34 M 1158.33 557.33 1026.72 557.33 M 1038.71 545.34 1041.54 545.34 M 1113.89 545.34 1118.8 545.34 M 1118.8 569.32 760.52 569.32 M 777.58 581.3 1118.8 581.3 M 1118.8 593.29 786.22 593.29 M 790.92 605.27 1120.23 605.27 M 1158.33 605.27 1170.33 605.27 M 1170.33 593.29 1158.33 593.29 M 1158.33 581.3 1170.33 581.3 M 1170.33 569.32 1158.33 569.32 M 1193.33 617.26 743.33 617.26 M 735.33 617.26 663.33 617.26 M 663.33 629.24 687.45 629.24 M 691.68 641.23 663.33 641.23 M 663.33 653.21 699.59 653.21 M 715.22 665.2 670.47 665.2 M 682.45 677.18 702.37 677.18 M 689.33 718 739.33 718 M 689.33 718 639.33 668 639.33 568 738.15 469.18 1057.05 469.18 M 1057.05 443.59 564.92 443.59 539.33 418 539.33 368 489.33 318 389.33 318 M 438.92 342 435.96 349.15 420.49 364.63 412.34 368 420.49 371.37 435.96 386.84 444.33 407.06 444.33 428.94 435.96 449.15 420.49 464.63 412.34 468 420.49 471.37 435.96 486.84 444.33 507.06 444.33 528.94 435.96 549.15 420.49 564.63 409.91 569.01 417.11 572.67 423.86 577.57 429.76 583.47 434.66 590.22 438.45 597.66 441.03 605.59 442.33 613.83 442.33 614 393.33 614 393.33 622 385.33 622 385.33 614 336.33 614 336.33 613.83 337.64 605.59 340.21 597.66 344 590.22 348.9 583.47 354.8 577.57 361.55 572.67 368.75 569.01 358.18 564.63 342.7 549.15 339.74 542 334.56 542 325.74 538.35 285.33 497.94 285.33 718 285.79 725.05 289.44 738.66 296.49 750.87 306.46 760.84 318.67 767.89 332.28 771.54 339.33 772 725.98 772 708.18 764.63 692.7 749.15 689.74 742 684.56 742 675.74 738.35 668.98 731.59 618.98 681.59 615.33 672.77 615.33 563.23 618.98 554.41 625.74 547.65 705.8 467.59 560.15 467.59 551.33 463.94 525.74 438.35 518.98 431.59 515.33 422.77 515.33 377.94 479.39 342 438.92 342 M 431.53 353.58 490.97 353.58 M 502.96 365.57 418.21 365.57 M 426.67 377.55 514.94 377.55 M 515.33 389.54 437.07 389.54 M 442.04 401.52 515.33 401.52 M 515.33 413.51 444.33 413.51 M 444.33 425.49 516.46 425.49 M 524.87 437.48 440.79 437.48 M 435.65 449.46 536.85 449.46 M 548.84 461.45 423.66 461.45 M 422.55 473.43 699.96 473.43 M 687.97 485.42 434.53 485.42 M 440.33 497.4 675.98 497.4 M 664 509.39 444.33 509.39 M 444.33 521.37 652.01 521.37 M 640.03 533.36 442.5 533.36 M 437.54 545.34 628.04 545.34 M 617.77 557.33 427.78 557.33 M 410.52 569.32 615.33 569.32 M 615.33 581.3 427.58 581.3 M 436.22 593.29 615.33 593.29 M 615.33 605.27 440.92 605.27 M 442.33 622 442.33 622.17 441.03 630.41 438.45 638.34 434.66 645.78 429.76 652.53 423.86 658.43 417.11 663.33 409.68 667.12 401.74 669.69 393.5 671 393.33 671 393.33 622 442.33 622 M 441.21 629.24 615.33 629.24 M 615.33 617.26 393.33 617.26 M 385.33 617.26 285.33 617.26 M 285.33 629.24 337.45 629.24 M 337.64 630.41 336.33 622.17 336.33 622 385.33 622 385.33 671 385.16 671 376.92 669.69 368.99 667.12 361.55 663.33 354.8 658.43 348.9 652.53 344 645.78 340.21 638.34 337.64 630.41 M 341.68 641.23 285.33 641.23 M 285.33 653.21 349.59 653.21 M 365.22 665.2 285.33 665.2 M 285.33 677.18 617.16 677.18 M 626.56 689.17 285.33 689.17 M 285.33 701.15 638.54 701.15 M 650.53 713.14 285.33 713.14 M 285.81 725.12 662.51 725.12 M 674.5 737.11 289.02 737.11 M 295.46 749.09 692.68 749.09 M 704.63 761.08 306.87 761.08 M 385.33 665.2 393.33 665.2 M 393.33 653.21 385.33 653.21 M 385.33 641.23 393.33 641.23 M 393.33 629.24 385.33 629.24 M 413.45 665.2 615.33 665.2 M 615.33 653.21 429.07 653.21 M 436.98 641.23 615.33 641.23 M 663.33 605.27 687.74 605.27 M 692.44 593.29 663.33 593.29 M 663.33 581.3 701.08 581.3 M 718.14 569.32 671.96 569.32 M 683.94 557.33 951.94 557.33 M 939.95 545.34 695.93 545.34 M 707.91 533.36 932.27 533.36 M 927.31 521.37 719.9 521.37 M 731.88 509.39 925.61 509.39 M 925.61 497.4 743.87 497.4 M 743.33 569.32 735.33 569.32 M 735.33 581.3 743.33 581.3 M 743.33 593.29 735.33 593.29 M 735.33 605.27 743.33 605.27 M 791.21 629.24 1193.33 629.24 M 1193.33 641.23 786.98 641.23 M 779.07 653.21 1193.33 653.21 M 1193.33 665.2 763.45 665.2 M 776.29 677.18 1193.33 677.18 M 1193.33 689.17 786.92 689.17 M 791.88 701.15 1193.33 701.15 M 1193.33 713.14 794.33 713.14 M 794.33 725.12 1192.85 725.12 M 1189.64 737.11 790.95 737.11 M 785.98 749.09 1183.2 749.09 M 1171.79 761.08 774.04 761.08 M 389.33 518 339.33 518 289.33 468 289.33 143 339.33 93 714.33 93 739.33 118 739.33 218 739.33 368 763.74 392.41 1057.05 392.41 M 1057.05 418 689.33 418 639.33 368 639.33 218 639.33 168 614.33 143 339.33 143 314.33 168 314.33 393 339.33 418 389.33 418 M 296.78 509.39 285.33 509.39 M 285.33 521.37 308.76 521.37 M 320.75 533.36 285.33 533.36 M 285.33 545.34 341.13 545.34 M 350.88 557.33 285.33 557.33 M 285.33 569.32 368.14 569.32 M 351.08 581.3 285.33 581.3 M 285.33 593.29 342.44 593.29 M 337.74 605.27 285.33 605.27 M 539.33 368 539.33 218 M 763.33 269.69 971.78 269.69 M 948.94 281.67 763.33 281.67 M 763.33 293.66 936.95 293.66 M 931.03 305.64 763.33 305.64 M 763.33 317.63 926.06 317.63 M 925.61 329.61 763.33 329.61 M 763.33 341.6 925.61 341.6 M 929.56 353.58 763.33 353.58 M 770.84 365.57 934.52 365.57 M 1057.05 366.82 1139.33 366.82" fill="none" stroke-width="12"/></g><g id="N-Gu1IWNseYV4nU45Lsc_bottom_silkscreen"><path d="M 239.33 118 239.33 718 239.36 720.42 239.45 722.83 239.59 725.24 239.8 727.65 240.06 730.05 240.38 732.45 240.76 734.84 241.19 737.21 241.69 739.58 242.24 741.93 242.84 744.27 243.51 746.59 244.22 748.9 245 751.19 245.83 753.46 246.71 755.71 247.65 757.94 248.64 760.14 249.69 762.32 250.78 764.47 251.93 766.6 253.13 768.7 254.38 770.76 255.68 772.8 257.03 774.81 258.43 776.78 259.87 778.72 261.36 780.62 262.9 782.48 264.48 784.31 266.1 786.1 267.77 787.85 269.48 789.56 271.23 791.23 273.02 792.85 274.85 794.43 276.71 795.97 278.61 797.46 280.55 798.9 282.52 800.3 284.53 801.65 286.57 802.95 288.63 804.2 290.73 805.4 292.86 806.55 295.01 807.64 297.19 808.69 299.39 809.68 301.62 810.62 303.87 811.5 306.14 812.33 308.43 813.11 310.74 813.82 313.06 814.49 315.4 815.09 317.75 815.64 320.12 816.14 322.49 816.57 324.88 816.95 327.28 817.27 329.68 817.53 332.09 817.74 334.5 817.88 336.91 817.97 339.33 818 1139.33 818 1141.75 817.97 1144.16 817.88 1146.57 817.74 1148.98 817.53 1151.38 817.27 1153.78 816.95 1156.17 816.57 1158.54 816.14 1160.91 815.64 1163.26 815.09 1165.6 814.49 1167.92 813.82 1170.23 813.11 1172.52 812.33 1174.79 811.5 1177.04 810.62 1179.27 809.68 1181.47 808.69 1183.65 807.64 1185.8 806.55 1187.93 805.4 1190.03 804.2 1192.09 802.95 1194.13 801.65 1196.14 800.3 1198.11 798.9 1200.05 797.46 1201.95 795.97 1203.81 794.43 1205.64 792.85 1207.43 791.23 1209.18 789.56 1210.89 787.85 1212.56 786.1 1214.18 784.31 1215.76 782.48 1217.3 780.62 1218.79 778.72 1220.23 776.78 1221.63 774.81 1222.98 772.8 1224.28 770.76 1225.53 768.7 1226.73 766.6 1227.88 764.47 1228.97 762.32 1230.02 760.14 1231.01 757.94 1231.95 755.71 1232.83 753.46 1233.66 751.19 1234.44 748.9 1235.15 746.59 1235.82 744.27 1236.42 741.93 1236.97 739.58 1237.47 737.21 1237.9 734.84 1238.28 732.45 1238.6 730.05 1238.86 727.65 1239.07 725.24 1239.21 722.83 1239.3 720.42 1239.33 718 1239.33 118 1239.3 115.58 1239.21 113.17 1239.07 110.76 1238.86 108.35 1238.6 105.95 1238.28 103.55 1237.9 101.16 1237.47 98.79 1236.97 96.42 1236.42 94.07 1235.82 91.73 1235.15 89.41 1234.44 87.1 1233.66 84.81 1232.83 82.54 1231.95 80.29 1231.01 78.06 1230.02 75.86 1228.97 73.68 1227.88 71.53 1226.73 69.4 1225.53 67.3 1224.28 65.24 1222.98 63.2 1221.63 61.19 1220.23 59.22 1218.79 57.28 1217.3 55.38 1215.76 53.52 1214.18 51.69 1212.56 49.9 1210.89 48.15 1209.18 46.44 1207.43 44.77 1205.64 43.15 1203.81 41.57 1201.95 40.03 1200.05 38.54 1198.11 37.1 1196.14 35.7 1194.13 34.35 1192.09 33.05 1190.03 31.8 1187.93 30.6 1185.8 29.45 1183.65 28.36 1181.47 27.31 1179.27 26.32 1177.04 25.38 1174.79 24.5 1172.52 23.67 1170.23 22.89 1167.92 22.18 1165.6 21.51 1163.26 20.91 1160.91 20.36 1158.54 19.86 1156.17 19.43 1153.78 19.05 1151.38 18.73 1148.98 18.47 1146.57 18.26 1144.16 18.12 1141.75 18.03 1139.33 18 339.33 18 336.91 18.03 334.5 18.12 332.09 18.26 329.68 18.47 327.28 18.73 324.88 19.05 322.49 19.43 320.12 19.86 317.75 20.36 315.4 20.91 313.06 21.51 310.74 22.18 308.43 22.89 306.14 23.67 303.87 24.5 301.62 25.38 299.39 26.32 297.19 27.31 295.01 28.36 292.86 29.45 290.73 30.6 288.63 31.8 286.57 33.05 284.53 34.35 282.52 35.7 280.55 37.1 278.61 38.54 276.71 40.03 274.85 41.57 273.02 43.15 271.23 44.77 269.48 46.44 267.77 48.15 266.1 49.9 264.48 51.69 262.9 53.52 261.36 55.38 259.87 57.28 258.43 59.22 257.03 61.19 255.68 63.2 254.38 65.24 253.13 67.3 251.93 69.4 250.78 71.53 249.69 73.68 248.64 75.86 247.65 78.06 246.71 80.29 245.83 82.54 245 84.81 244.22 87.1 243.51 89.41 242.84 91.73 242.24 94.07 241.69 96.42 241.19 98.79 240.76 101.16 240.38 103.55 240.06 105.95 239.8 108.35 239.59 110.76 239.45 113.17 239.36 115.58 239.33 118 M 971.61 331.39 971.63 332.23 971.69 333.06 971.79 333.89 971.93 334.72 972.1 335.54 972.32 336.35 972.57 337.14 972.86 337.93 973.19 338.7 973.55 339.45 973.95 340.19 974.38 340.91 974.85 341.6 975.35 342.27 975.88 342.92 976.44 343.54 977.02 344.14 977.64 344.71 978.28 345.24 978.95 345.75 979.64 346.22 980.35 346.67 981.08 347.07 981.83 347.44 982.6 347.78 983.38 348.08 984.17 348.34 984.98 348.57 985.8 348.75 986.62 348.9 987.45 349.01 988.28 349.08 989.12 349.11 989.96 349.1 990.79 349.05 991.63 348.96 992.45 348.83 993.27 348.67 994.08 348.46 994.89 348.22 995.67 347.94 996.45 347.62 997.21 347.26 997.95 346.87 998.67 346.45 999.37 345.99 1000.05 345.5 1000.7 344.98 1001.33 344.43 1001.93 343.85 1002.51 343.24 1003.05 342.6 1003.57 341.94 1004.05 341.26 1004.5 340.55 1004.91 339.82 1005.3 339.08 1005.64 338.32 1005.95 337.54 1006.22 336.75 1006.46 335.94 1006.65 335.13 1006.81 334.31 1006.93 333.48 1007.01 332.64 1007.05 331.81 1007.05 330.97 1007.01 330.14 1006.93 329.3 1006.81 328.47 1006.65 327.65 1006.46 326.84 1006.22 326.03 1005.95 325.24 1005.64 324.46 1005.3 323.7 1004.91 322.96 1004.5 322.23 1004.05 321.52 1003.57 320.84 1003.05 320.18 1002.51 319.54 1001.93 318.93 1001.33 318.35 1000.7 317.8 1000.05 317.28 999.37 316.79 998.67 316.33 997.95 315.91 997.21 315.52 996.45 315.16 995.67 314.84 994.89 314.56 994.08 314.32 993.27 314.11 992.45 313.95 991.63 313.82 990.79 313.73 989.96 313.68 989.12 313.67 988.28 313.7 987.45 313.77 986.62 313.88 985.8 314.03 984.98 314.21 984.17 314.44 983.38 314.7 982.6 315 981.83 315.34 981.08 315.71 980.35 316.11 979.64 316.56 978.95 317.03 978.28 317.54 977.64 318.07 977.02 318.64 976.44 319.24 975.88 319.86 975.35 320.51 974.85 321.18 974.38 321.87 973.95 322.59 973.55 323.33 973.19 324.08 972.86 324.85 972.57 325.64 972.32 326.43 972.1 327.24 971.93 328.06 971.79 328.89 971.69 329.72 971.63 330.55 971.61 331.39 M 1060.99 343.2 1061.01 344.01 1061.07 344.83 1061.17 345.64 1061.31 346.44 1061.48 347.23 1061.7 348.02 1061.95 348.79 1062.24 349.56 1062.57 350.3 1062.94 351.03 1063.33 351.74 1063.77 352.43 1064.23 353.1 1064.73 353.74 1065.26 354.36 1065.82 354.96 1066.4 355.52 1067.02 356.06 1067.66 356.57 1068.32 357.04 1069 357.48 1069.71 357.89 1070.43 358.26 1071.18 358.6 1071.93 358.9 1072.71 359.16 1073.49 359.39 1074.28 359.57 1075.08 359.72 1075.89 359.83 1076.7 359.9 1077.52 359.93 1078.33 359.92 1079.14 359.87 1079.95 359.78 1080.76 359.65 1081.56 359.48 1082.34 359.28 1083.12 359.03 1083.89 358.75 1084.64 358.43 1085.37 358.08 1086.08 357.69 1086.78 357.26 1087.45 356.81 1088.11 356.32 1088.73 355.8 1089.33 355.24 1089.9 354.66 1090.45 354.06 1090.96 353.42 1091.44 352.77 1091.89 352.09 1092.31 351.39 1092.69 350.67 1093.04 349.93 1093.35 349.18 1093.62 348.41 1093.85 347.63 1094.05 346.84 1094.21 346.04 1094.33 345.23 1094.41 344.42 1094.45 343.61 1094.45 342.79 1094.41 341.98 1094.33 341.17 1094.21 340.36 1094.05 339.56 1093.85 338.77 1093.62 337.99 1093.35 337.22 1093.04 336.47 1092.69 335.73 1092.31 335.01 1091.89 334.31 1091.44 333.63 1090.96 332.98 1090.45 332.34 1089.9 331.74 1089.33 331.16 1088.73 330.6 1088.11 330.08 1087.45 329.59 1086.78 329.14 1086.09 328.71 1085.37 328.32 1084.64 327.97 1083.89 327.65 1083.12 327.37 1082.34 327.12 1081.56 326.92 1080.76 326.75 1079.95 326.62 1079.14 326.53 1078.33 326.48 1077.52 326.47 1076.7 326.5 1075.89 326.57 1075.08 326.68 1074.28 326.83 1073.49 327.01 1072.71 327.24 1071.93 327.5 1071.18 327.8 1070.43 328.14 1069.71 328.51 1069 328.92 1068.32 329.36 1067.66 329.83 1067.02 330.34 1066.4 330.88 1065.82 331.44 1065.26 332.04 1064.73 332.66 1064.23 333.3 1063.77 333.97 1063.33 334.66 1062.94 335.37 1062.57 336.1 1062.24 336.84 1061.95 337.61 1061.7 338.38 1061.48 339.17 1061.31 339.96 1061.17 340.76 1061.07 341.57 1061.01 342.39 1060.99 343.2 M 1243.07 418 1243.07 693.59 M 1060.99 492.8 1061.01 493.61 1061.07 494.43 1061.17 495.24 1061.31 496.04 1061.48 496.83 1061.7 497.62 1061.95 498.39 1062.24 499.16 1062.57 499.9 1062.94 500.63 1063.33 501.34 1063.77 502.03 1064.23 502.7 1064.73 503.34 1065.26 503.96 1065.82 504.56 1066.4 505.12 1067.02 505.66 1067.66 506.17 1068.32 506.64 1069 507.08 1069.71 507.49 1070.43 507.86 1071.18 508.2 1071.93 508.5 1072.71 508.76 1073.49 508.99 1074.28 509.17 1075.08 509.32 1075.89 509.43 1076.7 509.5 1077.52 509.53 1078.33 509.52 1079.14 509.47 1079.95 509.38 1080.76 509.25 1081.56 509.08 1082.34 508.88 1083.12 508.63 1083.89 508.35 1084.64 508.03 1085.37 507.68 1086.08 507.29 1086.78 506.86 1087.45 506.41 1088.11 505.92 1088.73 505.4 1089.33 504.84 1089.9 504.26 1090.45 503.66 1090.96 503.02 1091.44 502.37 1091.89 501.69 1092.31 500.99 1092.69 500.27 1093.04 499.53 1093.35 498.78 1093.62 498.01 1093.85 497.23 1094.05 496.44 1094.21 495.64 1094.33 494.83 1094.41 494.02 1094.45 493.21 1094.45 492.39 1094.41 491.58 1094.33 490.77 1094.21 489.96 1094.05 489.16 1093.85 488.37 1093.62 487.59 1093.35 486.82 1093.04 486.07 1092.69 485.33 1092.31 484.61 1091.89 483.91 1091.44 483.23 1090.96 482.58 1090.45 481.94 1089.9 481.34 1089.33 480.76 1088.73 480.2 1088.11 479.68 1087.45 479.19 1086.78 478.74 1086.09 478.31 1085.37 477.92 1084.64 477.57 1083.89 477.25 1083.12 476.97 1082.34 476.72 1081.56 476.52 1080.76 476.35 1079.95 476.22 1079.14 476.13 1078.33 476.08 1077.52 476.07 1076.7 476.1 1075.89 476.17 1075.08 476.28 1074.28 476.43 1073.49 476.61 1072.71 476.84 1071.93 477.1 1071.18 477.4 1070.43 477.74 1069.71 478.11 1069 478.52 1068.32 478.96 1067.66 479.43 1067.02 479.94 1066.4 480.48 1065.82 481.04 1065.26 481.64 1064.73 482.26 1064.23 482.9 1063.77 483.57 1063.33 484.26 1062.94 484.97 1062.57 485.7 1062.24 486.44 1061.95 487.21 1061.7 487.98 1061.48 488.77 1061.31 489.56 1061.17 490.36 1061.07 491.17 1061.01 491.99 1060.99 492.8 M 971.61 504.61 971.63 505.45 971.69 506.28 971.79 507.11 971.93 507.94 972.1 508.76 972.32 509.57 972.57 510.36 972.86 511.15 973.19 511.92 973.55 512.67 973.95 513.41 974.38 514.13 974.85 514.82 975.35 515.49 975.88 516.14 976.44 516.76 977.02 517.36 977.64 517.93 978.28 518.46 978.95 518.97 979.64 519.44 980.35 519.89 981.08 520.29 981.83 520.66 982.6 521 983.38 521.3 984.17 521.56 984.98 521.79 985.8 521.97 986.62 522.12 987.45 522.23 988.28 522.3 989.12 522.33 989.96 522.32 990.79 522.27 991.63 522.18 992.45 522.05 993.27 521.89 994.08 521.68 994.89 521.44 995.67 521.16 996.45 520.84 997.21 520.48 997.95 520.09 998.67 519.67 999.37 519.21 1000.05 518.72 1000.7 518.2 1001.33 517.65 1001.93 517.07 1002.51 516.46 1003.05 515.82 1003.57 515.16 1004.05 514.48 1004.5 513.77 1004.91 513.04 1005.3 512.3 1005.64 511.54 1005.95 510.76 1006.22 509.97 1006.46 509.16 1006.65 508.35 1006.81 507.53 1006.93 506.7 1007.01 505.86 1007.05 505.03 1007.05 504.19 1007.01 503.36 1006.93 502.52 1006.81 501.69 1006.65 500.87 1006.46 500.06 1006.22 499.25 1005.95 498.46 1005.64 497.68 1005.3 496.92 1004.91 496.18 1004.5 495.45 1004.05 494.74 1003.57 494.06 1003.05 493.4 1002.51 492.76 1001.93 492.15 1001.33 491.57 1000.7 491.02 1000.05 490.5 999.37 490.01 998.67 489.55 997.95 489.13 997.21 488.74 996.45 488.38 995.67 488.06 994.89 487.78 994.08 487.54 993.27 487.33 992.45 487.17 991.63 487.04 990.79 486.95 989.96 486.9 989.12 486.89 988.28 486.92 987.45 486.99 986.62 487.1 985.8 487.25 984.98 487.43 984.17 487.66 983.38 487.92 982.6 488.22 981.83 488.56 981.08 488.93 980.35 489.33 979.64 489.78 978.95 490.25 978.28 490.76 977.64 491.29 977.02 491.86 976.44 492.46 975.88 493.08 975.35 493.73 974.85 494.4 974.38 495.09 973.95 495.81 973.55 496.55 973.19 497.3 972.86 498.07 972.57 498.86 972.32 499.65 972.1 500.46 971.93 501.28 971.79 502.11 971.69 502.94 971.63 503.77 971.61 504.61" fill="none" stroke-width="0"/><path d="M 1052.95 671 1062.39 671 1062.39 705 1052.95 705 1052.41 704.98 1051.87 704.92 1051.34 704.83 1050.82 704.69 1050.31 704.52 1049.81 704.32 1049.33 704.08 1048.86 703.8 1048.42 703.49 1048 703.15 1047.6 702.79 1047.24 702.39 1046.9 701.97 1046.59 701.53 1046.31 701.06 1046.07 700.58 1045.87 700.08 1045.7 699.57 1045.56 699.05 1045.47 698.52 1045.41 697.98 1045.39 697.44 1045.41 696.9 1045.47 696.36 1045.56 695.83 1045.7 695.31 1045.87 694.8 1046.07 694.3 1046.31 693.82 1046.59 693.35 1046.9 692.91 1047.24 692.49 1047.6 692.09 1048 691.73 1048.42 691.39 1048.86 691.08 1049.33 690.8 1049.81 690.56 1050.31 690.36 1050.82 690.19 1051.34 690.05 1051.87 689.96 1052.41 689.9 1052.95 689.88 M 1052.95 689.89 1062.39 689.89 M 1052.95 689.88 1052.35 689.86 1051.74 689.8 1051.15 689.71 1050.56 689.57 1049.98 689.4 1049.41 689.19 1048.85 688.95 1048.32 688.67 1047.8 688.35 1047.3 688.01 1046.83 687.63 1046.38 687.22 1045.96 686.79 1045.57 686.33 1045.21 685.84 1044.88 685.33 1044.58 684.81 1044.32 684.26 1044.09 683.7 1043.9 683.13 1043.75 682.54 1043.63 681.95 1043.55 681.35 1043.51 680.74 1043.51 680.14 1043.55 679.53 1043.63 678.93 1043.75 678.34 1043.9 677.75 1044.09 677.18 1044.32 676.62 1044.58 676.07 1044.88 675.55 1045.21 675.04 1045.57 674.55 1045.96 674.09 1046.38 673.66 1046.83 673.25 1047.3 672.87 1047.8 672.53 1048.32 672.21 1048.85 671.93 1049.41 671.69 1049.98 671.48 1050.56 671.31 1051.15 671.17 1051.74 671.08 1052.35 671.02 1052.95 671 M 1084.05 685.17 1094.44 690.83 M 1090.66 705 1089.96 704.98 1089.26 704.93 1088.56 704.84 1087.87 704.72 1087.19 704.57 1086.51 704.38 1085.85 704.16 1085.19 703.9 1084.55 703.62 1083.93 703.3 1083.32 702.95 1082.73 702.57 1082.16 702.17 M 1094.43 690.83 1094.88 691.12 1095.31 691.43 1095.71 691.78 1096.09 692.15 1096.44 692.54 1096.77 692.96 1097.06 693.41 1097.33 693.87 1097.56 694.35 1097.76 694.84 1097.92 695.34 1098.05 695.86 1098.14 696.38 1098.19 696.91 1098.21 697.44 M 1098.22 697.44 1098.2 697.98 1098.14 698.52 1098.05 699.05 1097.91 699.57 1097.74 700.08 1097.54 700.58 1097.3 701.06 1097.02 701.53 1096.71 701.97 1096.37 702.39 1096.01 702.79 1095.61 703.15 1095.19 703.49 1094.75 703.8 1094.28 704.08 1093.8 704.32 1093.3 704.52 1092.79 704.69 1092.27 704.83 1091.74 704.92 1091.2 704.98 1090.66 705 M 1099.16 675.72 1098.59 675.18 1098 674.66 1097.38 674.17 1096.74 673.72 1096.07 673.29 1095.39 672.9 1094.69 672.55 1093.97 672.23 1093.23 671.94 1092.49 671.69 1091.73 671.48 1090.96 671.31 1090.18 671.17 1089.4 671.08 1088.62 671.02 1087.83 671 1087.29 671.02 1086.75 671.08 1086.22 671.17 1085.7 671.31 1085.19 671.48 1084.69 671.68 1084.21 671.92 1083.74 672.2 1083.3 672.51 1082.88 672.85 1082.48 673.21 1082.12 673.61 1081.78 674.03 1081.47 674.47 1081.19 674.94 1080.95 675.42 1080.75 675.92 1080.58 676.43 1080.44 676.95 1080.35 677.48 1080.29 678.02 1080.27 678.56 1080.29 679.09 1080.34 679.62 1080.43 680.14 1080.56 680.66 1080.72 681.16 1080.92 681.65 1081.15 682.13 1081.42 682.59 1081.71 683.04 1082.04 683.46 1082.39 683.85 1082.77 684.22 1083.17 684.57 1083.6 684.88 1084.05 685.17 M 1116.27 680.44 1116.27 705 M 1135.16 705 1135.16 680.44 M 1135.15 680.44 1135.13 679.84 1135.07 679.23 1134.98 678.64 1134.84 678.05 1134.67 677.47 1134.46 676.9 1134.22 676.34 1133.94 675.81 1133.62 675.29 1133.28 674.79 1132.9 674.32 1132.49 673.87 1132.06 673.45 1131.6 673.06 1131.11 672.7 1130.6 672.37 1130.08 672.07 1129.53 671.81 1128.97 671.58 1128.4 671.39 1127.81 671.24 1127.22 671.12 1126.62 671.04 1126.01 671 1125.41 671 1124.8 671.04 1124.2 671.12 1123.61 671.24 1123.02 671.39 1122.45 671.58 1121.89 671.81 1121.34 672.07 1120.82 672.37 1120.31 672.7 1119.82 673.06 1119.36 673.45 1118.93 673.87 1118.52 674.32 1118.14 674.79 1117.8 675.29 1117.48 675.81 1117.2 676.34 1116.96 676.9 1116.75 677.47 1116.58 678.05 1116.44 678.64 1116.35 679.23 1116.29 679.84 1116.27 680.44 M 1116.41 731 1123.96 731 M 1120.19 731 1120.19 765 M 1123.96 765 1116.41 765 M 1141.25 765 1141.25 731 M 1152.59 746.11 1141.25 765 M 1152.59 746.11 1163.92 765 1163.92 731 M 1100.98 738.56 1100.98 757.44 M 1100.99 757.44 1100.97 757.98 1100.91 758.52 1100.82 759.05 1100.68 759.57 1100.51 760.08 1100.31 760.58 1100.07 761.06 1099.79 761.53 1099.48 761.97 1099.14 762.39 1098.78 762.79 1098.38 763.15 1097.96 763.49 1097.52 763.8 1097.05 764.08 1096.57 764.32 1096.07 764.52 1095.56 764.69 1095.04 764.83 1094.51 764.92 1093.97 764.98 1093.43 765 1085.87 765 M 1069.3 765 1059.85 765 1059.25 764.98 1058.64 764.92 1058.05 764.83 1057.46 764.69 1056.88 764.52 1056.31 764.31 1055.75 764.07 1055.22 763.79 1054.7 763.47 1054.2 763.13 1053.73 762.75 1053.28 762.34 1052.86 761.91 1052.47 761.45 1052.11 760.96 1051.78 760.45 1051.48 759.93 1051.22 759.38 1050.99 758.82 1050.8 758.25 1050.65 757.66 1050.53 757.07 1050.45 756.47 1050.41 755.86 1050.41 755.26 1050.45 754.65 1050.53 754.05 1050.65 753.46 1050.8 752.87 1050.99 752.3 1051.22 751.74 1051.48 751.19 1051.78 750.67 1052.11 750.16 1052.47 749.67 1052.86 749.21 1053.28 748.78 1053.73 748.37 1054.2 747.99 1054.7 747.65 1055.22 747.33 1055.75 747.05 1056.31 746.81 1056.88 746.6 1057.46 746.43 1058.05 746.29 1058.64 746.2 1059.25 746.14 1059.85 746.12 M 1059.85 746.11 1069.3 746.11 M 1057.96 746.11 1050.41 731 M 1069.3 731 1069.3 765 M 1033.63 755.56 1033.63 740.44 1033.61 739.84 1033.55 739.23 1033.46 738.64 1033.32 738.05 1033.15 737.47 1032.94 736.9 1032.7 736.34 1032.42 735.81 1032.1 735.29 1031.76 734.79 1031.38 734.32 1030.97 733.87 1030.54 733.45 1030.08 733.06 1029.59 732.7 1029.08 732.37 1028.56 732.07 1028.01 731.81 1027.45 731.58 1026.88 731.39 1026.29 731.24 1025.7 731.12 1025.1 731.04 1024.49 731 1023.89 731 1023.28 731.04 1022.68 731.12 1022.09 731.24 1021.5 731.39 1020.93 731.58 1020.37 731.81 1019.82 732.07 1019.3 732.37 1018.79 732.7 1018.3 733.06 1017.84 733.45 1017.41 733.87 1017 734.32 1016.62 734.79 1016.28 735.29 1015.96 735.81 1015.68 736.34 1015.44 736.9 1015.23 737.47 1015.06 738.05 1014.92 738.64 1014.83 739.23 1014.77 739.84 1014.75 740.44 M 1014.74 740.44 1014.74 755.56 M 1014.75 755.56 1014.77 756.16 1014.83 756.77 1014.92 757.36 1015.06 757.95 1015.23 758.53 1015.44 759.1 1015.68 759.66 1015.96 760.19 1016.28 760.71 1016.62 761.21 1017 761.68 1017.41 762.13 1017.84 762.55 1018.3 762.94 1018.79 763.3 1019.3 763.63 1019.82 763.93 1020.37 764.19 1020.93 764.42 1021.5 764.61 1022.09 764.76 1022.68 764.88 1023.28 764.96 1023.89 765 1024.49 765 1025.1 764.96 1025.7 764.88 1026.29 764.76 1026.88 764.61 1027.45 764.42 1028.01 764.19 1028.56 763.93 1029.08 763.63 1029.59 763.3 1030.08 762.94 1030.54 762.55 1030.97 762.13 1031.38 761.68 1031.76 761.21 1032.1 760.71 1032.42 760.19 1032.7 759.66 1032.94 759.1 1033.15 758.53 1033.32 757.95 1033.46 757.36 1033.55 756.77 1033.61 756.16 1033.63 755.56 M 1085.87 731 1093.43 731 1093.97 731.02 1094.51 731.08 1095.04 731.17 1095.56 731.31 1096.07 731.48 1096.57 731.68 1097.05 731.92 1097.52 732.2 1097.96 732.51 1098.38 732.85 1098.78 733.21 1099.14 733.61 1099.48 734.03 1099.79 734.47 1100.07 734.94 1100.31 735.42 1100.51 735.92 1100.68 736.43 1100.82 736.95 1100.91 737.48 1100.97 738.02 1100.99 738.56 M 679.32 735 667.99 701 656.65 735 M 639.46 735 630.02 735 629.48 734.98 628.94 734.92 628.41 734.83 627.89 734.69 627.38 734.52 626.88 734.32 626.4 734.08 625.93 733.8 625.49 733.49 625.07 733.15 624.67 732.79 624.31 732.39 623.97 731.97 623.66 731.53 623.38 731.06 623.14 730.58 622.94 730.08 622.77 729.57 622.63 729.05 622.54 728.52 622.48 727.98 622.46 727.44 622.48 726.9 622.54 726.36 622.63 725.83 622.77 725.31 622.94 724.8 623.14 724.3 623.38 723.82 623.66 723.35 623.97 722.91 624.31 722.49 624.67 722.09 625.07 721.73 625.49 721.39 625.93 721.08 626.4 720.8 626.88 720.56 627.38 720.36 627.89 720.19 628.41 720.05 628.94 719.96 629.48 719.9 630.02 719.88 M 630.02 719.89 639.46 719.89 M 630.02 719.88 629.42 719.86 628.81 719.8 628.22 719.71 627.63 719.57 627.05 719.4 626.48 719.19 625.92 718.95 625.39 718.67 624.87 718.35 624.37 718.01 623.9 717.63 623.45 717.22 623.03 716.79 622.64 716.33 622.28 715.84 621.95 715.33 621.65 714.81 621.39 714.26 621.16 713.7 620.97 713.13 620.82 712.54 620.7 711.95 620.62 711.35 620.58 710.74 620.58 710.14 620.62 709.53 620.7 708.93 620.82 708.34 620.97 707.75 621.16 707.18 621.39 706.62 621.65 706.07 621.95 705.55 622.28 705.04 622.64 704.55 623.03 704.09 623.45 703.66 623.9 703.25 624.37 702.87 624.87 702.53 625.39 702.21 625.92 701.93 626.48 701.69 627.05 701.48 627.63 701.31 628.22 701.17 628.81 701.08 629.42 701.02 630.02 701 639.46 701 639.46 735 M 604.23 735 604.23 710.44 604.21 709.84 604.15 709.23 604.06 708.64 603.92 708.05 603.75 707.47 603.54 706.9 603.3 706.34 603.02 705.81 602.7 705.29 602.36 704.79 601.98 704.32 601.57 703.87 601.14 703.45 600.68 703.06 600.19 702.7 599.68 702.37 599.16 702.07 598.61 701.81 598.05 701.58 597.48 701.39 596.89 701.24 596.3 701.12 595.7 701.04 595.09 701 594.49 701 593.88 701.04 593.28 701.12 592.69 701.24 592.1 701.39 591.53 701.58 590.97 701.81 590.42 702.07 589.9 702.37 589.39 702.7 588.9 703.06 588.44 703.45 588.01 703.87 587.6 704.32 587.22 704.79 586.88 705.29 586.56 705.81 586.28 706.34 586.04 706.9 585.83 707.47 585.66 708.05 585.52 708.64 585.43 709.23 585.37 709.84 585.35 710.44 M 585.34 710.44 585.34 735 M 563.51 720.83 553.12 715.17 M 556.9 701 557.69 701.02 558.47 701.08 559.25 701.17 560.03 701.31 560.8 701.48 561.56 701.69 562.3 701.94 563.04 702.23 563.76 702.55 564.46 702.9 565.14 703.29 565.81 703.72 566.45 704.17 567.07 704.66 567.66 705.18 568.23 705.72 M 553.13 715.17 552.68 714.88 552.25 714.57 551.85 714.22 551.47 713.85 551.12 713.46 550.79 713.04 550.5 712.59 550.23 712.13 550 711.65 549.8 711.16 549.64 710.66 549.51 710.14 549.42 709.62 549.37 709.09 549.35 708.56 M 549.34 708.56 549.36 708.02 549.42 707.48 549.51 706.95 549.65 706.43 549.82 705.92 550.02 705.42 550.26 704.94 550.54 704.47 550.85 704.03 551.19 703.61 551.55 703.21 551.95 702.85 552.37 702.51 552.81 702.2 553.28 701.92 553.76 701.68 554.26 701.48 554.77 701.31 555.29 701.17 555.82 701.08 556.36 701.02 556.9 701 M 551.23 732.17 551.8 732.57 552.39 732.95 553 733.3 553.62 733.62 554.26 733.9 554.92 734.16 555.58 734.38 556.26 734.57 556.94 734.72 557.63 734.84 558.33 734.93 559.03 734.98 559.73 735 560.27 734.98 560.81 734.92 561.34 734.83 561.86 734.69 562.37 734.52 562.87 734.32 563.35 734.08 563.82 733.8 564.26 733.49 564.68 733.15 565.08 732.79 565.44 732.39 565.78 731.97 566.09 731.53 566.37 731.06 566.61 730.58 566.81 730.08 566.98 729.57 567.12 729.05 567.21 728.52 567.27 727.98 567.29 727.44 M 567.28 727.44 567.26 726.91 567.21 726.38 567.12 725.86 566.99 725.34 566.83 724.84 566.63 724.35 566.4 723.87 566.13 723.41 565.84 722.96 565.51 722.54 565.16 722.15 564.78 721.78 564.38 721.43 563.95 721.12 563.5 720.83 M 575.93 635 585.38 635 585.38 601 575.93 601 575.34 601.02 574.75 601.07 574.16 601.17 573.58 601.3 573.01 601.46 572.45 601.66 571.91 601.9 571.38 602.17 570.87 602.47 570.38 602.8 569.91 603.17 569.47 603.56 569.05 603.98 568.66 604.42 568.29 604.89 567.96 605.38 567.66 605.89 567.39 606.42 567.15 606.96 566.95 607.52 566.79 608.09 566.66 608.67 566.56 609.26 566.51 609.85 566.49 610.44 566.49 625.56 566.51 626.15 566.56 626.74 566.66 627.33 566.79 627.91 566.95 628.48 567.15 629.04 567.39 629.58 567.66 630.11 567.96 630.62 568.29 631.11 568.66 631.58 569.05 632.02 569.47 632.44 569.91 632.83 570.38 633.2 570.87 633.53 571.38 633.83 571.91 634.1 572.45 634.34 573.01 634.54 573.58 634.7 574.16 634.83 574.75 634.93 575.34 634.98 575.93 635 M 604.89 635 604.89 601 623.78 635 623.78 601 M 643.29 601 654.62 601 655.16 601.02 655.7 601.08 656.23 601.17 656.75 601.31 657.26 601.48 657.76 601.68 658.24 601.92 658.71 602.2 659.15 602.51 659.57 602.85 659.97 603.21 660.33 603.61 660.67 604.03 660.98 604.47 661.26 604.94 661.5 605.42 661.7 605.92 661.87 606.43 662.01 606.95 662.1 607.48 662.16 608.02 662.18 608.56 M 662.17 608.56 662.17 627.44 M 662.18 627.44 662.16 627.98 662.1 628.52 662.01 629.05 661.87 629.57 661.7 630.08 661.5 630.58 661.26 631.06 660.98 631.53 660.67 631.97 660.33 632.39 659.97 632.79 659.57 633.15 659.15 633.49 658.71 633.8 658.24 634.08 657.76 634.32 657.26 634.52 656.75 634.69 656.23 634.83 655.7 634.92 655.16 634.98 654.62 635 643.29 635 M 643.29 619.89 643.29 601 M 643.29 619.89 648.95 619.89 M 437.17 683.56 437.17 702.44 M 437.18 702.44 437.16 702.98 437.1 703.52 437.01 704.05 436.87 704.57 436.7 705.08 436.5 705.58 436.26 706.06 435.98 706.53 435.67 706.97 435.33 707.39 434.97 707.79 434.57 708.15 434.15 708.49 433.71 708.8 433.24 709.08 432.76 709.32 432.26 709.52 431.75 709.69 431.23 709.83 430.7 709.92 430.16 709.98 429.62 710 418.29 710 M 418.29 694.89 418.29 676 429.62 676 430.16 676.02 430.7 676.08 431.23 676.17 431.75 676.31 432.26 676.48 432.76 676.68 433.24 676.92 433.71 677.2 434.15 677.51 434.57 677.85 434.97 678.21 435.33 678.61 435.67 679.03 435.98 679.47 436.26 679.94 436.5 680.42 436.7 680.92 436.87 681.43 437.01 681.95 437.1 682.48 437.16 683.02 437.18 683.56 M 423.95 694.89 418.29 694.89 M 398.78 710 398.78 676 M 379.89 676 379.89 710 M 398.78 710 379.89 676 M 360.38 676 350.93 676 350.34 676.02 349.75 676.07 349.16 676.17 348.58 676.3 348.01 676.46 347.45 676.66 346.91 676.9 346.38 677.17 345.87 677.47 345.38 677.8 344.91 678.17 344.47 678.56 344.05 678.98 343.66 679.42 343.29 679.89 342.96 680.38 342.66 680.89 342.39 681.42 342.15 681.96 341.95 682.52 341.79 683.09 341.66 683.67 341.56 684.26 341.51 684.85 341.49 685.44 341.49 700.56 341.51 701.15 341.56 701.74 341.66 702.33 341.79 702.91 341.95 703.48 342.15 704.04 342.39 704.58 342.66 705.11 342.96 705.62 343.29 706.11 343.66 706.58 344.05 707.02 344.47 707.44 344.91 707.83 345.38 708.2 345.87 708.53 346.38 708.83 346.91 709.1 347.45 709.34 348.01 709.54 348.58 709.7 349.16 709.83 349.75 709.93 350.34 709.98 350.93 710 360.38 710 360.38 676 M 321.89 539.61 306.78 539.61 306.19 539.59 305.6 539.54 305.01 539.44 304.43 539.31 303.86 539.15 303.3 538.95 302.76 538.71 302.23 538.44 301.72 538.14 301.23 537.81 300.76 537.44 300.32 537.05 299.9 536.63 299.51 536.19 299.14 535.72 298.81 535.23 298.51 534.72 298.24 534.19 298 533.65 297.8 533.09 297.64 532.52 297.51 531.94 297.41 531.35 297.36 530.76 297.34 530.17 M 297.33 530.17 297.33 520.72 331.33 520.72 331.33 530.17 331.31 530.76 331.26 531.35 331.16 531.94 331.03 532.52 330.87 533.09 330.67 533.65 330.43 534.19 330.16 534.72 329.86 535.23 329.53 535.72 329.16 536.19 328.77 536.63 328.35 537.05 327.91 537.44 327.44 537.81 326.95 538.14 326.44 538.44 325.91 538.71 325.37 538.95 324.81 539.15 324.24 539.31 323.66 539.44 323.07 539.54 322.48 539.59 321.89 539.61 M 331.33 503.94 331.33 496.39 M 331.33 500.17 297.33 500.17 M 297.33 503.94 297.33 496.39 M 310.55 448.19 310.55 425.52 M 299.22 436.86 321.89 436.86 M 321.89 406.7 306.78 406.7 306.19 406.68 305.6 406.63 305.01 406.53 304.43 406.4 303.86 406.24 303.3 406.04 302.76 405.8 302.23 405.53 301.72 405.23 301.23 404.9 300.76 404.53 300.32 404.14 299.9 403.72 299.51 403.28 299.14 402.81 298.81 402.32 298.51 401.81 298.24 401.28 298 400.74 297.8 400.18 297.64 399.61 297.51 399.03 297.41 398.44 297.36 397.85 297.34 397.26 M 297.33 397.26 297.33 387.81 331.33 387.81 331.33 397.26 331.31 397.85 331.26 398.44 331.16 399.03 331.03 399.61 330.87 400.18 330.67 400.74 330.43 401.28 330.16 401.81 329.86 402.32 329.53 402.81 329.16 403.28 328.77 403.72 328.35 404.14 327.91 404.53 327.44 404.9 326.95 405.23 326.44 405.53 325.91 405.8 325.37 406.04 324.81 406.24 324.24 406.4 323.66 406.53 323.07 406.63 322.48 406.68 321.89 406.7 M 310.55 348.19 310.55 325.52 M 306.78 306.7 321.89 306.7 322.48 306.68 323.07 306.63 323.66 306.53 324.24 306.4 324.81 306.24 325.37 306.04 325.91 305.8 326.44 305.53 326.95 305.23 327.44 304.9 327.91 304.53 328.35 304.14 328.77 303.72 329.16 303.28 329.53 302.81 329.86 302.32 330.16 301.81 330.43 301.28 330.67 300.74 330.87 300.18 331.03 299.61 331.16 299.03 331.26 298.44 331.31 297.85 331.33 297.26 331.33 287.81 297.33 287.81 297.33 297.26 M 297.34 297.26 297.36 297.85 297.41 298.44 297.51 299.03 297.64 299.61 297.8 300.18 298 300.74 298.24 301.28 298.51 301.81 298.81 302.32 299.14 302.81 299.51 303.28 299.9 303.72 300.32 304.14 300.76 304.53 301.23 304.9 301.72 305.23 302.23 305.53 302.76 305.8 303.3 306.04 303.86 306.24 304.43 306.4 305.01 306.53 305.6 306.63 306.19 306.68 306.78 306.7 M 360.34 160 360.34 135.44 M 360.35 135.44 360.37 134.84 360.43 134.23 360.52 133.64 360.66 133.05 360.83 132.47 361.04 131.9 361.28 131.34 361.56 130.81 361.88 130.29 362.22 129.79 362.6 129.32 363.01 128.87 363.44 128.45 363.9 128.06 364.39 127.7 364.9 127.37 365.42 127.07 365.97 126.81 366.53 126.58 367.1 126.39 367.69 126.24 368.28 126.12 368.88 126.04 369.49 126 370.09 126 370.7 126.04 371.3 126.12 371.89 126.24 372.48 126.39 373.05 126.58 373.61 126.81 374.16 127.07 374.68 127.37 375.19 127.7 375.68 128.06 376.14 128.45 376.57 128.87 376.98 129.32 377.36 129.79 377.7 130.29 378.02 130.81 378.3 131.34 378.54 131.9 378.75 132.47 378.92 133.05 379.06 133.64 379.15 134.23 379.21 134.84 379.23 135.44 379.23 160 M 405.02 160 414.46 160 414.46 126 405.02 126 404.42 126.02 403.81 126.08 403.22 126.17 402.63 126.31 402.05 126.48 401.48 126.69 400.92 126.93 400.39 127.21 399.87 127.53 399.37 127.87 398.9 128.25 398.45 128.66 398.03 129.09 397.64 129.55 397.28 130.04 396.95 130.55 396.65 131.07 396.39 131.62 396.16 132.18 395.97 132.75 395.82 133.34 395.7 133.93 395.62 134.53 395.58 135.14 395.58 135.74 395.62 136.35 395.7 136.95 395.82 137.54 395.97 138.13 396.16 138.7 396.39 139.26 396.65 139.81 396.95 140.33 397.28 140.84 397.64 141.33 398.03 141.79 398.45 142.22 398.9 142.63 399.37 143.01 399.87 143.35 400.39 143.67 400.92 143.95 401.48 144.19 402.05 144.4 402.63 144.57 403.22 144.71 403.81 144.8 404.42 144.86 405.02 144.88 M 405.02 144.89 414.46 144.89 M 405.02 144.88 404.48 144.9 403.94 144.96 403.41 145.05 402.89 145.19 402.38 145.36 401.88 145.56 401.4 145.8 400.93 146.08 400.49 146.39 400.07 146.73 399.67 147.09 399.31 147.49 398.97 147.91 398.66 148.35 398.38 148.82 398.14 149.3 397.94 149.8 397.77 150.31 397.63 150.83 397.54 151.36 397.48 151.9 397.46 152.44 397.48 152.98 397.54 153.52 397.63 154.05 397.77 154.57 397.94 155.08 398.14 155.58 398.38 156.06 398.66 156.53 398.97 156.97 399.31 157.39 399.67 157.79 400.07 158.15 400.49 158.49 400.93 158.8 401.4 159.08 401.88 159.32 402.38 159.52 402.89 159.69 403.41 159.83 403.94 159.92 404.48 159.98 405.02 160 M 431.65 160 442.99 126 454.32 160 M 509.14 114.22 531.81 114.22 M 550.63 110.44 550.63 125.56 M 550.64 125.56 550.66 126.15 550.71 126.74 550.81 127.33 550.94 127.91 551.1 128.48 551.3 129.04 551.54 129.58 551.81 130.11 552.11 130.62 552.44 131.11 552.81 131.58 553.2 132.02 553.62 132.44 554.06 132.83 554.53 133.2 555.02 133.53 555.53 133.83 556.06 134.1 556.6 134.34 557.16 134.54 557.73 134.7 558.31 134.83 558.9 134.93 559.49 134.98 560.08 135 569.52 135 569.52 101 560.08 101 559.49 101.02 558.9 101.07 558.31 101.17 557.73 101.3 557.16 101.46 556.6 101.66 556.06 101.9 555.53 102.17 555.02 102.47 554.53 102.8 554.06 103.17 553.62 103.56 553.2 103.98 552.81 104.42 552.44 104.89 552.11 105.38 551.81 105.89 551.54 106.42 551.3 106.96 551.1 107.52 550.94 108.09 550.81 108.67 550.71 109.26 550.66 109.85 550.64 110.44 M 609.14 114.22 631.81 114.22 M 620.48 102.89 620.48 125.56 M 650.63 125.56 650.63 110.44 M 650.64 110.44 650.66 109.85 650.71 109.26 650.81 108.67 650.94 108.09 651.1 107.52 651.3 106.96 651.54 106.42 651.81 105.89 652.11 105.38 652.44 104.89 652.81 104.42 653.2 103.98 653.62 103.56 654.06 103.17 654.53 102.8 655.02 102.47 655.53 102.17 656.06 101.9 656.6 101.66 657.16 101.46 657.73 101.3 658.31 101.17 658.9 101.07 659.49 101.02 660.08 101 669.52 101 669.52 135 660.08 135 659.49 134.98 658.9 134.93 658.31 134.83 657.73 134.7 657.16 134.54 656.6 134.34 656.06 134.1 655.53 133.83 655.02 133.53 654.53 133.2 654.06 132.83 653.62 132.44 653.2 132.02 652.81 131.58 652.44 131.11 652.11 130.62 651.81 130.11 651.54 129.58 651.3 129.04 651.1 128.48 650.94 127.91 650.81 127.33 650.71 126.74 650.66 126.15 650.64 125.56 M 717.72 125.56 717.72 110.44 717.74 109.85 717.79 109.26 717.89 108.67 718.02 108.09 718.18 107.52 718.38 106.96 718.62 106.42 718.89 105.89 719.19 105.38 719.52 104.89 719.89 104.42 720.28 103.98 720.7 103.56 721.14 103.17 721.61 102.8 722.1 102.47 722.61 102.17 723.14 101.9 723.68 101.66 724.24 101.46 724.81 101.3 725.39 101.17 725.98 101.07 726.57 101.02 727.16 101 736.61 101 736.61 135 727.16 135 726.57 134.98 725.98 134.93 725.39 134.83 724.81 134.7 724.24 134.54 723.68 134.34 723.14 134.1 722.61 133.83 722.1 133.53 721.61 133.2 721.14 132.83 720.7 132.44 720.28 132.02 719.89 131.58 719.52 131.11 719.19 130.62 718.89 130.11 718.62 129.58 718.38 129.04 718.18 128.48 718.02 127.91 717.89 127.33 717.79 126.74 717.74 126.15 717.72 125.56 M 753.39 135 760.94 135 M 757.16 135 757.16 101 M 753.39 101 760.94 101 M 812.74 101 812.74 135 824.08 116.11 835.41 135 835.41 101 M 854.23 110.44 854.23 125.56 M 854.24 125.56 854.26 126.16 854.32 126.77 854.41 127.36 854.55 127.95 854.72 128.53 854.93 129.1 855.17 129.66 855.45 130.19 855.77 130.71 856.11 131.21 856.49 131.68 856.9 132.13 857.33 132.55 857.79 132.94 858.28 133.3 858.79 133.63 859.31 133.93 859.86 134.19 860.42 134.42 860.99 134.61 861.58 134.76 862.17 134.88 862.77 134.96 863.38 135 863.98 135 864.59 134.96 865.19 134.88 865.78 134.76 866.37 134.61 866.94 134.42 867.5 134.19 868.05 133.93 868.57 133.63 869.08 133.3 869.57 132.94 870.03 132.55 870.46 132.13 870.87 131.68 871.25 131.21 871.59 130.71 871.91 130.19 872.19 129.66 872.43 129.1 872.64 128.53 872.81 127.95 872.95 127.36 873.04 126.77 873.1 126.16 873.12 125.56 873.12 110.44 873.1 109.84 873.04 109.23 872.95 108.64 872.81 108.05 872.64 107.47 872.43 106.9 872.19 106.34 871.91 105.81 871.59 105.29 871.25 104.79 870.87 104.32 870.46 103.87 870.03 103.45 869.57 103.06 869.08 102.7 868.57 102.37 868.05 102.07 867.5 101.81 866.94 101.58 866.37 101.39 865.78 101.24 865.19 101.12 864.59 101.04 863.98 101 863.38 101 862.77 101.04 862.17 101.12 861.58 101.24 860.99 101.39 860.42 101.58 859.86 101.81 859.31 102.07 858.79 102.37 858.28 102.7 857.79 103.06 857.33 103.45 856.9 103.87 856.49 104.32 856.11 104.79 855.77 105.29 855.45 105.81 855.17 106.34 854.93 106.9 854.72 107.47 854.55 108.05 854.41 108.64 854.32 109.23 854.26 109.84 854.24 110.44 M 888.16 101 895.72 101 896.26 101.02 896.8 101.08 897.33 101.17 897.85 101.31 898.36 101.48 898.86 101.68 899.34 101.92 899.81 102.2 900.25 102.51 900.67 102.85 901.07 103.21 901.43 103.61 901.77 104.03 902.08 104.47 902.36 104.94 902.6 105.42 902.8 105.92 902.97 106.43 903.11 106.95 903.2 107.48 903.26 108.02 903.28 108.56 M 903.27 108.56 903.27 127.44 903.25 127.98 903.19 128.52 903.1 129.05 902.96 129.57 902.79 130.08 902.59 130.58 902.35 131.06 902.07 131.53 901.76 131.97 901.42 132.39 901.06 132.79 900.66 133.15 900.24 133.49 899.8 133.8 899.33 134.08 898.85 134.32 898.35 134.52 897.84 134.69 897.32 134.83 896.79 134.92 896.25 134.98 895.71 135 M 895.72 135 888.16 135 M 887.18 151 898.51 185 909.85 151 M 907.01 159.5 890.01 159.5 M 872.11 158.56 872.11 177.44 872.09 177.98 872.03 178.52 871.94 179.05 871.8 179.57 871.63 180.08 871.43 180.58 871.19 181.06 870.91 181.53 870.6 181.97 870.26 182.39 869.9 182.79 869.5 183.15 869.08 183.49 868.64 183.8 868.17 184.08 867.69 184.32 867.19 184.52 866.68 184.69 866.16 184.83 865.63 184.92 865.09 184.98 864.55 185 857 185 M 839.99 185 839.99 151 M 839.99 164.22 821.1 185 M 832.44 171.78 821.1 151 M 857 151 864.55 151 865.09 151.02 865.63 151.08 866.16 151.17 866.68 151.31 867.19 151.48 867.69 151.68 868.17 151.92 868.64 152.2 869.08 152.51 869.5 152.85 869.9 153.21 870.26 153.61 870.6 154.03 870.91 154.47 871.19 154.94 871.43 155.42 871.63 155.92 871.8 156.43 871.94 156.95 872.03 157.48 872.09 158.02 872.11 158.56 M 926.27 151 926.27 185 M 926.27 169.89 945.16 169.89 M 945.16 185 945.16 151 M 941.68 135 941.68 101 M 919.82 101 917.93 101 917.93 102.89 919.82 102.89 919.82 101 M 932.23 135 951.12 135 M 974.94 135 984.39 135 984.39 101 M 984.39 116.11 974.94 116.11 M 973.05 116.11 965.5 101 M 974.94 116.12 974.34 116.14 973.73 116.2 973.14 116.29 972.55 116.43 971.97 116.6 971.4 116.81 970.84 117.05 970.31 117.33 969.79 117.65 969.29 117.99 968.82 118.37 968.37 118.78 967.95 119.21 967.56 119.67 967.2 120.16 966.87 120.67 966.57 121.19 966.31 121.74 966.08 122.3 965.89 122.87 965.74 123.46 965.62 124.05 965.54 124.65 965.5 125.26 965.5 125.86 965.54 126.47 965.62 127.07 965.74 127.66 965.89 128.25 966.08 128.82 966.31 129.38 966.57 129.93 966.87 130.45 967.2 130.96 967.56 131.45 967.95 131.91 968.37 132.34 968.82 132.75 969.29 133.13 969.79 133.47 970.31 133.79 970.84 134.07 971.4 134.31 971.97 134.52 972.55 134.69 973.14 134.83 973.73 134.92 974.34 134.98 974.94 135 M 983.56 151 983.56 185 964.67 151 964.67 185 M 1003.07 185 1003.07 151 M 1012.48 135 1001.14 101 M 1003.98 109.5 1020.98 109.5 M 1023.81 101 1012.48 135 M 1021.96 151 1021.96 185 M 1021.96 169.89 1003.07 169.89 M 1038.2 185 1045.75 185 1046.29 184.98 1046.83 184.92 1047.36 184.83 1047.88 184.69 1048.39 184.52 1048.89 184.32 1049.37 184.08 1049.84 183.8 1050.28 183.49 1050.7 183.15 1051.1 182.79 1051.46 182.39 1051.8 181.97 1052.11 181.53 1052.39 181.06 1052.63 180.58 1052.83 180.08 1053 179.57 1053.14 179.05 1053.23 178.52 1053.29 177.98 1053.31 177.44 1053.31 158.56 1053.29 158.02 1053.23 157.48 1053.14 156.95 1053 156.43 1052.83 155.92 1052.63 155.42 1052.39 154.94 1052.11 154.47 1051.8 154.03 1051.46 153.61 1051.1 153.21 1050.7 152.85 1050.28 152.51 1049.84 152.2 1049.37 151.92 1048.89 151.68 1048.39 151.48 1047.88 151.31 1047.36 151.17 1046.83 151.08 1046.29 151.02 1045.75 151 1038.2 151 M 1036.96 135 1044.51 135 1045.05 134.98 1045.59 134.92 1046.12 134.83 1046.64 134.69 1047.15 134.52 1047.65 134.32 1048.13 134.08 1048.6 133.8 1049.04 133.49 1049.46 133.15 1049.86 132.79 1050.22 132.39 1050.56 131.97 1050.87 131.53 1051.15 131.06 1051.39 130.58 1051.59 130.08 1051.76 129.57 1051.9 129.05 1051.99 128.52 1052.05 127.98 1052.07 127.44 1052.07 108.56 1052.05 108.02 1051.99 107.48 1051.9 106.95 1051.76 106.43 1051.59 105.92 1051.39 105.42 1051.15 104.94 1050.87 104.47 1050.56 104.03 1050.22 103.61 1049.86 103.21 1049.46 102.85 1049.04 102.51 1048.6 102.2 1048.13 101.92 1047.65 101.68 1047.15 101.48 1046.64 101.31 1046.12 101.17 1045.59 101.08 1045.05 101.02 1044.51 101 1036.96 101 M 1070.23 101 1070.23 135 M 1070.23 119.89 1089.12 119.89 M 1089.12 135 1089.12 101 M 1108.63 101 1108.63 135 M 1127.52 135 1108.63 101 M 1127.52 101 1127.52 135 M 1122.25 151 1110.91 185 1099.58 151 M 1102.41 159.5 1119.41 159.5 M 1138.67 151 1138.67 185 M 1138.67 169.89 1157.56 169.89 M 1157.56 185 1157.56 151 M 1165.92 135 1165.92 101 M 1147.03 101 1147.03 135 M 1147.03 119.89 1165.92 119.89 M 1077.31 151 1077.31 185 M 1067.87 185 1086.76 185 M 338.51 145.83 328.12 140.17 M 331.9 126 332.69 126.02 333.47 126.08 334.25 126.17 335.03 126.31 335.8 126.48 336.56 126.69 337.3 126.94 338.04 127.23 338.76 127.55 339.46 127.9 340.14 128.29 340.81 128.72 341.45 129.17 342.07 129.66 342.66 130.18 343.23 130.72 M 328.13 140.17 327.68 139.88 327.25 139.57 326.85 139.22 326.47 138.85 326.12 138.46 325.79 138.04 325.5 137.59 325.23 137.13 325 136.65 324.8 136.16 324.64 135.66 324.51 135.14 324.42 134.62 324.37 134.09 324.35 133.56 M 324.34 133.56 324.36 133.02 324.42 132.48 324.51 131.95 324.65 131.43 324.82 130.92 325.02 130.42 325.26 129.94 325.54 129.47 325.85 129.03 326.19 128.61 326.55 128.21 326.95 127.85 327.37 127.51 327.81 127.2 328.28 126.92 328.76 126.68 329.26 126.48 329.77 126.31 330.29 126.17 330.82 126.08 331.36 126.02 331.9 126 M 326.23 157.17 326.8 157.57 327.39 157.95 328 158.3 328.62 158.62 329.26 158.9 329.92 159.16 330.58 159.38 331.26 159.57 331.94 159.72 332.63 159.84 333.33 159.93 334.03 159.98 334.73 160 335.27 159.98 335.81 159.92 336.34 159.83 336.86 159.69 337.37 159.52 337.87 159.32 338.35 159.08 338.82 158.8 339.26 158.49 339.68 158.15 340.08 157.79 340.44 157.39 340.78 156.97 341.09 156.53 341.37 156.06 341.61 155.58 341.81 155.08 341.98 154.57 342.12 154.05 342.21 153.52 342.27 152.98 342.29 152.44 M 342.28 152.44 342.26 151.91 342.21 151.38 342.12 150.86 341.99 150.34 341.83 149.84 341.63 149.35 341.4 148.87 341.13 148.41 340.84 147.96 340.51 147.54 340.16 147.15 339.78 146.78 339.38 146.43 338.95 146.12 338.5 145.83" fill="none" stroke-width="6"/><path d="M 364.33 168 339.33 193 339.33 243 364.33 268 339.33 293 339.33 343 364.33 368 339.33 393 339.33 443 364.33 468 339.33 493 339.33 543 364.33 568 339.33 593 339.33 643 364.33 668 414.33 668 439.33 643 439.33 593 414.33 568 439.33 543 439.33 493 414.33 468 439.33 443 439.33 393 414.33 368 439.33 343 439.33 293 414.33 268 439.33 243 439.33 193 414.33 168 364.33 168 M 489.33 193 489.33 243 514.33 268 564.33 268 589.33 243 614.33 268 664.33 268 689.33 243 714.33 268 764.33 268 789.33 243 789.33 193 764.33 168 714.33 168 689.33 193 664.33 168 614.33 168 589.33 193 564.33 168 514.33 168 489.33 193 M 714.33 568 689.33 593 689.33 643 714.33 668 689.33 693 689.33 743 714.33 768 764.33 768 789.33 743 789.33 693 764.33 668 789.33 643 789.33 593 764.33 568 714.33 568" fill="none" stroke-width="10"/><path d="M 814.33 568 839.33 568 839.33 593 M 939.33 493 964.33 518 M 939.33 493 939.33 343 964.33 318 M 789.33 293 764.33 318 489.33 318 489.33 643 464.33 668 M 339.33 818 336.91 817.97 334.5 817.88 332.09 817.74 329.68 817.53 327.28 817.27 324.88 816.95 322.49 816.57 320.12 816.14 317.75 815.64 315.4 815.09 313.06 814.49 310.74 813.82 308.43 813.11 306.14 812.33 303.87 811.5 301.62 810.62 299.39 809.68 297.19 808.69 295.01 807.64 292.86 806.55 290.73 805.4 288.63 804.2 286.57 802.95 284.53 801.65 282.52 800.3 280.55 798.9 278.61 797.46 276.71 795.97 274.85 794.43 273.02 792.85 271.23 791.23 269.48 789.56 267.77 787.85 266.1 786.1 264.48 784.31 262.9 782.48 261.36 780.62 259.87 778.72 258.43 776.78 257.03 774.81 255.68 772.8 254.38 770.76 253.13 768.7 251.93 766.6 250.78 764.47 249.69 762.32 248.64 760.14 247.65 757.94 246.71 755.71 245.83 753.46 245 751.19 244.22 748.9 243.51 746.59 242.84 744.27 242.24 741.93 241.69 739.58 241.19 737.21 240.76 734.84 240.38 732.45 240.06 730.05 239.8 727.65 239.59 725.24 239.45 722.83 239.36 720.42 239.33 718 239.33 668 289.33 618 239.33 568 289.33 518 239.33 468 289.33 418 239.33 368 289.33 318 239.33 268 289.33 218 239.33 168 239.33 268 239.33 368 239.33 468 239.33 568 239.33 668 M 339.33 818 1139.33 818 1141.75 817.97 1144.16 817.88 1146.57 817.74 1148.98 817.53 1151.38 817.27 1153.78 816.95 1156.17 816.57 1158.54 816.14 1160.91 815.64 1163.26 815.09 1165.6 814.49 1167.92 813.82 1170.23 813.11 1172.52 812.33 1174.79 811.5 1177.04 810.62 1179.27 809.68 1181.47 808.69 1183.65 807.64 1185.8 806.55 1187.93 805.4 1190.03 804.2 1192.09 802.95 1194.13 801.65 1196.14 800.3 1198.11 798.9 1200.05 797.46 1201.95 795.97 1203.81 794.43 1205.64 792.85 1207.43 791.23 1209.18 789.56 1210.89 787.85 1212.56 786.1 1214.18 784.31 1215.76 782.48 1217.3 780.62 1218.79 778.72 1220.23 776.78 1221.63 774.81 1222.98 772.8 1224.28 770.76 1225.53 768.7 1226.73 766.6 1227.88 764.47 1228.97 762.32 1230.02 760.14 1231.01 757.94 1231.95 755.71 1232.83 753.46 1233.66 751.19 1234.44 748.9 1235.15 746.59 1235.82 744.27 1236.42 741.93 1236.97 739.58 1237.47 737.21 1237.9 734.84 1238.28 732.45 1238.6 730.05 1238.86 727.65 1239.07 725.24 1239.21 722.83 1239.3 720.42 1239.33 718 1239.33 118 1239.3 115.58 1239.21 113.17 1239.07 110.76 1238.86 108.35 1238.6 105.95 1238.28 103.55 1237.9 101.16 1237.47 98.79 1236.97 96.42 1236.42 94.07 1235.82 91.73 1235.15 89.41 1234.44 87.1 1233.66 84.81 1232.83 82.54 1231.95 80.29 1231.01 78.06 1230.02 75.86 1228.97 73.68 1227.88 71.53 1226.73 69.4 1225.53 67.3 1224.28 65.24 1222.98 63.2 1221.63 61.19 1220.23 59.22 1218.79 57.28 1217.3 55.38 1215.76 53.52 1214.18 51.69 1212.56 49.9 1210.89 48.15 1209.18 46.44 1207.43 44.77 1205.64 43.15 1203.81 41.57 1201.95 40.03 1200.05 38.54 1198.11 37.1 1196.14 35.7 1194.13 34.35 1192.09 33.05 1190.03 31.8 1187.93 30.6 1185.8 29.45 1183.65 28.36 1181.47 27.31 1179.27 26.32 1177.04 25.38 1174.79 24.5 1172.52 23.67 1170.23 22.89 1167.92 22.18 1165.6 21.51 1163.26 20.91 1160.91 20.36 1158.54 19.86 1156.17 19.43 1153.78 19.05 1151.38 18.73 1148.98 18.47 1146.57 18.26 1144.16 18.12 1141.75 18.03 1139.33 18 339.33 18 336.91 18.03 334.5 18.12 332.09 18.26 329.68 18.47 327.28 18.73 324.88 19.05 322.49 19.43 320.12 19.86 317.75 20.36 315.4 20.91 313.06 21.51 310.74 22.18 308.43 22.89 306.14 23.67 303.87 24.5 301.62 25.38 299.39 26.32 297.19 27.31 295.01 28.36 292.86 29.45 290.73 30.6 288.63 31.8 286.57 33.05 284.53 34.35 282.52 35.7 280.55 37.1 278.61 38.54 276.71 40.03 274.85 41.57 273.02 43.15 271.23 44.77 269.48 46.44 267.77 48.15 266.1 49.9 264.48 51.69 262.9 53.52 261.36 55.38 259.87 57.28 258.43 59.22 257.03 61.19 255.68 63.2 254.38 65.24 253.13 67.3 251.93 69.4 250.78 71.53 249.69 73.68 248.64 75.86 247.65 78.06 246.71 80.29 245.83 82.54 245 84.81 244.22 87.1 243.51 89.41 242.84 91.73 242.24 94.07 241.69 96.42 241.19 98.79 240.76 101.16 240.38 103.55 240.06 105.95 239.8 108.35 239.59 110.76 239.45 113.17 239.36 115.58 239.33 118 239.33 168 M 839.33 743 839.33 768 814.33 768" fill="none" stroke-width="16"/><path d="M 1272.46 660.48 1276.13 660.48 M 1274.9 664.15 1274.9 654.98 1274.88 654.72 1274.83 654.46 1274.73 654.22 1274.61 653.99 1274.45 653.78 1274.27 653.6 1274.06 653.44 1273.83 653.32 1273.59 653.22 1273.33 653.17 1273.07 653.15 1272.46 653.15 M 1280.04 653.15 1280.04 658.65 1280.06 658.91 1280.11 659.17 1280.21 659.41 1280.33 659.64 1280.49 659.85 1280.67 660.03 1280.88 660.19 1281.11 660.31 1281.35 660.41 1281.61 660.46 1281.87 660.48 1284.93 660.48 1284.93 653.15 M 1289.76 655.59 1289.76 658.03 1289.78 658.32 1289.83 658.61 1289.92 658.9 1290.04 659.16 1290.19 659.42 1290.37 659.65 1290.58 659.86 1290.81 660.04 1291.07 660.19 1291.33 660.31 1291.62 660.4 1291.91 660.45 1292.2 660.47 1292.49 660.45 1292.78 660.4 1293.07 660.31 1293.33 660.19 1293.59 660.04 1293.82 659.86 1294.03 659.65 1294.21 659.42 1294.36 659.16 1294.48 658.9 1294.57 658.61 1294.62 658.32 1294.64 658.03 M 1294.65 658.03 1294.65 655.59 M 1294.64 655.59 1294.62 655.3 1294.57 655.01 1294.48 654.72 1294.36 654.46 1294.21 654.2 1294.03 653.97 1293.82 653.76 1293.59 653.58 1293.33 653.43 1293.07 653.31 1292.78 653.22 1292.49 653.17 1292.2 653.15 1291.91 653.17 1291.62 653.22 1291.33 653.31 1291.07 653.43 1290.81 653.58 1290.58 653.76 1290.37 653.97 1290.19 654.2 1290.04 654.46 1289.92 654.72 1289.83 655.01 1289.78 655.3 1289.76 655.59 M 1298.12 659.26 1298.12 660.48 1301.78 660.48 1301.78 653.15 M 1306.19 659.26 1311.08 659.26 M 1311.08 664.15 1306.19 664.15 M 1311.08 664.15 1311.08 653.15 M 1324.44 653.15 1327.5 653.15 1327.5 664.15 1324.44 664.15 M 1324.44 664.14 1324.15 664.12 1323.86 664.07 1323.57 663.98 1323.31 663.86 1323.05 663.71 1322.82 663.53 1322.61 663.32 1322.43 663.09 1322.28 662.83 1322.16 662.57 1322.07 662.28 1322.02 661.99 1322 661.7 1322.02 661.41 1322.07 661.12 1322.16 660.83 1322.28 660.57 1322.43 660.31 1322.61 660.08 1322.82 659.87 1323.05 659.69 1323.31 659.54 1323.57 659.42 1323.86 659.33 1324.15 659.28 1324.44 659.26 1327.5 659.26 M 1324.44 659.26 1324.1 659.24 1323.76 659.18 1323.43 659.09 1323.11 658.96 1322.81 658.79 1322.53 658.59 1322.28 658.36 1322.05 658.11 1321.85 657.83 1321.68 657.53 1321.55 657.21 1321.46 656.88 1321.4 656.54 1321.38 656.2 1321.4 655.86 1321.46 655.52 1321.55 655.19 1321.68 654.87 1321.85 654.57 1322.05 654.29 1322.28 654.04 1322.53 653.81 1322.81 653.61 1323.11 653.44 1323.43 653.31 1323.76 653.22 1324.1 653.16 1324.44 653.14 M 1332.16 653.15 1334.61 653.15 1334.9 653.17 1335.19 653.22 1335.48 653.31 1335.74 653.43 1336 653.58 1336.23 653.76 1336.44 653.97 1336.62 654.2 1336.77 654.46 1336.89 654.72 1336.98 655.01 1337.03 655.3 1337.05 655.59 1337.05 661.7 1337.03 661.99 1336.98 662.28 1336.89 662.57 1336.77 662.83 1336.62 663.09 1336.44 663.32 1336.23 663.53 1336 663.71 1335.74 663.86 1335.48 663.98 1335.19 664.07 1334.9 664.12 1334.61 664.14 M 1334.61 664.15 1332.16 664.15 M 1344.24 664.15 1347.3 664.15 1347.3 653.15 M 1347.3 658.03 1344.24 658.03 1343.9 658.05 1343.56 658.11 1343.23 658.2 1342.91 658.33 1342.61 658.5 1342.33 658.7 1342.08 658.93 1341.85 659.18 1341.65 659.46 1341.48 659.76 1341.35 660.08 1341.26 660.41 1341.2 660.75 1341.18 661.09 1341.2 661.43 1341.26 661.77 1341.35 662.1 1341.48 662.42 1341.65 662.72 1341.85 663 1342.08 663.25 1342.33 663.48 1342.61 663.68 1342.91 663.85 1343.23 663.98 1343.56 664.07 1343.9 664.13 1344.24 664.15" fill="none" stroke-width="1"/><path d="M 1282.44 638.47 1254.88 626.66 1262.76 622.72 M 1254.88 626.66 1258.82 634.54" fill="none" stroke-width="3.15"/><path d="M 1243.07 575.48 1203.7 575.48 M 1085.59 575.2 1085.59 575.48 M 1085.59 575.2 1046.93 575.2 M 1046.22 575.48 1046.22 536.11 M 1046.22 299.89 1046.22 260.52 1085.59 260.52 M 1203.7 260.52 1243.07 260.52" fill="none" stroke-width="12"/></g><g id="N-Gu1IWNseYV4nU45Lsc_bottom_drill1"><use xlink:href="#GoYKpdtIwiThz3m3eXSU_pad-1" x="1077.7" y="343.2"/><use xlink:href="#GoYKpdtIwiThz3m3eXSU_pad-1" x="1077.7" y="492.8"/><use xlink:href="#GoYKpdtIwiThz3m3eXSU_pad-2" x="989.3" y="504.6"/><use xlink:href="#GoYKpdtIwiThz3m3eXSU_pad-2" x="989.3" y="331.4"/><use xlink:href="#GoYKpdtIwiThz3m3eXSU_pad-3" x="389.3" y="218"/><use xlink:href="#GoYKpdtIwiThz3m3eXSU_pad-3" x="389.3" y="318"/><use xlink:href="#GoYKpdtIwiThz3m3eXSU_pad-3" x="389.3" y="418"/><use xlink:href="#GoYKpdtIwiThz3m3eXSU_pad-3" x="389.3" y="518"/><use xlink:href="#GoYKpdtIwiThz3m3eXSU_pad-3" x="389.3" y="618"/><use xlink:href="#GoYKpdtIwiThz3m3eXSU_pad-3" x="739.3" y="618"/><use xlink:href="#GoYKpdtIwiThz3m3eXSU_pad-3" x="739.3" y="718"/><use xlink:href="#GoYKpdtIwiThz3m3eXSU_pad-3" x="739.3" y="218"/><use xlink:href="#GoYKpdtIwiThz3m3eXSU_pad-3" x="639.3" y="218"/><use xlink:href="#GoYKpdtIwiThz3m3eXSU_pad-3" x="539.3" y="218"/></g><clipPath id="N-Gu1IWNseYV4nU45Lsc_bottom_outline"><path d="M 239.33 118 239.33 718 239.36 720.42 239.45 722.83 239.59 725.24 239.8 727.65 240.06 730.05 240.38 732.45 240.76 734.84 241.19 737.21 241.69 739.58 242.24 741.93 242.84 744.27 243.51 746.59 244.22 748.9 245 751.19 245.83 753.46 246.71 755.71 247.65 757.94 248.64 760.14 249.69 762.32 250.78 764.47 251.93 766.6 253.13 768.7 254.38 770.76 255.68 772.8 257.03 774.81 258.43 776.78 259.87 778.72 261.36 780.62 262.9 782.48 264.48 784.31 266.1 786.1 267.77 787.85 269.48 789.56 271.23 791.23 273.02 792.85 274.85 794.43 276.71 795.97 278.61 797.46 280.55 798.9 282.52 800.3 284.53 801.65 286.57 802.95 288.63 804.2 290.73 805.4 292.86 806.55 295.01 807.64 297.19 808.69 299.39 809.68 301.62 810.62 303.87 811.5 306.14 812.33 308.43 813.11 310.74 813.82 313.06 814.49 315.4 815.09 317.75 815.64 320.12 816.14 322.49 816.57 324.88 816.95 327.28 817.27 329.68 817.53 332.09 817.74 334.5 817.88 336.91 817.97 339.33 818 1139.33 818 1141.75 817.97 1144.16 817.88 1146.57 817.74 1148.98 817.53 1151.38 817.27 1153.78 816.95 1156.17 816.57 1158.54 816.14 1160.91 815.64 1163.26 815.09 1165.6 814.49 1167.92 813.82 1170.23 813.11 1172.52 812.33 1174.79 811.5 1177.04 810.62 1179.27 809.68 1181.47 808.69 1183.65 807.64 1185.8 806.55 1187.93 805.4 1190.03 804.2 1192.09 802.95 1194.13 801.65 1196.14 800.3 1198.11 798.9 1200.05 797.46 1201.95 795.97 1203.81 794.43 1205.64 792.85 1207.43 791.23 1209.18 789.56 1210.89 787.85 1212.56 786.1 1214.18 784.31 1215.76 782.48 1217.3 780.62 1218.79 778.72 1220.23 776.78 1221.63 774.81 1222.98 772.8 1224.28 770.76 1225.53 768.7 1226.73 766.6 1227.88 764.47 1228.97 762.32 1230.02 760.14 1231.01 757.94 1231.95 755.71 1232.83 753.46 1233.66 751.19 1234.44 748.9 1235.15 746.59 1235.82 744.27 1236.42 741.93 1236.97 739.58 1237.47 737.21 1237.9 734.84 1238.28 732.45 1238.6 730.05 1238.86 727.65 1239.07 725.24 1239.21 722.83 1239.3 720.42 1239.33 718 1239.33 118 1239.3 115.58 1239.21 113.17 1239.07 110.76 1238.86 108.35 1238.6 105.95 1238.28 103.55 1237.9 101.16 1237.47 98.79 1236.97 96.42 1236.42 94.07 1235.82 91.73 1235.15 89.41 1234.44 87.1 1233.66 84.81 1232.83 82.54 1231.95 80.29 1231.01 78.06 1230.02 75.86 1228.97 73.68 1227.88 71.53 1226.73 69.4 1225.53 67.3 1224.28 65.24 1222.98 63.2 1221.63 61.19 1220.23 59.22 1218.79 57.28 1217.3 55.38 1215.76 53.52 1214.18 51.69 1212.56 49.9 1210.89 48.15 1209.18 46.44 1207.43 44.77 1205.64 43.15 1203.81 41.57 1201.95 40.03 1200.05 38.54 1198.11 37.1 1196.14 35.7 1194.13 34.35 1192.09 33.05 1190.03 31.8 1187.93 30.6 1185.8 29.45 1183.65 28.36 1181.47 27.31 1179.27 26.32 1177.04 25.38 1174.79 24.5 1172.52 23.67 1170.23 22.89 1167.92 22.18 1165.6 21.51 1163.26 20.91 1160.91 20.36 1158.54 19.86 1156.17 19.43 1153.78 19.05 1151.38 18.73 1148.98 18.47 1146.57 18.26 1144.16 18.12 1141.75 18.03 1139.33 18 339.33 18 336.91 18.03 334.5 18.12 332.09 18.26 329.68 18.47 327.28 18.73 324.88 19.05 322.49 19.43 320.12 19.86 317.75 20.36 315.4 20.91 313.06 21.51 310.74 22.18 308.43 22.89 306.14 23.67 303.87 24.5 301.62 25.38 299.39 26.32 297.19 27.31 295.01 28.36 292.86 29.45 290.73 30.6 288.63 31.8 286.57 33.05 284.53 34.35 282.52 35.7 280.55 37.1 278.61 38.54 276.71 40.03 274.85 41.57 273.02 43.15 271.23 44.77 269.48 46.44 267.77 48.15 266.1 49.9 264.48 51.69 262.9 53.52 261.36 55.38 259.87 57.28 258.43 59.22 257.03 61.19 255.68 63.2 254.38 65.24 253.13 67.3 251.93 69.4 250.78 71.53 249.69 73.68 248.64 75.86 247.65 78.06 246.71 80.29 245.83 82.54 245 84.81 244.22 87.1 243.51 89.41 242.84 91.73 242.24 94.07 241.69 96.42 241.19 98.79 240.76 101.16 240.38 103.55 240.06 105.95 239.8 108.35 239.59 110.76 239.45 113.17 239.36 115.58 239.33 118 M 971.61 331.39 971.63 332.23 971.69 333.06 971.79 333.89 971.93 334.72 972.1 335.54 972.32 336.35 972.57 337.14 972.86 337.93 973.19 338.7 973.55 339.45 973.95 340.19 974.38 340.91 974.85 341.6 975.35 342.27 975.88 342.92 976.44 343.54 977.02 344.14 977.64 344.71 978.28 345.24 978.95 345.75 979.64 346.22 980.35 346.67 981.08 347.07 981.83 347.44 982.6 347.78 983.38 348.08 984.17 348.34 984.98 348.57 985.8 348.75 986.62 348.9 987.45 349.01 988.28 349.08 989.12 349.11 989.96 349.1 990.79 349.05 991.63 348.96 992.45 348.83 993.27 348.67 994.08 348.46 994.89 348.22 995.67 347.94 996.45 347.62 997.21 347.26 997.95 346.87 998.67 346.45 999.37 345.99 1000.05 345.5 1000.7 344.98 1001.33 344.43 1001.93 343.85 1002.51 343.24 1003.05 342.6 1003.57 341.94 1004.05 341.26 1004.5 340.55 1004.91 339.82 1005.3 339.08 1005.64 338.32 1005.95 337.54 1006.22 336.75 1006.46 335.94 1006.65 335.13 1006.81 334.31 1006.93 333.48 1007.01 332.64 1007.05 331.81 1007.05 330.97 1007.01 330.14 1006.93 329.3 1006.81 328.47 1006.65 327.65 1006.46 326.84 1006.22 326.03 1005.95 325.24 1005.64 324.46 1005.3 323.7 1004.91 322.96 1004.5 322.23 1004.05 321.52 1003.57 320.84 1003.05 320.18 1002.51 319.54 1001.93 318.93 1001.33 318.35 1000.7 317.8 1000.05 317.28 999.37 316.79 998.67 316.33 997.95 315.91 997.21 315.52 996.45 315.16 995.67 314.84 994.89 314.56 994.08 314.32 993.27 314.11 992.45 313.95 991.63 313.82 990.79 313.73 989.96 313.68 989.12 313.67 988.28 313.7 987.45 313.77 986.62 313.88 985.8 314.03 984.98 314.21 984.17 314.44 983.38 314.7 982.6 315 981.83 315.34 981.08 315.71 980.35 316.11 979.64 316.56 978.95 317.03 978.28 317.54 977.64 318.07 977.02 318.64 976.44 319.24 975.88 319.86 975.35 320.51 974.85 321.18 974.38 321.87 973.95 322.59 973.55 323.33 973.19 324.08 972.86 324.85 972.57 325.64 972.32 326.43 972.1 327.24 971.93 328.06 971.79 328.89 971.69 329.72 971.63 330.55 971.61 331.39 M 1060.99 343.2 1061.01 344.01 1061.07 344.83 1061.17 345.64 1061.31 346.44 1061.48 347.23 1061.7 348.02 1061.95 348.79 1062.24 349.56 1062.57 350.3 1062.94 351.03 1063.33 351.74 1063.77 352.43 1064.23 353.1 1064.73 353.74 1065.26 354.36 1065.82 354.96 1066.4 355.52 1067.02 356.06 1067.66 356.57 1068.32 357.04 1069 357.48 1069.71 357.89 1070.43 358.26 1071.18 358.6 1071.93 358.9 1072.71 359.16 1073.49 359.39 1074.28 359.57 1075.08 359.72 1075.89 359.83 1076.7 359.9 1077.52 359.93 1078.33 359.92 1079.14 359.87 1079.95 359.78 1080.76 359.65 1081.56 359.48 1082.34 359.28 1083.12 359.03 1083.89 358.75 1084.64 358.43 1085.37 358.08 1086.08 357.69 1086.78 357.26 1087.45 356.81 1088.11 356.32 1088.73 355.8 1089.33 355.24 1089.9 354.66 1090.45 354.06 1090.96 353.42 1091.44 352.77 1091.89 352.09 1092.31 351.39 1092.69 350.67 1093.04 349.93 1093.35 349.18 1093.62 348.41 1093.85 347.63 1094.05 346.84 1094.21 346.04 1094.33 345.23 1094.41 344.42 1094.45 343.61 1094.45 342.79 1094.41 341.98 1094.33 341.17 1094.21 340.36 1094.05 339.56 1093.85 338.77 1093.62 337.99 1093.35 337.22 1093.04 336.47 1092.69 335.73 1092.31 335.01 1091.89 334.31 1091.44 333.63 1090.96 332.98 1090.45 332.34 1089.9 331.74 1089.33 331.16 1088.73 330.6 1088.11 330.08 1087.45 329.59 1086.78 329.14 1086.09 328.71 1085.37 328.32 1084.64 327.97 1083.89 327.65 1083.12 327.37 1082.34 327.12 1081.56 326.92 1080.76 326.75 1079.95 326.62 1079.14 326.53 1078.33 326.48 1077.52 326.47 1076.7 326.5 1075.89 326.57 1075.08 326.68 1074.28 326.83 1073.49 327.01 1072.71 327.24 1071.93 327.5 1071.18 327.8 1070.43 328.14 1069.71 328.51 1069 328.92 1068.32 329.36 1067.66 329.83 1067.02 330.34 1066.4 330.88 1065.82 331.44 1065.26 332.04 1064.73 332.66 1064.23 333.3 1063.77 333.97 1063.33 334.66 1062.94 335.37 1062.57 336.1 1062.24 336.84 1061.95 337.61 1061.7 338.38 1061.48 339.17 1061.31 339.96 1061.17 340.76 1061.07 341.57 1061.01 342.39 1060.99 343.2 M 1060.99 492.8 1061.01 493.61 1061.07 494.43 1061.17 495.24 1061.31 496.04 1061.48 496.83 1061.7 497.62 1061.95 498.39 1062.24 499.16 1062.57 499.9 1062.94 500.63 1063.33 501.34 1063.77 502.03 1064.23 502.7 1064.73 503.34 1065.26 503.96 1065.82 504.56 1066.4 505.12 1067.02 505.66 1067.66 506.17 1068.32 506.64 1069 507.08 1069.71 507.49 1070.43 507.86 1071.18 508.2 1071.93 508.5 1072.71 508.76 1073.49 508.99 1074.28 509.17 1075.08 509.32 1075.89 509.43 1076.7 509.5 1077.52 509.53 1078.33 509.52 1079.14 509.47 1079.95 509.38 1080.76 509.25 1081.56 509.08 1082.34 508.88 1083.12 508.63 1083.89 508.35 1084.64 508.03 1085.37 507.68 1086.08 507.29 1086.78 506.86 1087.45 506.41 1088.11 505.92 1088.73 505.4 1089.33 504.84 1089.9 504.26 1090.45 503.66 1090.96 503.02 1091.44 502.37 1091.89 501.69 1092.31 500.99 1092.69 500.27 1093.04 499.53 1093.35 498.78 1093.62 498.01 1093.85 497.23 1094.05 496.44 1094.21 495.64 1094.33 494.83 1094.41 494.02 1094.45 493.21 1094.45 492.39 1094.41 491.58 1094.33 490.77 1094.21 489.96 1094.05 489.16 1093.85 488.37 1093.62 487.59 1093.35 486.82 1093.04 486.07 1092.69 485.33 1092.31 484.61 1091.89 483.91 1091.44 483.23 1090.96 482.58 1090.45 481.94 1089.9 481.34 1089.33 480.76 1088.73 480.2 1088.11 479.68 1087.45 479.19 1086.78 478.74 1086.09 478.31 1085.37 477.92 1084.64 477.57 1083.89 477.25 1083.12 476.97 1082.34 476.72 1081.56 476.52 1080.76 476.35 1079.95 476.22 1079.14 476.13 1078.33 476.08 1077.52 476.07 1076.7 476.1 1075.89 476.17 1075.08 476.28 1074.28 476.43 1073.49 476.61 1072.71 476.84 1071.93 477.1 1071.18 477.4 1070.43 477.74 1069.71 478.11 1069 478.52 1068.32 478.96 1067.66 479.43 1067.02 479.94 1066.4 480.48 1065.82 481.04 1065.26 481.64 1064.73 482.26 1064.23 482.9 1063.77 483.57 1063.33 484.26 1062.94 484.97 1062.57 485.7 1062.24 486.44 1061.95 487.21 1061.7 487.98 1061.48 488.77 1061.31 489.56 1061.17 490.36 1061.07 491.17 1061.01 491.99 1060.99 492.8 M 971.61 504.61 971.63 505.45 971.69 506.28 971.79 507.11 971.93 507.94 972.1 508.76 972.32 509.57 972.57 510.36 972.86 511.15 973.19 511.92 973.55 512.67 973.95 513.41 974.38 514.13 974.85 514.82 975.35 515.49 975.88 516.14 976.44 516.76 977.02 517.36 977.64 517.93 978.28 518.46 978.95 518.97 979.64 519.44 980.35 519.89 981.08 520.29 981.83 520.66 982.6 521 983.38 521.3 984.17 521.56 984.98 521.79 985.8 521.97 986.62 522.12 987.45 522.23 988.28 522.3 989.12 522.33 989.96 522.32 990.79 522.27 991.63 522.18 992.45 522.05 993.27 521.89 994.08 521.68 994.89 521.44 995.67 521.16 996.45 520.84 997.21 520.48 997.95 520.09 998.67 519.67 999.37 519.21 1000.05 518.72 1000.7 518.2 1001.33 517.65 1001.93 517.07 1002.51 516.46 1003.05 515.82 1003.57 515.16 1004.05 514.48 1004.5 513.77 1004.91 513.04 1005.3 512.3 1005.64 511.54 1005.95 510.76 1006.22 509.97 1006.46 509.16 1006.65 508.35 1006.81 507.53 1006.93 506.7 1007.01 505.86 1007.05 505.03 1007.05 504.19 1007.01 503.36 1006.93 502.52 1006.81 501.69 1006.65 500.87 1006.46 500.06 1006.22 499.25 1005.95 498.46 1005.64 497.68 1005.3 496.92 1004.91 496.18 1004.5 495.45 1004.05 494.74 1003.57 494.06 1003.05 493.4 1002.51 492.76 1001.93 492.15 1001.33 491.57 1000.7 491.02 1000.05 490.5 999.37 490.01 998.67 489.55 997.95 489.13 997.21 488.74 996.45 488.38 995.67 488.06 994.89 487.78 994.08 487.54 993.27 487.33 992.45 487.17 991.63 487.04 990.79 486.95 989.96 486.9 989.12 486.89 988.28 486.92 987.45 486.99 986.62 487.1 985.8 487.25 984.98 487.43 984.17 487.66 983.38 487.92 982.6 488.22 981.83 488.56 981.08 488.93 980.35 489.33 979.64 489.78 978.95 490.25 978.28 490.76 977.64 491.29 977.02 491.86 976.44 492.46 975.88 493.08 975.35 493.73 974.85 494.4 974.38 495.09 973.95 495.81 973.55 496.55 973.19 497.3 972.86 498.07 972.57 498.86 972.32 499.65 972.1 500.46 971.93 501.28 971.79 502.11 971.69 502.94 971.63 503.77 971.61 504.61" fill="none" stroke-width="0"/></clipPath><mask id="N-Gu1IWNseYV4nU45Lsc_bottom_mech-mask"><g fill="#000" stroke="#000"><rect x="239.33" y="18" width="1000" height="800" fill="#fff"/><use xlink:href="#N-Gu1IWNseYV4nU45Lsc_bottom_drill1"/></g></mask><mask id="N-Gu1IWNseYV4nU45Lsc_bottom_cf-mask"><g fill="#fff" stroke="#fff"><use xlink:href="#N-Gu1IWNseYV4nU45Lsc_bottom_soldermask"/></g></mask><mask id="N-Gu1IWNseYV4nU45Lsc_bottom_sm-mask"><g fill="#000" stroke="#000"><rect x="239.33" y="18" width="1000" height="800" fill="#fff"/><use xlink:href="#N-Gu1IWNseYV4nU45Lsc_bottom_soldermask"/></g></mask></defs><g transform="translate(0,836) scale(1,-1)"><g mask="url(#N-Gu1IWNseYV4nU45Lsc_bottom_mech-mask)" clip-path="url(#N-Gu1IWNseYV4nU45Lsc_bottom_outline)" transform="translate(1478.6599999999999,0) scale(-1,1)"><rect x="239.33" y="18" width="1000" height="800" fill="currentColor" class="N-Gu1IWNseYV4nU45Lsc_fr4"/><use xlink:href="#N-Gu1IWNseYV4nU45Lsc_bottom_copper" fill="currentColor" stroke="currentColor" class="N-Gu1IWNseYV4nU45Lsc_cu"/><use xlink:href="#N-Gu1IWNseYV4nU45Lsc_bottom_copper" fill="currentColor" stroke="currentColor" class="N-Gu1IWNseYV4nU45Lsc_cf" mask="url(#N-Gu1IWNseYV4nU45Lsc_bottom_cf-mask)"/><g mask="url(#N-Gu1IWNseYV4nU45Lsc_bottom_sm-mask)"><rect x="239.33" y="18" width="1000" height="800" fill="currentColor" class="N-Gu1IWNseYV4nU45Lsc_sm"/><use xlink:href="#N-Gu1IWNseYV4nU45Lsc_bottom_silkscreen" fill="currentColor" stroke="currentColor" class="N-Gu1IWNseYV4nU45Lsc_ss"/></g></g></g></svg>